M48
; DRILL file {KiCad 9.0.7} date 2026-04-17T22:08:22+0200
; FORMAT={-:-/ absolute / metric / decimal}
; #@! TF.CreationDate,2026-04-17T22:08:22+02:00
; #@! TF.GenerationSoftware,Kicad,Pcbnew,9.0.7
; #@! TF.FileFunction,Plated,1,4,PTH
FMAT,2
METRIC
; #@! TA.AperFunction,Plated,PTH,ViaDrill
T1C0.300
; #@! TA.AperFunction,Plated,PTH,ComponentDrill
T2C0.950
; #@! TA.AperFunction,Plated,PTH,ComponentDrill
T3C1.000
; #@! TA.AperFunction,Plated,PTH,ComponentDrill
T4C3.200
%
G90
G05
T1
X116.44Y-87.29
X120.345Y-72.625
X122.19Y-75.03
X122.19Y-93.62
X123.17Y-75.03
X123.17Y-85.8
X123.18Y-66.4
X123.47Y-63.11
X123.85Y-74.43
X123.85Y-86.48
X125.16Y-97.38
X125.16Y-98.19
X126.46Y-75.45
X126.49Y-81.46
X126.5Y-100.17
X126.53Y-78.34
X126.7Y-94.06
X127.27Y-87.57
X128.08Y-85.001
X128.081Y-90.03
X128.081Y-96.78
X128.09Y-70.59
X128.88Y-85.001
X128.881Y-90.03
X128.881Y-96.78
X130.23Y-78.34
X130.54Y-76.91
X130.87Y-75.18
X132.9Y-72.04
X134.71Y-87.57
X134.89Y-83.21
X135.0Y-67.78
X135.83Y-116.34
X136.22Y-63.32
X136.22Y-85.0
X136.76Y-117.61
X136.76Y-128.79
X137.13Y-63.33
X137.13Y-78.09
X137.45Y-90.68
X137.6Y-84.58
X137.75Y-57.37
X138.02Y-63.27
X138.02Y-78.13
X138.6Y-56.65
X138.75Y-63.74
X138.75Y-77.06
X138.75Y-86.81
X139.49Y-75.53
X139.529Y-84.93
X139.665Y-92.965
X140.1Y-68.06
X140.151Y-74.97
X140.151Y-86.649
X140.9Y-75.93
X141.61Y-73.531
X141.68Y-55.67
X141.964Y-86.242
X142.0Y-93.55
X142.21Y-75.14
X142.65Y-85.83
X142.81Y-74.5
X143.41Y-73.94
X143.95Y-90.68
X144.01Y-73.14
X144.11Y-85.84
X144.6Y-92.73
X145.12Y-72.96
X146.55Y-101.1
X146.58Y-104.91
X147.16Y-82.47
X147.92Y-92.13
X147.92Y-94.54
X148.28Y-78.73
X148.84Y-92.13
X148.84Y-94.51
X150.21Y-91.94
X151.09Y-73.94
X151.62Y-76.36
X151.72Y-82.17
X152.463Y-81.16
X153.28Y-69.85
X153.74Y-81.29
X154.36Y-74.32
X154.68Y-80.26
X154.93Y-99.19
X154.96Y-75.17
X155.56Y-75.875
X156.08Y-82.15
X156.19Y-89.31
X156.29Y-95.63
X156.76Y-68.46
X157.85Y-75.875
X161.2Y-78.19
X161.2Y-88.96
X161.2Y-99.74
X168.23Y-105.35
T2
X116.38Y-71.17
X116.38Y-73.67
X116.38Y-76.17
X116.6Y-108.79
X116.6Y-111.29
X116.6Y-113.79
X116.6Y-116.29
X116.6Y-118.79
X116.6Y-121.29
X145.08Y-47.48
X147.58Y-47.48
X150.08Y-47.48
X152.58Y-47.48
X155.08Y-47.48
X157.58Y-47.48
X165.405Y-108.79
X165.405Y-111.29
X165.405Y-113.79
X165.405Y-116.29
X165.405Y-118.79
X165.405Y-121.29
T3
X115.94Y-60.79
X116.38Y-52.52
X116.38Y-55.02
X118.48Y-60.79
X121.02Y-60.79
X124.065Y-54.13
X126.605Y-54.13
X129.145Y-54.13
X131.685Y-54.13
X134.225Y-54.13
X136.765Y-54.13
T4
X115.0Y-46.0
X115.0Y-128.0
X167.0Y-46.0
X167.0Y-128.0
M30
