%TF.GenerationSoftware,KiCad,Pcbnew,9.0.7*%
%TF.CreationDate,2026-04-17T22:07:09+02:00*%
%TF.ProjectId,PAMI_TEAM_SCRAT_FINAL_V2,50414d49-5f54-4454-914d-5f5343524154,rev?*%
%TF.SameCoordinates,Original*%
%TF.FileFunction,Copper,L3,Inr*%
%TF.FilePolarity,Positive*%
%FSLAX46Y46*%
G04 Gerber Fmt 4.6, Leading zero omitted, Abs format (unit mm)*
G04 Created by KiCad (PCBNEW 9.0.7) date 2026-04-17 22:07:09*
%MOMM*%
%LPD*%
G01*
G04 APERTURE LIST*
G04 Aperture macros list*
%AMRoundRect*
0 Rectangle with rounded corners*
0 $1 Rounding radius*
0 $2 $3 $4 $5 $6 $7 $8 $9 X,Y pos of 4 corners*
0 Add a 4 corners polygon primitive as box body*
4,1,4,$2,$3,$4,$5,$6,$7,$8,$9,$2,$3,0*
0 Add four circle primitives for the rounded corners*
1,1,$1+$1,$2,$3*
1,1,$1+$1,$4,$5*
1,1,$1+$1,$6,$7*
1,1,$1+$1,$8,$9*
0 Add four rect primitives between the rounded corners*
20,1,$1+$1,$2,$3,$4,$5,0*
20,1,$1+$1,$4,$5,$6,$7,0*
20,1,$1+$1,$6,$7,$8,$9,0*
20,1,$1+$1,$8,$9,$2,$3,0*%
G04 Aperture macros list end*
%TA.AperFunction,ComponentPad*%
%ADD10C,5.600000*%
%TD*%
%TA.AperFunction,ComponentPad*%
%ADD11RoundRect,0.250000X-0.725000X0.600000X-0.725000X-0.600000X0.725000X-0.600000X0.725000X0.600000X0*%
%TD*%
%TA.AperFunction,ComponentPad*%
%ADD12O,1.950000X1.700000*%
%TD*%
%TA.AperFunction,ComponentPad*%
%ADD13RoundRect,0.250000X-0.750000X0.600000X-0.750000X-0.600000X0.750000X-0.600000X0.750000X0.600000X0*%
%TD*%
%TA.AperFunction,ComponentPad*%
%ADD14O,2.000000X1.700000*%
%TD*%
%TA.AperFunction,ComponentPad*%
%ADD15R,1.500000X2.300000*%
%TD*%
%TA.AperFunction,ComponentPad*%
%ADD16O,1.500000X2.300000*%
%TD*%
%TA.AperFunction,ComponentPad*%
%ADD17RoundRect,0.250000X0.600000X0.725000X-0.600000X0.725000X-0.600000X-0.725000X0.600000X-0.725000X0*%
%TD*%
%TA.AperFunction,ComponentPad*%
%ADD18O,1.700000X1.950000*%
%TD*%
%TA.AperFunction,ComponentPad*%
%ADD19RoundRect,0.250000X0.725000X-0.600000X0.725000X0.600000X-0.725000X0.600000X-0.725000X-0.600000X0*%
%TD*%
%TA.AperFunction,ComponentPad*%
%ADD20R,1.700000X1.700000*%
%TD*%
%TA.AperFunction,ComponentPad*%
%ADD21C,1.700000*%
%TD*%
%TA.AperFunction,ViaPad*%
%ADD22C,0.600000*%
%TD*%
G04 APERTURE END LIST*
D10*
%TO.N,GND*%
%TO.C,H2*%
X115000000Y-128000000D03*
%TD*%
%TO.N,GND*%
%TO.C,H3*%
X167000000Y-128000000D03*
%TD*%
D11*
%TO.N,GND*%
%TO.C,J6*%
X116380000Y-71170000D03*
D12*
%TO.N,+7.5V*%
X116380000Y-73670000D03*
%TO.N,XL320*%
X116380000Y-76170000D03*
%TD*%
D13*
%TO.N,GND*%
%TO.C,J1*%
X116380000Y-52520000D03*
D14*
%TO.N,+7.5V*%
X116380000Y-55020000D03*
%TD*%
D10*
%TO.N,GND*%
%TO.C,H1*%
X115000000Y-46000000D03*
%TD*%
D15*
%TO.N,+7.5V*%
%TO.C,U3*%
X121020000Y-60790000D03*
D16*
%TO.N,GND*%
X118480000Y-60790000D03*
%TO.N,+5V*%
X115940000Y-60790000D03*
%TD*%
D17*
%TO.N,GND*%
%TO.C,J3*%
X157580000Y-47480000D03*
D18*
%TO.N,SPI_CS*%
X155080000Y-47480000D03*
%TO.N,SPI_MOSI*%
X152580000Y-47480000D03*
%TO.N,SPI_MISO*%
X150080000Y-47480000D03*
%TO.N,SPI_SCK*%
X147580000Y-47480000D03*
%TO.N,+3.3V*%
X145080000Y-47480000D03*
%TD*%
D19*
%TO.N,/B_O1*%
%TO.C,J4*%
X165405000Y-121290000D03*
D12*
%TO.N,GND*%
X165405000Y-118790000D03*
%TO.N,B_ENC1*%
X165405000Y-116290000D03*
%TO.N,B_ENC2*%
X165405000Y-113790000D03*
%TO.N,+3.3V*%
X165405000Y-111290000D03*
%TO.N,/B_O2*%
X165405000Y-108790000D03*
%TD*%
D20*
%TO.N,+3.3V*%
%TO.C,J2*%
X136765000Y-54130000D03*
D21*
%TO.N,GND*%
X134225000Y-54130000D03*
%TO.N,I2C_SCL*%
X131685000Y-54130000D03*
%TO.N,I2C_SDA*%
X129145000Y-54130000D03*
%TO.N,GPIO*%
X126605000Y-54130000D03*
%TO.N,XST*%
X124065000Y-54130000D03*
%TD*%
D11*
%TO.N,/A_O1*%
%TO.C,J5*%
X116600000Y-108790000D03*
D12*
%TO.N,GND*%
X116600000Y-111290000D03*
%TO.N,A_ENC1*%
X116600000Y-113790000D03*
%TO.N,A_ENC2*%
X116600000Y-116290000D03*
%TO.N,+3.3V*%
X116600000Y-118790000D03*
%TO.N,/A_O2*%
X116600000Y-121290000D03*
%TD*%
D10*
%TO.N,GND*%
%TO.C,H4*%
X167000000Y-46000000D03*
%TD*%
D22*
%TO.N,*%
X127270000Y-87570000D03*
X134710000Y-87570000D03*
X126460000Y-75450000D03*
X156760000Y-68460000D03*
X126490000Y-81460000D03*
X156080000Y-82150000D03*
X128090000Y-70590000D03*
X126700000Y-94060000D03*
X156190000Y-89310000D03*
X154930000Y-99190000D03*
X126500000Y-100170000D03*
X156290000Y-95630000D03*
%TO.N,GND*%
X151090000Y-73940000D03*
X153280000Y-69850000D03*
X130870000Y-75180000D03*
X132900000Y-72040000D03*
X140100000Y-68060000D03*
%TO.N,BTN1*%
X153740000Y-81290000D03*
X154360000Y-74320000D03*
%TO.N,BTN2*%
X154960000Y-75170000D03*
X154680000Y-80260000D03*
%TO.N,BTN3*%
X155560000Y-75875000D03*
X157850000Y-75875000D03*
%TO.N,+3.3V*%
X116440000Y-87290000D03*
X123180000Y-66400000D03*
X130540000Y-76910000D03*
X135830000Y-116340000D03*
X139665000Y-92965000D03*
X161200000Y-99740000D03*
X147160000Y-82470000D03*
X161200000Y-78190000D03*
X161200000Y-88960000D03*
X135000000Y-67780000D03*
X145120000Y-72960000D03*
X134890000Y-83210000D03*
%TO.N,+7.5V*%
X120345000Y-72625000D03*
X143950000Y-90680000D03*
X137450000Y-90680000D03*
%TO.N,+5V*%
X123470000Y-63110000D03*
%TO.N,I2C_SDA*%
X142210000Y-75140000D03*
%TO.N,I2C_SCL*%
X142810000Y-74500000D03*
%TO.N,GPIO*%
X144010000Y-73140000D03*
X138600000Y-56650000D03*
%TO.N,XST*%
X143410000Y-73940000D03*
X137750000Y-57370000D03*
%TO.N,SPI_CS*%
X141680000Y-55670000D03*
X136220000Y-63320000D03*
X136220000Y-85000000D03*
%TO.N,SPI_MOSI*%
X138750000Y-63740000D03*
X138750000Y-77060000D03*
%TO.N,SPI_SCK*%
X137130000Y-78090000D03*
X137130000Y-63330000D03*
%TO.N,SPI_MISO*%
X138020000Y-63270000D03*
X138020000Y-78130000D03*
%TO.N,/MCU STM32/NRST*%
X122190000Y-75030000D03*
X136760000Y-128790000D03*
X122190000Y-93620000D03*
X136760000Y-117610000D03*
%TO.N,A_ENC2*%
X123850000Y-74430000D03*
X123850000Y-86480000D03*
%TO.N,A_ENC1*%
X123170000Y-75030000D03*
X123170000Y-85800000D03*
%TO.N,B_ENC2*%
X139528527Y-84930000D03*
X148840000Y-92130000D03*
X148840000Y-94510000D03*
%TO.N,B_ENC1*%
X147920000Y-94540000D03*
X137600000Y-84580000D03*
X147920000Y-92130000D03*
%TO.N,XL320*%
X130230000Y-78340000D03*
X126530000Y-78340000D03*
%TO.N,A_IN2*%
X139490000Y-75530000D03*
X138750000Y-86810000D03*
%TO.N,Net-(D4-DIN)*%
X151620235Y-76360000D03*
X152462500Y-81160000D03*
%TO.N,B_IN1*%
X141964003Y-86241598D03*
X140900000Y-75930000D03*
%TO.N,A_IN1*%
X140151000Y-74970000D03*
X140151000Y-86649000D03*
%TO.N,B_IN2*%
X141610000Y-73530881D03*
X142650000Y-85830000D03*
%TO.N,/A_O2*%
X125160000Y-98190000D03*
%TO.N,/A_O1*%
X125160000Y-97380000D03*
%TO.N,/B_O1*%
X144600000Y-92730000D03*
X168230000Y-105350000D03*
%TO.N,/B_O2*%
X142000000Y-93550000D03*
%TO.N,/MCU STM32/UART_TX*%
X128080999Y-90030000D03*
X146580000Y-104910000D03*
X128080999Y-96780000D03*
X128079997Y-85001000D03*
%TO.N,/MCU STM32/SWO*%
X148280000Y-78730000D03*
X151720000Y-82170000D03*
%TO.N,/MCU STM32/SWDIO*%
X144110000Y-85840000D03*
X150210000Y-91940000D03*
%TO.N,/MCU STM32/UART_RX*%
X128881002Y-96780000D03*
X128881002Y-90030000D03*
X146550000Y-101100000D03*
X128880000Y-85001000D03*
%TD*%
%TA.AperFunction,Conductor*%
%TO.N,+3.3V*%
G36*
X167003032Y-42300648D02*
G01*
X167356532Y-42318015D01*
X167368640Y-42319208D01*
X167477576Y-42335367D01*
X167715717Y-42370692D01*
X167727635Y-42373062D01*
X168068008Y-42458321D01*
X168079646Y-42461852D01*
X168409996Y-42580054D01*
X168421237Y-42584710D01*
X168646857Y-42691419D01*
X168738433Y-42734731D01*
X168749150Y-42740459D01*
X169050102Y-42920843D01*
X169060217Y-42927601D01*
X169342049Y-43136622D01*
X169351455Y-43144342D01*
X169611436Y-43379974D01*
X169620025Y-43388563D01*
X169781782Y-43567035D01*
X169855657Y-43648544D01*
X169863377Y-43657950D01*
X170072396Y-43939779D01*
X170079156Y-43949897D01*
X170248231Y-44231982D01*
X170259533Y-44250837D01*
X170265270Y-44261570D01*
X170415289Y-44578762D01*
X170419945Y-44590003D01*
X170538147Y-44920353D01*
X170541680Y-44931998D01*
X170626934Y-45272351D01*
X170629308Y-45284287D01*
X170680791Y-45631359D01*
X170681984Y-45643468D01*
X170699351Y-45996966D01*
X170699500Y-46003051D01*
X170699500Y-127996948D01*
X170699351Y-128003033D01*
X170681984Y-128356531D01*
X170680791Y-128368640D01*
X170629308Y-128715712D01*
X170626934Y-128727648D01*
X170541680Y-129068001D01*
X170538147Y-129079646D01*
X170419945Y-129409996D01*
X170415289Y-129421237D01*
X170265270Y-129738429D01*
X170259533Y-129749162D01*
X170079156Y-130050102D01*
X170072396Y-130060220D01*
X169863377Y-130342049D01*
X169855657Y-130351455D01*
X169620033Y-130611428D01*
X169611428Y-130620033D01*
X169351455Y-130855657D01*
X169342049Y-130863377D01*
X169060220Y-131072396D01*
X169050102Y-131079156D01*
X168749162Y-131259533D01*
X168738429Y-131265270D01*
X168421237Y-131415289D01*
X168409996Y-131419945D01*
X168079646Y-131538147D01*
X168068001Y-131541680D01*
X167727648Y-131626934D01*
X167715712Y-131629308D01*
X167368640Y-131680791D01*
X167356531Y-131681984D01*
X167023016Y-131698369D01*
X167003031Y-131699351D01*
X166996949Y-131699500D01*
X115003051Y-131699500D01*
X114996968Y-131699351D01*
X114975811Y-131698311D01*
X114643468Y-131681984D01*
X114631359Y-131680791D01*
X114284287Y-131629308D01*
X114272351Y-131626934D01*
X113931998Y-131541680D01*
X113920353Y-131538147D01*
X113590003Y-131419945D01*
X113578762Y-131415289D01*
X113261570Y-131265270D01*
X113250842Y-131259535D01*
X112949897Y-131079156D01*
X112939779Y-131072396D01*
X112657950Y-130863377D01*
X112648544Y-130855657D01*
X112448199Y-130674076D01*
X112388563Y-130620025D01*
X112379974Y-130611436D01*
X112144342Y-130351455D01*
X112136622Y-130342049D01*
X111927603Y-130060220D01*
X111920843Y-130050102D01*
X111740459Y-129749150D01*
X111734729Y-129738429D01*
X111584710Y-129421237D01*
X111580054Y-129409996D01*
X111461852Y-129079646D01*
X111458319Y-129068001D01*
X111441909Y-129002488D01*
X111373062Y-128727635D01*
X111370691Y-128715712D01*
X111365661Y-128681805D01*
X111319208Y-128368640D01*
X111318015Y-128356530D01*
X111300649Y-128003032D01*
X111300500Y-127996948D01*
X111300500Y-127828681D01*
X111949500Y-127828681D01*
X111949500Y-128171318D01*
X111987858Y-128511768D01*
X111987861Y-128511782D01*
X112064102Y-128845816D01*
X112064103Y-128845818D01*
X112177264Y-129169216D01*
X112325922Y-129477907D01*
X112325924Y-129477910D01*
X112508211Y-129768018D01*
X112721834Y-130035893D01*
X112964107Y-130278166D01*
X113231982Y-130491789D01*
X113522090Y-130674076D01*
X113830785Y-130822736D01*
X114154183Y-130935897D01*
X114488217Y-131012139D01*
X114488226Y-131012140D01*
X114488231Y-131012141D01*
X114715197Y-131037713D01*
X114828682Y-131050499D01*
X114828685Y-131050500D01*
X114828688Y-131050500D01*
X115171315Y-131050500D01*
X115171316Y-131050499D01*
X115345311Y-131030895D01*
X115511768Y-131012141D01*
X115511771Y-131012140D01*
X115511783Y-131012139D01*
X115845817Y-130935897D01*
X116169215Y-130822736D01*
X116477910Y-130674076D01*
X116768018Y-130491789D01*
X117035893Y-130278166D01*
X117278166Y-130035893D01*
X117491789Y-129768018D01*
X117674076Y-129477910D01*
X117822736Y-129169215D01*
X117935897Y-128845817D01*
X117965179Y-128717525D01*
X136209500Y-128717525D01*
X136209500Y-128862475D01*
X136242506Y-128985654D01*
X136247017Y-129002488D01*
X136319488Y-129128011D01*
X136319490Y-129128013D01*
X136319491Y-129128015D01*
X136421985Y-129230509D01*
X136421986Y-129230510D01*
X136421988Y-129230511D01*
X136547511Y-129302982D01*
X136547512Y-129302982D01*
X136547515Y-129302984D01*
X136687525Y-129340500D01*
X136687528Y-129340500D01*
X136832472Y-129340500D01*
X136832475Y-129340500D01*
X136972485Y-129302984D01*
X137098015Y-129230509D01*
X137200509Y-129128015D01*
X137272984Y-129002485D01*
X137310500Y-128862475D01*
X137310500Y-128717525D01*
X137272984Y-128577515D01*
X137235033Y-128511783D01*
X137200511Y-128451988D01*
X137200506Y-128451982D01*
X137098017Y-128349493D01*
X137098011Y-128349488D01*
X136972488Y-128277017D01*
X136972489Y-128277017D01*
X136961006Y-128273940D01*
X136832475Y-128239500D01*
X136687525Y-128239500D01*
X136558993Y-128273940D01*
X136547511Y-128277017D01*
X136421988Y-128349488D01*
X136421982Y-128349493D01*
X136319493Y-128451982D01*
X136319488Y-128451988D01*
X136247017Y-128577511D01*
X136247016Y-128577515D01*
X136209500Y-128717525D01*
X117965179Y-128717525D01*
X118012139Y-128511783D01*
X118018877Y-128451985D01*
X118050499Y-128171318D01*
X118050500Y-128171314D01*
X118050500Y-127828685D01*
X118050499Y-127828681D01*
X163949500Y-127828681D01*
X163949500Y-128171318D01*
X163987858Y-128511768D01*
X163987861Y-128511782D01*
X164064102Y-128845816D01*
X164064103Y-128845818D01*
X164177264Y-129169216D01*
X164325922Y-129477907D01*
X164325924Y-129477910D01*
X164508211Y-129768018D01*
X164721834Y-130035893D01*
X164964107Y-130278166D01*
X165231982Y-130491789D01*
X165522090Y-130674076D01*
X165830785Y-130822736D01*
X166154183Y-130935897D01*
X166488217Y-131012139D01*
X166488226Y-131012140D01*
X166488231Y-131012141D01*
X166715197Y-131037713D01*
X166828682Y-131050499D01*
X166828685Y-131050500D01*
X166828688Y-131050500D01*
X167171315Y-131050500D01*
X167171316Y-131050499D01*
X167345311Y-131030895D01*
X167511768Y-131012141D01*
X167511771Y-131012140D01*
X167511783Y-131012139D01*
X167845817Y-130935897D01*
X168169215Y-130822736D01*
X168477910Y-130674076D01*
X168768018Y-130491789D01*
X169035893Y-130278166D01*
X169278166Y-130035893D01*
X169491789Y-129768018D01*
X169674076Y-129477910D01*
X169822736Y-129169215D01*
X169935897Y-128845817D01*
X170012139Y-128511783D01*
X170018877Y-128451985D01*
X170050499Y-128171318D01*
X170050500Y-128171314D01*
X170050500Y-127828685D01*
X170050499Y-127828681D01*
X170012141Y-127488231D01*
X170012140Y-127488226D01*
X170012139Y-127488217D01*
X169935897Y-127154183D01*
X169822736Y-126830785D01*
X169674076Y-126522090D01*
X169491789Y-126231982D01*
X169278166Y-125964107D01*
X169035893Y-125721834D01*
X168768018Y-125508211D01*
X168477910Y-125325924D01*
X168477907Y-125325922D01*
X168169216Y-125177264D01*
X167845818Y-125064103D01*
X167845816Y-125064102D01*
X167588024Y-125005262D01*
X167511783Y-124987861D01*
X167511780Y-124987860D01*
X167511768Y-124987858D01*
X167171318Y-124949500D01*
X167171312Y-124949500D01*
X166828688Y-124949500D01*
X166828681Y-124949500D01*
X166488231Y-124987858D01*
X166488217Y-124987861D01*
X166154183Y-125064102D01*
X166154181Y-125064103D01*
X165830783Y-125177264D01*
X165522092Y-125325922D01*
X165231983Y-125508210D01*
X164964107Y-125721833D01*
X164721833Y-125964107D01*
X164508210Y-126231983D01*
X164325922Y-126522092D01*
X164177264Y-126830783D01*
X164064103Y-127154181D01*
X164064102Y-127154183D01*
X163987861Y-127488217D01*
X163987858Y-127488231D01*
X163949500Y-127828681D01*
X118050499Y-127828681D01*
X118012141Y-127488231D01*
X118012140Y-127488226D01*
X118012139Y-127488217D01*
X117935897Y-127154183D01*
X117822736Y-126830785D01*
X117674076Y-126522090D01*
X117491789Y-126231982D01*
X117278166Y-125964107D01*
X117035893Y-125721834D01*
X116768018Y-125508211D01*
X116477910Y-125325924D01*
X116477907Y-125325922D01*
X116169216Y-125177264D01*
X115845818Y-125064103D01*
X115845816Y-125064102D01*
X115588024Y-125005262D01*
X115511783Y-124987861D01*
X115511780Y-124987860D01*
X115511768Y-124987858D01*
X115171318Y-124949500D01*
X115171312Y-124949500D01*
X114828688Y-124949500D01*
X114828681Y-124949500D01*
X114488231Y-124987858D01*
X114488217Y-124987861D01*
X114154183Y-125064102D01*
X114154181Y-125064103D01*
X113830783Y-125177264D01*
X113522092Y-125325922D01*
X113231983Y-125508210D01*
X112964107Y-125721833D01*
X112721833Y-125964107D01*
X112508210Y-126231983D01*
X112325922Y-126522092D01*
X112177264Y-126830783D01*
X112064103Y-127154181D01*
X112064102Y-127154183D01*
X111987861Y-127488217D01*
X111987858Y-127488231D01*
X111949500Y-127828681D01*
X111300500Y-127828681D01*
X111300500Y-121203389D01*
X115374500Y-121203389D01*
X115374500Y-121376611D01*
X115401598Y-121547701D01*
X115455127Y-121712445D01*
X115533768Y-121866788D01*
X115635586Y-122006928D01*
X115758072Y-122129414D01*
X115898212Y-122231232D01*
X116052555Y-122309873D01*
X116217299Y-122363402D01*
X116388389Y-122390500D01*
X116388390Y-122390500D01*
X116811610Y-122390500D01*
X116811611Y-122390500D01*
X116982701Y-122363402D01*
X117147445Y-122309873D01*
X117301788Y-122231232D01*
X117441928Y-122129414D01*
X117564414Y-122006928D01*
X117666232Y-121866788D01*
X117744873Y-121712445D01*
X117798402Y-121547701D01*
X117825500Y-121376611D01*
X117825500Y-121203389D01*
X117798402Y-121032299D01*
X117744873Y-120867555D01*
X117666232Y-120713212D01*
X117666230Y-120713209D01*
X117666229Y-120713207D01*
X117665130Y-120711693D01*
X117665128Y-120711692D01*
X117614591Y-120642135D01*
X164179500Y-120642135D01*
X164179500Y-121937870D01*
X164179501Y-121937876D01*
X164185908Y-121997483D01*
X164236202Y-122132328D01*
X164236206Y-122132335D01*
X164322452Y-122247544D01*
X164322455Y-122247547D01*
X164437664Y-122333793D01*
X164437671Y-122333797D01*
X164572517Y-122384091D01*
X164572516Y-122384091D01*
X164579444Y-122384835D01*
X164632127Y-122390500D01*
X166177872Y-122390499D01*
X166237483Y-122384091D01*
X166372331Y-122333796D01*
X166487546Y-122247546D01*
X166573796Y-122132331D01*
X166624091Y-121997483D01*
X166630500Y-121937873D01*
X166630499Y-120642128D01*
X166624091Y-120582517D01*
X166620568Y-120573072D01*
X166573797Y-120447671D01*
X166573793Y-120447664D01*
X166487547Y-120332455D01*
X166487544Y-120332452D01*
X166372335Y-120246206D01*
X166372328Y-120246202D01*
X166237482Y-120195908D01*
X166237483Y-120195908D01*
X166177883Y-120189501D01*
X166177881Y-120189500D01*
X166177873Y-120189500D01*
X166177864Y-120189500D01*
X164632129Y-120189500D01*
X164632123Y-120189501D01*
X164572516Y-120195908D01*
X164437671Y-120246202D01*
X164437664Y-120246206D01*
X164322455Y-120332452D01*
X164322452Y-120332455D01*
X164236206Y-120447664D01*
X164236202Y-120447671D01*
X164185908Y-120582517D01*
X164179501Y-120642116D01*
X164179501Y-120642123D01*
X164179500Y-120642135D01*
X117614591Y-120642135D01*
X117614586Y-120642128D01*
X117564414Y-120573072D01*
X117441928Y-120450586D01*
X117301788Y-120348768D01*
X117147445Y-120270127D01*
X116982701Y-120216598D01*
X116982699Y-120216597D01*
X116982698Y-120216597D01*
X116851271Y-120195781D01*
X116811611Y-120189500D01*
X116388389Y-120189500D01*
X116348728Y-120195781D01*
X116217302Y-120216597D01*
X116052552Y-120270128D01*
X115898211Y-120348768D01*
X115818256Y-120406859D01*
X115758072Y-120450586D01*
X115758070Y-120450588D01*
X115758069Y-120450588D01*
X115635588Y-120573069D01*
X115635588Y-120573070D01*
X115635586Y-120573072D01*
X115628725Y-120582516D01*
X115533768Y-120713211D01*
X115455128Y-120867552D01*
X115401597Y-121032302D01*
X115374500Y-121203389D01*
X111300500Y-121203389D01*
X111300500Y-118703389D01*
X164179500Y-118703389D01*
X164179500Y-118876611D01*
X164206598Y-119047701D01*
X164260127Y-119212445D01*
X164338768Y-119366788D01*
X164440586Y-119506928D01*
X164563072Y-119629414D01*
X164703212Y-119731232D01*
X164857555Y-119809873D01*
X165022299Y-119863402D01*
X165193389Y-119890500D01*
X165193390Y-119890500D01*
X165616610Y-119890500D01*
X165616611Y-119890500D01*
X165787701Y-119863402D01*
X165952445Y-119809873D01*
X166106788Y-119731232D01*
X166246928Y-119629414D01*
X166369414Y-119506928D01*
X166471232Y-119366788D01*
X166549873Y-119212445D01*
X166603402Y-119047701D01*
X166630500Y-118876611D01*
X166630500Y-118703389D01*
X166603402Y-118532299D01*
X166549873Y-118367555D01*
X166471232Y-118213212D01*
X166369414Y-118073072D01*
X166246928Y-117950586D01*
X166106788Y-117848768D01*
X165952445Y-117770127D01*
X165787701Y-117716598D01*
X165787699Y-117716597D01*
X165787698Y-117716597D01*
X165656271Y-117695781D01*
X165616611Y-117689500D01*
X165193389Y-117689500D01*
X165153728Y-117695781D01*
X165022302Y-117716597D01*
X164857552Y-117770128D01*
X164703211Y-117848768D01*
X164623256Y-117906859D01*
X164563072Y-117950586D01*
X164563070Y-117950588D01*
X164563069Y-117950588D01*
X164440588Y-118073069D01*
X164440588Y-118073070D01*
X164440586Y-118073072D01*
X164404324Y-118122982D01*
X164338768Y-118213211D01*
X164260128Y-118367552D01*
X164206597Y-118532302D01*
X164179500Y-118703389D01*
X111300500Y-118703389D01*
X111300500Y-117537525D01*
X136209500Y-117537525D01*
X136209500Y-117682475D01*
X136232987Y-117770127D01*
X136247017Y-117822488D01*
X136319488Y-117948011D01*
X136319490Y-117948013D01*
X136319491Y-117948015D01*
X136421985Y-118050509D01*
X136421986Y-118050510D01*
X136421988Y-118050511D01*
X136547511Y-118122982D01*
X136547512Y-118122982D01*
X136547515Y-118122984D01*
X136687525Y-118160500D01*
X136687528Y-118160500D01*
X136832472Y-118160500D01*
X136832475Y-118160500D01*
X136972485Y-118122984D01*
X137098015Y-118050509D01*
X137200509Y-117948015D01*
X137272984Y-117822485D01*
X137310500Y-117682475D01*
X137310500Y-117537525D01*
X137272984Y-117397515D01*
X137200509Y-117271985D01*
X137098015Y-117169491D01*
X137098013Y-117169490D01*
X137098011Y-117169488D01*
X136972488Y-117097017D01*
X136972489Y-117097017D01*
X136961006Y-117093940D01*
X136832475Y-117059500D01*
X136687525Y-117059500D01*
X136558993Y-117093940D01*
X136547511Y-117097017D01*
X136421988Y-117169488D01*
X136421982Y-117169493D01*
X136319493Y-117271982D01*
X136319488Y-117271988D01*
X136247017Y-117397511D01*
X136247016Y-117397515D01*
X136209500Y-117537525D01*
X111300500Y-117537525D01*
X111300500Y-116203389D01*
X115374500Y-116203389D01*
X115374500Y-116376611D01*
X115401598Y-116547701D01*
X115455127Y-116712445D01*
X115533768Y-116866788D01*
X115635586Y-117006928D01*
X115758072Y-117129414D01*
X115898212Y-117231232D01*
X116052555Y-117309873D01*
X116217299Y-117363402D01*
X116388389Y-117390500D01*
X116388390Y-117390500D01*
X116811610Y-117390500D01*
X116811611Y-117390500D01*
X116982701Y-117363402D01*
X117147445Y-117309873D01*
X117301788Y-117231232D01*
X117441928Y-117129414D01*
X117564414Y-117006928D01*
X117666232Y-116866788D01*
X117744873Y-116712445D01*
X117798402Y-116547701D01*
X117825500Y-116376611D01*
X117825500Y-116203389D01*
X164179500Y-116203389D01*
X164179500Y-116376611D01*
X164206598Y-116547701D01*
X164260127Y-116712445D01*
X164338768Y-116866788D01*
X164440586Y-117006928D01*
X164563072Y-117129414D01*
X164703212Y-117231232D01*
X164857555Y-117309873D01*
X165022299Y-117363402D01*
X165193389Y-117390500D01*
X165193390Y-117390500D01*
X165616610Y-117390500D01*
X165616611Y-117390500D01*
X165787701Y-117363402D01*
X165952445Y-117309873D01*
X166106788Y-117231232D01*
X166246928Y-117129414D01*
X166369414Y-117006928D01*
X166471232Y-116866788D01*
X166549873Y-116712445D01*
X166603402Y-116547701D01*
X166630500Y-116376611D01*
X166630500Y-116203389D01*
X166603402Y-116032299D01*
X166549873Y-115867555D01*
X166471232Y-115713212D01*
X166369414Y-115573072D01*
X166246928Y-115450586D01*
X166106788Y-115348768D01*
X165952445Y-115270127D01*
X165787701Y-115216598D01*
X165787699Y-115216597D01*
X165787698Y-115216597D01*
X165656271Y-115195781D01*
X165616611Y-115189500D01*
X165193389Y-115189500D01*
X165153728Y-115195781D01*
X165022302Y-115216597D01*
X164857552Y-115270128D01*
X164703211Y-115348768D01*
X164623256Y-115406859D01*
X164563072Y-115450586D01*
X164563070Y-115450588D01*
X164563069Y-115450588D01*
X164440588Y-115573069D01*
X164440588Y-115573070D01*
X164440586Y-115573072D01*
X164396859Y-115633256D01*
X164338768Y-115713211D01*
X164260128Y-115867552D01*
X164206597Y-116032302D01*
X164179500Y-116203389D01*
X117825500Y-116203389D01*
X117798402Y-116032299D01*
X117744873Y-115867555D01*
X117666232Y-115713212D01*
X117564414Y-115573072D01*
X117441928Y-115450586D01*
X117301788Y-115348768D01*
X117147445Y-115270127D01*
X116982701Y-115216598D01*
X116982699Y-115216597D01*
X116982698Y-115216597D01*
X116851271Y-115195781D01*
X116811611Y-115189500D01*
X116388389Y-115189500D01*
X116348728Y-115195781D01*
X116217302Y-115216597D01*
X116052552Y-115270128D01*
X115898211Y-115348768D01*
X115818256Y-115406859D01*
X115758072Y-115450586D01*
X115758070Y-115450588D01*
X115758069Y-115450588D01*
X115635588Y-115573069D01*
X115635588Y-115573070D01*
X115635586Y-115573072D01*
X115591859Y-115633256D01*
X115533768Y-115713211D01*
X115455128Y-115867552D01*
X115401597Y-116032302D01*
X115374500Y-116203389D01*
X111300500Y-116203389D01*
X111300500Y-113703389D01*
X115374500Y-113703389D01*
X115374500Y-113876611D01*
X115401598Y-114047701D01*
X115455127Y-114212445D01*
X115533768Y-114366788D01*
X115635586Y-114506928D01*
X115758072Y-114629414D01*
X115898212Y-114731232D01*
X116052555Y-114809873D01*
X116217299Y-114863402D01*
X116388389Y-114890500D01*
X116388390Y-114890500D01*
X116811610Y-114890500D01*
X116811611Y-114890500D01*
X116982701Y-114863402D01*
X117147445Y-114809873D01*
X117301788Y-114731232D01*
X117441928Y-114629414D01*
X117564414Y-114506928D01*
X117666232Y-114366788D01*
X117744873Y-114212445D01*
X117798402Y-114047701D01*
X117825500Y-113876611D01*
X117825500Y-113703389D01*
X164179500Y-113703389D01*
X164179500Y-113876611D01*
X164206598Y-114047701D01*
X164260127Y-114212445D01*
X164338768Y-114366788D01*
X164440586Y-114506928D01*
X164563072Y-114629414D01*
X164703212Y-114731232D01*
X164857555Y-114809873D01*
X165022299Y-114863402D01*
X165193389Y-114890500D01*
X165193390Y-114890500D01*
X165616610Y-114890500D01*
X165616611Y-114890500D01*
X165787701Y-114863402D01*
X165952445Y-114809873D01*
X166106788Y-114731232D01*
X166246928Y-114629414D01*
X166369414Y-114506928D01*
X166471232Y-114366788D01*
X166549873Y-114212445D01*
X166603402Y-114047701D01*
X166630500Y-113876611D01*
X166630500Y-113703389D01*
X166603402Y-113532299D01*
X166549873Y-113367555D01*
X166471232Y-113213212D01*
X166369414Y-113073072D01*
X166246928Y-112950586D01*
X166106788Y-112848768D01*
X165952445Y-112770127D01*
X165787701Y-112716598D01*
X165787699Y-112716597D01*
X165787698Y-112716597D01*
X165656271Y-112695781D01*
X165616611Y-112689500D01*
X165193389Y-112689500D01*
X165153728Y-112695781D01*
X165022302Y-112716597D01*
X164857552Y-112770128D01*
X164703211Y-112848768D01*
X164623256Y-112906859D01*
X164563072Y-112950586D01*
X164563070Y-112950588D01*
X164563069Y-112950588D01*
X164440588Y-113073069D01*
X164440588Y-113073070D01*
X164440586Y-113073072D01*
X164396859Y-113133256D01*
X164338768Y-113213211D01*
X164260128Y-113367552D01*
X164206597Y-113532302D01*
X164179500Y-113703389D01*
X117825500Y-113703389D01*
X117798402Y-113532299D01*
X117744873Y-113367555D01*
X117666232Y-113213212D01*
X117564414Y-113073072D01*
X117441928Y-112950586D01*
X117301788Y-112848768D01*
X117147445Y-112770127D01*
X116982701Y-112716598D01*
X116982699Y-112716597D01*
X116982698Y-112716597D01*
X116851271Y-112695781D01*
X116811611Y-112689500D01*
X116388389Y-112689500D01*
X116348728Y-112695781D01*
X116217302Y-112716597D01*
X116052552Y-112770128D01*
X115898211Y-112848768D01*
X115818256Y-112906859D01*
X115758072Y-112950586D01*
X115758070Y-112950588D01*
X115758069Y-112950588D01*
X115635588Y-113073069D01*
X115635588Y-113073070D01*
X115635586Y-113073072D01*
X115591859Y-113133256D01*
X115533768Y-113213211D01*
X115455128Y-113367552D01*
X115401597Y-113532302D01*
X115374500Y-113703389D01*
X111300500Y-113703389D01*
X111300500Y-111203389D01*
X115374500Y-111203389D01*
X115374500Y-111376611D01*
X115401598Y-111547701D01*
X115455127Y-111712445D01*
X115533768Y-111866788D01*
X115635586Y-112006928D01*
X115758072Y-112129414D01*
X115898212Y-112231232D01*
X116052555Y-112309873D01*
X116217299Y-112363402D01*
X116388389Y-112390500D01*
X116388390Y-112390500D01*
X116811610Y-112390500D01*
X116811611Y-112390500D01*
X116982701Y-112363402D01*
X117147445Y-112309873D01*
X117301788Y-112231232D01*
X117441928Y-112129414D01*
X117564414Y-112006928D01*
X117666232Y-111866788D01*
X117744873Y-111712445D01*
X117798402Y-111547701D01*
X117825500Y-111376611D01*
X117825500Y-111203389D01*
X117798402Y-111032299D01*
X117744873Y-110867555D01*
X117666232Y-110713212D01*
X117564414Y-110573072D01*
X117441928Y-110450586D01*
X117301788Y-110348768D01*
X117147445Y-110270127D01*
X116982701Y-110216598D01*
X116982699Y-110216597D01*
X116982698Y-110216597D01*
X116851271Y-110195781D01*
X116811611Y-110189500D01*
X116388389Y-110189500D01*
X116348728Y-110195781D01*
X116217302Y-110216597D01*
X116052552Y-110270128D01*
X115898211Y-110348768D01*
X115818256Y-110406859D01*
X115758072Y-110450586D01*
X115758070Y-110450588D01*
X115758069Y-110450588D01*
X115635588Y-110573069D01*
X115635588Y-110573070D01*
X115635586Y-110573072D01*
X115591859Y-110633256D01*
X115533768Y-110713211D01*
X115455128Y-110867552D01*
X115401597Y-111032302D01*
X115374500Y-111203389D01*
X111300500Y-111203389D01*
X111300500Y-108142135D01*
X115374500Y-108142135D01*
X115374500Y-109437870D01*
X115374501Y-109437876D01*
X115380908Y-109497483D01*
X115431202Y-109632328D01*
X115431206Y-109632335D01*
X115517452Y-109747544D01*
X115517455Y-109747547D01*
X115632664Y-109833793D01*
X115632671Y-109833797D01*
X115767517Y-109884091D01*
X115767516Y-109884091D01*
X115774444Y-109884835D01*
X115827127Y-109890500D01*
X117372872Y-109890499D01*
X117432483Y-109884091D01*
X117567331Y-109833796D01*
X117682546Y-109747546D01*
X117768796Y-109632331D01*
X117819091Y-109497483D01*
X117825500Y-109437873D01*
X117825499Y-108703389D01*
X164179500Y-108703389D01*
X164179500Y-108876611D01*
X164206598Y-109047701D01*
X164260127Y-109212445D01*
X164338768Y-109366788D01*
X164440586Y-109506928D01*
X164563072Y-109629414D01*
X164703212Y-109731232D01*
X164857555Y-109809873D01*
X165022299Y-109863402D01*
X165193389Y-109890500D01*
X165193390Y-109890500D01*
X165616610Y-109890500D01*
X165616611Y-109890500D01*
X165787701Y-109863402D01*
X165952445Y-109809873D01*
X166106788Y-109731232D01*
X166246928Y-109629414D01*
X166369414Y-109506928D01*
X166471232Y-109366788D01*
X166549873Y-109212445D01*
X166603402Y-109047701D01*
X166630500Y-108876611D01*
X166630500Y-108703389D01*
X166603402Y-108532299D01*
X166549873Y-108367555D01*
X166471232Y-108213212D01*
X166369414Y-108073072D01*
X166246928Y-107950586D01*
X166106788Y-107848768D01*
X165952445Y-107770127D01*
X165787701Y-107716598D01*
X165787699Y-107716597D01*
X165787698Y-107716597D01*
X165656271Y-107695781D01*
X165616611Y-107689500D01*
X165193389Y-107689500D01*
X165153728Y-107695781D01*
X165022302Y-107716597D01*
X164857552Y-107770128D01*
X164703211Y-107848768D01*
X164623256Y-107906859D01*
X164563072Y-107950586D01*
X164563070Y-107950588D01*
X164563069Y-107950588D01*
X164440588Y-108073069D01*
X164440588Y-108073070D01*
X164440586Y-108073072D01*
X164433725Y-108082516D01*
X164338768Y-108213211D01*
X164260128Y-108367552D01*
X164206597Y-108532302D01*
X164179500Y-108703389D01*
X117825499Y-108703389D01*
X117825499Y-108142128D01*
X117819091Y-108082517D01*
X117815568Y-108073072D01*
X117768797Y-107947671D01*
X117768793Y-107947664D01*
X117682547Y-107832455D01*
X117682544Y-107832452D01*
X117567335Y-107746206D01*
X117567328Y-107746202D01*
X117432482Y-107695908D01*
X117432483Y-107695908D01*
X117372883Y-107689501D01*
X117372881Y-107689500D01*
X117372873Y-107689500D01*
X117372864Y-107689500D01*
X115827129Y-107689500D01*
X115827123Y-107689501D01*
X115767516Y-107695908D01*
X115632671Y-107746202D01*
X115632664Y-107746206D01*
X115517455Y-107832452D01*
X115517452Y-107832455D01*
X115431206Y-107947664D01*
X115431202Y-107947671D01*
X115380908Y-108082517D01*
X115374501Y-108142116D01*
X115374501Y-108142123D01*
X115374500Y-108142135D01*
X111300500Y-108142135D01*
X111300500Y-104837525D01*
X146029500Y-104837525D01*
X146029500Y-104982475D01*
X146067016Y-105122485D01*
X146067017Y-105122488D01*
X146139488Y-105248011D01*
X146139490Y-105248013D01*
X146139491Y-105248015D01*
X146241985Y-105350509D01*
X146241986Y-105350510D01*
X146241988Y-105350511D01*
X146367511Y-105422982D01*
X146367512Y-105422982D01*
X146367515Y-105422984D01*
X146507525Y-105460500D01*
X146507528Y-105460500D01*
X146652472Y-105460500D01*
X146652475Y-105460500D01*
X146792485Y-105422984D01*
X146918015Y-105350509D01*
X146990999Y-105277525D01*
X167679500Y-105277525D01*
X167679500Y-105422475D01*
X167717016Y-105562485D01*
X167717017Y-105562488D01*
X167789488Y-105688011D01*
X167789490Y-105688013D01*
X167789491Y-105688015D01*
X167891985Y-105790509D01*
X167891986Y-105790510D01*
X167891988Y-105790511D01*
X168017511Y-105862982D01*
X168017512Y-105862982D01*
X168017515Y-105862984D01*
X168157525Y-105900500D01*
X168157528Y-105900500D01*
X168302472Y-105900500D01*
X168302475Y-105900500D01*
X168442485Y-105862984D01*
X168568015Y-105790509D01*
X168670509Y-105688015D01*
X168742984Y-105562485D01*
X168780500Y-105422475D01*
X168780500Y-105277525D01*
X168742984Y-105137515D01*
X168734306Y-105122485D01*
X168670511Y-105011988D01*
X168670506Y-105011982D01*
X168568017Y-104909493D01*
X168568011Y-104909488D01*
X168442488Y-104837017D01*
X168442489Y-104837017D01*
X168431006Y-104833940D01*
X168302475Y-104799500D01*
X168157525Y-104799500D01*
X168028993Y-104833940D01*
X168017511Y-104837017D01*
X167891988Y-104909488D01*
X167891982Y-104909493D01*
X167789493Y-105011982D01*
X167789488Y-105011988D01*
X167717017Y-105137511D01*
X167717016Y-105137515D01*
X167679500Y-105277525D01*
X146990999Y-105277525D01*
X147020509Y-105248015D01*
X147092984Y-105122485D01*
X147130500Y-104982475D01*
X147130500Y-104837525D01*
X147092984Y-104697515D01*
X147020509Y-104571985D01*
X146918015Y-104469491D01*
X146918013Y-104469490D01*
X146918011Y-104469488D01*
X146792488Y-104397017D01*
X146792489Y-104397017D01*
X146781006Y-104393940D01*
X146652475Y-104359500D01*
X146507525Y-104359500D01*
X146378993Y-104393940D01*
X146367511Y-104397017D01*
X146241988Y-104469488D01*
X146241982Y-104469493D01*
X146139493Y-104571982D01*
X146139488Y-104571988D01*
X146067017Y-104697511D01*
X146067016Y-104697515D01*
X146029500Y-104837525D01*
X111300500Y-104837525D01*
X111300500Y-101027525D01*
X145999500Y-101027525D01*
X145999500Y-101172475D01*
X146037016Y-101312485D01*
X146037017Y-101312488D01*
X146109488Y-101438011D01*
X146109490Y-101438013D01*
X146109491Y-101438015D01*
X146211985Y-101540509D01*
X146211986Y-101540510D01*
X146211988Y-101540511D01*
X146337511Y-101612982D01*
X146337512Y-101612982D01*
X146337515Y-101612984D01*
X146477525Y-101650500D01*
X146477528Y-101650500D01*
X146622472Y-101650500D01*
X146622475Y-101650500D01*
X146762485Y-101612984D01*
X146888015Y-101540509D01*
X146990509Y-101438015D01*
X147062984Y-101312485D01*
X147100500Y-101172475D01*
X147100500Y-101027525D01*
X147062984Y-100887515D01*
X146990509Y-100761985D01*
X146888015Y-100659491D01*
X146888013Y-100659490D01*
X146888011Y-100659488D01*
X146762488Y-100587017D01*
X146762489Y-100587017D01*
X146751006Y-100583940D01*
X146622475Y-100549500D01*
X146477525Y-100549500D01*
X146348993Y-100583940D01*
X146337511Y-100587017D01*
X146211988Y-100659488D01*
X146211982Y-100659493D01*
X146109493Y-100761982D01*
X146109488Y-100761988D01*
X146037017Y-100887511D01*
X146037016Y-100887515D01*
X145999500Y-101027525D01*
X111300500Y-101027525D01*
X111300500Y-100097525D01*
X125949500Y-100097525D01*
X125949500Y-100242475D01*
X125987016Y-100382485D01*
X125987017Y-100382488D01*
X126059488Y-100508011D01*
X126059490Y-100508013D01*
X126059491Y-100508015D01*
X126161985Y-100610509D01*
X126161986Y-100610510D01*
X126161988Y-100610511D01*
X126287511Y-100682982D01*
X126287512Y-100682982D01*
X126287515Y-100682984D01*
X126427525Y-100720500D01*
X126427528Y-100720500D01*
X126572472Y-100720500D01*
X126572475Y-100720500D01*
X126712485Y-100682984D01*
X126838015Y-100610509D01*
X126940509Y-100508015D01*
X127012984Y-100382485D01*
X127050500Y-100242475D01*
X127050500Y-100097525D01*
X127012984Y-99957515D01*
X126940509Y-99831985D01*
X126838015Y-99729491D01*
X126838013Y-99729490D01*
X126838011Y-99729488D01*
X126712488Y-99657017D01*
X126712489Y-99657017D01*
X126701006Y-99653940D01*
X126572475Y-99619500D01*
X126427525Y-99619500D01*
X126298993Y-99653940D01*
X126287511Y-99657017D01*
X126161988Y-99729488D01*
X126161982Y-99729493D01*
X126059493Y-99831982D01*
X126059488Y-99831988D01*
X125987017Y-99957511D01*
X125987016Y-99957515D01*
X125949500Y-100097525D01*
X111300500Y-100097525D01*
X111300500Y-99117525D01*
X154379500Y-99117525D01*
X154379500Y-99262475D01*
X154417016Y-99402485D01*
X154417017Y-99402488D01*
X154489488Y-99528011D01*
X154489490Y-99528013D01*
X154489491Y-99528015D01*
X154591985Y-99630509D01*
X154591986Y-99630510D01*
X154591988Y-99630511D01*
X154717511Y-99702982D01*
X154717512Y-99702982D01*
X154717515Y-99702984D01*
X154857525Y-99740500D01*
X154857528Y-99740500D01*
X155002472Y-99740500D01*
X155002475Y-99740500D01*
X155142485Y-99702984D01*
X155268015Y-99630509D01*
X155370509Y-99528015D01*
X155442984Y-99402485D01*
X155480500Y-99262475D01*
X155480500Y-99117525D01*
X155442984Y-98977515D01*
X155370509Y-98851985D01*
X155268015Y-98749491D01*
X155268013Y-98749490D01*
X155268011Y-98749488D01*
X155142488Y-98677017D01*
X155142489Y-98677017D01*
X155131006Y-98673940D01*
X155002475Y-98639500D01*
X154857525Y-98639500D01*
X154728993Y-98673940D01*
X154717511Y-98677017D01*
X154591988Y-98749488D01*
X154591982Y-98749493D01*
X154489493Y-98851982D01*
X154489488Y-98851988D01*
X154417017Y-98977511D01*
X154417016Y-98977515D01*
X154379500Y-99117525D01*
X111300500Y-99117525D01*
X111300500Y-97307525D01*
X124609500Y-97307525D01*
X124609500Y-97452475D01*
X124647016Y-97592485D01*
X124647017Y-97592488D01*
X124722369Y-97723000D01*
X124738842Y-97790900D01*
X124722369Y-97847000D01*
X124647017Y-97977511D01*
X124647016Y-97977515D01*
X124609500Y-98117525D01*
X124609500Y-98262475D01*
X124647016Y-98402485D01*
X124647017Y-98402488D01*
X124719488Y-98528011D01*
X124719490Y-98528013D01*
X124719491Y-98528015D01*
X124821985Y-98630509D01*
X124821986Y-98630510D01*
X124821988Y-98630511D01*
X124947511Y-98702982D01*
X124947512Y-98702982D01*
X124947515Y-98702984D01*
X125087525Y-98740500D01*
X125087528Y-98740500D01*
X125232472Y-98740500D01*
X125232475Y-98740500D01*
X125372485Y-98702984D01*
X125498015Y-98630509D01*
X125600509Y-98528015D01*
X125672984Y-98402485D01*
X125710500Y-98262475D01*
X125710500Y-98117525D01*
X125672984Y-97977515D01*
X125600509Y-97851985D01*
X125600505Y-97851981D01*
X125597630Y-97847001D01*
X125581157Y-97779101D01*
X125597630Y-97722999D01*
X125600505Y-97718018D01*
X125600509Y-97718015D01*
X125672984Y-97592485D01*
X125710500Y-97452475D01*
X125710500Y-97307525D01*
X125672984Y-97167515D01*
X125644406Y-97118017D01*
X125600511Y-97041988D01*
X125600506Y-97041982D01*
X125498017Y-96939493D01*
X125498011Y-96939488D01*
X125372488Y-96867017D01*
X125372489Y-96867017D01*
X125361006Y-96863940D01*
X125232475Y-96829500D01*
X125087525Y-96829500D01*
X124958993Y-96863940D01*
X124947511Y-96867017D01*
X124821988Y-96939488D01*
X124821982Y-96939493D01*
X124719493Y-97041982D01*
X124719488Y-97041988D01*
X124647017Y-97167511D01*
X124647016Y-97167515D01*
X124609500Y-97307525D01*
X111300500Y-97307525D01*
X111300500Y-96707525D01*
X127530499Y-96707525D01*
X127530499Y-96852475D01*
X127553816Y-96939493D01*
X127568016Y-96992488D01*
X127640487Y-97118011D01*
X127640489Y-97118013D01*
X127640490Y-97118015D01*
X127742984Y-97220509D01*
X127742985Y-97220510D01*
X127742987Y-97220511D01*
X127868510Y-97292982D01*
X127868511Y-97292982D01*
X127868514Y-97292984D01*
X128008524Y-97330500D01*
X128008527Y-97330500D01*
X128153471Y-97330500D01*
X128153474Y-97330500D01*
X128293484Y-97292984D01*
X128293486Y-97292982D01*
X128293488Y-97292982D01*
X128293489Y-97292981D01*
X128419000Y-97220516D01*
X128486899Y-97204043D01*
X128542997Y-97220514D01*
X128668517Y-97292984D01*
X128808527Y-97330500D01*
X128808530Y-97330500D01*
X128953474Y-97330500D01*
X128953477Y-97330500D01*
X129093487Y-97292984D01*
X129219017Y-97220509D01*
X129321511Y-97118015D01*
X129393986Y-96992485D01*
X129431502Y-96852475D01*
X129431502Y-96707525D01*
X129393986Y-96567515D01*
X129321511Y-96441985D01*
X129219017Y-96339491D01*
X129219015Y-96339490D01*
X129219013Y-96339488D01*
X129093490Y-96267017D01*
X129093491Y-96267017D01*
X129082008Y-96263940D01*
X128953477Y-96229500D01*
X128808527Y-96229500D01*
X128679995Y-96263940D01*
X128668513Y-96267017D01*
X128543000Y-96339482D01*
X128475099Y-96355955D01*
X128419000Y-96339482D01*
X128293487Y-96267017D01*
X128293488Y-96267017D01*
X128282005Y-96263940D01*
X128153474Y-96229500D01*
X128008524Y-96229500D01*
X127879992Y-96263940D01*
X127868510Y-96267017D01*
X127742987Y-96339488D01*
X127742981Y-96339493D01*
X127640492Y-96441982D01*
X127640487Y-96441988D01*
X127568016Y-96567511D01*
X127568015Y-96567515D01*
X127530499Y-96707525D01*
X111300500Y-96707525D01*
X111300500Y-95557525D01*
X155739500Y-95557525D01*
X155739500Y-95702475D01*
X155777016Y-95842485D01*
X155777017Y-95842488D01*
X155849488Y-95968011D01*
X155849490Y-95968013D01*
X155849491Y-95968015D01*
X155951985Y-96070509D01*
X155951986Y-96070510D01*
X155951988Y-96070511D01*
X156077511Y-96142982D01*
X156077512Y-96142982D01*
X156077515Y-96142984D01*
X156217525Y-96180500D01*
X156217528Y-96180500D01*
X156362472Y-96180500D01*
X156362475Y-96180500D01*
X156502485Y-96142984D01*
X156628015Y-96070509D01*
X156730509Y-95968015D01*
X156802984Y-95842485D01*
X156840500Y-95702475D01*
X156840500Y-95557525D01*
X156802984Y-95417515D01*
X156730509Y-95291985D01*
X156628015Y-95189491D01*
X156628013Y-95189490D01*
X156628011Y-95189488D01*
X156502488Y-95117017D01*
X156502489Y-95117017D01*
X156491006Y-95113940D01*
X156362475Y-95079500D01*
X156217525Y-95079500D01*
X156088993Y-95113940D01*
X156077511Y-95117017D01*
X155951988Y-95189488D01*
X155951982Y-95189493D01*
X155849493Y-95291982D01*
X155849488Y-95291988D01*
X155777017Y-95417511D01*
X155777016Y-95417515D01*
X155739500Y-95557525D01*
X111300500Y-95557525D01*
X111300500Y-93547525D01*
X121639500Y-93547525D01*
X121639500Y-93692475D01*
X121677016Y-93832485D01*
X121677017Y-93832488D01*
X121749488Y-93958011D01*
X121749490Y-93958013D01*
X121749491Y-93958015D01*
X121851985Y-94060509D01*
X121851986Y-94060510D01*
X121851988Y-94060511D01*
X121977511Y-94132982D01*
X121977512Y-94132982D01*
X121977515Y-94132984D01*
X122117525Y-94170500D01*
X122117528Y-94170500D01*
X122262472Y-94170500D01*
X122262475Y-94170500D01*
X122402485Y-94132984D01*
X122528015Y-94060509D01*
X122600999Y-93987525D01*
X126149500Y-93987525D01*
X126149500Y-94132475D01*
X126173152Y-94220744D01*
X126187017Y-94272488D01*
X126259488Y-94398011D01*
X126259490Y-94398013D01*
X126259491Y-94398015D01*
X126361985Y-94500509D01*
X126361986Y-94500510D01*
X126361988Y-94500511D01*
X126487511Y-94572982D01*
X126487512Y-94572982D01*
X126487515Y-94572984D01*
X126627525Y-94610500D01*
X126627528Y-94610500D01*
X126772472Y-94610500D01*
X126772475Y-94610500D01*
X126912485Y-94572984D01*
X127038015Y-94500509D01*
X127070999Y-94467525D01*
X147369500Y-94467525D01*
X147369500Y-94612475D01*
X147407016Y-94752485D01*
X147407017Y-94752488D01*
X147479488Y-94878011D01*
X147479490Y-94878013D01*
X147479491Y-94878015D01*
X147581985Y-94980509D01*
X147581986Y-94980510D01*
X147581988Y-94980511D01*
X147707511Y-95052982D01*
X147707512Y-95052982D01*
X147707515Y-95052984D01*
X147847525Y-95090500D01*
X147847528Y-95090500D01*
X147992472Y-95090500D01*
X147992475Y-95090500D01*
X148132485Y-95052984D01*
X148258015Y-94980509D01*
X148307319Y-94931205D01*
X148368642Y-94897720D01*
X148438334Y-94902704D01*
X148482681Y-94931205D01*
X148501985Y-94950509D01*
X148501986Y-94950510D01*
X148501988Y-94950511D01*
X148627511Y-95022982D01*
X148627512Y-95022982D01*
X148627515Y-95022984D01*
X148767525Y-95060500D01*
X148767528Y-95060500D01*
X148912472Y-95060500D01*
X148912475Y-95060500D01*
X149052485Y-95022984D01*
X149178015Y-94950509D01*
X149280509Y-94848015D01*
X149352984Y-94722485D01*
X149390500Y-94582475D01*
X149390500Y-94437525D01*
X149352984Y-94297515D01*
X149338533Y-94272486D01*
X149280511Y-94171988D01*
X149280506Y-94171982D01*
X149178017Y-94069493D01*
X149178011Y-94069488D01*
X149052488Y-93997017D01*
X149052489Y-93997017D01*
X149028201Y-93990509D01*
X148912475Y-93959500D01*
X148767525Y-93959500D01*
X148651799Y-93990509D01*
X148627511Y-93997017D01*
X148501988Y-94069488D01*
X148501985Y-94069491D01*
X148452679Y-94118796D01*
X148391355Y-94152280D01*
X148321663Y-94147294D01*
X148277318Y-94118794D01*
X148258017Y-94099493D01*
X148258011Y-94099488D01*
X148132488Y-94027017D01*
X148132489Y-94027017D01*
X148121006Y-94023940D01*
X147992475Y-93989500D01*
X147847525Y-93989500D01*
X147718993Y-94023940D01*
X147707511Y-94027017D01*
X147581988Y-94099488D01*
X147581982Y-94099493D01*
X147479493Y-94201982D01*
X147479488Y-94201988D01*
X147407017Y-94327511D01*
X147407016Y-94327515D01*
X147369500Y-94467525D01*
X127070999Y-94467525D01*
X127140509Y-94398015D01*
X127212984Y-94272485D01*
X127250500Y-94132475D01*
X127250500Y-93987525D01*
X127212984Y-93847515D01*
X127204306Y-93832485D01*
X127140511Y-93721988D01*
X127140506Y-93721982D01*
X127038017Y-93619493D01*
X127038015Y-93619491D01*
X126964045Y-93576784D01*
X126964044Y-93576783D01*
X126912488Y-93547017D01*
X126912489Y-93547017D01*
X126901006Y-93543940D01*
X126772475Y-93509500D01*
X126627525Y-93509500D01*
X126498993Y-93543940D01*
X126487511Y-93547017D01*
X126361988Y-93619488D01*
X126361982Y-93619493D01*
X126259493Y-93721982D01*
X126259488Y-93721988D01*
X126187017Y-93847511D01*
X126187016Y-93847515D01*
X126149500Y-93987525D01*
X122600999Y-93987525D01*
X122630509Y-93958015D01*
X122702984Y-93832485D01*
X122740500Y-93692475D01*
X122740500Y-93547525D01*
X122721743Y-93477525D01*
X141449500Y-93477525D01*
X141449500Y-93622475D01*
X141476164Y-93721985D01*
X141487017Y-93762488D01*
X141559488Y-93888011D01*
X141559490Y-93888013D01*
X141559491Y-93888015D01*
X141661985Y-93990509D01*
X141661986Y-93990510D01*
X141661988Y-93990511D01*
X141787511Y-94062982D01*
X141787512Y-94062982D01*
X141787515Y-94062984D01*
X141927525Y-94100500D01*
X141927528Y-94100500D01*
X142072472Y-94100500D01*
X142072475Y-94100500D01*
X142212485Y-94062984D01*
X142338015Y-93990509D01*
X142440509Y-93888015D01*
X142512984Y-93762485D01*
X142550500Y-93622475D01*
X142550500Y-93477525D01*
X142512984Y-93337515D01*
X142480925Y-93281988D01*
X142440511Y-93211988D01*
X142440506Y-93211982D01*
X142338017Y-93109493D01*
X142338011Y-93109488D01*
X142212488Y-93037017D01*
X142212489Y-93037017D01*
X142201006Y-93033940D01*
X142072475Y-92999500D01*
X141927525Y-92999500D01*
X141798993Y-93033940D01*
X141787511Y-93037017D01*
X141661988Y-93109488D01*
X141661982Y-93109493D01*
X141559493Y-93211982D01*
X141559488Y-93211988D01*
X141487017Y-93337511D01*
X141487016Y-93337515D01*
X141449500Y-93477525D01*
X122721743Y-93477525D01*
X122702984Y-93407515D01*
X122662569Y-93337515D01*
X122630511Y-93281988D01*
X122630506Y-93281982D01*
X122528017Y-93179493D01*
X122528011Y-93179488D01*
X122402488Y-93107017D01*
X122402489Y-93107017D01*
X122391006Y-93103940D01*
X122262475Y-93069500D01*
X122117525Y-93069500D01*
X121988993Y-93103940D01*
X121977511Y-93107017D01*
X121851988Y-93179488D01*
X121851982Y-93179493D01*
X121749493Y-93281982D01*
X121749488Y-93281988D01*
X121677017Y-93407511D01*
X121677016Y-93407515D01*
X121639500Y-93547525D01*
X111300500Y-93547525D01*
X111300500Y-92657525D01*
X144049500Y-92657525D01*
X144049500Y-92802475D01*
X144087016Y-92942485D01*
X144087017Y-92942488D01*
X144159488Y-93068011D01*
X144159490Y-93068013D01*
X144159491Y-93068015D01*
X144261985Y-93170509D01*
X144261986Y-93170510D01*
X144261988Y-93170511D01*
X144387511Y-93242982D01*
X144387512Y-93242982D01*
X144387515Y-93242984D01*
X144527525Y-93280500D01*
X144527528Y-93280500D01*
X144672472Y-93280500D01*
X144672475Y-93280500D01*
X144812485Y-93242984D01*
X144938015Y-93170509D01*
X145040509Y-93068015D01*
X145112984Y-92942485D01*
X145150500Y-92802475D01*
X145150500Y-92657525D01*
X145112984Y-92517515D01*
X145084406Y-92468017D01*
X145040511Y-92391988D01*
X145040506Y-92391982D01*
X144938017Y-92289493D01*
X144938011Y-92289488D01*
X144812488Y-92217017D01*
X144812489Y-92217017D01*
X144801006Y-92213940D01*
X144672475Y-92179500D01*
X144527525Y-92179500D01*
X144398993Y-92213940D01*
X144387511Y-92217017D01*
X144261988Y-92289488D01*
X144261982Y-92289493D01*
X144159493Y-92391982D01*
X144159488Y-92391988D01*
X144087017Y-92517511D01*
X144087016Y-92517515D01*
X144049500Y-92657525D01*
X111300500Y-92657525D01*
X111300500Y-92057525D01*
X147369500Y-92057525D01*
X147369500Y-92202475D01*
X147392817Y-92289493D01*
X147407017Y-92342488D01*
X147479488Y-92468011D01*
X147479490Y-92468013D01*
X147479491Y-92468015D01*
X147581985Y-92570509D01*
X147581986Y-92570510D01*
X147581988Y-92570511D01*
X147707511Y-92642982D01*
X147707512Y-92642982D01*
X147707515Y-92642984D01*
X147847525Y-92680500D01*
X147847528Y-92680500D01*
X147992472Y-92680500D01*
X147992475Y-92680500D01*
X148132485Y-92642984D01*
X148258015Y-92570509D01*
X148292319Y-92536205D01*
X148353642Y-92502720D01*
X148423334Y-92507704D01*
X148467681Y-92536205D01*
X148501985Y-92570509D01*
X148501986Y-92570510D01*
X148501988Y-92570511D01*
X148627511Y-92642982D01*
X148627512Y-92642982D01*
X148627515Y-92642984D01*
X148767525Y-92680500D01*
X148767528Y-92680500D01*
X148912472Y-92680500D01*
X148912475Y-92680500D01*
X149052485Y-92642984D01*
X149178015Y-92570509D01*
X149280509Y-92468015D01*
X149352984Y-92342485D01*
X149390500Y-92202475D01*
X149390500Y-92057525D01*
X149352984Y-91917515D01*
X149324122Y-91867525D01*
X149659500Y-91867525D01*
X149659500Y-92012475D01*
X149671572Y-92057527D01*
X149697017Y-92152488D01*
X149769488Y-92278011D01*
X149769490Y-92278013D01*
X149769491Y-92278015D01*
X149871985Y-92380509D01*
X149871986Y-92380510D01*
X149871988Y-92380511D01*
X149997511Y-92452982D01*
X149997512Y-92452982D01*
X149997515Y-92452984D01*
X150137525Y-92490500D01*
X150137528Y-92490500D01*
X150282472Y-92490500D01*
X150282475Y-92490500D01*
X150422485Y-92452984D01*
X150548015Y-92380509D01*
X150650509Y-92278015D01*
X150722984Y-92152485D01*
X150760500Y-92012475D01*
X150760500Y-91867525D01*
X150722984Y-91727515D01*
X150720836Y-91723795D01*
X150650511Y-91601988D01*
X150650506Y-91601982D01*
X150548017Y-91499493D01*
X150548011Y-91499488D01*
X150422488Y-91427017D01*
X150422489Y-91427017D01*
X150411006Y-91423940D01*
X150282475Y-91389500D01*
X150137525Y-91389500D01*
X150008993Y-91423940D01*
X149997511Y-91427017D01*
X149871988Y-91499488D01*
X149871982Y-91499493D01*
X149769493Y-91601982D01*
X149769488Y-91601988D01*
X149697017Y-91727511D01*
X149697016Y-91727515D01*
X149659500Y-91867525D01*
X149324122Y-91867525D01*
X149280509Y-91791985D01*
X149178015Y-91689491D01*
X149178013Y-91689490D01*
X149178011Y-91689488D01*
X149052488Y-91617017D01*
X149052489Y-91617017D01*
X149041006Y-91613940D01*
X148912475Y-91579500D01*
X148767525Y-91579500D01*
X148638993Y-91613940D01*
X148627511Y-91617017D01*
X148501988Y-91689488D01*
X148501982Y-91689493D01*
X148467681Y-91723795D01*
X148406358Y-91757280D01*
X148336666Y-91752296D01*
X148292319Y-91723795D01*
X148258017Y-91689493D01*
X148258011Y-91689488D01*
X148132488Y-91617017D01*
X148132489Y-91617017D01*
X148121006Y-91613940D01*
X147992475Y-91579500D01*
X147847525Y-91579500D01*
X147718993Y-91613940D01*
X147707511Y-91617017D01*
X147581988Y-91689488D01*
X147581982Y-91689493D01*
X147479493Y-91791982D01*
X147479488Y-91791988D01*
X147407017Y-91917511D01*
X147407016Y-91917515D01*
X147369500Y-92057525D01*
X111300500Y-92057525D01*
X111300500Y-90607525D01*
X136899500Y-90607525D01*
X136899500Y-90752475D01*
X136937016Y-90892485D01*
X136937017Y-90892488D01*
X137009488Y-91018011D01*
X137009490Y-91018013D01*
X137009491Y-91018015D01*
X137111985Y-91120509D01*
X137111986Y-91120510D01*
X137111988Y-91120511D01*
X137237511Y-91192982D01*
X137237512Y-91192982D01*
X137237515Y-91192984D01*
X137377525Y-91230500D01*
X137377528Y-91230500D01*
X137522472Y-91230500D01*
X137522475Y-91230500D01*
X137662485Y-91192984D01*
X137788015Y-91120509D01*
X137890509Y-91018015D01*
X137962984Y-90892485D01*
X138000500Y-90752475D01*
X138000500Y-90607525D01*
X143399500Y-90607525D01*
X143399500Y-90752475D01*
X143437016Y-90892485D01*
X143437017Y-90892488D01*
X143509488Y-91018011D01*
X143509490Y-91018013D01*
X143509491Y-91018015D01*
X143611985Y-91120509D01*
X143611986Y-91120510D01*
X143611988Y-91120511D01*
X143737511Y-91192982D01*
X143737512Y-91192982D01*
X143737515Y-91192984D01*
X143877525Y-91230500D01*
X143877528Y-91230500D01*
X144022472Y-91230500D01*
X144022475Y-91230500D01*
X144162485Y-91192984D01*
X144288015Y-91120509D01*
X144390509Y-91018015D01*
X144462984Y-90892485D01*
X144500500Y-90752475D01*
X144500500Y-90607525D01*
X144462984Y-90467515D01*
X144428924Y-90408522D01*
X144390511Y-90341988D01*
X144390506Y-90341982D01*
X144288017Y-90239493D01*
X144288011Y-90239488D01*
X144162488Y-90167017D01*
X144162489Y-90167017D01*
X144151006Y-90163940D01*
X144022475Y-90129500D01*
X143877525Y-90129500D01*
X143748993Y-90163940D01*
X143737511Y-90167017D01*
X143611988Y-90239488D01*
X143611982Y-90239493D01*
X143509493Y-90341982D01*
X143509488Y-90341988D01*
X143437017Y-90467511D01*
X143436214Y-90470508D01*
X143399500Y-90607525D01*
X138000500Y-90607525D01*
X137962984Y-90467515D01*
X137928924Y-90408522D01*
X137890511Y-90341988D01*
X137890506Y-90341982D01*
X137788017Y-90239493D01*
X137788011Y-90239488D01*
X137662488Y-90167017D01*
X137662489Y-90167017D01*
X137651006Y-90163940D01*
X137522475Y-90129500D01*
X137377525Y-90129500D01*
X137248993Y-90163940D01*
X137237511Y-90167017D01*
X137111988Y-90239488D01*
X137111982Y-90239493D01*
X137009493Y-90341982D01*
X137009488Y-90341988D01*
X136937017Y-90467511D01*
X136936214Y-90470508D01*
X136899500Y-90607525D01*
X111300500Y-90607525D01*
X111300500Y-89957525D01*
X127530499Y-89957525D01*
X127530499Y-90102475D01*
X127567212Y-90239488D01*
X127568016Y-90242488D01*
X127640487Y-90368011D01*
X127640489Y-90368013D01*
X127640490Y-90368015D01*
X127742984Y-90470509D01*
X127742985Y-90470510D01*
X127742987Y-90470511D01*
X127868510Y-90542982D01*
X127868511Y-90542982D01*
X127868514Y-90542984D01*
X128008524Y-90580500D01*
X128008527Y-90580500D01*
X128153471Y-90580500D01*
X128153474Y-90580500D01*
X128293484Y-90542984D01*
X128293486Y-90542982D01*
X128293488Y-90542982D01*
X128293489Y-90542981D01*
X128419000Y-90470516D01*
X128486899Y-90454043D01*
X128542997Y-90470514D01*
X128668517Y-90542984D01*
X128808527Y-90580500D01*
X128808530Y-90580500D01*
X128953474Y-90580500D01*
X128953477Y-90580500D01*
X129093487Y-90542984D01*
X129219017Y-90470509D01*
X129321511Y-90368015D01*
X129393986Y-90242485D01*
X129431502Y-90102475D01*
X129431502Y-89957525D01*
X129393986Y-89817515D01*
X129355298Y-89750506D01*
X129321513Y-89691988D01*
X129321508Y-89691982D01*
X129219019Y-89589493D01*
X129219013Y-89589488D01*
X129093490Y-89517017D01*
X129093491Y-89517017D01*
X129082008Y-89513940D01*
X128953477Y-89479500D01*
X128808527Y-89479500D01*
X128679995Y-89513940D01*
X128668513Y-89517017D01*
X128543000Y-89589482D01*
X128475099Y-89605955D01*
X128419000Y-89589482D01*
X128293487Y-89517017D01*
X128293488Y-89517017D01*
X128282005Y-89513940D01*
X128153474Y-89479500D01*
X128008524Y-89479500D01*
X127879992Y-89513940D01*
X127868510Y-89517017D01*
X127742987Y-89589488D01*
X127742981Y-89589493D01*
X127640492Y-89691982D01*
X127640487Y-89691988D01*
X127568016Y-89817511D01*
X127568015Y-89817515D01*
X127530499Y-89957525D01*
X111300500Y-89957525D01*
X111300500Y-89237525D01*
X155639500Y-89237525D01*
X155639500Y-89382475D01*
X155665498Y-89479500D01*
X155677017Y-89522488D01*
X155749488Y-89648011D01*
X155749490Y-89648013D01*
X155749491Y-89648015D01*
X155851985Y-89750509D01*
X155851986Y-89750510D01*
X155851988Y-89750511D01*
X155977511Y-89822982D01*
X155977512Y-89822982D01*
X155977515Y-89822984D01*
X156117525Y-89860500D01*
X156117528Y-89860500D01*
X156262472Y-89860500D01*
X156262475Y-89860500D01*
X156402485Y-89822984D01*
X156528015Y-89750509D01*
X156630509Y-89648015D01*
X156702984Y-89522485D01*
X156740500Y-89382475D01*
X156740500Y-89237525D01*
X156702984Y-89097515D01*
X156630509Y-88971985D01*
X156528015Y-88869491D01*
X156528013Y-88869490D01*
X156528011Y-88869488D01*
X156402488Y-88797017D01*
X156402489Y-88797017D01*
X156391006Y-88793940D01*
X156262475Y-88759500D01*
X156117525Y-88759500D01*
X155988993Y-88793940D01*
X155977511Y-88797017D01*
X155851988Y-88869488D01*
X155851982Y-88869493D01*
X155749493Y-88971982D01*
X155749488Y-88971988D01*
X155677017Y-89097511D01*
X155677016Y-89097515D01*
X155639500Y-89237525D01*
X111300500Y-89237525D01*
X111300500Y-87497525D01*
X126719500Y-87497525D01*
X126719500Y-87642475D01*
X126757016Y-87782485D01*
X126757017Y-87782488D01*
X126829488Y-87908011D01*
X126829490Y-87908013D01*
X126829491Y-87908015D01*
X126931985Y-88010509D01*
X126931986Y-88010510D01*
X126931988Y-88010511D01*
X127057511Y-88082982D01*
X127057512Y-88082982D01*
X127057515Y-88082984D01*
X127197525Y-88120500D01*
X127197528Y-88120500D01*
X127342472Y-88120500D01*
X127342475Y-88120500D01*
X127482485Y-88082984D01*
X127608015Y-88010509D01*
X127710509Y-87908015D01*
X127782984Y-87782485D01*
X127820500Y-87642475D01*
X127820500Y-87497525D01*
X134159500Y-87497525D01*
X134159500Y-87642475D01*
X134197016Y-87782485D01*
X134197017Y-87782488D01*
X134269488Y-87908011D01*
X134269490Y-87908013D01*
X134269491Y-87908015D01*
X134371985Y-88010509D01*
X134371986Y-88010510D01*
X134371988Y-88010511D01*
X134497511Y-88082982D01*
X134497512Y-88082982D01*
X134497515Y-88082984D01*
X134637525Y-88120500D01*
X134637528Y-88120500D01*
X134782472Y-88120500D01*
X134782475Y-88120500D01*
X134922485Y-88082984D01*
X135048015Y-88010509D01*
X135150509Y-87908015D01*
X135222984Y-87782485D01*
X135260500Y-87642475D01*
X135260500Y-87497525D01*
X135222984Y-87357515D01*
X135203047Y-87322984D01*
X135150511Y-87231988D01*
X135150506Y-87231982D01*
X135048017Y-87129493D01*
X135048011Y-87129488D01*
X134922488Y-87057017D01*
X134922489Y-87057017D01*
X134911006Y-87053940D01*
X134782475Y-87019500D01*
X134637525Y-87019500D01*
X134508993Y-87053940D01*
X134497511Y-87057017D01*
X134371988Y-87129488D01*
X134371982Y-87129493D01*
X134269493Y-87231982D01*
X134269488Y-87231988D01*
X134197017Y-87357511D01*
X134197016Y-87357515D01*
X134159500Y-87497525D01*
X127820500Y-87497525D01*
X127782984Y-87357515D01*
X127763047Y-87322984D01*
X127710511Y-87231988D01*
X127710506Y-87231982D01*
X127608017Y-87129493D01*
X127608011Y-87129488D01*
X127482488Y-87057017D01*
X127482489Y-87057017D01*
X127471006Y-87053940D01*
X127342475Y-87019500D01*
X127197525Y-87019500D01*
X127068993Y-87053940D01*
X127057511Y-87057017D01*
X126931988Y-87129488D01*
X126931982Y-87129493D01*
X126829493Y-87231982D01*
X126829488Y-87231988D01*
X126757017Y-87357511D01*
X126757016Y-87357515D01*
X126719500Y-87497525D01*
X111300500Y-87497525D01*
X111300500Y-85727525D01*
X122619500Y-85727525D01*
X122619500Y-85872475D01*
X122644833Y-85967017D01*
X122657017Y-86012488D01*
X122729488Y-86138011D01*
X122729490Y-86138013D01*
X122729491Y-86138015D01*
X122831985Y-86240509D01*
X122831986Y-86240510D01*
X122831988Y-86240511D01*
X122957511Y-86312982D01*
X122957512Y-86312982D01*
X122957515Y-86312984D01*
X123097525Y-86350500D01*
X123097528Y-86350500D01*
X123175500Y-86350500D01*
X123242539Y-86370185D01*
X123288294Y-86422989D01*
X123299500Y-86474500D01*
X123299500Y-86552475D01*
X123334235Y-86682107D01*
X123337017Y-86692488D01*
X123409488Y-86818011D01*
X123409490Y-86818013D01*
X123409491Y-86818015D01*
X123511985Y-86920509D01*
X123511986Y-86920510D01*
X123511988Y-86920511D01*
X123637511Y-86992982D01*
X123637512Y-86992982D01*
X123637515Y-86992984D01*
X123777525Y-87030500D01*
X123777528Y-87030500D01*
X123922472Y-87030500D01*
X123922475Y-87030500D01*
X124062485Y-86992984D01*
X124188015Y-86920509D01*
X124290509Y-86818015D01*
X124336980Y-86737525D01*
X138199500Y-86737525D01*
X138199500Y-86882475D01*
X138229111Y-86992982D01*
X138237017Y-87022488D01*
X138309488Y-87148011D01*
X138309490Y-87148013D01*
X138309491Y-87148015D01*
X138411985Y-87250509D01*
X138411986Y-87250510D01*
X138411988Y-87250511D01*
X138537511Y-87322982D01*
X138537512Y-87322982D01*
X138537515Y-87322984D01*
X138677525Y-87360500D01*
X138677528Y-87360500D01*
X138822472Y-87360500D01*
X138822475Y-87360500D01*
X138962485Y-87322984D01*
X139088015Y-87250509D01*
X139190509Y-87148015D01*
X139262984Y-87022485D01*
X139300500Y-86882475D01*
X139300500Y-86737525D01*
X139262984Y-86597515D01*
X139252649Y-86579615D01*
X139250865Y-86576525D01*
X139600500Y-86576525D01*
X139600500Y-86721475D01*
X139619424Y-86792098D01*
X139638017Y-86861488D01*
X139710488Y-86987011D01*
X139710490Y-86987013D01*
X139710491Y-86987015D01*
X139812985Y-87089509D01*
X139812986Y-87089510D01*
X139812988Y-87089511D01*
X139938511Y-87161982D01*
X139938512Y-87161982D01*
X139938515Y-87161984D01*
X140078525Y-87199500D01*
X140078528Y-87199500D01*
X140223472Y-87199500D01*
X140223475Y-87199500D01*
X140363485Y-87161984D01*
X140489015Y-87089509D01*
X140591509Y-86987015D01*
X140663984Y-86861485D01*
X140701500Y-86721475D01*
X140701500Y-86576525D01*
X140663984Y-86436515D01*
X140631689Y-86380579D01*
X140591511Y-86310988D01*
X140591506Y-86310982D01*
X140489017Y-86208493D01*
X140489011Y-86208488D01*
X140420829Y-86169123D01*
X141413503Y-86169123D01*
X141413503Y-86314073D01*
X141446311Y-86436511D01*
X141451020Y-86454086D01*
X141523491Y-86579609D01*
X141523493Y-86579611D01*
X141523494Y-86579613D01*
X141625988Y-86682107D01*
X141625989Y-86682108D01*
X141625991Y-86682109D01*
X141751514Y-86754580D01*
X141751515Y-86754580D01*
X141751518Y-86754582D01*
X141891528Y-86792098D01*
X141891531Y-86792098D01*
X142036475Y-86792098D01*
X142036478Y-86792098D01*
X142176488Y-86754582D01*
X142302018Y-86682107D01*
X142404512Y-86579613D01*
X142476987Y-86454083D01*
X142476987Y-86454082D01*
X142481051Y-86447044D01*
X142482941Y-86448135D01*
X142519596Y-86402646D01*
X142585890Y-86380579D01*
X142590320Y-86380500D01*
X142722472Y-86380500D01*
X142722475Y-86380500D01*
X142862485Y-86342984D01*
X142988015Y-86270509D01*
X143090509Y-86168015D01*
X143162984Y-86042485D01*
X143200500Y-85902475D01*
X143200500Y-85767525D01*
X143559500Y-85767525D01*
X143559500Y-85912475D01*
X143597016Y-86052485D01*
X143597017Y-86052488D01*
X143669488Y-86178011D01*
X143669490Y-86178013D01*
X143669491Y-86178015D01*
X143771985Y-86280509D01*
X143771986Y-86280510D01*
X143771988Y-86280511D01*
X143897511Y-86352982D01*
X143897512Y-86352982D01*
X143897515Y-86352984D01*
X144037525Y-86390500D01*
X144037528Y-86390500D01*
X144182472Y-86390500D01*
X144182475Y-86390500D01*
X144322485Y-86352984D01*
X144448015Y-86280509D01*
X144550509Y-86178015D01*
X144622984Y-86052485D01*
X144660500Y-85912475D01*
X144660500Y-85767525D01*
X144622984Y-85627515D01*
X144617210Y-85617515D01*
X144550511Y-85501988D01*
X144550506Y-85501982D01*
X144448017Y-85399493D01*
X144448011Y-85399488D01*
X144322488Y-85327017D01*
X144322489Y-85327017D01*
X144311006Y-85323940D01*
X144182475Y-85289500D01*
X144037525Y-85289500D01*
X143908993Y-85323940D01*
X143897511Y-85327017D01*
X143771988Y-85399488D01*
X143771982Y-85399493D01*
X143669493Y-85501982D01*
X143669488Y-85501988D01*
X143597017Y-85627511D01*
X143597016Y-85627515D01*
X143559500Y-85767525D01*
X143200500Y-85767525D01*
X143200500Y-85757525D01*
X143162984Y-85617515D01*
X143145663Y-85587515D01*
X143090511Y-85491988D01*
X143090506Y-85491982D01*
X142988017Y-85389493D01*
X142988011Y-85389488D01*
X142862488Y-85317017D01*
X142862489Y-85317017D01*
X142851006Y-85313940D01*
X142722475Y-85279500D01*
X142577525Y-85279500D01*
X142448993Y-85313940D01*
X142437511Y-85317017D01*
X142311988Y-85389488D01*
X142311982Y-85389493D01*
X142209493Y-85491982D01*
X142209488Y-85491988D01*
X142132952Y-85624553D01*
X142131063Y-85623462D01*
X142094394Y-85668959D01*
X142028099Y-85691019D01*
X142023682Y-85691098D01*
X141891528Y-85691098D01*
X141762996Y-85725538D01*
X141751514Y-85728615D01*
X141625991Y-85801086D01*
X141625985Y-85801091D01*
X141523496Y-85903580D01*
X141523491Y-85903586D01*
X141451020Y-86029109D01*
X141451019Y-86029113D01*
X141413503Y-86169123D01*
X140420829Y-86169123D01*
X140363488Y-86136017D01*
X140363489Y-86136017D01*
X140352006Y-86132940D01*
X140223475Y-86098500D01*
X140078525Y-86098500D01*
X139949993Y-86132940D01*
X139938511Y-86136017D01*
X139812988Y-86208488D01*
X139812982Y-86208493D01*
X139710493Y-86310982D01*
X139710488Y-86310988D01*
X139638017Y-86436511D01*
X139638016Y-86436515D01*
X139600500Y-86576525D01*
X139250865Y-86576525D01*
X139190511Y-86471988D01*
X139190506Y-86471982D01*
X139088017Y-86369493D01*
X139088011Y-86369488D01*
X138962488Y-86297017D01*
X138962489Y-86297017D01*
X138951006Y-86293940D01*
X138822475Y-86259500D01*
X138677525Y-86259500D01*
X138548993Y-86293940D01*
X138537511Y-86297017D01*
X138411988Y-86369488D01*
X138411982Y-86369493D01*
X138309493Y-86471982D01*
X138309488Y-86471988D01*
X138237017Y-86597511D01*
X138237016Y-86597515D01*
X138199500Y-86737525D01*
X124336980Y-86737525D01*
X124362984Y-86692485D01*
X124400500Y-86552475D01*
X124400500Y-86407525D01*
X124362984Y-86267515D01*
X124347390Y-86240506D01*
X124290511Y-86141988D01*
X124290506Y-86141982D01*
X124188017Y-86039493D01*
X124188011Y-86039488D01*
X124062488Y-85967017D01*
X124062489Y-85967017D01*
X124051006Y-85963940D01*
X123922475Y-85929500D01*
X123844500Y-85929500D01*
X123777461Y-85909815D01*
X123731706Y-85857011D01*
X123720500Y-85805500D01*
X123720500Y-85727527D01*
X123720500Y-85727525D01*
X123682984Y-85587515D01*
X123661613Y-85550500D01*
X123610511Y-85461988D01*
X123610506Y-85461982D01*
X123508017Y-85359493D01*
X123508011Y-85359488D01*
X123382488Y-85287017D01*
X123382489Y-85287017D01*
X123354435Y-85279500D01*
X123242475Y-85249500D01*
X123097525Y-85249500D01*
X122985565Y-85279500D01*
X122957511Y-85287017D01*
X122831988Y-85359488D01*
X122831982Y-85359493D01*
X122729493Y-85461982D01*
X122729488Y-85461988D01*
X122657017Y-85587511D01*
X122657016Y-85587515D01*
X122619500Y-85727525D01*
X111300500Y-85727525D01*
X111300500Y-84928525D01*
X127529497Y-84928525D01*
X127529497Y-85073475D01*
X127566745Y-85212485D01*
X127567014Y-85213488D01*
X127639485Y-85339011D01*
X127639487Y-85339013D01*
X127639488Y-85339015D01*
X127741982Y-85441509D01*
X127741983Y-85441510D01*
X127741985Y-85441511D01*
X127867508Y-85513982D01*
X127867509Y-85513982D01*
X127867512Y-85513984D01*
X128007522Y-85551500D01*
X128007525Y-85551500D01*
X128152469Y-85551500D01*
X128152472Y-85551500D01*
X128292482Y-85513984D01*
X128292484Y-85513982D01*
X128292486Y-85513982D01*
X128292487Y-85513981D01*
X128294214Y-85512984D01*
X128417998Y-85441516D01*
X128485897Y-85425043D01*
X128541995Y-85441514D01*
X128667515Y-85513984D01*
X128807525Y-85551500D01*
X128807528Y-85551500D01*
X128952472Y-85551500D01*
X128952475Y-85551500D01*
X129092485Y-85513984D01*
X129218015Y-85441509D01*
X129320509Y-85339015D01*
X129392984Y-85213485D01*
X129430500Y-85073475D01*
X129430500Y-84928525D01*
X129430232Y-84927525D01*
X135669500Y-84927525D01*
X135669500Y-85072475D01*
X135707016Y-85212485D01*
X135707017Y-85212488D01*
X135779488Y-85338011D01*
X135779490Y-85338013D01*
X135779491Y-85338015D01*
X135881985Y-85440509D01*
X135881986Y-85440510D01*
X135881988Y-85440511D01*
X136007511Y-85512982D01*
X136007512Y-85512982D01*
X136007515Y-85512984D01*
X136147525Y-85550500D01*
X136147528Y-85550500D01*
X136292472Y-85550500D01*
X136292475Y-85550500D01*
X136432485Y-85512984D01*
X136558015Y-85440509D01*
X136660509Y-85338015D01*
X136732984Y-85212485D01*
X136770500Y-85072475D01*
X136770500Y-84927525D01*
X136732984Y-84787515D01*
X136692569Y-84717515D01*
X136660511Y-84661988D01*
X136660506Y-84661982D01*
X136558017Y-84559493D01*
X136558011Y-84559488D01*
X136468009Y-84507525D01*
X137049500Y-84507525D01*
X137049500Y-84652475D01*
X137066927Y-84717511D01*
X137087017Y-84792488D01*
X137159488Y-84918011D01*
X137159490Y-84918013D01*
X137159491Y-84918015D01*
X137261985Y-85020509D01*
X137261986Y-85020510D01*
X137261988Y-85020511D01*
X137387511Y-85092982D01*
X137387512Y-85092982D01*
X137387515Y-85092984D01*
X137527525Y-85130500D01*
X137527528Y-85130500D01*
X137672472Y-85130500D01*
X137672475Y-85130500D01*
X137812485Y-85092984D01*
X137938015Y-85020509D01*
X138040509Y-84918015D01*
X138075433Y-84857525D01*
X138978027Y-84857525D01*
X138978027Y-85002475D01*
X139012332Y-85130500D01*
X139015544Y-85142488D01*
X139088015Y-85268011D01*
X139088017Y-85268013D01*
X139088018Y-85268015D01*
X139190512Y-85370509D01*
X139190513Y-85370510D01*
X139190515Y-85370511D01*
X139316038Y-85442982D01*
X139316039Y-85442982D01*
X139316042Y-85442984D01*
X139456052Y-85480500D01*
X139456055Y-85480500D01*
X139600999Y-85480500D01*
X139601002Y-85480500D01*
X139741012Y-85442984D01*
X139866542Y-85370509D01*
X139969036Y-85268015D01*
X140041511Y-85142485D01*
X140079027Y-85002475D01*
X140079027Y-84857525D01*
X140041511Y-84717515D01*
X140010026Y-84662982D01*
X139969038Y-84591988D01*
X139969033Y-84591982D01*
X139866544Y-84489493D01*
X139866538Y-84489488D01*
X139741015Y-84417017D01*
X139741016Y-84417017D01*
X139729533Y-84413940D01*
X139601002Y-84379500D01*
X139456052Y-84379500D01*
X139327520Y-84413940D01*
X139316038Y-84417017D01*
X139190515Y-84489488D01*
X139190509Y-84489493D01*
X139088020Y-84591982D01*
X139088015Y-84591988D01*
X139015544Y-84717511D01*
X139015543Y-84717515D01*
X138978027Y-84857525D01*
X138075433Y-84857525D01*
X138112984Y-84792485D01*
X138150500Y-84652475D01*
X138150500Y-84507525D01*
X138112984Y-84367515D01*
X138040509Y-84241985D01*
X137938015Y-84139491D01*
X137938013Y-84139490D01*
X137938011Y-84139488D01*
X137812488Y-84067017D01*
X137812489Y-84067017D01*
X137801006Y-84063940D01*
X137672475Y-84029500D01*
X137527525Y-84029500D01*
X137398993Y-84063940D01*
X137387511Y-84067017D01*
X137261988Y-84139488D01*
X137261982Y-84139493D01*
X137159493Y-84241982D01*
X137159488Y-84241988D01*
X137087017Y-84367511D01*
X137087016Y-84367515D01*
X137049500Y-84507525D01*
X136468009Y-84507525D01*
X136432488Y-84487017D01*
X136432489Y-84487017D01*
X136421006Y-84483940D01*
X136292475Y-84449500D01*
X136147525Y-84449500D01*
X136018993Y-84483940D01*
X136007511Y-84487017D01*
X135881988Y-84559488D01*
X135881982Y-84559493D01*
X135779493Y-84661982D01*
X135779488Y-84661988D01*
X135707017Y-84787511D01*
X135707016Y-84787515D01*
X135669500Y-84927525D01*
X129430232Y-84927525D01*
X129392984Y-84788515D01*
X129392404Y-84787511D01*
X129320511Y-84662988D01*
X129320506Y-84662982D01*
X129218017Y-84560493D01*
X129218011Y-84560488D01*
X129092488Y-84488017D01*
X129092489Y-84488017D01*
X129081006Y-84484940D01*
X128952475Y-84450500D01*
X128807525Y-84450500D01*
X128678993Y-84484940D01*
X128667511Y-84488017D01*
X128541998Y-84560482D01*
X128474097Y-84576955D01*
X128417998Y-84560482D01*
X128292485Y-84488017D01*
X128292486Y-84488017D01*
X128281003Y-84484940D01*
X128152472Y-84450500D01*
X128007522Y-84450500D01*
X127878990Y-84484940D01*
X127867508Y-84488017D01*
X127741985Y-84560488D01*
X127741979Y-84560493D01*
X127639490Y-84662982D01*
X127639485Y-84662988D01*
X127567014Y-84788511D01*
X127567013Y-84788515D01*
X127529497Y-84928525D01*
X111300500Y-84928525D01*
X111300500Y-82097525D01*
X151169500Y-82097525D01*
X151169500Y-82242475D01*
X151201657Y-82362485D01*
X151207017Y-82382488D01*
X151279488Y-82508011D01*
X151279490Y-82508013D01*
X151279491Y-82508015D01*
X151381985Y-82610509D01*
X151381986Y-82610510D01*
X151381988Y-82610511D01*
X151507511Y-82682982D01*
X151507512Y-82682982D01*
X151507515Y-82682984D01*
X151647525Y-82720500D01*
X151647528Y-82720500D01*
X151792472Y-82720500D01*
X151792475Y-82720500D01*
X151932485Y-82682984D01*
X152058015Y-82610509D01*
X152160509Y-82508015D01*
X152232984Y-82382485D01*
X152270500Y-82242475D01*
X152270500Y-82097525D01*
X152265141Y-82077525D01*
X155529500Y-82077525D01*
X155529500Y-82222475D01*
X155567016Y-82362485D01*
X155567017Y-82362488D01*
X155639488Y-82488011D01*
X155639490Y-82488013D01*
X155639491Y-82488015D01*
X155741985Y-82590509D01*
X155741986Y-82590510D01*
X155741988Y-82590511D01*
X155867511Y-82662982D01*
X155867512Y-82662982D01*
X155867515Y-82662984D01*
X156007525Y-82700500D01*
X156007528Y-82700500D01*
X156152472Y-82700500D01*
X156152475Y-82700500D01*
X156292485Y-82662984D01*
X156418015Y-82590509D01*
X156520509Y-82488015D01*
X156592984Y-82362485D01*
X156630500Y-82222475D01*
X156630500Y-82077525D01*
X156592984Y-81937515D01*
X156556756Y-81874767D01*
X156520511Y-81811988D01*
X156520506Y-81811982D01*
X156418017Y-81709493D01*
X156418011Y-81709488D01*
X156292488Y-81637017D01*
X156292489Y-81637017D01*
X156275071Y-81632350D01*
X156152475Y-81599500D01*
X156007525Y-81599500D01*
X155884929Y-81632350D01*
X155867511Y-81637017D01*
X155741988Y-81709488D01*
X155741982Y-81709493D01*
X155639493Y-81811982D01*
X155639488Y-81811988D01*
X155567017Y-81937511D01*
X155567016Y-81937515D01*
X155529500Y-82077525D01*
X152265141Y-82077525D01*
X152232984Y-81957515D01*
X152200073Y-81900511D01*
X152185210Y-81874767D01*
X152168737Y-81806867D01*
X152191590Y-81740840D01*
X152246511Y-81697649D01*
X152316064Y-81691008D01*
X152324668Y-81692987D01*
X152390025Y-81710500D01*
X152390027Y-81710500D01*
X152534972Y-81710500D01*
X152534975Y-81710500D01*
X152674985Y-81672984D01*
X152800515Y-81600509D01*
X152903009Y-81498015D01*
X152973811Y-81375381D01*
X153024377Y-81327168D01*
X153092984Y-81313944D01*
X153157848Y-81339912D01*
X153198377Y-81396826D01*
X153200972Y-81405288D01*
X153227017Y-81502489D01*
X153299488Y-81628011D01*
X153299490Y-81628013D01*
X153299491Y-81628015D01*
X153401985Y-81730509D01*
X153401986Y-81730510D01*
X153401988Y-81730511D01*
X153527511Y-81802982D01*
X153527512Y-81802982D01*
X153527515Y-81802984D01*
X153667525Y-81840500D01*
X153667528Y-81840500D01*
X153812472Y-81840500D01*
X153812475Y-81840500D01*
X153952485Y-81802984D01*
X154078015Y-81730509D01*
X154180509Y-81628015D01*
X154252984Y-81502485D01*
X154290500Y-81362475D01*
X154290500Y-81217525D01*
X154252984Y-81077515D01*
X154180509Y-80951985D01*
X154078015Y-80849491D01*
X154078013Y-80849490D01*
X154078011Y-80849488D01*
X153952488Y-80777017D01*
X153952489Y-80777017D01*
X153941006Y-80773940D01*
X153812475Y-80739500D01*
X153667525Y-80739500D01*
X153538993Y-80773940D01*
X153527511Y-80777017D01*
X153401988Y-80849488D01*
X153401982Y-80849493D01*
X153299493Y-80951982D01*
X153299491Y-80951985D01*
X153228689Y-81074617D01*
X153178121Y-81122832D01*
X153109514Y-81136054D01*
X153044650Y-81110086D01*
X153004122Y-81053172D01*
X153001531Y-81044726D01*
X152975484Y-80947515D01*
X152975196Y-80947017D01*
X152903011Y-80821988D01*
X152903006Y-80821982D01*
X152800517Y-80719493D01*
X152800511Y-80719488D01*
X152674988Y-80647017D01*
X152674989Y-80647017D01*
X152663506Y-80643940D01*
X152534975Y-80609500D01*
X152390025Y-80609500D01*
X152261493Y-80643940D01*
X152250011Y-80647017D01*
X152124488Y-80719488D01*
X152124482Y-80719493D01*
X152021993Y-80821982D01*
X152021988Y-80821988D01*
X151949517Y-80947511D01*
X151949516Y-80947515D01*
X151912000Y-81087525D01*
X151912000Y-81232475D01*
X151940788Y-81339912D01*
X151949517Y-81372488D01*
X151997289Y-81455232D01*
X152013762Y-81523133D01*
X151990909Y-81589159D01*
X151935988Y-81632350D01*
X151866434Y-81638991D01*
X151857831Y-81637012D01*
X151792475Y-81619500D01*
X151647525Y-81619500D01*
X151518993Y-81653940D01*
X151507511Y-81657017D01*
X151381988Y-81729488D01*
X151381982Y-81729493D01*
X151279493Y-81831982D01*
X151279488Y-81831988D01*
X151207017Y-81957511D01*
X151207016Y-81957515D01*
X151169500Y-82097525D01*
X111300500Y-82097525D01*
X111300500Y-81387525D01*
X125939500Y-81387525D01*
X125939500Y-81532475D01*
X125977016Y-81672485D01*
X125977017Y-81672488D01*
X126049488Y-81798011D01*
X126049490Y-81798013D01*
X126049491Y-81798015D01*
X126151985Y-81900509D01*
X126151986Y-81900510D01*
X126151988Y-81900511D01*
X126277511Y-81972982D01*
X126277512Y-81972982D01*
X126277515Y-81972984D01*
X126417525Y-82010500D01*
X126417528Y-82010500D01*
X126562472Y-82010500D01*
X126562475Y-82010500D01*
X126702485Y-81972984D01*
X126828015Y-81900509D01*
X126930509Y-81798015D01*
X127002984Y-81672485D01*
X127040500Y-81532475D01*
X127040500Y-81387525D01*
X127002984Y-81247515D01*
X126985670Y-81217527D01*
X126930511Y-81121988D01*
X126930506Y-81121982D01*
X126828017Y-81019493D01*
X126828011Y-81019488D01*
X126702488Y-80947017D01*
X126702489Y-80947017D01*
X126691006Y-80943940D01*
X126562475Y-80909500D01*
X126417525Y-80909500D01*
X126288993Y-80943940D01*
X126277511Y-80947017D01*
X126151988Y-81019488D01*
X126151982Y-81019493D01*
X126049493Y-81121982D01*
X126049488Y-81121988D01*
X125977017Y-81247511D01*
X125977016Y-81247515D01*
X125939500Y-81387525D01*
X111300500Y-81387525D01*
X111300500Y-80187525D01*
X154129500Y-80187525D01*
X154129500Y-80332475D01*
X154167016Y-80472485D01*
X154167017Y-80472488D01*
X154239488Y-80598011D01*
X154239490Y-80598013D01*
X154239491Y-80598015D01*
X154341985Y-80700509D01*
X154341986Y-80700510D01*
X154341988Y-80700511D01*
X154467511Y-80772982D01*
X154467512Y-80772982D01*
X154467515Y-80772984D01*
X154607525Y-80810500D01*
X154607528Y-80810500D01*
X154752472Y-80810500D01*
X154752475Y-80810500D01*
X154892485Y-80772984D01*
X155018015Y-80700509D01*
X155120509Y-80598015D01*
X155192984Y-80472485D01*
X155230500Y-80332475D01*
X155230500Y-80187525D01*
X155192984Y-80047515D01*
X155120509Y-79921985D01*
X155018015Y-79819491D01*
X155018013Y-79819490D01*
X155018011Y-79819488D01*
X154892488Y-79747017D01*
X154892489Y-79747017D01*
X154881006Y-79743940D01*
X154752475Y-79709500D01*
X154607525Y-79709500D01*
X154478993Y-79743940D01*
X154467511Y-79747017D01*
X154341988Y-79819488D01*
X154341982Y-79819493D01*
X154239493Y-79921982D01*
X154239488Y-79921988D01*
X154167017Y-80047511D01*
X154167016Y-80047515D01*
X154129500Y-80187525D01*
X111300500Y-80187525D01*
X111300500Y-78267525D01*
X125979500Y-78267525D01*
X125979500Y-78412475D01*
X126011128Y-78530511D01*
X126017017Y-78552488D01*
X126089488Y-78678011D01*
X126089490Y-78678013D01*
X126089491Y-78678015D01*
X126191985Y-78780509D01*
X126191986Y-78780510D01*
X126191988Y-78780511D01*
X126317511Y-78852982D01*
X126317512Y-78852982D01*
X126317515Y-78852984D01*
X126457525Y-78890500D01*
X126457528Y-78890500D01*
X126602472Y-78890500D01*
X126602475Y-78890500D01*
X126742485Y-78852984D01*
X126868015Y-78780509D01*
X126970509Y-78678015D01*
X127042984Y-78552485D01*
X127080500Y-78412475D01*
X127080500Y-78267525D01*
X129679500Y-78267525D01*
X129679500Y-78412475D01*
X129711128Y-78530511D01*
X129717017Y-78552488D01*
X129789488Y-78678011D01*
X129789490Y-78678013D01*
X129789491Y-78678015D01*
X129891985Y-78780509D01*
X129891986Y-78780510D01*
X129891988Y-78780511D01*
X130017511Y-78852982D01*
X130017512Y-78852982D01*
X130017515Y-78852984D01*
X130157525Y-78890500D01*
X130157528Y-78890500D01*
X130302472Y-78890500D01*
X130302475Y-78890500D01*
X130442485Y-78852984D01*
X130568015Y-78780509D01*
X130670509Y-78678015D01*
X130742984Y-78552485D01*
X130780500Y-78412475D01*
X130780500Y-78267525D01*
X130742984Y-78127515D01*
X130679481Y-78017525D01*
X136579500Y-78017525D01*
X136579500Y-78162475D01*
X136613534Y-78289491D01*
X136617017Y-78302488D01*
X136689488Y-78428011D01*
X136689490Y-78428013D01*
X136689491Y-78428015D01*
X136791985Y-78530509D01*
X136791986Y-78530510D01*
X136791988Y-78530511D01*
X136917511Y-78602982D01*
X136917512Y-78602982D01*
X136917515Y-78602984D01*
X137057525Y-78640500D01*
X137057528Y-78640500D01*
X137202472Y-78640500D01*
X137202475Y-78640500D01*
X137342485Y-78602984D01*
X137468015Y-78530509D01*
X137468016Y-78530507D01*
X137468019Y-78530506D01*
X137474466Y-78525560D01*
X137475409Y-78526789D01*
X137528630Y-78497722D01*
X137598322Y-78502700D01*
X137642681Y-78531205D01*
X137681985Y-78570509D01*
X137681986Y-78570510D01*
X137681988Y-78570511D01*
X137807511Y-78642982D01*
X137807512Y-78642982D01*
X137807515Y-78642984D01*
X137947525Y-78680500D01*
X137947528Y-78680500D01*
X138092472Y-78680500D01*
X138092475Y-78680500D01*
X138178218Y-78657525D01*
X147729500Y-78657525D01*
X147729500Y-78802475D01*
X147753087Y-78890500D01*
X147767017Y-78942488D01*
X147839488Y-79068011D01*
X147839490Y-79068013D01*
X147839491Y-79068015D01*
X147941985Y-79170509D01*
X147941986Y-79170510D01*
X147941988Y-79170511D01*
X148067511Y-79242982D01*
X148067512Y-79242982D01*
X148067515Y-79242984D01*
X148207525Y-79280500D01*
X148207528Y-79280500D01*
X148352472Y-79280500D01*
X148352475Y-79280500D01*
X148492485Y-79242984D01*
X148618015Y-79170509D01*
X148720509Y-79068015D01*
X148792984Y-78942485D01*
X148830500Y-78802475D01*
X148830500Y-78657525D01*
X148792984Y-78517515D01*
X148781556Y-78497722D01*
X148720511Y-78391988D01*
X148720506Y-78391982D01*
X148618017Y-78289493D01*
X148618011Y-78289488D01*
X148492488Y-78217017D01*
X148492489Y-78217017D01*
X148481006Y-78213940D01*
X148352475Y-78179500D01*
X148207525Y-78179500D01*
X148078993Y-78213940D01*
X148067511Y-78217017D01*
X147941988Y-78289488D01*
X147941982Y-78289493D01*
X147839493Y-78391982D01*
X147839488Y-78391988D01*
X147767017Y-78517511D01*
X147767016Y-78517515D01*
X147729500Y-78657525D01*
X138178218Y-78657525D01*
X138232485Y-78642984D01*
X138358015Y-78570509D01*
X138460509Y-78468015D01*
X138532984Y-78342485D01*
X138570500Y-78202475D01*
X138570500Y-78057525D01*
X138532984Y-77917515D01*
X138460509Y-77791985D01*
X138460392Y-77791868D01*
X138460326Y-77791747D01*
X138455562Y-77785539D01*
X138456530Y-77784795D01*
X138426907Y-77730545D01*
X138431891Y-77660853D01*
X138473763Y-77604920D01*
X138539227Y-77580503D01*
X138580162Y-77584411D01*
X138677525Y-77610500D01*
X138677528Y-77610500D01*
X138822472Y-77610500D01*
X138822475Y-77610500D01*
X138962485Y-77572984D01*
X139088015Y-77500509D01*
X139190509Y-77398015D01*
X139262984Y-77272485D01*
X139300500Y-77132475D01*
X139300500Y-76987525D01*
X139262984Y-76847515D01*
X139235843Y-76800506D01*
X139190511Y-76721988D01*
X139190506Y-76721982D01*
X139088017Y-76619493D01*
X139088011Y-76619488D01*
X138962488Y-76547017D01*
X138962489Y-76547017D01*
X138951006Y-76543940D01*
X138822475Y-76509500D01*
X138677525Y-76509500D01*
X138548993Y-76543940D01*
X138537511Y-76547017D01*
X138411988Y-76619488D01*
X138411982Y-76619493D01*
X138309493Y-76721982D01*
X138309488Y-76721988D01*
X138237017Y-76847511D01*
X138237016Y-76847515D01*
X138199500Y-76987525D01*
X138199500Y-77132475D01*
X138214880Y-77189873D01*
X138237017Y-77272488D01*
X138309488Y-77398011D01*
X138309493Y-77398017D01*
X138309607Y-77398131D01*
X138309671Y-77398250D01*
X138314438Y-77404461D01*
X138313469Y-77405204D01*
X138343092Y-77459454D01*
X138338108Y-77529146D01*
X138296236Y-77585079D01*
X138230772Y-77609496D01*
X138189833Y-77605587D01*
X138138490Y-77591829D01*
X138092475Y-77579500D01*
X137947525Y-77579500D01*
X137807515Y-77617016D01*
X137807513Y-77617016D01*
X137807513Y-77617017D01*
X137681978Y-77689495D01*
X137675535Y-77694440D01*
X137674595Y-77693215D01*
X137621333Y-77722284D01*
X137551642Y-77717286D01*
X137507318Y-77688794D01*
X137468017Y-77649493D01*
X137468011Y-77649488D01*
X137342488Y-77577017D01*
X137342489Y-77577017D01*
X137331006Y-77573940D01*
X137202475Y-77539500D01*
X137057525Y-77539500D01*
X136928993Y-77573940D01*
X136917511Y-77577017D01*
X136791988Y-77649488D01*
X136791982Y-77649493D01*
X136689493Y-77751982D01*
X136689488Y-77751988D01*
X136617017Y-77877511D01*
X136617016Y-77877515D01*
X136579500Y-78017525D01*
X130679481Y-78017525D01*
X130670509Y-78001985D01*
X130568015Y-77899491D01*
X130568013Y-77899490D01*
X130568011Y-77899488D01*
X130442488Y-77827017D01*
X130442489Y-77827017D01*
X130431006Y-77823940D01*
X130302475Y-77789500D01*
X130157525Y-77789500D01*
X130028993Y-77823940D01*
X130017511Y-77827017D01*
X129891988Y-77899488D01*
X129891982Y-77899493D01*
X129789493Y-78001982D01*
X129789488Y-78001988D01*
X129717017Y-78127511D01*
X129717016Y-78127515D01*
X129679500Y-78267525D01*
X127080500Y-78267525D01*
X127042984Y-78127515D01*
X127010585Y-78071399D01*
X126970511Y-78001988D01*
X126970506Y-78001982D01*
X126868017Y-77899493D01*
X126868011Y-77899488D01*
X126742488Y-77827017D01*
X126742489Y-77827017D01*
X126731006Y-77823940D01*
X126602475Y-77789500D01*
X126457525Y-77789500D01*
X126328993Y-77823940D01*
X126317511Y-77827017D01*
X126191988Y-77899488D01*
X126191982Y-77899493D01*
X126089493Y-78001982D01*
X126089488Y-78001988D01*
X126017017Y-78127511D01*
X126017016Y-78127515D01*
X125979500Y-78267525D01*
X111300500Y-78267525D01*
X111300500Y-76083389D01*
X115154500Y-76083389D01*
X115154500Y-76256610D01*
X115172539Y-76370509D01*
X115181598Y-76427701D01*
X115220366Y-76547017D01*
X115235128Y-76592447D01*
X115248909Y-76619493D01*
X115313768Y-76746788D01*
X115415586Y-76886928D01*
X115538072Y-77009414D01*
X115678212Y-77111232D01*
X115832555Y-77189873D01*
X115997299Y-77243402D01*
X116168389Y-77270500D01*
X116168390Y-77270500D01*
X116591610Y-77270500D01*
X116591611Y-77270500D01*
X116762701Y-77243402D01*
X116927445Y-77189873D01*
X117081788Y-77111232D01*
X117221928Y-77009414D01*
X117344414Y-76886928D01*
X117446232Y-76746788D01*
X117524873Y-76592445D01*
X117578402Y-76427701D01*
X117605500Y-76256611D01*
X117605500Y-76083389D01*
X117578402Y-75912299D01*
X117524873Y-75747555D01*
X117446232Y-75593212D01*
X117344414Y-75453072D01*
X117221928Y-75330586D01*
X117081788Y-75228768D01*
X116927445Y-75150127D01*
X116762701Y-75096598D01*
X116762699Y-75096597D01*
X116762698Y-75096597D01*
X116639967Y-75077158D01*
X116591611Y-75069500D01*
X116168389Y-75069500D01*
X116128728Y-75075781D01*
X115997302Y-75096597D01*
X115832552Y-75150128D01*
X115678211Y-75228768D01*
X115645586Y-75252472D01*
X115538072Y-75330586D01*
X115538070Y-75330588D01*
X115538069Y-75330588D01*
X115415588Y-75453069D01*
X115415588Y-75453070D01*
X115415586Y-75453072D01*
X115393854Y-75482984D01*
X115313768Y-75593211D01*
X115235128Y-75747552D01*
X115181597Y-75912302D01*
X115154500Y-76083389D01*
X111300500Y-76083389D01*
X111300500Y-74957525D01*
X121639500Y-74957525D01*
X121639500Y-75102475D01*
X121677016Y-75242485D01*
X121677017Y-75242488D01*
X121749488Y-75368011D01*
X121749490Y-75368013D01*
X121749491Y-75368015D01*
X121851985Y-75470509D01*
X121851986Y-75470510D01*
X121851988Y-75470511D01*
X121977511Y-75542982D01*
X121977512Y-75542982D01*
X121977515Y-75542984D01*
X122117525Y-75580500D01*
X122117528Y-75580500D01*
X122262472Y-75580500D01*
X122262475Y-75580500D01*
X122402485Y-75542984D01*
X122528015Y-75470509D01*
X122592319Y-75406205D01*
X122653642Y-75372720D01*
X122723334Y-75377704D01*
X122767681Y-75406205D01*
X122831985Y-75470509D01*
X122831986Y-75470510D01*
X122831988Y-75470511D01*
X122957511Y-75542982D01*
X122957512Y-75542982D01*
X122957515Y-75542984D01*
X123097525Y-75580500D01*
X123097528Y-75580500D01*
X123242472Y-75580500D01*
X123242475Y-75580500D01*
X123382485Y-75542984D01*
X123508015Y-75470509D01*
X123600999Y-75377525D01*
X125909500Y-75377525D01*
X125909500Y-75522475D01*
X125947016Y-75662485D01*
X125947017Y-75662488D01*
X126019488Y-75788011D01*
X126019490Y-75788013D01*
X126019491Y-75788015D01*
X126121985Y-75890509D01*
X126121986Y-75890510D01*
X126121988Y-75890511D01*
X126247511Y-75962982D01*
X126247512Y-75962982D01*
X126247515Y-75962984D01*
X126387525Y-76000500D01*
X126387528Y-76000500D01*
X126532472Y-76000500D01*
X126532475Y-76000500D01*
X126672485Y-75962984D01*
X126798015Y-75890509D01*
X126900509Y-75788015D01*
X126972984Y-75662485D01*
X127010500Y-75522475D01*
X127010500Y-75377525D01*
X126972984Y-75237515D01*
X126958525Y-75212472D01*
X126929039Y-75161400D01*
X126929038Y-75161399D01*
X126900509Y-75111985D01*
X126896049Y-75107525D01*
X130319500Y-75107525D01*
X130319500Y-75252475D01*
X130355882Y-75388253D01*
X130357017Y-75392488D01*
X130429488Y-75518011D01*
X130429490Y-75518013D01*
X130429491Y-75518015D01*
X130531985Y-75620509D01*
X130531986Y-75620510D01*
X130531988Y-75620511D01*
X130657511Y-75692982D01*
X130657512Y-75692982D01*
X130657515Y-75692984D01*
X130797525Y-75730500D01*
X130797528Y-75730500D01*
X130942472Y-75730500D01*
X130942475Y-75730500D01*
X131082485Y-75692984D01*
X131208015Y-75620509D01*
X131310509Y-75518015D01*
X131345433Y-75457525D01*
X138939500Y-75457525D01*
X138939500Y-75602475D01*
X138973805Y-75730500D01*
X138977017Y-75742488D01*
X139049488Y-75868011D01*
X139049490Y-75868013D01*
X139049491Y-75868015D01*
X139151985Y-75970509D01*
X139151986Y-75970510D01*
X139151988Y-75970511D01*
X139277511Y-76042982D01*
X139277512Y-76042982D01*
X139277515Y-76042984D01*
X139417525Y-76080500D01*
X139417528Y-76080500D01*
X139562472Y-76080500D01*
X139562475Y-76080500D01*
X139702485Y-76042984D01*
X139828015Y-75970509D01*
X139930509Y-75868015D01*
X140002984Y-75742485D01*
X140037839Y-75612403D01*
X140049006Y-75594083D01*
X140055792Y-75573730D01*
X140066827Y-75564845D01*
X140074203Y-75552746D01*
X140093502Y-75543370D01*
X140110217Y-75529915D01*
X140128803Y-75526222D01*
X140137050Y-75522217D01*
X140144419Y-75521204D01*
X140150998Y-75520500D01*
X140223475Y-75520500D01*
X140271665Y-75507587D01*
X140281247Y-75506562D01*
X140306517Y-75511134D01*
X140332196Y-75511745D01*
X140340334Y-75517253D01*
X140350000Y-75519002D01*
X140368785Y-75536509D01*
X140390059Y-75550907D01*
X140393926Y-75559939D01*
X140401114Y-75566637D01*
X140407453Y-75591525D01*
X140417564Y-75615135D01*
X140415934Y-75624823D01*
X140418360Y-75634345D01*
X140410236Y-75658710D01*
X140405978Y-75684038D01*
X140401829Y-75691857D01*
X140387017Y-75717512D01*
X140387016Y-75717514D01*
X140387016Y-75717515D01*
X140349500Y-75857525D01*
X140349500Y-76002475D01*
X140387016Y-76142485D01*
X140387017Y-76142488D01*
X140459488Y-76268011D01*
X140459490Y-76268013D01*
X140459491Y-76268015D01*
X140561985Y-76370509D01*
X140561986Y-76370510D01*
X140561988Y-76370511D01*
X140687511Y-76442982D01*
X140687512Y-76442982D01*
X140687515Y-76442984D01*
X140827525Y-76480500D01*
X140827528Y-76480500D01*
X140972472Y-76480500D01*
X140972475Y-76480500D01*
X141112485Y-76442984D01*
X141238015Y-76370509D01*
X141320999Y-76287525D01*
X151069735Y-76287525D01*
X151069735Y-76432475D01*
X151090374Y-76509500D01*
X151107252Y-76572488D01*
X151179723Y-76698011D01*
X151179725Y-76698013D01*
X151179726Y-76698015D01*
X151282220Y-76800509D01*
X151282221Y-76800510D01*
X151282223Y-76800511D01*
X151407746Y-76872982D01*
X151407747Y-76872982D01*
X151407750Y-76872984D01*
X151547760Y-76910500D01*
X151547763Y-76910500D01*
X151692707Y-76910500D01*
X151692710Y-76910500D01*
X151832720Y-76872984D01*
X151958250Y-76800509D01*
X152060744Y-76698015D01*
X152133219Y-76572485D01*
X152170735Y-76432475D01*
X152170735Y-76287525D01*
X152133219Y-76147515D01*
X152130315Y-76142486D01*
X152060746Y-76021988D01*
X152060741Y-76021982D01*
X151958252Y-75919493D01*
X151958246Y-75919488D01*
X151832723Y-75847017D01*
X151832724Y-75847017D01*
X151821241Y-75843940D01*
X151692710Y-75809500D01*
X151547760Y-75809500D01*
X151419228Y-75843940D01*
X151407746Y-75847017D01*
X151282223Y-75919488D01*
X151282217Y-75919493D01*
X151179728Y-76021982D01*
X151179723Y-76021988D01*
X151107252Y-76147511D01*
X151107251Y-76147515D01*
X151069735Y-76287525D01*
X141320999Y-76287525D01*
X141340509Y-76268015D01*
X141412984Y-76142485D01*
X141450500Y-76002475D01*
X141450500Y-75857525D01*
X141412984Y-75717515D01*
X141398170Y-75691857D01*
X141340511Y-75591988D01*
X141340506Y-75591982D01*
X141238017Y-75489493D01*
X141238011Y-75489488D01*
X141112488Y-75417017D01*
X141112489Y-75417017D01*
X141072138Y-75406205D01*
X140972475Y-75379500D01*
X140827525Y-75379500D01*
X140827523Y-75379500D01*
X140788650Y-75389916D01*
X140718800Y-75388253D01*
X140660938Y-75349089D01*
X140633435Y-75284861D01*
X140638514Y-75232173D01*
X140642561Y-75219590D01*
X140663984Y-75182485D01*
X140694788Y-75067525D01*
X141659500Y-75067525D01*
X141659500Y-75212475D01*
X141691148Y-75330586D01*
X141697017Y-75352488D01*
X141769488Y-75478011D01*
X141769490Y-75478013D01*
X141769491Y-75478015D01*
X141871985Y-75580509D01*
X141871986Y-75580510D01*
X141871988Y-75580511D01*
X141997511Y-75652982D01*
X141997512Y-75652982D01*
X141997515Y-75652984D01*
X142137525Y-75690500D01*
X142137528Y-75690500D01*
X142282472Y-75690500D01*
X142282475Y-75690500D01*
X142422485Y-75652984D01*
X142548015Y-75580509D01*
X142650509Y-75478015D01*
X142722984Y-75352485D01*
X142760500Y-75212475D01*
X142760500Y-75174500D01*
X142780185Y-75107461D01*
X142832989Y-75061706D01*
X142874560Y-75052662D01*
X142874415Y-75051561D01*
X142882471Y-75050500D01*
X142882475Y-75050500D01*
X143022485Y-75012984D01*
X143148015Y-74940509D01*
X143250509Y-74838015D01*
X143322984Y-74712485D01*
X143357839Y-74582403D01*
X143394203Y-74522746D01*
X143457050Y-74492217D01*
X143477613Y-74490500D01*
X143482472Y-74490500D01*
X143482475Y-74490500D01*
X143622485Y-74452984D01*
X143748015Y-74380509D01*
X143850509Y-74278015D01*
X143922984Y-74152485D01*
X143960500Y-74012475D01*
X143960500Y-73867525D01*
X150539500Y-73867525D01*
X150539500Y-74012475D01*
X150577016Y-74152485D01*
X150577017Y-74152488D01*
X150649488Y-74278011D01*
X150649490Y-74278013D01*
X150649491Y-74278015D01*
X150751985Y-74380509D01*
X150751986Y-74380510D01*
X150751988Y-74380511D01*
X150877511Y-74452982D01*
X150877512Y-74452982D01*
X150877515Y-74452984D01*
X151017525Y-74490500D01*
X151017528Y-74490500D01*
X151162472Y-74490500D01*
X151162475Y-74490500D01*
X151302485Y-74452984D01*
X151428015Y-74380509D01*
X151530509Y-74278015D01*
X151548112Y-74247525D01*
X153809500Y-74247525D01*
X153809500Y-74392475D01*
X153846213Y-74529488D01*
X153847017Y-74532488D01*
X153919488Y-74658011D01*
X153919490Y-74658013D01*
X153919491Y-74658015D01*
X154021985Y-74760509D01*
X154021986Y-74760510D01*
X154021988Y-74760511D01*
X154147511Y-74832982D01*
X154147512Y-74832982D01*
X154147515Y-74832984D01*
X154287525Y-74870500D01*
X154287528Y-74870500D01*
X154308732Y-74870500D01*
X154375771Y-74890185D01*
X154421526Y-74942989D01*
X154431470Y-75012147D01*
X154428509Y-75026580D01*
X154409500Y-75097525D01*
X154409500Y-75242475D01*
X154445735Y-75377704D01*
X154447017Y-75382488D01*
X154519488Y-75508011D01*
X154519490Y-75508013D01*
X154519491Y-75508015D01*
X154621985Y-75610509D01*
X154621986Y-75610510D01*
X154621988Y-75610511D01*
X154747511Y-75682982D01*
X154747512Y-75682982D01*
X154747515Y-75682984D01*
X154887525Y-75720500D01*
X154887528Y-75720500D01*
X154895585Y-75721561D01*
X154895344Y-75723390D01*
X154952539Y-75740185D01*
X154998294Y-75792989D01*
X155009500Y-75844500D01*
X155009500Y-75947475D01*
X155047016Y-76087485D01*
X155047017Y-76087488D01*
X155119488Y-76213011D01*
X155119490Y-76213013D01*
X155119491Y-76213015D01*
X155221985Y-76315509D01*
X155221986Y-76315510D01*
X155221988Y-76315511D01*
X155347511Y-76387982D01*
X155347512Y-76387982D01*
X155347515Y-76387984D01*
X155487525Y-76425500D01*
X155487528Y-76425500D01*
X155632472Y-76425500D01*
X155632475Y-76425500D01*
X155772485Y-76387984D01*
X155898015Y-76315509D01*
X156000509Y-76213015D01*
X156072984Y-76087485D01*
X156110500Y-75947475D01*
X156110500Y-75802525D01*
X157299500Y-75802525D01*
X157299500Y-75947475D01*
X157337016Y-76087485D01*
X157337017Y-76087488D01*
X157409488Y-76213011D01*
X157409490Y-76213013D01*
X157409491Y-76213015D01*
X157511985Y-76315509D01*
X157511986Y-76315510D01*
X157511988Y-76315511D01*
X157637511Y-76387982D01*
X157637512Y-76387982D01*
X157637515Y-76387984D01*
X157777525Y-76425500D01*
X157777528Y-76425500D01*
X157922472Y-76425500D01*
X157922475Y-76425500D01*
X158062485Y-76387984D01*
X158188015Y-76315509D01*
X158290509Y-76213015D01*
X158362984Y-76087485D01*
X158400500Y-75947475D01*
X158400500Y-75802525D01*
X158362984Y-75662515D01*
X158362968Y-75662488D01*
X158290511Y-75536988D01*
X158290506Y-75536982D01*
X158188017Y-75434493D01*
X158188011Y-75434488D01*
X158062488Y-75362017D01*
X158062489Y-75362017D01*
X158026915Y-75352485D01*
X157922475Y-75324500D01*
X157777525Y-75324500D01*
X157673085Y-75352485D01*
X157637511Y-75362017D01*
X157511988Y-75434488D01*
X157511982Y-75434493D01*
X157409493Y-75536982D01*
X157409488Y-75536988D01*
X157337017Y-75662511D01*
X157337016Y-75662515D01*
X157299500Y-75802525D01*
X156110500Y-75802525D01*
X156072984Y-75662515D01*
X156072968Y-75662488D01*
X156000511Y-75536988D01*
X156000506Y-75536982D01*
X155898017Y-75434493D01*
X155898011Y-75434488D01*
X155772488Y-75362017D01*
X155772489Y-75362017D01*
X155632471Y-75324499D01*
X155624415Y-75323439D01*
X155624655Y-75321609D01*
X155567461Y-75304815D01*
X155521706Y-75252011D01*
X155510500Y-75200500D01*
X155510500Y-75097527D01*
X155510500Y-75097525D01*
X155472984Y-74957515D01*
X155464597Y-74942989D01*
X155400511Y-74831988D01*
X155400506Y-74831982D01*
X155298017Y-74729493D01*
X155298011Y-74729488D01*
X155172488Y-74657017D01*
X155172489Y-74657017D01*
X155160464Y-74653795D01*
X155032475Y-74619500D01*
X155011268Y-74619500D01*
X154944229Y-74599815D01*
X154898474Y-74547011D01*
X154888530Y-74477853D01*
X154891490Y-74463419D01*
X154910500Y-74392475D01*
X154910500Y-74247525D01*
X154872984Y-74107515D01*
X154864284Y-74092447D01*
X154800511Y-73981988D01*
X154800506Y-73981982D01*
X154698017Y-73879493D01*
X154698011Y-73879488D01*
X154572488Y-73807017D01*
X154572489Y-73807017D01*
X154561006Y-73803940D01*
X154432475Y-73769500D01*
X154287525Y-73769500D01*
X154158993Y-73803940D01*
X154147511Y-73807017D01*
X154021988Y-73879488D01*
X154021982Y-73879493D01*
X153919493Y-73981982D01*
X153919488Y-73981988D01*
X153847017Y-74107511D01*
X153847016Y-74107515D01*
X153809500Y-74247525D01*
X151548112Y-74247525D01*
X151602984Y-74152485D01*
X151640500Y-74012475D01*
X151640500Y-73867525D01*
X151602984Y-73727515D01*
X151597325Y-73717714D01*
X151530511Y-73601988D01*
X151530506Y-73601982D01*
X151428017Y-73499493D01*
X151428011Y-73499488D01*
X151302488Y-73427017D01*
X151302489Y-73427017D01*
X151291006Y-73423940D01*
X151162475Y-73389500D01*
X151017525Y-73389500D01*
X150888993Y-73423940D01*
X150877511Y-73427017D01*
X150751988Y-73499488D01*
X150751982Y-73499493D01*
X150649493Y-73601982D01*
X150649488Y-73601988D01*
X150577017Y-73727511D01*
X150577016Y-73727515D01*
X150539500Y-73867525D01*
X143960500Y-73867525D01*
X143954146Y-73843813D01*
X143953537Y-73841031D01*
X143955787Y-73808922D01*
X143956554Y-73776743D01*
X143958215Y-73774287D01*
X143958423Y-73771332D01*
X143977674Y-73745538D01*
X143995717Y-73718881D01*
X143998441Y-73717714D01*
X144000214Y-73715339D01*
X144030353Y-73704048D01*
X144059945Y-73691377D01*
X144064982Y-73691076D01*
X144065644Y-73690829D01*
X144066400Y-73690992D01*
X144074666Y-73690500D01*
X144082472Y-73690500D01*
X144082475Y-73690500D01*
X144222485Y-73652984D01*
X144348015Y-73580509D01*
X144450509Y-73478015D01*
X144522984Y-73352485D01*
X144560500Y-73212475D01*
X144560500Y-73067525D01*
X144522984Y-72927515D01*
X144450509Y-72801985D01*
X144348015Y-72699491D01*
X144348013Y-72699490D01*
X144348011Y-72699488D01*
X144222488Y-72627017D01*
X144222489Y-72627017D01*
X144211006Y-72623940D01*
X144082475Y-72589500D01*
X143937525Y-72589500D01*
X143808993Y-72623940D01*
X143797511Y-72627017D01*
X143671988Y-72699488D01*
X143671982Y-72699493D01*
X143569493Y-72801982D01*
X143569488Y-72801988D01*
X143497017Y-72927511D01*
X143497016Y-72927515D01*
X143459500Y-73067525D01*
X143459500Y-73067527D01*
X143459500Y-73212474D01*
X143465109Y-73233407D01*
X143463446Y-73303257D01*
X143424283Y-73361119D01*
X143360055Y-73388623D01*
X143345334Y-73389500D01*
X143337525Y-73389500D01*
X143208993Y-73423940D01*
X143197511Y-73427017D01*
X143071988Y-73499488D01*
X143071982Y-73499493D01*
X142969493Y-73601982D01*
X142969488Y-73601988D01*
X142897017Y-73727511D01*
X142897016Y-73727515D01*
X142862160Y-73857596D01*
X142825797Y-73917254D01*
X142762950Y-73947783D01*
X142742387Y-73949500D01*
X142737525Y-73949500D01*
X142616302Y-73981982D01*
X142597511Y-73987017D01*
X142471988Y-74059488D01*
X142471982Y-74059493D01*
X142369493Y-74161982D01*
X142369488Y-74161988D01*
X142297017Y-74287511D01*
X142297016Y-74287515D01*
X142259500Y-74427525D01*
X142259500Y-74427527D01*
X142259500Y-74465500D01*
X142239815Y-74532539D01*
X142187011Y-74578294D01*
X142145439Y-74587337D01*
X142145585Y-74588439D01*
X142137528Y-74589499D01*
X141997511Y-74627017D01*
X141871988Y-74699488D01*
X141871982Y-74699493D01*
X141769493Y-74801982D01*
X141769488Y-74801988D01*
X141697017Y-74927511D01*
X141697016Y-74927515D01*
X141659500Y-75067525D01*
X140694788Y-75067525D01*
X140701500Y-75042475D01*
X140701500Y-74897525D01*
X140663984Y-74757515D01*
X140647805Y-74729493D01*
X140591511Y-74631988D01*
X140591506Y-74631982D01*
X140489017Y-74529493D01*
X140489011Y-74529488D01*
X140363488Y-74457017D01*
X140363489Y-74457017D01*
X140352006Y-74453940D01*
X140223475Y-74419500D01*
X140078525Y-74419500D01*
X139949993Y-74453940D01*
X139938511Y-74457017D01*
X139812988Y-74529488D01*
X139812982Y-74529493D01*
X139710493Y-74631982D01*
X139710488Y-74631988D01*
X139638017Y-74757511D01*
X139638016Y-74757515D01*
X139603160Y-74887596D01*
X139566797Y-74947254D01*
X139503950Y-74977783D01*
X139483387Y-74979500D01*
X139417525Y-74979500D01*
X139288993Y-75013940D01*
X139277511Y-75017017D01*
X139151988Y-75089488D01*
X139151982Y-75089493D01*
X139049493Y-75191982D01*
X139049488Y-75191988D01*
X138977017Y-75317511D01*
X138977016Y-75317515D01*
X138939500Y-75457525D01*
X131345433Y-75457525D01*
X131382984Y-75392485D01*
X131420500Y-75252475D01*
X131420500Y-75107525D01*
X131382984Y-74967515D01*
X131377217Y-74957527D01*
X131310511Y-74841988D01*
X131310506Y-74841982D01*
X131208017Y-74739493D01*
X131208011Y-74739488D01*
X131082488Y-74667017D01*
X131082489Y-74667017D01*
X131071006Y-74663940D01*
X130942475Y-74629500D01*
X130797525Y-74629500D01*
X130668993Y-74663940D01*
X130657511Y-74667017D01*
X130531988Y-74739488D01*
X130531982Y-74739493D01*
X130429493Y-74841982D01*
X130429488Y-74841988D01*
X130357017Y-74967511D01*
X130357016Y-74967515D01*
X130319500Y-75107525D01*
X126896049Y-75107525D01*
X126798015Y-75009491D01*
X126798013Y-75009490D01*
X126798011Y-75009488D01*
X126672488Y-74937017D01*
X126672489Y-74937017D01*
X126637012Y-74927511D01*
X126532475Y-74899500D01*
X126387525Y-74899500D01*
X126282988Y-74927511D01*
X126247511Y-74937017D01*
X126121988Y-75009488D01*
X126121982Y-75009493D01*
X126019493Y-75111982D01*
X126019488Y-75111988D01*
X125947017Y-75237511D01*
X125947016Y-75237515D01*
X125909500Y-75377525D01*
X123600999Y-75377525D01*
X123610509Y-75368015D01*
X123682984Y-75242485D01*
X123720500Y-75102475D01*
X123720500Y-75102471D01*
X123721561Y-75094415D01*
X123723390Y-75094655D01*
X123740185Y-75037461D01*
X123792989Y-74991706D01*
X123844500Y-74980500D01*
X123922472Y-74980500D01*
X123922475Y-74980500D01*
X124062485Y-74942984D01*
X124188015Y-74870509D01*
X124290509Y-74768015D01*
X124362984Y-74642485D01*
X124400500Y-74502475D01*
X124400500Y-74357525D01*
X124362984Y-74217515D01*
X124330925Y-74161988D01*
X124290511Y-74091988D01*
X124290506Y-74091982D01*
X124188017Y-73989493D01*
X124188011Y-73989488D01*
X124062488Y-73917017D01*
X124062489Y-73917017D01*
X124051006Y-73913940D01*
X123922475Y-73879500D01*
X123777525Y-73879500D01*
X123648993Y-73913940D01*
X123637511Y-73917017D01*
X123511988Y-73989488D01*
X123511982Y-73989493D01*
X123409493Y-74091982D01*
X123409488Y-74091988D01*
X123337017Y-74217511D01*
X123299499Y-74357528D01*
X123298439Y-74365585D01*
X123296609Y-74365344D01*
X123279815Y-74422539D01*
X123227011Y-74468294D01*
X123175500Y-74479500D01*
X123097525Y-74479500D01*
X122985897Y-74509411D01*
X122957511Y-74517017D01*
X122831988Y-74589488D01*
X122831982Y-74589493D01*
X122767681Y-74653795D01*
X122706358Y-74687280D01*
X122636666Y-74682296D01*
X122592319Y-74653795D01*
X122528017Y-74589493D01*
X122528011Y-74589488D01*
X122402488Y-74517017D01*
X122402489Y-74517017D01*
X122374103Y-74509411D01*
X122262475Y-74479500D01*
X122117525Y-74479500D01*
X122005897Y-74509411D01*
X121977511Y-74517017D01*
X121851988Y-74589488D01*
X121851982Y-74589493D01*
X121749493Y-74691982D01*
X121749488Y-74691988D01*
X121677017Y-74817511D01*
X121677016Y-74817515D01*
X121639500Y-74957525D01*
X111300500Y-74957525D01*
X111300500Y-73583389D01*
X115154500Y-73583389D01*
X115154500Y-73756611D01*
X115156832Y-73771332D01*
X115179905Y-73917017D01*
X115181598Y-73927701D01*
X115235127Y-74092445D01*
X115313768Y-74246788D01*
X115415586Y-74386928D01*
X115538072Y-74509414D01*
X115678212Y-74611232D01*
X115832555Y-74689873D01*
X115997299Y-74743402D01*
X116168389Y-74770500D01*
X116168390Y-74770500D01*
X116591610Y-74770500D01*
X116591611Y-74770500D01*
X116762701Y-74743402D01*
X116927445Y-74689873D01*
X117081788Y-74611232D01*
X117221928Y-74509414D01*
X117344414Y-74386928D01*
X117446232Y-74246788D01*
X117524873Y-74092445D01*
X117578402Y-73927701D01*
X117605500Y-73756611D01*
X117605500Y-73583389D01*
X117592212Y-73499491D01*
X117587490Y-73469677D01*
X117585705Y-73458406D01*
X141059500Y-73458406D01*
X141059500Y-73603356D01*
X141090455Y-73718881D01*
X141097017Y-73743369D01*
X141169488Y-73868892D01*
X141169490Y-73868894D01*
X141169491Y-73868896D01*
X141271985Y-73971390D01*
X141271986Y-73971391D01*
X141271988Y-73971392D01*
X141397511Y-74043863D01*
X141397512Y-74043863D01*
X141397515Y-74043865D01*
X141537525Y-74081381D01*
X141537528Y-74081381D01*
X141682472Y-74081381D01*
X141682475Y-74081381D01*
X141822485Y-74043865D01*
X141948015Y-73971390D01*
X142050509Y-73868896D01*
X142122984Y-73743366D01*
X142160500Y-73603356D01*
X142160500Y-73458406D01*
X142122984Y-73318396D01*
X142114243Y-73303257D01*
X142050511Y-73192869D01*
X142050506Y-73192863D01*
X141948017Y-73090374D01*
X141948011Y-73090369D01*
X141822488Y-73017898D01*
X141822489Y-73017898D01*
X141811006Y-73014821D01*
X141682475Y-72980381D01*
X141537525Y-72980381D01*
X141408993Y-73014821D01*
X141397511Y-73017898D01*
X141271988Y-73090369D01*
X141271982Y-73090374D01*
X141169493Y-73192863D01*
X141169488Y-73192869D01*
X141097017Y-73318392D01*
X141097016Y-73318396D01*
X141059500Y-73458406D01*
X117585705Y-73458406D01*
X117578402Y-73412302D01*
X117578402Y-73412299D01*
X117524873Y-73247555D01*
X117446232Y-73093212D01*
X117344414Y-72953072D01*
X117221928Y-72830586D01*
X117081788Y-72728768D01*
X117024328Y-72699491D01*
X116936780Y-72654883D01*
X116936779Y-72654882D01*
X116927448Y-72650128D01*
X116856317Y-72627016D01*
X116762701Y-72596598D01*
X116762699Y-72596597D01*
X116762698Y-72596597D01*
X116631271Y-72575781D01*
X116591611Y-72569500D01*
X116168389Y-72569500D01*
X116128728Y-72575781D01*
X115997302Y-72596597D01*
X115832552Y-72650128D01*
X115678211Y-72728768D01*
X115598256Y-72786859D01*
X115538072Y-72830586D01*
X115538070Y-72830588D01*
X115538069Y-72830588D01*
X115415588Y-72953069D01*
X115415588Y-72953070D01*
X115415586Y-72953072D01*
X115408365Y-72963011D01*
X115313768Y-73093211D01*
X115235128Y-73247552D01*
X115181597Y-73412302D01*
X115167788Y-73499491D01*
X115154500Y-73583389D01*
X111300500Y-73583389D01*
X111300500Y-72552525D01*
X119794500Y-72552525D01*
X119794500Y-72697475D01*
X119830168Y-72830588D01*
X119832017Y-72837488D01*
X119904488Y-72963011D01*
X119904490Y-72963013D01*
X119904491Y-72963015D01*
X120006985Y-73065509D01*
X120006986Y-73065510D01*
X120006988Y-73065511D01*
X120132511Y-73137982D01*
X120132512Y-73137982D01*
X120132515Y-73137984D01*
X120272525Y-73175500D01*
X120272528Y-73175500D01*
X120417472Y-73175500D01*
X120417475Y-73175500D01*
X120557485Y-73137984D01*
X120683015Y-73065509D01*
X120785509Y-72963015D01*
X120857984Y-72837485D01*
X120895500Y-72697475D01*
X120895500Y-72552525D01*
X120857984Y-72412515D01*
X120838065Y-72378015D01*
X120785511Y-72286988D01*
X120785506Y-72286982D01*
X120683017Y-72184493D01*
X120683011Y-72184488D01*
X120557488Y-72112017D01*
X120557489Y-72112017D01*
X120546315Y-72109023D01*
X120417475Y-72074500D01*
X120272525Y-72074500D01*
X120143993Y-72108940D01*
X120132511Y-72112017D01*
X120006988Y-72184488D01*
X120006982Y-72184493D01*
X119904493Y-72286982D01*
X119904488Y-72286988D01*
X119832017Y-72412511D01*
X119832016Y-72412515D01*
X119794500Y-72552525D01*
X111300500Y-72552525D01*
X111300500Y-70522135D01*
X115154500Y-70522135D01*
X115154500Y-71817870D01*
X115154501Y-71817876D01*
X115160908Y-71877483D01*
X115211202Y-72012328D01*
X115211206Y-72012335D01*
X115297452Y-72127544D01*
X115297455Y-72127547D01*
X115412664Y-72213793D01*
X115412671Y-72213797D01*
X115547517Y-72264091D01*
X115547516Y-72264091D01*
X115554444Y-72264835D01*
X115607127Y-72270500D01*
X117152872Y-72270499D01*
X117212483Y-72264091D01*
X117347331Y-72213796D01*
X117462546Y-72127546D01*
X117548796Y-72012331D01*
X117565508Y-71967525D01*
X132349500Y-71967525D01*
X132349500Y-72112475D01*
X132387016Y-72252485D01*
X132387017Y-72252488D01*
X132459488Y-72378011D01*
X132459490Y-72378013D01*
X132459491Y-72378015D01*
X132561985Y-72480509D01*
X132561986Y-72480510D01*
X132561988Y-72480511D01*
X132687511Y-72552982D01*
X132687512Y-72552982D01*
X132687515Y-72552984D01*
X132827525Y-72590500D01*
X132827528Y-72590500D01*
X132972472Y-72590500D01*
X132972475Y-72590500D01*
X133112485Y-72552984D01*
X133238015Y-72480509D01*
X133340509Y-72378015D01*
X133412984Y-72252485D01*
X133450500Y-72112475D01*
X133450500Y-71967525D01*
X133412984Y-71827515D01*
X133407415Y-71817870D01*
X133340511Y-71701988D01*
X133340506Y-71701982D01*
X133238017Y-71599493D01*
X133238011Y-71599488D01*
X133112488Y-71527017D01*
X133112489Y-71527017D01*
X133101006Y-71523940D01*
X132972475Y-71489500D01*
X132827525Y-71489500D01*
X132698993Y-71523940D01*
X132687511Y-71527017D01*
X132561988Y-71599488D01*
X132561982Y-71599493D01*
X132459493Y-71701982D01*
X132459488Y-71701988D01*
X132387017Y-71827511D01*
X132387016Y-71827515D01*
X132349500Y-71967525D01*
X117565508Y-71967525D01*
X117599091Y-71877483D01*
X117605500Y-71817873D01*
X117605499Y-70522128D01*
X117605004Y-70517525D01*
X127539500Y-70517525D01*
X127539500Y-70662475D01*
X127577016Y-70802485D01*
X127577017Y-70802488D01*
X127649488Y-70928011D01*
X127649490Y-70928013D01*
X127649491Y-70928015D01*
X127751985Y-71030509D01*
X127751986Y-71030510D01*
X127751988Y-71030511D01*
X127877511Y-71102982D01*
X127877512Y-71102982D01*
X127877515Y-71102984D01*
X128017525Y-71140500D01*
X128017528Y-71140500D01*
X128162472Y-71140500D01*
X128162475Y-71140500D01*
X128302485Y-71102984D01*
X128428015Y-71030509D01*
X128530509Y-70928015D01*
X128602984Y-70802485D01*
X128640500Y-70662475D01*
X128640500Y-70517525D01*
X128602984Y-70377515D01*
X128594594Y-70362984D01*
X128530511Y-70251988D01*
X128530506Y-70251982D01*
X128428017Y-70149493D01*
X128428011Y-70149488D01*
X128302488Y-70077017D01*
X128302489Y-70077017D01*
X128274435Y-70069500D01*
X128162475Y-70039500D01*
X128017525Y-70039500D01*
X127905565Y-70069500D01*
X127877511Y-70077017D01*
X127751988Y-70149488D01*
X127751982Y-70149493D01*
X127649493Y-70251982D01*
X127649488Y-70251988D01*
X127577017Y-70377511D01*
X127577016Y-70377515D01*
X127539500Y-70517525D01*
X117605004Y-70517525D01*
X117599091Y-70462517D01*
X117567387Y-70377515D01*
X117548797Y-70327671D01*
X117548793Y-70327664D01*
X117462547Y-70212455D01*
X117462544Y-70212452D01*
X117347335Y-70126206D01*
X117347328Y-70126202D01*
X117212482Y-70075908D01*
X117212483Y-70075908D01*
X117152883Y-70069501D01*
X117152881Y-70069500D01*
X117152873Y-70069500D01*
X117152864Y-70069500D01*
X115607129Y-70069500D01*
X115607123Y-70069501D01*
X115547516Y-70075908D01*
X115412671Y-70126202D01*
X115412664Y-70126206D01*
X115297455Y-70212452D01*
X115297452Y-70212455D01*
X115211206Y-70327664D01*
X115211202Y-70327671D01*
X115160908Y-70462517D01*
X115154501Y-70522116D01*
X115154500Y-70522135D01*
X111300500Y-70522135D01*
X111300500Y-69777525D01*
X152729500Y-69777525D01*
X152729500Y-69922475D01*
X152760857Y-70039500D01*
X152767017Y-70062488D01*
X152839488Y-70188011D01*
X152839490Y-70188013D01*
X152839491Y-70188015D01*
X152941985Y-70290509D01*
X152941986Y-70290510D01*
X152941988Y-70290511D01*
X153067511Y-70362982D01*
X153067512Y-70362982D01*
X153067515Y-70362984D01*
X153207525Y-70400500D01*
X153207528Y-70400500D01*
X153352472Y-70400500D01*
X153352475Y-70400500D01*
X153492485Y-70362984D01*
X153618015Y-70290509D01*
X153720509Y-70188015D01*
X153792984Y-70062485D01*
X153830500Y-69922475D01*
X153830500Y-69777525D01*
X153792984Y-69637515D01*
X153720509Y-69511985D01*
X153618015Y-69409491D01*
X153618013Y-69409490D01*
X153618011Y-69409488D01*
X153492488Y-69337017D01*
X153492489Y-69337017D01*
X153481006Y-69333940D01*
X153352475Y-69299500D01*
X153207525Y-69299500D01*
X153078993Y-69333940D01*
X153067511Y-69337017D01*
X152941988Y-69409488D01*
X152941982Y-69409493D01*
X152839493Y-69511982D01*
X152839488Y-69511988D01*
X152767017Y-69637511D01*
X152767016Y-69637515D01*
X152729500Y-69777525D01*
X111300500Y-69777525D01*
X111300500Y-67987525D01*
X139549500Y-67987525D01*
X139549500Y-68132475D01*
X139587016Y-68272485D01*
X139587017Y-68272488D01*
X139659488Y-68398011D01*
X139659490Y-68398013D01*
X139659491Y-68398015D01*
X139761985Y-68500509D01*
X139761986Y-68500510D01*
X139761988Y-68500511D01*
X139887511Y-68572982D01*
X139887512Y-68572982D01*
X139887515Y-68572984D01*
X140027525Y-68610500D01*
X140027528Y-68610500D01*
X140172472Y-68610500D01*
X140172475Y-68610500D01*
X140312485Y-68572984D01*
X140438015Y-68500509D01*
X140540509Y-68398015D01*
X140546565Y-68387525D01*
X156209500Y-68387525D01*
X156209500Y-68532475D01*
X156230407Y-68610500D01*
X156247017Y-68672488D01*
X156319488Y-68798011D01*
X156319490Y-68798013D01*
X156319491Y-68798015D01*
X156421985Y-68900509D01*
X156421986Y-68900510D01*
X156421988Y-68900511D01*
X156547511Y-68972982D01*
X156547512Y-68972982D01*
X156547515Y-68972984D01*
X156687525Y-69010500D01*
X156687528Y-69010500D01*
X156832472Y-69010500D01*
X156832475Y-69010500D01*
X156972485Y-68972984D01*
X157098015Y-68900509D01*
X157200509Y-68798015D01*
X157272984Y-68672485D01*
X157310500Y-68532475D01*
X157310500Y-68387525D01*
X157272984Y-68247515D01*
X157206565Y-68132475D01*
X157200511Y-68121988D01*
X157200506Y-68121982D01*
X157098017Y-68019493D01*
X157098011Y-68019488D01*
X156972488Y-67947017D01*
X156972489Y-67947017D01*
X156961006Y-67943940D01*
X156832475Y-67909500D01*
X156687525Y-67909500D01*
X156558993Y-67943940D01*
X156547511Y-67947017D01*
X156421988Y-68019488D01*
X156421982Y-68019493D01*
X156319493Y-68121982D01*
X156319488Y-68121988D01*
X156247017Y-68247511D01*
X156247016Y-68247515D01*
X156209500Y-68387525D01*
X140546565Y-68387525D01*
X140612984Y-68272485D01*
X140650500Y-68132475D01*
X140650500Y-67987525D01*
X140612984Y-67847515D01*
X140540509Y-67721985D01*
X140438015Y-67619491D01*
X140438013Y-67619490D01*
X140438011Y-67619488D01*
X140312488Y-67547017D01*
X140312489Y-67547017D01*
X140301006Y-67543940D01*
X140172475Y-67509500D01*
X140027525Y-67509500D01*
X139898993Y-67543940D01*
X139887511Y-67547017D01*
X139761988Y-67619488D01*
X139761982Y-67619493D01*
X139659493Y-67721982D01*
X139659488Y-67721988D01*
X139587017Y-67847511D01*
X139587016Y-67847515D01*
X139549500Y-67987525D01*
X111300500Y-67987525D01*
X111300500Y-63037525D01*
X122919500Y-63037525D01*
X122919500Y-63182475D01*
X122957016Y-63322485D01*
X122957017Y-63322488D01*
X123029488Y-63448011D01*
X123029490Y-63448013D01*
X123029491Y-63448015D01*
X123131985Y-63550509D01*
X123131986Y-63550510D01*
X123131988Y-63550511D01*
X123257511Y-63622982D01*
X123257512Y-63622982D01*
X123257515Y-63622984D01*
X123397525Y-63660500D01*
X123397528Y-63660500D01*
X123542472Y-63660500D01*
X123542475Y-63660500D01*
X123682485Y-63622984D01*
X123808015Y-63550509D01*
X123910509Y-63448015D01*
X123982984Y-63322485D01*
X124003070Y-63247525D01*
X135669500Y-63247525D01*
X135669500Y-63392475D01*
X135684383Y-63448017D01*
X135707017Y-63532488D01*
X135779488Y-63658011D01*
X135779490Y-63658013D01*
X135779491Y-63658015D01*
X135881985Y-63760509D01*
X135881986Y-63760510D01*
X135881988Y-63760511D01*
X136007511Y-63832982D01*
X136007512Y-63832982D01*
X136007515Y-63832984D01*
X136147525Y-63870500D01*
X136147528Y-63870500D01*
X136292472Y-63870500D01*
X136292475Y-63870500D01*
X136432485Y-63832984D01*
X136558015Y-63760509D01*
X136582319Y-63736205D01*
X136643642Y-63702720D01*
X136713334Y-63707704D01*
X136757681Y-63736205D01*
X136791985Y-63770509D01*
X136791986Y-63770510D01*
X136791988Y-63770511D01*
X136917511Y-63842982D01*
X136917512Y-63842982D01*
X136917515Y-63842984D01*
X137057525Y-63880500D01*
X137057528Y-63880500D01*
X137202472Y-63880500D01*
X137202475Y-63880500D01*
X137342485Y-63842984D01*
X137468015Y-63770509D01*
X137517971Y-63720552D01*
X137579292Y-63687068D01*
X137648984Y-63692052D01*
X137681140Y-63709860D01*
X137681979Y-63710503D01*
X137681985Y-63710509D01*
X137726492Y-63736205D01*
X137807511Y-63782982D01*
X137807512Y-63782982D01*
X137807515Y-63782984D01*
X137947525Y-63820500D01*
X137947528Y-63820500D01*
X138100603Y-63820500D01*
X138100603Y-63822448D01*
X138159135Y-63831568D01*
X138211397Y-63877940D01*
X138226076Y-63911655D01*
X138237017Y-63952488D01*
X138309488Y-64078011D01*
X138309490Y-64078013D01*
X138309491Y-64078015D01*
X138411985Y-64180509D01*
X138411986Y-64180510D01*
X138411988Y-64180511D01*
X138537511Y-64252982D01*
X138537512Y-64252982D01*
X138537515Y-64252984D01*
X138677525Y-64290500D01*
X138677528Y-64290500D01*
X138822472Y-64290500D01*
X138822475Y-64290500D01*
X138962485Y-64252984D01*
X139088015Y-64180509D01*
X139190509Y-64078015D01*
X139262984Y-63952485D01*
X139300500Y-63812475D01*
X139300500Y-63667525D01*
X139262984Y-63527515D01*
X139190509Y-63401985D01*
X139088015Y-63299491D01*
X139088013Y-63299490D01*
X139088011Y-63299488D01*
X138962488Y-63227017D01*
X138962489Y-63227017D01*
X138951006Y-63223940D01*
X138822475Y-63189500D01*
X138677525Y-63189500D01*
X138669398Y-63189500D01*
X138669398Y-63187555D01*
X138610840Y-63178420D01*
X138558587Y-63132036D01*
X138543924Y-63098346D01*
X138532984Y-63057515D01*
X138506754Y-63012084D01*
X138460511Y-62931988D01*
X138460506Y-62931982D01*
X138358017Y-62829493D01*
X138358011Y-62829488D01*
X138232488Y-62757017D01*
X138232489Y-62757017D01*
X138221006Y-62753940D01*
X138092475Y-62719500D01*
X137947525Y-62719500D01*
X137818993Y-62753940D01*
X137807511Y-62757017D01*
X137681988Y-62829488D01*
X137681981Y-62829494D01*
X137632028Y-62879447D01*
X137570705Y-62912931D01*
X137501013Y-62907946D01*
X137468861Y-62890140D01*
X137468015Y-62889491D01*
X137342488Y-62817017D01*
X137342489Y-62817017D01*
X137331006Y-62813940D01*
X137202475Y-62779500D01*
X137057525Y-62779500D01*
X136928993Y-62813940D01*
X136917511Y-62817017D01*
X136791988Y-62889488D01*
X136767680Y-62913796D01*
X136706356Y-62947280D01*
X136636665Y-62942294D01*
X136592320Y-62913795D01*
X136558018Y-62879494D01*
X136558017Y-62879493D01*
X136558015Y-62879491D01*
X136558013Y-62879490D01*
X136558011Y-62879488D01*
X136432488Y-62807017D01*
X136432489Y-62807017D01*
X136421006Y-62803940D01*
X136292475Y-62769500D01*
X136147525Y-62769500D01*
X136018993Y-62803940D01*
X136007511Y-62807017D01*
X135881988Y-62879488D01*
X135881982Y-62879493D01*
X135779493Y-62981982D01*
X135779488Y-62981988D01*
X135707017Y-63107511D01*
X135707016Y-63107515D01*
X135669500Y-63247525D01*
X124003070Y-63247525D01*
X124020500Y-63182475D01*
X124020500Y-63037525D01*
X123982984Y-62897515D01*
X123978351Y-62889491D01*
X123910511Y-62771988D01*
X123910506Y-62771982D01*
X123808017Y-62669493D01*
X123808011Y-62669488D01*
X123682488Y-62597017D01*
X123682489Y-62597017D01*
X123671006Y-62593940D01*
X123542475Y-62559500D01*
X123397525Y-62559500D01*
X123268993Y-62593940D01*
X123257511Y-62597017D01*
X123131988Y-62669488D01*
X123131982Y-62669493D01*
X123029493Y-62771982D01*
X123029488Y-62771988D01*
X122957017Y-62897511D01*
X122957016Y-62897515D01*
X122919500Y-63037525D01*
X111300500Y-63037525D01*
X111300500Y-61288543D01*
X114939499Y-61288543D01*
X114977947Y-61481829D01*
X114977950Y-61481839D01*
X115053364Y-61663907D01*
X115053371Y-61663920D01*
X115162860Y-61827781D01*
X115162863Y-61827785D01*
X115302214Y-61967136D01*
X115302218Y-61967139D01*
X115466079Y-62076628D01*
X115466092Y-62076635D01*
X115572237Y-62120601D01*
X115648165Y-62152051D01*
X115648169Y-62152051D01*
X115648170Y-62152052D01*
X115841456Y-62190500D01*
X115841459Y-62190500D01*
X116038543Y-62190500D01*
X116168582Y-62164632D01*
X116231835Y-62152051D01*
X116413914Y-62076632D01*
X116577782Y-61967139D01*
X116717139Y-61827782D01*
X116826632Y-61663914D01*
X116902051Y-61481835D01*
X116940500Y-61288543D01*
X117479499Y-61288543D01*
X117517947Y-61481829D01*
X117517950Y-61481839D01*
X117593364Y-61663907D01*
X117593371Y-61663920D01*
X117702860Y-61827781D01*
X117702863Y-61827785D01*
X117842214Y-61967136D01*
X117842218Y-61967139D01*
X118006079Y-62076628D01*
X118006092Y-62076635D01*
X118112237Y-62120601D01*
X118188165Y-62152051D01*
X118188169Y-62152051D01*
X118188170Y-62152052D01*
X118381456Y-62190500D01*
X118381459Y-62190500D01*
X118578543Y-62190500D01*
X118708582Y-62164632D01*
X118771835Y-62152051D01*
X118953914Y-62076632D01*
X119117782Y-61967139D01*
X119257139Y-61827782D01*
X119366632Y-61663914D01*
X119442051Y-61481835D01*
X119480500Y-61288541D01*
X119480500Y-60291459D01*
X119480500Y-60291456D01*
X119442052Y-60098170D01*
X119442051Y-60098169D01*
X119442051Y-60098165D01*
X119442049Y-60098160D01*
X119366635Y-59916092D01*
X119366628Y-59916079D01*
X119257139Y-59752218D01*
X119257136Y-59752214D01*
X119120243Y-59615321D01*
X120019500Y-59615321D01*
X120019500Y-61964678D01*
X120034032Y-62037735D01*
X120034033Y-62037739D01*
X120034034Y-62037740D01*
X120089399Y-62120601D01*
X120136470Y-62152052D01*
X120172260Y-62175966D01*
X120172264Y-62175967D01*
X120245321Y-62190499D01*
X120245324Y-62190500D01*
X120245326Y-62190500D01*
X121794676Y-62190500D01*
X121794677Y-62190499D01*
X121867740Y-62175966D01*
X121950601Y-62120601D01*
X122005966Y-62037740D01*
X122020500Y-61964674D01*
X122020500Y-59615326D01*
X122020500Y-59615323D01*
X122020499Y-59615321D01*
X122005967Y-59542264D01*
X122005966Y-59542260D01*
X121950601Y-59459399D01*
X121867740Y-59404034D01*
X121867739Y-59404033D01*
X121867735Y-59404032D01*
X121794677Y-59389500D01*
X121794674Y-59389500D01*
X120245326Y-59389500D01*
X120245323Y-59389500D01*
X120172264Y-59404032D01*
X120172260Y-59404033D01*
X120089399Y-59459399D01*
X120034033Y-59542260D01*
X120034032Y-59542264D01*
X120019500Y-59615321D01*
X119120243Y-59615321D01*
X119117785Y-59612863D01*
X119117781Y-59612860D01*
X118953920Y-59503371D01*
X118953907Y-59503364D01*
X118771839Y-59427950D01*
X118771829Y-59427947D01*
X118578543Y-59389500D01*
X118578541Y-59389500D01*
X118381459Y-59389500D01*
X118381457Y-59389500D01*
X118188170Y-59427947D01*
X118188160Y-59427950D01*
X118006092Y-59503364D01*
X118006079Y-59503371D01*
X117842218Y-59612860D01*
X117842214Y-59612863D01*
X117702863Y-59752214D01*
X117702860Y-59752218D01*
X117593371Y-59916079D01*
X117593364Y-59916092D01*
X117517950Y-60098160D01*
X117517947Y-60098170D01*
X117479500Y-60291456D01*
X117479500Y-60291459D01*
X117479500Y-61288541D01*
X117479500Y-61288543D01*
X117479499Y-61288543D01*
X116940500Y-61288543D01*
X116940500Y-61288541D01*
X116940500Y-60291459D01*
X116940500Y-60291456D01*
X116902052Y-60098170D01*
X116902051Y-60098169D01*
X116902051Y-60098165D01*
X116902049Y-60098160D01*
X116826635Y-59916092D01*
X116826628Y-59916079D01*
X116717139Y-59752218D01*
X116717136Y-59752214D01*
X116577785Y-59612863D01*
X116577781Y-59612860D01*
X116413920Y-59503371D01*
X116413907Y-59503364D01*
X116231839Y-59427950D01*
X116231829Y-59427947D01*
X116038543Y-59389500D01*
X116038541Y-59389500D01*
X115841459Y-59389500D01*
X115841457Y-59389500D01*
X115648170Y-59427947D01*
X115648160Y-59427950D01*
X115466092Y-59503364D01*
X115466079Y-59503371D01*
X115302218Y-59612860D01*
X115302214Y-59612863D01*
X115162863Y-59752214D01*
X115162860Y-59752218D01*
X115053371Y-59916079D01*
X115053364Y-59916092D01*
X114977950Y-60098160D01*
X114977947Y-60098170D01*
X114939500Y-60291456D01*
X114939500Y-60291459D01*
X114939500Y-61288541D01*
X114939500Y-61288543D01*
X114939499Y-61288543D01*
X111300500Y-61288543D01*
X111300500Y-57297525D01*
X137199500Y-57297525D01*
X137199500Y-57442475D01*
X137237016Y-57582485D01*
X137237017Y-57582488D01*
X137309488Y-57708011D01*
X137309490Y-57708013D01*
X137309491Y-57708015D01*
X137411985Y-57810509D01*
X137411986Y-57810510D01*
X137411988Y-57810511D01*
X137537511Y-57882982D01*
X137537512Y-57882982D01*
X137537515Y-57882984D01*
X137677525Y-57920500D01*
X137677528Y-57920500D01*
X137822472Y-57920500D01*
X137822475Y-57920500D01*
X137962485Y-57882984D01*
X138088015Y-57810509D01*
X138190509Y-57708015D01*
X138262984Y-57582485D01*
X138300500Y-57442475D01*
X138300500Y-57301268D01*
X138320185Y-57234229D01*
X138372989Y-57188474D01*
X138442147Y-57178530D01*
X138456580Y-57181490D01*
X138527525Y-57200500D01*
X138527528Y-57200500D01*
X138672472Y-57200500D01*
X138672475Y-57200500D01*
X138812485Y-57162984D01*
X138938015Y-57090509D01*
X139040509Y-56988015D01*
X139112984Y-56862485D01*
X139150500Y-56722475D01*
X139150500Y-56577525D01*
X139112984Y-56437515D01*
X139040509Y-56311985D01*
X138938015Y-56209491D01*
X138938013Y-56209490D01*
X138938011Y-56209488D01*
X138812488Y-56137017D01*
X138812489Y-56137017D01*
X138801006Y-56133940D01*
X138672475Y-56099500D01*
X138527525Y-56099500D01*
X138398993Y-56133940D01*
X138387511Y-56137017D01*
X138261988Y-56209488D01*
X138261982Y-56209493D01*
X138159493Y-56311982D01*
X138159488Y-56311988D01*
X138087017Y-56437511D01*
X138087016Y-56437515D01*
X138049500Y-56577525D01*
X138049500Y-56577527D01*
X138049500Y-56718731D01*
X138029815Y-56785770D01*
X137977011Y-56831525D01*
X137907853Y-56841469D01*
X137893407Y-56838506D01*
X137851284Y-56827219D01*
X137822475Y-56819500D01*
X137677525Y-56819500D01*
X137548993Y-56853940D01*
X137537511Y-56857017D01*
X137411988Y-56929488D01*
X137411982Y-56929493D01*
X137309493Y-57031982D01*
X137309488Y-57031988D01*
X137237017Y-57157511D01*
X137237016Y-57157515D01*
X137199500Y-57297525D01*
X111300500Y-57297525D01*
X111300500Y-54933389D01*
X115129500Y-54933389D01*
X115129500Y-55106611D01*
X115136352Y-55149871D01*
X115148962Y-55229493D01*
X115156598Y-55277701D01*
X115210127Y-55442445D01*
X115288768Y-55596788D01*
X115390586Y-55736928D01*
X115513072Y-55859414D01*
X115653212Y-55961232D01*
X115807555Y-56039873D01*
X115972299Y-56093402D01*
X116143389Y-56120500D01*
X116143390Y-56120500D01*
X116616610Y-56120500D01*
X116616611Y-56120500D01*
X116787701Y-56093402D01*
X116952445Y-56039873D01*
X117106788Y-55961232D01*
X117246928Y-55859414D01*
X117369414Y-55736928D01*
X117470697Y-55597525D01*
X141129500Y-55597525D01*
X141129500Y-55742475D01*
X141160834Y-55859414D01*
X141167017Y-55882488D01*
X141239488Y-56008011D01*
X141239490Y-56008013D01*
X141239491Y-56008015D01*
X141341985Y-56110509D01*
X141341986Y-56110510D01*
X141341988Y-56110511D01*
X141467511Y-56182982D01*
X141467512Y-56182982D01*
X141467515Y-56182984D01*
X141607525Y-56220500D01*
X141607528Y-56220500D01*
X141752472Y-56220500D01*
X141752475Y-56220500D01*
X141892485Y-56182984D01*
X142018015Y-56110509D01*
X142120509Y-56008015D01*
X142192984Y-55882485D01*
X142230500Y-55742475D01*
X142230500Y-55597525D01*
X142192984Y-55457515D01*
X142184284Y-55442447D01*
X142120511Y-55331988D01*
X142120506Y-55331982D01*
X142018017Y-55229493D01*
X142018011Y-55229488D01*
X141892488Y-55157017D01*
X141892489Y-55157017D01*
X141865827Y-55149873D01*
X141752475Y-55119500D01*
X141607525Y-55119500D01*
X141494173Y-55149873D01*
X141467511Y-55157017D01*
X141341988Y-55229488D01*
X141341982Y-55229493D01*
X141239493Y-55331982D01*
X141239488Y-55331988D01*
X141167017Y-55457511D01*
X141167016Y-55457515D01*
X141129500Y-55597525D01*
X117470697Y-55597525D01*
X117471232Y-55596788D01*
X117549873Y-55442445D01*
X117603402Y-55277701D01*
X117630500Y-55106611D01*
X117630500Y-54933389D01*
X117603402Y-54762299D01*
X117549873Y-54597555D01*
X117471232Y-54443212D01*
X117369414Y-54303072D01*
X117246928Y-54180586D01*
X117106788Y-54078768D01*
X117037352Y-54043389D01*
X122964500Y-54043389D01*
X122964500Y-54216610D01*
X122978193Y-54303069D01*
X122991598Y-54387701D01*
X123045127Y-54552445D01*
X123123768Y-54706788D01*
X123225586Y-54846928D01*
X123348072Y-54969414D01*
X123488212Y-55071232D01*
X123642555Y-55149873D01*
X123807299Y-55203402D01*
X123978389Y-55230500D01*
X123978390Y-55230500D01*
X124151610Y-55230500D01*
X124151611Y-55230500D01*
X124322701Y-55203402D01*
X124487445Y-55149873D01*
X124641788Y-55071232D01*
X124781928Y-54969414D01*
X124904414Y-54846928D01*
X125006232Y-54706788D01*
X125084873Y-54552445D01*
X125138402Y-54387701D01*
X125165500Y-54216611D01*
X125165500Y-54043389D01*
X125504500Y-54043389D01*
X125504500Y-54216610D01*
X125518193Y-54303069D01*
X125531598Y-54387701D01*
X125585127Y-54552445D01*
X125663768Y-54706788D01*
X125765586Y-54846928D01*
X125888072Y-54969414D01*
X126028212Y-55071232D01*
X126182555Y-55149873D01*
X126347299Y-55203402D01*
X126518389Y-55230500D01*
X126518390Y-55230500D01*
X126691610Y-55230500D01*
X126691611Y-55230500D01*
X126862701Y-55203402D01*
X127027445Y-55149873D01*
X127181788Y-55071232D01*
X127321928Y-54969414D01*
X127444414Y-54846928D01*
X127546232Y-54706788D01*
X127624873Y-54552445D01*
X127678402Y-54387701D01*
X127705500Y-54216611D01*
X127705500Y-54043389D01*
X128044500Y-54043389D01*
X128044500Y-54216610D01*
X128058193Y-54303069D01*
X128071598Y-54387701D01*
X128125127Y-54552445D01*
X128203768Y-54706788D01*
X128305586Y-54846928D01*
X128428072Y-54969414D01*
X128568212Y-55071232D01*
X128722555Y-55149873D01*
X128887299Y-55203402D01*
X129058389Y-55230500D01*
X129058390Y-55230500D01*
X129231610Y-55230500D01*
X129231611Y-55230500D01*
X129402701Y-55203402D01*
X129567445Y-55149873D01*
X129721788Y-55071232D01*
X129861928Y-54969414D01*
X129984414Y-54846928D01*
X130086232Y-54706788D01*
X130164873Y-54552445D01*
X130218402Y-54387701D01*
X130245500Y-54216611D01*
X130245500Y-54043389D01*
X130584500Y-54043389D01*
X130584500Y-54216610D01*
X130598193Y-54303069D01*
X130611598Y-54387701D01*
X130665127Y-54552445D01*
X130743768Y-54706788D01*
X130845586Y-54846928D01*
X130968072Y-54969414D01*
X131108212Y-55071232D01*
X131262555Y-55149873D01*
X131427299Y-55203402D01*
X131598389Y-55230500D01*
X131598390Y-55230500D01*
X131771610Y-55230500D01*
X131771611Y-55230500D01*
X131942701Y-55203402D01*
X132107445Y-55149873D01*
X132261788Y-55071232D01*
X132401928Y-54969414D01*
X132524414Y-54846928D01*
X132626232Y-54706788D01*
X132704873Y-54552445D01*
X132758402Y-54387701D01*
X132785500Y-54216611D01*
X132785500Y-54043389D01*
X133124500Y-54043389D01*
X133124500Y-54216610D01*
X133138193Y-54303069D01*
X133151598Y-54387701D01*
X133205127Y-54552445D01*
X133283768Y-54706788D01*
X133385586Y-54846928D01*
X133508072Y-54969414D01*
X133648212Y-55071232D01*
X133802555Y-55149873D01*
X133967299Y-55203402D01*
X134138389Y-55230500D01*
X134138390Y-55230500D01*
X134311610Y-55230500D01*
X134311611Y-55230500D01*
X134482701Y-55203402D01*
X134647445Y-55149873D01*
X134801788Y-55071232D01*
X134941928Y-54969414D01*
X135064414Y-54846928D01*
X135166232Y-54706788D01*
X135244873Y-54552445D01*
X135298402Y-54387701D01*
X135325500Y-54216611D01*
X135325500Y-54043389D01*
X135298402Y-53872299D01*
X135244873Y-53707555D01*
X135166232Y-53553212D01*
X135064414Y-53413072D01*
X134941928Y-53290586D01*
X134801788Y-53188768D01*
X134647445Y-53110127D01*
X134482701Y-53056598D01*
X134482699Y-53056597D01*
X134482698Y-53056597D01*
X134351271Y-53035781D01*
X134311611Y-53029500D01*
X134138389Y-53029500D01*
X134098728Y-53035781D01*
X133967302Y-53056597D01*
X133802552Y-53110128D01*
X133648211Y-53188768D01*
X133568256Y-53246859D01*
X133508072Y-53290586D01*
X133508070Y-53290588D01*
X133508069Y-53290588D01*
X133385588Y-53413069D01*
X133385588Y-53413070D01*
X133385586Y-53413072D01*
X133341859Y-53473256D01*
X133283768Y-53553211D01*
X133205128Y-53707552D01*
X133151597Y-53872302D01*
X133124500Y-54043389D01*
X132785500Y-54043389D01*
X132758402Y-53872299D01*
X132704873Y-53707555D01*
X132626232Y-53553212D01*
X132524414Y-53413072D01*
X132401928Y-53290586D01*
X132261788Y-53188768D01*
X132107445Y-53110127D01*
X131942701Y-53056598D01*
X131942699Y-53056597D01*
X131942698Y-53056597D01*
X131811271Y-53035781D01*
X131771611Y-53029500D01*
X131598389Y-53029500D01*
X131558728Y-53035781D01*
X131427302Y-53056597D01*
X131262552Y-53110128D01*
X131108211Y-53188768D01*
X131028256Y-53246859D01*
X130968072Y-53290586D01*
X130968070Y-53290588D01*
X130968069Y-53290588D01*
X130845588Y-53413069D01*
X130845588Y-53413070D01*
X130845586Y-53413072D01*
X130801859Y-53473256D01*
X130743768Y-53553211D01*
X130665128Y-53707552D01*
X130611597Y-53872302D01*
X130584500Y-54043389D01*
X130245500Y-54043389D01*
X130218402Y-53872299D01*
X130164873Y-53707555D01*
X130086232Y-53553212D01*
X129984414Y-53413072D01*
X129861928Y-53290586D01*
X129721788Y-53188768D01*
X129567445Y-53110127D01*
X129402701Y-53056598D01*
X129402699Y-53056597D01*
X129402698Y-53056597D01*
X129271271Y-53035781D01*
X129231611Y-53029500D01*
X129058389Y-53029500D01*
X129018728Y-53035781D01*
X128887302Y-53056597D01*
X128722552Y-53110128D01*
X128568211Y-53188768D01*
X128488256Y-53246859D01*
X128428072Y-53290586D01*
X128428070Y-53290588D01*
X128428069Y-53290588D01*
X128305588Y-53413069D01*
X128305588Y-53413070D01*
X128305586Y-53413072D01*
X128261859Y-53473256D01*
X128203768Y-53553211D01*
X128125128Y-53707552D01*
X128071597Y-53872302D01*
X128044500Y-54043389D01*
X127705500Y-54043389D01*
X127678402Y-53872299D01*
X127624873Y-53707555D01*
X127546232Y-53553212D01*
X127444414Y-53413072D01*
X127321928Y-53290586D01*
X127181788Y-53188768D01*
X127027445Y-53110127D01*
X126862701Y-53056598D01*
X126862699Y-53056597D01*
X126862698Y-53056597D01*
X126731271Y-53035781D01*
X126691611Y-53029500D01*
X126518389Y-53029500D01*
X126478728Y-53035781D01*
X126347302Y-53056597D01*
X126182552Y-53110128D01*
X126028211Y-53188768D01*
X125948256Y-53246859D01*
X125888072Y-53290586D01*
X125888070Y-53290588D01*
X125888069Y-53290588D01*
X125765588Y-53413069D01*
X125765588Y-53413070D01*
X125765586Y-53413072D01*
X125721859Y-53473256D01*
X125663768Y-53553211D01*
X125585128Y-53707552D01*
X125531597Y-53872302D01*
X125504500Y-54043389D01*
X125165500Y-54043389D01*
X125138402Y-53872299D01*
X125084873Y-53707555D01*
X125006232Y-53553212D01*
X124904414Y-53413072D01*
X124781928Y-53290586D01*
X124641788Y-53188768D01*
X124487445Y-53110127D01*
X124322701Y-53056598D01*
X124322699Y-53056597D01*
X124322698Y-53056597D01*
X124191271Y-53035781D01*
X124151611Y-53029500D01*
X123978389Y-53029500D01*
X123938728Y-53035781D01*
X123807302Y-53056597D01*
X123642552Y-53110128D01*
X123488211Y-53188768D01*
X123408256Y-53246859D01*
X123348072Y-53290586D01*
X123348070Y-53290588D01*
X123348069Y-53290588D01*
X123225588Y-53413069D01*
X123225588Y-53413070D01*
X123225586Y-53413072D01*
X123181859Y-53473256D01*
X123123768Y-53553211D01*
X123045128Y-53707552D01*
X122991597Y-53872302D01*
X122964500Y-54043389D01*
X117037352Y-54043389D01*
X116952445Y-54000127D01*
X116787701Y-53946598D01*
X116787699Y-53946597D01*
X116787698Y-53946597D01*
X116656271Y-53925781D01*
X116616611Y-53919500D01*
X116143389Y-53919500D01*
X116103728Y-53925781D01*
X115972302Y-53946597D01*
X115807552Y-54000128D01*
X115653211Y-54078768D01*
X115573256Y-54136859D01*
X115513072Y-54180586D01*
X115513070Y-54180588D01*
X115513069Y-54180588D01*
X115390588Y-54303069D01*
X115390588Y-54303070D01*
X115390586Y-54303072D01*
X115346859Y-54363256D01*
X115288768Y-54443211D01*
X115210128Y-54597552D01*
X115156597Y-54762302D01*
X115129500Y-54933389D01*
X111300500Y-54933389D01*
X111300500Y-51872135D01*
X115129500Y-51872135D01*
X115129500Y-53167870D01*
X115129501Y-53167876D01*
X115135908Y-53227483D01*
X115186202Y-53362328D01*
X115186206Y-53362335D01*
X115272452Y-53477544D01*
X115272455Y-53477547D01*
X115387664Y-53563793D01*
X115387671Y-53563797D01*
X115522517Y-53614091D01*
X115522516Y-53614091D01*
X115529444Y-53614835D01*
X115582127Y-53620500D01*
X117177872Y-53620499D01*
X117237483Y-53614091D01*
X117372331Y-53563796D01*
X117487546Y-53477546D01*
X117573796Y-53362331D01*
X117624091Y-53227483D01*
X117630500Y-53167873D01*
X117630499Y-51872128D01*
X117624091Y-51812517D01*
X117573796Y-51677669D01*
X117573795Y-51677668D01*
X117573793Y-51677664D01*
X117487547Y-51562455D01*
X117487544Y-51562452D01*
X117372335Y-51476206D01*
X117372328Y-51476202D01*
X117237482Y-51425908D01*
X117237483Y-51425908D01*
X117177883Y-51419501D01*
X117177881Y-51419500D01*
X117177873Y-51419500D01*
X117177864Y-51419500D01*
X115582129Y-51419500D01*
X115582123Y-51419501D01*
X115522516Y-51425908D01*
X115387671Y-51476202D01*
X115387664Y-51476206D01*
X115272455Y-51562452D01*
X115272452Y-51562455D01*
X115186206Y-51677664D01*
X115186202Y-51677671D01*
X115135908Y-51812517D01*
X115129501Y-51872116D01*
X115129501Y-51872123D01*
X115129500Y-51872135D01*
X111300500Y-51872135D01*
X111300500Y-46003051D01*
X111300649Y-45996966D01*
X111308916Y-45828681D01*
X111949500Y-45828681D01*
X111949500Y-46171318D01*
X111987858Y-46511768D01*
X111987860Y-46511780D01*
X111987861Y-46511783D01*
X112005262Y-46588024D01*
X112064102Y-46845816D01*
X112064103Y-46845818D01*
X112177264Y-47169216D01*
X112325922Y-47477907D01*
X112325924Y-47477910D01*
X112508211Y-47768018D01*
X112583715Y-47862697D01*
X112715098Y-48027447D01*
X112721834Y-48035893D01*
X112964107Y-48278166D01*
X113231982Y-48491789D01*
X113522090Y-48674076D01*
X113830785Y-48822736D01*
X114154183Y-48935897D01*
X114488217Y-49012139D01*
X114488226Y-49012140D01*
X114488231Y-49012141D01*
X114715197Y-49037713D01*
X114828682Y-49050499D01*
X114828685Y-49050500D01*
X114828688Y-49050500D01*
X115171315Y-49050500D01*
X115171316Y-49050499D01*
X115345311Y-49030895D01*
X115511768Y-49012141D01*
X115511771Y-49012140D01*
X115511783Y-49012139D01*
X115845817Y-48935897D01*
X116169215Y-48822736D01*
X116477910Y-48674076D01*
X116768018Y-48491789D01*
X117035893Y-48278166D01*
X117278166Y-48035893D01*
X117491789Y-47768018D01*
X117674076Y-47477910D01*
X117774976Y-47268389D01*
X146479500Y-47268389D01*
X146479500Y-47691611D01*
X146506598Y-47862701D01*
X146560127Y-48027445D01*
X146638768Y-48181788D01*
X146740586Y-48321928D01*
X146863072Y-48444414D01*
X147003212Y-48546232D01*
X147157555Y-48624873D01*
X147322299Y-48678402D01*
X147493389Y-48705500D01*
X147493390Y-48705500D01*
X147666610Y-48705500D01*
X147666611Y-48705500D01*
X147837701Y-48678402D01*
X148002445Y-48624873D01*
X148156788Y-48546232D01*
X148296928Y-48444414D01*
X148419414Y-48321928D01*
X148521232Y-48181788D01*
X148599873Y-48027445D01*
X148653402Y-47862701D01*
X148680500Y-47691611D01*
X148680500Y-47268389D01*
X148979500Y-47268389D01*
X148979500Y-47691611D01*
X149006598Y-47862701D01*
X149060127Y-48027445D01*
X149138768Y-48181788D01*
X149240586Y-48321928D01*
X149363072Y-48444414D01*
X149503212Y-48546232D01*
X149657555Y-48624873D01*
X149822299Y-48678402D01*
X149993389Y-48705500D01*
X149993390Y-48705500D01*
X150166610Y-48705500D01*
X150166611Y-48705500D01*
X150337701Y-48678402D01*
X150502445Y-48624873D01*
X150656788Y-48546232D01*
X150796928Y-48444414D01*
X150919414Y-48321928D01*
X151021232Y-48181788D01*
X151099873Y-48027445D01*
X151153402Y-47862701D01*
X151180500Y-47691611D01*
X151180500Y-47268389D01*
X151479500Y-47268389D01*
X151479500Y-47691611D01*
X151506598Y-47862701D01*
X151560127Y-48027445D01*
X151638768Y-48181788D01*
X151740586Y-48321928D01*
X151863072Y-48444414D01*
X152003212Y-48546232D01*
X152157555Y-48624873D01*
X152322299Y-48678402D01*
X152493389Y-48705500D01*
X152493390Y-48705500D01*
X152666610Y-48705500D01*
X152666611Y-48705500D01*
X152837701Y-48678402D01*
X153002445Y-48624873D01*
X153156788Y-48546232D01*
X153296928Y-48444414D01*
X153419414Y-48321928D01*
X153521232Y-48181788D01*
X153599873Y-48027445D01*
X153653402Y-47862701D01*
X153680500Y-47691611D01*
X153680500Y-47268389D01*
X153979500Y-47268389D01*
X153979500Y-47691611D01*
X154006598Y-47862701D01*
X154060127Y-48027445D01*
X154138768Y-48181788D01*
X154240586Y-48321928D01*
X154363072Y-48444414D01*
X154503212Y-48546232D01*
X154657555Y-48624873D01*
X154822299Y-48678402D01*
X154993389Y-48705500D01*
X154993390Y-48705500D01*
X155166610Y-48705500D01*
X155166611Y-48705500D01*
X155337701Y-48678402D01*
X155502445Y-48624873D01*
X155656788Y-48546232D01*
X155796928Y-48444414D01*
X155919414Y-48321928D01*
X156021232Y-48181788D01*
X156099873Y-48027445D01*
X156153402Y-47862701D01*
X156180500Y-47691611D01*
X156180500Y-47268389D01*
X156153402Y-47097299D01*
X156099873Y-46932555D01*
X156021232Y-46778212D01*
X156021230Y-46778209D01*
X156021229Y-46778207D01*
X156020130Y-46776693D01*
X156020128Y-46776692D01*
X155969591Y-46707135D01*
X156479500Y-46707135D01*
X156479500Y-48252870D01*
X156479501Y-48252876D01*
X156485908Y-48312483D01*
X156536202Y-48447328D01*
X156536206Y-48447335D01*
X156622452Y-48562544D01*
X156622455Y-48562547D01*
X156737664Y-48648793D01*
X156737671Y-48648797D01*
X156872517Y-48699091D01*
X156872516Y-48699091D01*
X156879444Y-48699835D01*
X156932127Y-48705500D01*
X158227872Y-48705499D01*
X158287483Y-48699091D01*
X158422331Y-48648796D01*
X158537546Y-48562546D01*
X158623796Y-48447331D01*
X158674091Y-48312483D01*
X158680500Y-48252873D01*
X158680499Y-46707128D01*
X158674091Y-46647517D01*
X158670568Y-46638072D01*
X158623797Y-46512671D01*
X158623793Y-46512664D01*
X158537547Y-46397455D01*
X158537544Y-46397452D01*
X158422335Y-46311206D01*
X158422328Y-46311202D01*
X158287482Y-46260908D01*
X158287483Y-46260908D01*
X158227883Y-46254501D01*
X158227881Y-46254500D01*
X158227873Y-46254500D01*
X158227864Y-46254500D01*
X156932129Y-46254500D01*
X156932123Y-46254501D01*
X156872516Y-46260908D01*
X156737671Y-46311202D01*
X156737664Y-46311206D01*
X156622455Y-46397452D01*
X156622452Y-46397455D01*
X156536206Y-46512664D01*
X156536202Y-46512671D01*
X156485908Y-46647517D01*
X156479501Y-46707116D01*
X156479501Y-46707123D01*
X156479500Y-46707135D01*
X155969591Y-46707135D01*
X155969586Y-46707128D01*
X155919414Y-46638072D01*
X155796928Y-46515586D01*
X155656788Y-46413768D01*
X155502445Y-46335127D01*
X155337701Y-46281598D01*
X155337699Y-46281597D01*
X155337698Y-46281597D01*
X155206271Y-46260781D01*
X155166611Y-46254500D01*
X154993389Y-46254500D01*
X154953728Y-46260781D01*
X154822302Y-46281597D01*
X154657552Y-46335128D01*
X154503211Y-46413768D01*
X154423256Y-46471859D01*
X154363072Y-46515586D01*
X154363070Y-46515588D01*
X154363069Y-46515588D01*
X154240588Y-46638069D01*
X154240588Y-46638070D01*
X154240586Y-46638072D01*
X154233725Y-46647516D01*
X154138768Y-46778211D01*
X154060128Y-46932552D01*
X154006597Y-47097302D01*
X153995207Y-47169216D01*
X153979500Y-47268389D01*
X153680500Y-47268389D01*
X153653402Y-47097299D01*
X153599873Y-46932555D01*
X153521232Y-46778212D01*
X153419414Y-46638072D01*
X153296928Y-46515586D01*
X153156788Y-46413768D01*
X153002445Y-46335127D01*
X152837701Y-46281598D01*
X152837699Y-46281597D01*
X152837698Y-46281597D01*
X152706271Y-46260781D01*
X152666611Y-46254500D01*
X152493389Y-46254500D01*
X152453728Y-46260781D01*
X152322302Y-46281597D01*
X152157552Y-46335128D01*
X152003211Y-46413768D01*
X151923256Y-46471859D01*
X151863072Y-46515586D01*
X151863070Y-46515588D01*
X151863069Y-46515588D01*
X151740588Y-46638069D01*
X151740588Y-46638070D01*
X151740586Y-46638072D01*
X151733725Y-46647516D01*
X151638768Y-46778211D01*
X151560128Y-46932552D01*
X151506597Y-47097302D01*
X151495207Y-47169216D01*
X151479500Y-47268389D01*
X151180500Y-47268389D01*
X151153402Y-47097299D01*
X151099873Y-46932555D01*
X151021232Y-46778212D01*
X150919414Y-46638072D01*
X150796928Y-46515586D01*
X150656788Y-46413768D01*
X150502445Y-46335127D01*
X150337701Y-46281598D01*
X150337699Y-46281597D01*
X150337698Y-46281597D01*
X150206271Y-46260781D01*
X150166611Y-46254500D01*
X149993389Y-46254500D01*
X149953728Y-46260781D01*
X149822302Y-46281597D01*
X149657552Y-46335128D01*
X149503211Y-46413768D01*
X149423256Y-46471859D01*
X149363072Y-46515586D01*
X149363070Y-46515588D01*
X149363069Y-46515588D01*
X149240588Y-46638069D01*
X149240588Y-46638070D01*
X149240586Y-46638072D01*
X149233725Y-46647516D01*
X149138768Y-46778211D01*
X149060128Y-46932552D01*
X149006597Y-47097302D01*
X148995207Y-47169216D01*
X148979500Y-47268389D01*
X148680500Y-47268389D01*
X148653402Y-47097299D01*
X148599873Y-46932555D01*
X148521232Y-46778212D01*
X148419414Y-46638072D01*
X148296928Y-46515586D01*
X148156788Y-46413768D01*
X148002445Y-46335127D01*
X147837701Y-46281598D01*
X147837699Y-46281597D01*
X147837698Y-46281597D01*
X147706271Y-46260781D01*
X147666611Y-46254500D01*
X147493389Y-46254500D01*
X147453728Y-46260781D01*
X147322302Y-46281597D01*
X147157552Y-46335128D01*
X147003211Y-46413768D01*
X146923256Y-46471859D01*
X146863072Y-46515586D01*
X146863070Y-46515588D01*
X146863069Y-46515588D01*
X146740588Y-46638069D01*
X146740588Y-46638070D01*
X146740586Y-46638072D01*
X146733725Y-46647516D01*
X146638768Y-46778211D01*
X146560128Y-46932552D01*
X146506597Y-47097302D01*
X146495207Y-47169216D01*
X146479500Y-47268389D01*
X117774976Y-47268389D01*
X117822736Y-47169215D01*
X117935897Y-46845817D01*
X118012139Y-46511783D01*
X118023183Y-46413768D01*
X118034738Y-46311204D01*
X118050500Y-46171312D01*
X118050500Y-45828688D01*
X118050499Y-45828681D01*
X163949500Y-45828681D01*
X163949500Y-46171318D01*
X163987858Y-46511768D01*
X163987860Y-46511780D01*
X163987861Y-46511783D01*
X164005262Y-46588024D01*
X164064102Y-46845816D01*
X164064103Y-46845818D01*
X164177264Y-47169216D01*
X164325922Y-47477907D01*
X164325924Y-47477910D01*
X164508211Y-47768018D01*
X164583715Y-47862697D01*
X164715098Y-48027447D01*
X164721834Y-48035893D01*
X164964107Y-48278166D01*
X165231982Y-48491789D01*
X165522090Y-48674076D01*
X165830785Y-48822736D01*
X166154183Y-48935897D01*
X166488217Y-49012139D01*
X166488226Y-49012140D01*
X166488231Y-49012141D01*
X166715197Y-49037713D01*
X166828682Y-49050499D01*
X166828685Y-49050500D01*
X166828688Y-49050500D01*
X167171315Y-49050500D01*
X167171316Y-49050499D01*
X167345311Y-49030895D01*
X167511768Y-49012141D01*
X167511771Y-49012140D01*
X167511783Y-49012139D01*
X167845817Y-48935897D01*
X168169215Y-48822736D01*
X168477910Y-48674076D01*
X168768018Y-48491789D01*
X169035893Y-48278166D01*
X169278166Y-48035893D01*
X169491789Y-47768018D01*
X169674076Y-47477910D01*
X169822736Y-47169215D01*
X169935897Y-46845817D01*
X170012139Y-46511783D01*
X170023183Y-46413768D01*
X170034738Y-46311204D01*
X170050500Y-46171312D01*
X170050500Y-45828688D01*
X170012139Y-45488217D01*
X169935897Y-45154183D01*
X169822736Y-44830785D01*
X169674076Y-44522090D01*
X169491789Y-44231982D01*
X169278166Y-43964107D01*
X169035893Y-43721834D01*
X168768018Y-43508211D01*
X168477910Y-43325924D01*
X168477907Y-43325922D01*
X168169216Y-43177264D01*
X167845818Y-43064103D01*
X167845816Y-43064102D01*
X167588024Y-43005262D01*
X167511783Y-42987861D01*
X167511780Y-42987860D01*
X167511768Y-42987858D01*
X167171318Y-42949500D01*
X167171312Y-42949500D01*
X166828688Y-42949500D01*
X166828681Y-42949500D01*
X166488231Y-42987858D01*
X166488217Y-42987861D01*
X166154183Y-43064102D01*
X166154181Y-43064103D01*
X165830783Y-43177264D01*
X165522092Y-43325922D01*
X165231983Y-43508210D01*
X164964107Y-43721833D01*
X164721833Y-43964107D01*
X164508210Y-44231983D01*
X164325922Y-44522092D01*
X164177264Y-44830783D01*
X164064103Y-45154181D01*
X164064102Y-45154183D01*
X163987861Y-45488217D01*
X163987858Y-45488231D01*
X163949500Y-45828681D01*
X118050499Y-45828681D01*
X118012139Y-45488217D01*
X117935897Y-45154183D01*
X117822736Y-44830785D01*
X117674076Y-44522090D01*
X117491789Y-44231982D01*
X117278166Y-43964107D01*
X117035893Y-43721834D01*
X116768018Y-43508211D01*
X116477910Y-43325924D01*
X116477907Y-43325922D01*
X116169216Y-43177264D01*
X115845818Y-43064103D01*
X115845816Y-43064102D01*
X115588024Y-43005262D01*
X115511783Y-42987861D01*
X115511780Y-42987860D01*
X115511768Y-42987858D01*
X115171318Y-42949500D01*
X115171312Y-42949500D01*
X114828688Y-42949500D01*
X114828681Y-42949500D01*
X114488231Y-42987858D01*
X114488217Y-42987861D01*
X114154183Y-43064102D01*
X114154181Y-43064103D01*
X113830783Y-43177264D01*
X113522092Y-43325922D01*
X113231983Y-43508210D01*
X112964107Y-43721833D01*
X112721833Y-43964107D01*
X112508210Y-44231983D01*
X112325922Y-44522092D01*
X112177264Y-44830783D01*
X112064103Y-45154181D01*
X112064102Y-45154183D01*
X111987861Y-45488217D01*
X111987858Y-45488231D01*
X111949500Y-45828681D01*
X111308916Y-45828681D01*
X111309386Y-45819124D01*
X111309386Y-45819123D01*
X111318015Y-45643469D01*
X111319208Y-45631359D01*
X111370691Y-45284287D01*
X111373061Y-45272367D01*
X111458322Y-44931986D01*
X111461852Y-44920353D01*
X111493901Y-44830785D01*
X111580055Y-44589999D01*
X111584710Y-44578762D01*
X111619835Y-44504495D01*
X111734735Y-44261557D01*
X111740454Y-44250857D01*
X111920851Y-43949884D01*
X111927594Y-43939791D01*
X112136630Y-43657939D01*
X112144333Y-43648554D01*
X112379983Y-43388553D01*
X112388553Y-43379983D01*
X112648554Y-43144333D01*
X112657939Y-43136630D01*
X112939791Y-42927594D01*
X112949884Y-42920851D01*
X113250857Y-42740454D01*
X113261557Y-42734735D01*
X113578762Y-42584710D01*
X113589999Y-42580055D01*
X113920361Y-42461849D01*
X113931986Y-42458322D01*
X114272367Y-42373061D01*
X114284278Y-42370692D01*
X114631359Y-42319207D01*
X114643465Y-42318015D01*
X114996967Y-42300648D01*
X115003051Y-42300500D01*
X115047595Y-42300500D01*
X166952405Y-42300500D01*
X166996949Y-42300500D01*
X167003032Y-42300648D01*
G37*
%TD.AperFunction*%
%TD*%
M02*
