%TF.GenerationSoftware,KiCad,Pcbnew,9.0.7*%
%TF.CreationDate,2026-04-17T22:07:09+02:00*%
%TF.ProjectId,PAMI_TEAM_SCRAT_FINAL_V2,50414d49-5f54-4454-914d-5f5343524154,rev?*%
%TF.SameCoordinates,Original*%
%TF.FileFunction,Paste,Top*%
%TF.FilePolarity,Positive*%
%FSLAX46Y46*%
G04 Gerber Fmt 4.6, Leading zero omitted, Abs format (unit mm)*
G04 Created by KiCad (PCBNEW 9.0.7) date 2026-04-17 22:07:09*
%MOMM*%
%LPD*%
G01*
G04 APERTURE LIST*
G04 Aperture macros list*
%AMRoundRect*
0 Rectangle with rounded corners*
0 $1 Rounding radius*
0 $2 $3 $4 $5 $6 $7 $8 $9 X,Y pos of 4 corners*
0 Add a 4 corners polygon primitive as box body*
4,1,4,$2,$3,$4,$5,$6,$7,$8,$9,$2,$3,0*
0 Add four circle primitives for the rounded corners*
1,1,$1+$1,$2,$3*
1,1,$1+$1,$4,$5*
1,1,$1+$1,$6,$7*
1,1,$1+$1,$8,$9*
0 Add four rect primitives between the rounded corners*
20,1,$1+$1,$2,$3,$4,$5,0*
20,1,$1+$1,$4,$5,$6,$7,0*
20,1,$1+$1,$6,$7,$8,$9,0*
20,1,$1+$1,$8,$9,$2,$3,0*%
G04 Aperture macros list end*
%ADD10RoundRect,0.225000X-0.225000X-0.250000X0.225000X-0.250000X0.225000X0.250000X-0.225000X0.250000X0*%
%ADD11RoundRect,0.200000X-0.275000X0.200000X-0.275000X-0.200000X0.275000X-0.200000X0.275000X0.200000X0*%
%ADD12RoundRect,0.250000X-0.600000X0.800000X-0.600000X-0.800000X0.600000X-0.800000X0.600000X0.800000X0*%
%ADD13RoundRect,0.225000X0.225000X0.250000X-0.225000X0.250000X-0.225000X-0.250000X0.225000X-0.250000X0*%
%ADD14RoundRect,0.225000X-0.250000X0.225000X-0.250000X-0.225000X0.250000X-0.225000X0.250000X0.225000X0*%
%ADD15RoundRect,0.218750X0.218750X0.256250X-0.218750X0.256250X-0.218750X-0.256250X0.218750X-0.256250X0*%
%ADD16RoundRect,0.200000X0.275000X-0.200000X0.275000X0.200000X-0.275000X0.200000X-0.275000X-0.200000X0*%
%ADD17RoundRect,0.225000X0.250000X-0.225000X0.250000X0.225000X-0.250000X0.225000X-0.250000X-0.225000X0*%
%ADD18RoundRect,0.200000X-0.200000X-0.275000X0.200000X-0.275000X0.200000X0.275000X-0.200000X0.275000X0*%
%ADD19RoundRect,0.250000X0.400000X-0.525000X0.400000X0.525000X-0.400000X0.525000X-0.400000X-0.525000X0*%
%ADD20R,1.899920X1.070100*%
%ADD21RoundRect,0.090000X0.360000X-0.660000X0.360000X0.660000X-0.360000X0.660000X-0.360000X-0.660000X0*%
%ADD22RoundRect,0.090000X-0.360000X0.660000X-0.360000X-0.660000X0.360000X-0.660000X0.360000X0.660000X0*%
%ADD23RoundRect,0.200000X0.200000X0.275000X-0.200000X0.275000X-0.200000X-0.275000X0.200000X-0.275000X0*%
%ADD24RoundRect,0.100000X0.100000X-0.850000X0.100000X0.850000X-0.100000X0.850000X-0.100000X-0.850000X0*%
%ADD25RoundRect,0.375000X-0.625000X-0.375000X0.625000X-0.375000X0.625000X0.375000X-0.625000X0.375000X0*%
%ADD26RoundRect,0.500000X-0.500000X-1.400000X0.500000X-1.400000X0.500000X1.400000X-0.500000X1.400000X0*%
%ADD27RoundRect,0.250000X-1.250000X-0.550000X1.250000X-0.550000X1.250000X0.550000X-1.250000X0.550000X0*%
%ADD28RoundRect,0.075000X-0.075000X0.700000X-0.075000X-0.700000X0.075000X-0.700000X0.075000X0.700000X0*%
%ADD29RoundRect,0.075000X-0.700000X0.075000X-0.700000X-0.075000X0.700000X-0.075000X0.700000X0.075000X0*%
G04 APERTURE END LIST*
D10*
%TO.C,C23*%
X159712500Y-125010000D03*
X161262500Y-125010000D03*
%TD*%
D11*
%TO.C,R3*%
X161200000Y-91322500D03*
X161200000Y-92972500D03*
%TD*%
D12*
%TO.C,Y1*%
X147480000Y-58420000D03*
X147480000Y-64320000D03*
X150180000Y-64320000D03*
X150180000Y-58420000D03*
%TD*%
D13*
%TO.C,C5*%
X148865000Y-70310000D03*
X147315000Y-70310000D03*
%TD*%
D14*
%TO.C,C13*%
X144760000Y-58420000D03*
X144760000Y-59970000D03*
%TD*%
D15*
%TO.C,D2*%
X131080000Y-63110000D03*
X129505000Y-63110000D03*
%TD*%
D16*
%TO.C,R2*%
X161200000Y-97450000D03*
X161200000Y-95800000D03*
%TD*%
D10*
%TO.C,C11*%
X113645000Y-80220000D03*
X115195000Y-80220000D03*
%TD*%
D17*
%TO.C,C7*%
X132620000Y-77435000D03*
X132620000Y-75885000D03*
%TD*%
%TO.C,C2*%
X159100000Y-86662500D03*
X159100000Y-85112500D03*
%TD*%
D13*
%TO.C,C24*%
X122287500Y-125010000D03*
X120737500Y-125010000D03*
%TD*%
D18*
%TO.C,R12*%
X160982500Y-70635000D03*
X162632500Y-70635000D03*
%TD*%
D19*
%TO.C,SW3*%
X163660000Y-82185000D03*
X163660000Y-74225000D03*
X168160000Y-82185000D03*
X168160000Y-74225000D03*
%TD*%
D13*
%TO.C,C16*%
X134404670Y-91295000D03*
X132854670Y-91295000D03*
%TD*%
D20*
%TO.C,U2*%
X148320030Y-118880000D03*
X148320030Y-117610000D03*
X148320030Y-116340000D03*
X148320030Y-115070000D03*
X148320030Y-113800000D03*
X148320030Y-112530000D03*
X148320030Y-111260000D03*
X148320030Y-109990000D03*
X148320030Y-108720000D03*
X148320030Y-107450000D03*
X148320030Y-106180000D03*
X148320030Y-104910000D03*
X148320030Y-103640000D03*
X148320030Y-102370000D03*
X148320030Y-101100000D03*
X148320030Y-99830000D03*
X133679970Y-99830000D03*
X133679970Y-101100000D03*
X133679970Y-102370000D03*
X133679970Y-103640000D03*
X133679970Y-104910000D03*
X133679970Y-106180000D03*
X133679970Y-107450000D03*
X133679970Y-108720000D03*
X133679970Y-109990000D03*
X133679970Y-111260000D03*
X133679970Y-112530000D03*
X133679970Y-113800000D03*
X133679970Y-115070000D03*
X133679970Y-116340000D03*
X133679970Y-117610000D03*
X133679970Y-118880000D03*
%TD*%
D13*
%TO.C,C25*%
X121895000Y-68950000D03*
X120345000Y-68950000D03*
%TD*%
D14*
%TO.C,C19*%
X130870000Y-79830000D03*
X130870000Y-81380000D03*
%TD*%
D16*
%TO.C,R6*%
X161200000Y-75875000D03*
X161200000Y-74225000D03*
%TD*%
D21*
%TO.C,D4*%
X152462500Y-108650000D03*
X155762500Y-108650000D03*
X155762500Y-103750000D03*
X152462500Y-103750000D03*
%TD*%
D13*
%TO.C,C9*%
X148095000Y-84230000D03*
X146545000Y-84230000D03*
%TD*%
D19*
%TO.C,SW4*%
X113830000Y-104050000D03*
X113830000Y-96090000D03*
X118330000Y-104050000D03*
X118330000Y-96090000D03*
%TD*%
D22*
%TO.C,D9*%
X129537500Y-103750000D03*
X126237500Y-103750000D03*
X126237500Y-108650000D03*
X129537500Y-108650000D03*
%TD*%
D17*
%TO.C,C20*%
X153230000Y-73155000D03*
X153230000Y-71605000D03*
%TD*%
D23*
%TO.C,R7*%
X151620235Y-77560000D03*
X149970235Y-77560000D03*
%TD*%
D18*
%TO.C,R14*%
X160982500Y-63425000D03*
X162632500Y-63425000D03*
%TD*%
D24*
%TO.C,U5*%
X137450000Y-95630000D03*
X138100000Y-95630000D03*
X138750000Y-95630000D03*
X139400000Y-95630000D03*
X140050000Y-95630000D03*
X140700000Y-95630000D03*
X141350000Y-95630000D03*
X142000000Y-95630000D03*
X142650000Y-95630000D03*
X143300000Y-95630000D03*
X143950000Y-95630000D03*
X144600000Y-95630000D03*
X144600000Y-88630000D03*
X143950000Y-88630000D03*
X143300000Y-88630000D03*
X142650000Y-88630000D03*
X142000000Y-88630000D03*
X141350000Y-88630000D03*
X140700000Y-88630000D03*
X140050000Y-88630000D03*
X139400000Y-88630000D03*
X138750000Y-88630000D03*
X138100000Y-88630000D03*
X137450000Y-88630000D03*
%TD*%
D15*
%TO.C,D12*%
X165767500Y-63425000D03*
X164192500Y-63425000D03*
%TD*%
D18*
%TO.C,R9*%
X149970235Y-75200000D03*
X151620235Y-75200000D03*
%TD*%
D25*
%TO.C,U4*%
X113645000Y-82690000D03*
X113645000Y-84990000D03*
D26*
X119945000Y-84990000D03*
D25*
X113645000Y-87290000D03*
%TD*%
D13*
%TO.C,C15*%
X134404670Y-92965000D03*
X132854670Y-92965000D03*
%TD*%
D27*
%TO.C,C12*%
X113645000Y-91760000D03*
X118045000Y-91760000D03*
%TD*%
D18*
%TO.C,R13*%
X160982500Y-67030000D03*
X162632500Y-67030000D03*
%TD*%
D19*
%TO.C,SW2*%
X163660000Y-92972500D03*
X163660000Y-85012500D03*
X168160000Y-92972500D03*
X168160000Y-85012500D03*
%TD*%
D18*
%TO.C,R11*%
X126315000Y-59820000D03*
X127965000Y-59820000D03*
%TD*%
%TO.C,R8*%
X126315000Y-66400000D03*
X127965000Y-66400000D03*
%TD*%
D17*
%TO.C,C21*%
X139650000Y-54130000D03*
X139650000Y-52580000D03*
%TD*%
D14*
%TO.C,C22*%
X140966250Y-45930000D03*
X140966250Y-47480000D03*
%TD*%
%TO.C,C14*%
X152900000Y-62770000D03*
X152900000Y-64320000D03*
%TD*%
D15*
%TO.C,D1*%
X131080000Y-66400000D03*
X129505000Y-66400000D03*
%TD*%
D13*
%TO.C,C10*%
X148865000Y-71940000D03*
X147315000Y-71940000D03*
%TD*%
D15*
%TO.C,D3*%
X131080000Y-59820000D03*
X129505000Y-59820000D03*
%TD*%
D19*
%TO.C,SW1*%
X163660000Y-103760000D03*
X163660000Y-95800000D03*
X168160000Y-103760000D03*
X168160000Y-95800000D03*
%TD*%
D18*
%TO.C,R10*%
X126315000Y-63110000D03*
X127965000Y-63110000D03*
%TD*%
D14*
%TO.C,C6*%
X138750000Y-66525000D03*
X138750000Y-68075000D03*
%TD*%
D16*
%TO.C,R4*%
X161200000Y-86662500D03*
X161200000Y-85012500D03*
%TD*%
D11*
%TO.C,R5*%
X161200000Y-80535000D03*
X161200000Y-82185000D03*
%TD*%
D10*
%TO.C,C18*%
X146545000Y-86490000D03*
X148095000Y-86490000D03*
%TD*%
D22*
%TO.C,D7*%
X129537500Y-121014000D03*
X126237500Y-121014000D03*
X126237500Y-125914000D03*
X129537500Y-125914000D03*
%TD*%
D17*
%TO.C,C4*%
X141100000Y-66055000D03*
X141100000Y-64505000D03*
%TD*%
%TO.C,C8*%
X133150000Y-84325000D03*
X133150000Y-82775000D03*
%TD*%
%TO.C,C3*%
X159100000Y-75875000D03*
X159100000Y-74325000D03*
%TD*%
D15*
%TO.C,D10*%
X165767500Y-70635000D03*
X164192500Y-70635000D03*
%TD*%
D10*
%TO.C,C17*%
X146545000Y-88160000D03*
X148095000Y-88160000D03*
%TD*%
D15*
%TO.C,D11*%
X165767500Y-67030000D03*
X164192500Y-67030000D03*
%TD*%
D28*
%TO.C,U1*%
X144750000Y-71405000D03*
X144250000Y-71405000D03*
X143750000Y-71405000D03*
X143250000Y-71405000D03*
X142750000Y-71405000D03*
X142250000Y-71405000D03*
X141750000Y-71405000D03*
X141250000Y-71405000D03*
X140750000Y-71405000D03*
X140250000Y-71405000D03*
X139750000Y-71405000D03*
X139250000Y-71405000D03*
X138750000Y-71405000D03*
X138250000Y-71405000D03*
X137750000Y-71405000D03*
X137250000Y-71405000D03*
D29*
X135325000Y-73330000D03*
X135325000Y-73830000D03*
X135325000Y-74330000D03*
X135325000Y-74830000D03*
X135325000Y-75330000D03*
X135325000Y-75830000D03*
X135325000Y-76330000D03*
X135325000Y-76830000D03*
X135325000Y-77330000D03*
X135325000Y-77830000D03*
X135325000Y-78330000D03*
X135325000Y-78830000D03*
X135325000Y-79330000D03*
X135325000Y-79830000D03*
X135325000Y-80330000D03*
X135325000Y-80830000D03*
D28*
X137250000Y-82755000D03*
X137750000Y-82755000D03*
X138250000Y-82755000D03*
X138750000Y-82755000D03*
X139250000Y-82755000D03*
X139750000Y-82755000D03*
X140250000Y-82755000D03*
X140750000Y-82755000D03*
X141250000Y-82755000D03*
X141750000Y-82755000D03*
X142250000Y-82755000D03*
X142750000Y-82755000D03*
X143250000Y-82755000D03*
X143750000Y-82755000D03*
X144250000Y-82755000D03*
X144750000Y-82755000D03*
D29*
X146675000Y-80830000D03*
X146675000Y-80330000D03*
X146675000Y-79830000D03*
X146675000Y-79330000D03*
X146675000Y-78830000D03*
X146675000Y-78330000D03*
X146675000Y-77830000D03*
X146675000Y-77330000D03*
X146675000Y-76830000D03*
X146675000Y-76330000D03*
X146675000Y-75830000D03*
X146675000Y-75330000D03*
X146675000Y-74830000D03*
X146675000Y-74330000D03*
X146675000Y-73830000D03*
X146675000Y-73330000D03*
%TD*%
D22*
%TO.C,D8*%
X129537500Y-112382000D03*
X126237500Y-112382000D03*
X126237500Y-117282000D03*
X129537500Y-117282000D03*
%TD*%
D13*
%TO.C,C26*%
X148865000Y-68680000D03*
X147315000Y-68680000D03*
%TD*%
D21*
%TO.C,D6*%
X152462500Y-125914000D03*
X155762500Y-125914000D03*
X155762500Y-121014000D03*
X152462500Y-121014000D03*
%TD*%
D17*
%TO.C,C1*%
X159100000Y-97450000D03*
X159100000Y-95900000D03*
%TD*%
D21*
%TO.C,D5*%
X152462500Y-117282000D03*
X155762500Y-117282000D03*
X155762500Y-112382000D03*
X152462500Y-112382000D03*
%TD*%
D11*
%TO.C,R1*%
X161200000Y-102110000D03*
X161200000Y-103760000D03*
%TD*%
M02*
