M48
; DRILL file {KiCad 9.0.4} date 2025-11-20T13:42:14+0100
; FORMAT={-:-/ absolute / metric / decimal}
; #@! TF.CreationDate,2025-11-20T13:42:14+01:00
; #@! TF.GenerationSoftware,Kicad,Pcbnew,9.0.4
; #@! TF.FileFunction,Plated,1,2,PTH
FMAT,2
METRIC
; #@! TA.AperFunction,Plated,PTH,ViaDrill
T1C0.300
; #@! TA.AperFunction,Plated,PTH,ComponentDrill
T2C0.900
; #@! TA.AperFunction,Plated,PTH,ComponentDrill
T3C1.000
; #@! TA.AperFunction,Plated,PTH,ComponentDrill
T4C1.016
%
G90
G05
T1
X72.12Y-49.725
X73.475Y-125.45
X75.225Y-47.725
X81.875Y-137.25
X87.425Y-137.25
X87.625Y-94.05
X90.975Y-131.95
X97.265Y-126.625
X104.825Y-129.15
X106.7Y-120.82
X116.3Y-142.3
X123.675Y-105.58
X123.775Y-103.04
X128.425Y-105.58
X128.5Y-103.04
X129.675Y-95.42
X129.675Y-135.47
T2
X94.725Y-133.2
X94.725Y-142.0
X97.265Y-133.2
X97.265Y-142.0
X99.805Y-133.2
X99.805Y-142.0
X102.345Y-133.2
X102.345Y-142.0
X104.885Y-133.2
X104.885Y-142.0
X107.425Y-133.2
X107.425Y-142.0
X109.965Y-133.2
X109.965Y-142.0
X112.505Y-133.2
X112.505Y-142.0
T3
X63.615Y-127.85
X63.615Y-130.39
X63.615Y-132.93
X63.615Y-135.47
X63.615Y-138.01
X63.615Y-140.55
X66.753Y-39.1
X69.293Y-39.1
X109.577Y-39.1
X112.117Y-39.1
X114.657Y-39.1
X117.197Y-39.1
X131.539Y-39.1
X134.079Y-39.1
X136.619Y-39.1
X139.159Y-39.1
X141.699Y-39.1
X143.615Y-127.85
X143.615Y-130.39
X143.615Y-132.93
X143.615Y-135.47
X143.615Y-138.01
X143.615Y-140.55
X144.239Y-39.1
T4
X72.12Y-77.64
X72.12Y-80.18
X72.12Y-82.72
X72.12Y-85.26
X72.12Y-87.8
X72.12Y-90.34
X72.12Y-92.88
X72.12Y-95.42
X72.12Y-97.96
X72.12Y-100.5
X72.12Y-103.04
X72.12Y-105.58
X72.12Y-108.12
X72.12Y-110.66
X72.12Y-113.2
X72.12Y-115.74
X72.12Y-118.28
X72.12Y-120.82
X72.12Y-123.36
X74.66Y-77.64
X74.66Y-80.18
X74.66Y-82.72
X74.66Y-85.26
X74.66Y-87.8
X74.66Y-90.34
X74.66Y-92.88
X74.66Y-95.42
X74.66Y-97.96
X74.66Y-100.5
X74.66Y-103.04
X74.66Y-105.58
X74.66Y-108.12
X74.66Y-110.66
X74.66Y-113.2
X74.66Y-115.74
X74.66Y-118.28
X74.66Y-120.82
X74.66Y-123.36
X133.08Y-77.64
X133.08Y-80.18
X133.08Y-82.72
X133.08Y-85.26
X133.08Y-87.8
X133.08Y-90.34
X133.08Y-92.88
X133.08Y-95.42
X133.08Y-97.96
X133.08Y-100.5
X133.08Y-103.04
X133.08Y-105.58
X133.08Y-108.12
X133.08Y-110.66
X133.08Y-113.2
X133.08Y-115.74
X133.08Y-118.28
X133.08Y-120.82
X133.08Y-123.36
X135.62Y-77.64
X135.62Y-80.18
X135.62Y-82.72
X135.62Y-85.26
X135.62Y-87.8
X135.62Y-90.34
X135.62Y-92.88
X135.62Y-95.42
X135.62Y-97.96
X135.62Y-100.5
X135.62Y-103.04
X135.62Y-105.58
X135.62Y-108.12
X135.62Y-110.66
X135.62Y-113.2
X135.62Y-115.74
X135.62Y-118.28
X135.62Y-120.82
X135.62Y-123.36
M30
