%TF.GenerationSoftware,KiCad,Pcbnew,9.0.4*%
%TF.CreationDate,2025-11-20T13:42:00+01:00*%
%TF.ProjectId,tuto,7475746f-2e6b-4696-9361-645f70636258,rev?*%
%TF.SameCoordinates,Original*%
%TF.FileFunction,Copper,L2,Bot*%
%TF.FilePolarity,Positive*%
%FSLAX46Y46*%
G04 Gerber Fmt 4.6, Leading zero omitted, Abs format (unit mm)*
G04 Created by KiCad (PCBNEW 9.0.4) date 2025-11-20 13:42:00*
%MOMM*%
%LPD*%
G01*
G04 APERTURE LIST*
%TA.AperFunction,ComponentPad*%
%ADD10R,1.700000X1.700000*%
%TD*%
%TA.AperFunction,ComponentPad*%
%ADD11C,1.700000*%
%TD*%
%TA.AperFunction,ComponentPad*%
%ADD12R,1.250000X1.250000*%
%TD*%
%TA.AperFunction,ComponentPad*%
%ADD13C,1.250000*%
%TD*%
%TA.AperFunction,ComponentPad*%
%ADD14R,1.524000X1.524000*%
%TD*%
%TA.AperFunction,ComponentPad*%
%ADD15C,1.524000*%
%TD*%
%TA.AperFunction,ViaPad*%
%ADD16C,0.600000*%
%TD*%
%TA.AperFunction,Conductor*%
%ADD17C,0.400000*%
%TD*%
G04 APERTURE END LIST*
D10*
%TO.P,J4,1,Pin_1*%
%TO.N,+3V3*%
X131538735Y-39100000D03*
D11*
%TO.P,J4,2,Pin_2*%
%TO.N,/X4*%
X134078735Y-39100000D03*
%TO.P,J4,3,Pin_3*%
%TO.N,/X3*%
X136618735Y-39100000D03*
%TO.P,J4,4,Pin_4*%
%TO.N,/X2*%
X139158735Y-39100000D03*
%TO.P,J4,5,Pin_5*%
%TO.N,/X1*%
X141698735Y-39100000D03*
%TO.P,J4,6,Pin_6*%
%TO.N,GND*%
X144238735Y-39100000D03*
%TD*%
D10*
%TO.P,J2,1,Pin_1*%
%TO.N,/Out3*%
X143615150Y-127850000D03*
D11*
%TO.P,J2,2,Pin_2*%
%TO.N,GND*%
X143615150Y-130390000D03*
%TO.P,J2,3,Pin_3*%
%TO.N,/right_enc_A*%
X143615150Y-132930000D03*
%TO.P,J2,4,Pin_4*%
%TO.N,/right_enc_B*%
X143615150Y-135470000D03*
%TO.P,J2,5,Pin_5*%
%TO.N,+3V3*%
X143615150Y-138010000D03*
%TO.P,J2,6,Pin_6*%
%TO.N,/Out4*%
X143615150Y-140550000D03*
%TD*%
D10*
%TO.P,J5,1,Pin_1*%
%TO.N,+6V*%
X66753391Y-39100000D03*
D11*
%TO.P,J5,2,Pin_2*%
%TO.N,GND*%
X69293391Y-39100000D03*
%TD*%
D12*
%TO.P,U2,1,ENABLE1*%
%TO.N,/EN1*%
X112505150Y-133200000D03*
D13*
%TO.P,U2,2,INPUT1*%
%TO.N,/IN1*%
X109965150Y-133200000D03*
%TO.P,U2,3,OUTPUT1*%
%TO.N,/Out1*%
X107425150Y-133200000D03*
%TO.P,U2,4,GND*%
%TO.N,GND*%
X104885150Y-133200000D03*
%TO.P,U2,5,GND*%
X102345150Y-133200000D03*
%TO.P,U2,6,OUTPUT2*%
%TO.N,/Out2*%
X99805150Y-133200000D03*
%TO.P,U2,7,INPUT2*%
%TO.N,/IN2*%
X97265150Y-133200000D03*
%TO.P,U2,8,VS*%
%TO.N,+6V*%
X94725150Y-133200000D03*
%TO.P,U2,9,ENABLE2*%
%TO.N,/EN2*%
X94725150Y-142000000D03*
%TO.P,U2,10,INPUT3*%
%TO.N,/IN3*%
X97265150Y-142000000D03*
%TO.P,U2,11,OUTPUT3*%
%TO.N,/Out3*%
X99805150Y-142000000D03*
%TO.P,U2,12,GND*%
%TO.N,GND*%
X102345150Y-142000000D03*
%TO.P,U2,13,GND*%
X104885150Y-142000000D03*
%TO.P,U2,14,OUTPUT4*%
%TO.N,/Out4*%
X107425150Y-142000000D03*
%TO.P,U2,15,INPUT4*%
%TO.N,/IN4*%
X109965150Y-142000000D03*
%TO.P,U2,16,VSS*%
%TO.N,+6V*%
X112505150Y-142000000D03*
%TD*%
D10*
%TO.P,J6,1,Pin_1*%
%TO.N,/Out1*%
X63615150Y-127850000D03*
D11*
%TO.P,J6,2,Pin_2*%
%TO.N,GND*%
X63615150Y-130390000D03*
%TO.P,J6,3,Pin_3*%
%TO.N,/left_enc_A*%
X63615150Y-132930000D03*
%TO.P,J6,4,Pin_4*%
%TO.N,/left_enc_B*%
X63615150Y-135470000D03*
%TO.P,J6,5,Pin_5*%
%TO.N,+3V3*%
X63615150Y-138010000D03*
%TO.P,J6,6,Pin_6*%
%TO.N,/Out2*%
X63615150Y-140550000D03*
%TD*%
D10*
%TO.P,J1,1,Pin_1*%
%TO.N,+3V3*%
X109576593Y-39100000D03*
D11*
%TO.P,J1,2,Pin_2*%
%TO.N,/Trig*%
X112116593Y-39100000D03*
%TO.P,J1,3,Pin_3*%
%TO.N,/Echo*%
X114656593Y-39100000D03*
%TO.P,J1,4,Pin_4*%
%TO.N,GND*%
X117196593Y-39100000D03*
%TD*%
D14*
%TO.P,U1,CN7_1,PC10*%
%TO.N,/Trig*%
X72120000Y-77640000D03*
D15*
%TO.P,U1,CN7_2,PC11*%
%TO.N,unconnected-(U1A-PC11-PadCN7_2)*%
X74660000Y-77640000D03*
%TO.P,U1,CN7_3,PC12*%
%TO.N,/Echo*%
X72120000Y-80180000D03*
%TO.P,U1,CN7_4,PD2*%
%TO.N,unconnected-(U1A-PD2-PadCN7_4)*%
X74660000Y-80180000D03*
%TO.P,U1,CN7_5,VDD*%
%TO.N,unconnected-(U1A-VDD-PadCN7_5)*%
X72120000Y-82720000D03*
%TO.P,U1,CN7_6,E5V*%
%TO.N,unconnected-(U1A-E5V-PadCN7_6)*%
X74660000Y-82720000D03*
%TO.P,U1,CN7_7,BOOT0*%
%TO.N,unconnected-(U1A-BOOT0-PadCN7_7)*%
X72120000Y-85260000D03*
%TO.P,U1,CN7_8,GND_CN7_8*%
%TO.N,GND*%
X74660000Y-85260000D03*
%TO.P,U1,CN7_9,NC_CN7_9*%
%TO.N,unconnected-(U1A-NC_CN7_9-PadCN7_9)*%
X72120000Y-87800000D03*
%TO.P,U1,CN7_10,NC_CN7_10*%
%TO.N,unconnected-(U1A-NC_CN7_10-PadCN7_10)*%
X74660000Y-87800000D03*
%TO.P,U1,CN7_11,NC_CN7_11*%
%TO.N,unconnected-(U1A-NC_CN7_11-PadCN7_11)*%
X72120000Y-90340000D03*
%TO.P,U1,CN7_12,IOREF*%
%TO.N,unconnected-(U1A-IOREF-PadCN7_12)*%
X74660000Y-90340000D03*
%TO.P,U1,CN7_13,PA13*%
%TO.N,unconnected-(U1A-PA13-PadCN7_13)*%
X72120000Y-92880000D03*
%TO.P,U1,CN7_14,RESET*%
%TO.N,unconnected-(U1A-RESET-PadCN7_14)*%
X74660000Y-92880000D03*
%TO.P,U1,CN7_15,PA14*%
%TO.N,unconnected-(U1A-PA14-PadCN7_15)*%
X72120000Y-95420000D03*
%TO.P,U1,CN7_16,+3V3*%
%TO.N,+3V3*%
X74660000Y-95420000D03*
%TO.P,U1,CN7_17,PA15*%
%TO.N,unconnected-(U1A-PA15-PadCN7_17)*%
X72120000Y-97960000D03*
%TO.P,U1,CN7_18,+5V*%
%TO.N,unconnected-(U1A-+5V-PadCN7_18)*%
X74660000Y-97960000D03*
%TO.P,U1,CN7_19,GND_CN7_19*%
%TO.N,GND*%
X72120000Y-100500000D03*
%TO.P,U1,CN7_20,GND_CN7_20*%
X74660000Y-100500000D03*
%TO.P,U1,CN7_21,PB7*%
%TO.N,unconnected-(U1A-PB7-PadCN7_21)*%
X72120000Y-103040000D03*
%TO.P,U1,CN7_22,GND_CN7_22*%
%TO.N,GND*%
X74660000Y-103040000D03*
%TO.P,U1,CN7_23,PC13*%
%TO.N,unconnected-(U1A-PC13-PadCN7_23)*%
X72120000Y-105580000D03*
%TO.P,U1,CN7_24,VIN*%
%TO.N,+6V*%
X74660000Y-105580000D03*
%TO.P,U1,CN7_25,PC14*%
%TO.N,unconnected-(U1A-PC14-PadCN7_25)*%
X72120000Y-108120000D03*
%TO.P,U1,CN7_26,NC_CN7_26*%
%TO.N,unconnected-(U1A-NC_CN7_26-PadCN7_26)*%
X74660000Y-108120000D03*
%TO.P,U1,CN7_27,PC15*%
%TO.N,unconnected-(U1A-PC15-PadCN7_27)*%
X72120000Y-110660000D03*
%TO.P,U1,CN7_28,PA0*%
%TO.N,/EN1*%
X74660000Y-110660000D03*
%TO.P,U1,CN7_29,PH0*%
%TO.N,unconnected-(U1A-PH0-PadCN7_29)*%
X72120000Y-113200000D03*
%TO.P,U1,CN7_30,PA1*%
%TO.N,/EN2*%
X74660000Y-113200000D03*
%TO.P,U1,CN7_31,PH1*%
%TO.N,unconnected-(U1A-PH1-PadCN7_31)*%
X72120000Y-115740000D03*
%TO.P,U1,CN7_32,PA4*%
%TO.N,unconnected-(U1A-PA4-PadCN7_32)*%
X74660000Y-115740000D03*
%TO.P,U1,CN7_33,VBAT*%
%TO.N,unconnected-(U1A-VBAT-PadCN7_33)*%
X72120000Y-118280000D03*
%TO.P,U1,CN7_34,PB0*%
%TO.N,unconnected-(U1A-PB0-PadCN7_34)*%
X74660000Y-118280000D03*
%TO.P,U1,CN7_35,PC2*%
%TO.N,/IN1*%
X72120000Y-120820000D03*
%TO.P,U1,CN7_36,PC1*%
%TO.N,/IN4*%
X74660000Y-120820000D03*
%TO.P,U1,CN7_37,PC3*%
%TO.N,/IN2*%
X72120000Y-123360000D03*
%TO.P,U1,CN7_38,PC0*%
%TO.N,/IN3*%
X74660000Y-123360000D03*
%TO.P,U1,CN10_1,PC9*%
%TO.N,unconnected-(U1B-PC9-PadCN10_1)*%
X133080000Y-77640000D03*
%TO.P,U1,CN10_2,PC8*%
%TO.N,unconnected-(U1B-PC8-PadCN10_2)*%
X135620000Y-77640000D03*
%TO.P,U1,CN10_3,PB8*%
%TO.N,unconnected-(U1B-PB8-PadCN10_3)*%
X133080000Y-80180000D03*
%TO.P,U1,CN10_4,PC6*%
%TO.N,/X4*%
X135620000Y-80180000D03*
%TO.P,U1,CN10_5,PB9*%
%TO.N,unconnected-(U1B-PB9-PadCN10_5)*%
X133080000Y-82720000D03*
%TO.P,U1,CN10_6,PC5*%
%TO.N,unconnected-(U1B-PC5-PadCN10_6)*%
X135620000Y-82720000D03*
%TO.P,U1,CN10_7,AVDD*%
%TO.N,unconnected-(U1B-AVDD-PadCN10_7)*%
X133080000Y-85260000D03*
%TO.P,U1,CN10_8,U5V*%
%TO.N,unconnected-(U1B-U5V-PadCN10_8)*%
X135620000Y-85260000D03*
%TO.P,U1,CN10_9,GND_CN10_9*%
%TO.N,GND*%
X133080000Y-87800000D03*
%TO.P,U1,CN10_10,NC_CN10_10*%
%TO.N,unconnected-(U1B-NC_CN10_10-PadCN10_10)*%
X135620000Y-87800000D03*
%TO.P,U1,CN10_11,PA5*%
%TO.N,unconnected-(U1B-PA5-PadCN10_11)*%
X133080000Y-90340000D03*
%TO.P,U1,CN10_12,PA12*%
%TO.N,unconnected-(U1B-PA12-PadCN10_12)*%
X135620000Y-90340000D03*
%TO.P,U1,CN10_13,PA6*%
%TO.N,/right_enc_A*%
X133080000Y-92880000D03*
%TO.P,U1,CN10_14,PA11*%
%TO.N,unconnected-(U1B-PA11-PadCN10_14)*%
X135620000Y-92880000D03*
%TO.P,U1,CN10_15,PA7*%
%TO.N,/right_enc_B*%
X133080000Y-95420000D03*
%TO.P,U1,CN10_16,PB12*%
%TO.N,unconnected-(U1B-PB12-PadCN10_16)*%
X135620000Y-95420000D03*
%TO.P,U1,CN10_17,PB6*%
%TO.N,unconnected-(U1B-PB6-PadCN10_17)*%
X133080000Y-97960000D03*
%TO.P,U1,CN10_18,PB11*%
%TO.N,unconnected-(U1B-PB11-PadCN10_18)*%
X135620000Y-97960000D03*
%TO.P,U1,CN10_19,PC7*%
%TO.N,unconnected-(U1B-PC7-PadCN10_19)*%
X133080000Y-100500000D03*
%TO.P,U1,CN10_20,GND_CN10_20*%
%TO.N,GND*%
X135620000Y-100500000D03*
%TO.P,U1,CN10_21,PA9*%
%TO.N,/left_enc_B*%
X133080000Y-103040000D03*
%TO.P,U1,CN10_22,PB2*%
%TO.N,unconnected-(U1B-PB2-PadCN10_22)*%
X135620000Y-103040000D03*
%TO.P,U1,CN10_23,PA8*%
%TO.N,/left_enc_A*%
X133080000Y-105580000D03*
%TO.P,U1,CN10_24,PB1*%
%TO.N,unconnected-(U1B-PB1-PadCN10_24)*%
X135620000Y-105580000D03*
%TO.P,U1,CN10_25,PB10*%
%TO.N,unconnected-(U1B-PB10-PadCN10_25)*%
X133080000Y-108120000D03*
%TO.P,U1,CN10_26,PB15*%
%TO.N,/X3*%
X135620000Y-108120000D03*
%TO.P,U1,CN10_27,PB4*%
%TO.N,unconnected-(U1B-PB4-PadCN10_27)*%
X133080000Y-110660000D03*
%TO.P,U1,CN10_28,PB14*%
%TO.N,/X2*%
X135620000Y-110660000D03*
%TO.P,U1,CN10_29,PB5*%
%TO.N,unconnected-(U1B-PB5-PadCN10_29)*%
X133080000Y-113200000D03*
%TO.P,U1,CN10_30,PB13*%
%TO.N,/X1*%
X135620000Y-113200000D03*
%TO.P,U1,CN10_31,PB3*%
%TO.N,unconnected-(U1B-PB3-PadCN10_31)*%
X133080000Y-115740000D03*
%TO.P,U1,CN10_32,AGND*%
%TO.N,GND*%
X135620000Y-115740000D03*
%TO.P,U1,CN10_33,PA10*%
%TO.N,unconnected-(U1B-PA10-PadCN10_33)*%
X133080000Y-118280000D03*
%TO.P,U1,CN10_34,PC4*%
%TO.N,unconnected-(U1B-PC4-PadCN10_34)*%
X135620000Y-118280000D03*
%TO.P,U1,CN10_35,PA2*%
%TO.N,unconnected-(U1B-PA2-PadCN10_35)*%
X133080000Y-120820000D03*
%TO.P,U1,CN10_36,NC_CN10_36*%
%TO.N,unconnected-(U1B-NC_CN10_36-PadCN10_36)*%
X135620000Y-120820000D03*
%TO.P,U1,CN10_37,PA3*%
%TO.N,unconnected-(U1B-PA3-PadCN10_37)*%
X133080000Y-123360000D03*
%TO.P,U1,CN10_38,NC_CN10_38*%
%TO.N,unconnected-(U1B-NC_CN10_38-PadCN10_38)*%
X135620000Y-123360000D03*
%TD*%
D16*
%TO.N,/Echo*%
X75225000Y-47725000D03*
%TO.N,/Trig*%
X72120000Y-49725000D03*
%TO.N,/right_enc_B*%
X129675000Y-95420000D03*
X129675000Y-135470000D03*
%TO.N,+6V*%
X87625000Y-94050000D03*
%TO.N,/left_enc_A*%
X123675000Y-105580000D03*
X104825000Y-129150000D03*
X128425000Y-105580000D03*
%TO.N,/left_enc_B*%
X123775000Y-103040000D03*
X90975000Y-131950000D03*
X128500000Y-103040000D03*
%TO.N,/IN2*%
X97265150Y-126625000D03*
%TO.N,/IN1*%
X73475000Y-125450000D03*
%TO.N,/IN4*%
X106700000Y-120820000D03*
X116300000Y-142300000D03*
%TO.N,/IN3*%
X87425000Y-137250000D03*
X81875000Y-137250000D03*
%TD*%
D17*
%TO.N,/X1*%
X137050000Y-113200000D02*
X135620000Y-113200000D01*
X143700000Y-106550000D02*
X137050000Y-113200000D01*
X143700000Y-48250000D02*
X143700000Y-106550000D01*
X141698735Y-39100000D02*
X141698735Y-46248735D01*
X141698735Y-46248735D02*
X143700000Y-48250000D01*
%TO.N,/X2*%
X137590000Y-110660000D02*
X135620000Y-110660000D01*
X142000000Y-106250000D02*
X137590000Y-110660000D01*
X142000000Y-48625000D02*
X142000000Y-106250000D01*
X139158735Y-45783735D02*
X142000000Y-48625000D01*
X139158735Y-39100000D02*
X139158735Y-45783735D01*
%TO.N,/Echo*%
X69525000Y-49425000D02*
X69525000Y-78975000D01*
X71225000Y-47725000D02*
X69525000Y-49425000D01*
X75225000Y-47725000D02*
X71225000Y-47725000D01*
X69525000Y-78975000D02*
X70730000Y-80180000D01*
X70730000Y-80180000D02*
X72120000Y-80180000D01*
%TO.N,/Trig*%
X72120000Y-77640000D02*
X72120000Y-49725000D01*
%TO.N,+3V3*%
X66750000Y-46875000D02*
X74525000Y-39100000D01*
X74525000Y-39100000D02*
X109576593Y-39100000D01*
X70560000Y-138010000D02*
X66750000Y-134200000D01*
X76500000Y-143950000D02*
X135700000Y-143950000D01*
X70560000Y-138010000D02*
X76500000Y-143950000D01*
X66750000Y-134200000D02*
X66750000Y-46875000D01*
X135700000Y-143950000D02*
X141640000Y-138010000D01*
X130472672Y-36775000D02*
X131538735Y-37841063D01*
X131538735Y-37841063D02*
X131538735Y-39100000D01*
X63615150Y-138010000D02*
X70560000Y-138010000D01*
X109576593Y-39100000D02*
X109576593Y-37871079D01*
X110672672Y-36775000D02*
X130472672Y-36775000D01*
X141640000Y-138010000D02*
X143615150Y-138010000D01*
X109576593Y-37871079D02*
X110672672Y-36775000D01*
%TO.N,/right_enc_B*%
X129675000Y-95420000D02*
X133080000Y-95420000D01*
X129675000Y-135470000D02*
X143615150Y-135470000D01*
%TO.N,/right_enc_A*%
X129805000Y-132930000D02*
X126050000Y-129175000D01*
X143615150Y-132930000D02*
X129805000Y-132930000D01*
X126050000Y-129175000D02*
X126050000Y-96250000D01*
X126050000Y-96250000D02*
X129420000Y-92880000D01*
X129420000Y-92880000D02*
X133080000Y-92880000D01*
%TO.N,/X3*%
X136618735Y-39100000D02*
X136618735Y-45543735D01*
X140600000Y-105825000D02*
X138305000Y-108120000D01*
X138305000Y-108120000D02*
X135620000Y-108120000D01*
X140600000Y-49525000D02*
X140600000Y-105825000D01*
X136618735Y-45543735D02*
X140600000Y-49525000D01*
%TO.N,/X4*%
X134078735Y-47703735D02*
X138275000Y-51900000D01*
X137045000Y-80180000D02*
X135620000Y-80180000D01*
X138275000Y-51900000D02*
X138275000Y-78950000D01*
X138275000Y-78950000D02*
X137045000Y-80180000D01*
X134078735Y-39100000D02*
X134078735Y-47703735D01*
%TO.N,+6V*%
X94725150Y-133200000D02*
X94725150Y-135100150D01*
X87625000Y-100625000D02*
X87625000Y-94050000D01*
X94725150Y-135100150D02*
X97250000Y-137625000D01*
X74660000Y-105580000D02*
X82670000Y-105580000D01*
X112505150Y-140080150D02*
X112505150Y-142000000D01*
X87625000Y-131600000D02*
X89225000Y-133200000D01*
X110050000Y-137625000D02*
X112505150Y-140080150D01*
X82670000Y-105580000D02*
X87625000Y-100625000D01*
X97250000Y-137625000D02*
X110050000Y-137625000D01*
X89225000Y-133200000D02*
X94725150Y-133200000D01*
X87625000Y-100625000D02*
X87625000Y-131600000D01*
%TO.N,/left_enc_A*%
X108020000Y-105580000D02*
X104825000Y-108775000D01*
X104825000Y-108775000D02*
X104825000Y-129150000D01*
X128425000Y-105580000D02*
X133080000Y-105580000D01*
X123675000Y-105580000D02*
X108020000Y-105580000D01*
%TO.N,/left_enc_B*%
X90975000Y-106150000D02*
X90975000Y-131950000D01*
X94085000Y-103040000D02*
X90975000Y-106150000D01*
X123775000Y-103040000D02*
X94085000Y-103040000D01*
X128500000Y-103040000D02*
X133080000Y-103040000D01*
%TO.N,/IN2*%
X97265150Y-126625000D02*
X97265150Y-133200000D01*
%TO.N,/IN1*%
X69700000Y-121875000D02*
X69700000Y-124225000D01*
X70755000Y-120820000D02*
X69700000Y-121875000D01*
X70925000Y-125450000D02*
X73475000Y-125450000D01*
X72120000Y-120820000D02*
X70755000Y-120820000D01*
X69700000Y-124225000D02*
X70925000Y-125450000D01*
%TO.N,/IN4*%
X114945000Y-120820000D02*
X106700000Y-120820000D01*
X116300000Y-122175000D02*
X114945000Y-120820000D01*
X116300000Y-142300000D02*
X116300000Y-122175000D01*
%TO.N,/EN2*%
X80525000Y-113200000D02*
X74660000Y-113200000D01*
X84675000Y-117350000D02*
X80525000Y-113200000D01*
X94725150Y-142000000D02*
X87350000Y-142000000D01*
X87350000Y-142000000D02*
X84675000Y-139325000D01*
X84675000Y-139325000D02*
X84675000Y-117350000D01*
%TO.N,/IN3*%
X87425000Y-137250000D02*
X94425000Y-137250000D01*
X74660000Y-135110000D02*
X74660000Y-123360000D01*
X81875000Y-137250000D02*
X76800000Y-137250000D01*
X76800000Y-137250000D02*
X74660000Y-135110000D01*
X97265150Y-140090150D02*
X97265150Y-142000000D01*
X94425000Y-137250000D02*
X97265150Y-140090150D01*
%TD*%
%TA.AperFunction,Conductor*%
%TO.N,GND*%
G36*
X110174191Y-36070185D02*
G01*
X110219946Y-36122989D01*
X110229890Y-36192147D01*
X110200865Y-36255703D01*
X110194833Y-36262181D01*
X109032481Y-37424532D01*
X109032480Y-37424533D01*
X108955815Y-37539271D01*
X108900682Y-37672378D01*
X108898190Y-37671345D01*
X108866177Y-37720046D01*
X108802325Y-37748414D01*
X108785947Y-37749500D01*
X108678723Y-37749500D01*
X108678716Y-37749501D01*
X108619109Y-37755908D01*
X108484264Y-37806202D01*
X108484257Y-37806206D01*
X108369048Y-37892452D01*
X108369045Y-37892455D01*
X108282799Y-38007664D01*
X108282795Y-38007671D01*
X108232501Y-38142517D01*
X108226094Y-38202116D01*
X108226093Y-38202135D01*
X108226093Y-38275500D01*
X108206408Y-38342539D01*
X108153604Y-38388294D01*
X108102093Y-38399500D01*
X74456003Y-38399500D01*
X74347590Y-38421065D01*
X74347589Y-38421065D01*
X74334131Y-38423742D01*
X74320673Y-38426419D01*
X74320671Y-38426420D01*
X74267866Y-38448292D01*
X74267864Y-38448293D01*
X74267863Y-38448292D01*
X74193191Y-38479223D01*
X74095261Y-38544659D01*
X74095259Y-38544660D01*
X74078458Y-38555885D01*
X74078453Y-38555889D01*
X66205888Y-46428453D01*
X66205887Y-46428454D01*
X66129224Y-46543190D01*
X66076421Y-46670666D01*
X66076420Y-46670672D01*
X66071526Y-46695278D01*
X66049500Y-46806004D01*
X66049500Y-46806007D01*
X66049500Y-134131006D01*
X66049500Y-134268994D01*
X66049500Y-134268996D01*
X66049499Y-134268996D01*
X66076418Y-134404322D01*
X66076421Y-134404332D01*
X66129222Y-134531807D01*
X66205887Y-134646545D01*
X66205888Y-134646546D01*
X68657162Y-137097819D01*
X68690647Y-137159142D01*
X68685663Y-137228834D01*
X68643791Y-137284767D01*
X68578327Y-137309184D01*
X68569481Y-137309500D01*
X64838697Y-137309500D01*
X64771658Y-137289815D01*
X64738380Y-137258385D01*
X64645258Y-137130213D01*
X64645257Y-137130211D01*
X64494936Y-136979890D01*
X64322970Y-136854951D01*
X64322265Y-136854591D01*
X64314204Y-136850485D01*
X64263409Y-136802512D01*
X64246613Y-136734692D01*
X64269149Y-136668556D01*
X64314204Y-136629515D01*
X64322966Y-136625051D01*
X64389900Y-136576421D01*
X64494936Y-136500109D01*
X64494938Y-136500106D01*
X64494942Y-136500104D01*
X64645254Y-136349792D01*
X64645256Y-136349788D01*
X64645259Y-136349786D01*
X64761214Y-136190185D01*
X64770201Y-136177816D01*
X64866707Y-135988412D01*
X64932396Y-135786243D01*
X64965650Y-135576287D01*
X64965650Y-135363713D01*
X64932396Y-135153757D01*
X64866707Y-134951588D01*
X64770201Y-134762184D01*
X64770199Y-134762181D01*
X64770198Y-134762179D01*
X64645259Y-134590213D01*
X64494936Y-134439890D01*
X64322970Y-134314951D01*
X64322265Y-134314591D01*
X64314204Y-134310485D01*
X64263409Y-134262512D01*
X64246613Y-134194692D01*
X64269149Y-134128556D01*
X64314204Y-134089515D01*
X64322966Y-134085051D01*
X64413538Y-134019247D01*
X64494936Y-133960109D01*
X64494938Y-133960106D01*
X64494942Y-133960104D01*
X64645254Y-133809792D01*
X64645256Y-133809788D01*
X64645259Y-133809786D01*
X64770198Y-133637820D01*
X64770197Y-133637820D01*
X64770201Y-133637816D01*
X64866707Y-133448412D01*
X64932396Y-133246243D01*
X64965650Y-133036287D01*
X64965650Y-132823713D01*
X64932396Y-132613757D01*
X64866707Y-132411588D01*
X64770201Y-132222184D01*
X64770199Y-132222181D01*
X64770198Y-132222179D01*
X64645259Y-132050213D01*
X64494936Y-131899890D01*
X64322967Y-131774949D01*
X64313654Y-131770204D01*
X64262857Y-131722230D01*
X64246062Y-131654409D01*
X64268599Y-131588274D01*
X64313657Y-131549232D01*
X64322705Y-131544622D01*
X64376866Y-131505270D01*
X64376867Y-131505270D01*
X63744558Y-130872962D01*
X63808143Y-130855925D01*
X63922157Y-130790099D01*
X64015249Y-130697007D01*
X64081075Y-130582993D01*
X64098112Y-130519409D01*
X64730420Y-131151717D01*
X64730420Y-131151716D01*
X64769772Y-131097554D01*
X64866245Y-130908217D01*
X64931907Y-130706130D01*
X64931907Y-130706127D01*
X64965150Y-130496246D01*
X64965150Y-130283753D01*
X64931907Y-130073872D01*
X64931907Y-130073869D01*
X64866245Y-129871782D01*
X64769774Y-129682449D01*
X64730420Y-129628282D01*
X64730419Y-129628282D01*
X64098112Y-130260590D01*
X64081075Y-130197007D01*
X64015249Y-130082993D01*
X63922157Y-129989901D01*
X63808143Y-129924075D01*
X63744559Y-129907037D01*
X64414777Y-129236818D01*
X64476100Y-129203333D01*
X64502457Y-129200499D01*
X64513022Y-129200499D01*
X64572633Y-129194091D01*
X64707481Y-129143796D01*
X64822696Y-129057546D01*
X64908946Y-128942331D01*
X64959241Y-128807483D01*
X64965650Y-128747873D01*
X64965649Y-126952128D01*
X64959241Y-126892517D01*
X64946552Y-126858497D01*
X64908947Y-126757671D01*
X64908943Y-126757664D01*
X64822697Y-126642455D01*
X64822694Y-126642452D01*
X64707485Y-126556206D01*
X64707478Y-126556202D01*
X64572632Y-126505908D01*
X64572633Y-126505908D01*
X64513033Y-126499501D01*
X64513031Y-126499500D01*
X64513023Y-126499500D01*
X64513014Y-126499500D01*
X62717279Y-126499500D01*
X62717273Y-126499501D01*
X62657666Y-126505908D01*
X62522821Y-126556202D01*
X62522814Y-126556206D01*
X62407605Y-126642452D01*
X62407602Y-126642455D01*
X62321356Y-126757664D01*
X62321352Y-126757671D01*
X62271058Y-126892517D01*
X62266997Y-126930293D01*
X62264651Y-126952123D01*
X62264650Y-126952135D01*
X62264650Y-128747870D01*
X62264651Y-128747876D01*
X62271058Y-128807483D01*
X62321352Y-128942328D01*
X62321356Y-128942335D01*
X62407602Y-129057544D01*
X62407605Y-129057547D01*
X62522814Y-129143793D01*
X62522821Y-129143797D01*
X62567768Y-129160561D01*
X62657667Y-129194091D01*
X62717277Y-129200500D01*
X62727835Y-129200499D01*
X62794873Y-129220179D01*
X62815522Y-129236818D01*
X63485741Y-129907037D01*
X63422157Y-129924075D01*
X63308143Y-129989901D01*
X63215051Y-130082993D01*
X63149225Y-130197007D01*
X63132187Y-130260591D01*
X62499878Y-129628282D01*
X62499877Y-129628282D01*
X62460530Y-129682439D01*
X62364054Y-129871782D01*
X62298392Y-130073869D01*
X62298392Y-130073872D01*
X62265150Y-130283753D01*
X62265150Y-130496246D01*
X62298392Y-130706127D01*
X62298392Y-130706130D01*
X62364054Y-130908217D01*
X62460525Y-131097550D01*
X62499878Y-131151716D01*
X63132187Y-130519408D01*
X63149225Y-130582993D01*
X63215051Y-130697007D01*
X63308143Y-130790099D01*
X63422157Y-130855925D01*
X63485740Y-130872962D01*
X62853432Y-131505269D01*
X62853432Y-131505270D01*
X62907602Y-131544626D01*
X62907601Y-131544626D01*
X62916645Y-131549234D01*
X62967442Y-131597208D01*
X62984237Y-131665029D01*
X62961700Y-131731164D01*
X62916649Y-131770202D01*
X62907332Y-131774949D01*
X62735363Y-131899890D01*
X62585040Y-132050213D01*
X62460101Y-132222179D01*
X62363594Y-132411585D01*
X62297903Y-132613760D01*
X62264650Y-132823713D01*
X62264650Y-133036286D01*
X62290579Y-133199999D01*
X62297904Y-133246243D01*
X62311648Y-133288544D01*
X62363594Y-133448414D01*
X62460101Y-133637820D01*
X62585040Y-133809786D01*
X62735363Y-133960109D01*
X62907332Y-134085050D01*
X62916096Y-134089516D01*
X62966892Y-134137491D01*
X62983686Y-134205312D01*
X62961148Y-134271447D01*
X62916096Y-134310484D01*
X62907332Y-134314949D01*
X62735363Y-134439890D01*
X62585040Y-134590213D01*
X62460101Y-134762179D01*
X62363594Y-134951585D01*
X62297903Y-135153760D01*
X62284799Y-135236498D01*
X62264650Y-135363713D01*
X62264650Y-135576287D01*
X62297904Y-135786243D01*
X62360953Y-135980288D01*
X62363594Y-135988414D01*
X62460101Y-136177820D01*
X62585040Y-136349786D01*
X62735363Y-136500109D01*
X62907332Y-136625050D01*
X62916096Y-136629516D01*
X62966892Y-136677491D01*
X62983686Y-136745312D01*
X62961148Y-136811447D01*
X62916096Y-136850484D01*
X62907332Y-136854949D01*
X62735363Y-136979890D01*
X62585040Y-137130213D01*
X62460101Y-137302179D01*
X62363594Y-137491585D01*
X62297903Y-137693760D01*
X62264650Y-137903713D01*
X62264650Y-138116286D01*
X62293522Y-138298581D01*
X62297904Y-138326243D01*
X62309463Y-138361819D01*
X62363594Y-138528414D01*
X62460101Y-138717820D01*
X62585040Y-138889786D01*
X62735363Y-139040109D01*
X62907332Y-139165050D01*
X62916096Y-139169516D01*
X62966892Y-139217491D01*
X62983686Y-139285312D01*
X62961148Y-139351447D01*
X62916096Y-139390484D01*
X62907332Y-139394949D01*
X62735363Y-139519890D01*
X62585040Y-139670213D01*
X62460101Y-139842179D01*
X62363594Y-140031585D01*
X62297903Y-140233760D01*
X62272316Y-140395310D01*
X62264650Y-140443713D01*
X62264650Y-140656287D01*
X62297904Y-140866243D01*
X62356249Y-141045811D01*
X62363594Y-141068414D01*
X62460101Y-141257820D01*
X62585040Y-141429786D01*
X62735363Y-141580109D01*
X62907329Y-141705048D01*
X62907331Y-141705049D01*
X62907334Y-141705051D01*
X63096738Y-141801557D01*
X63298907Y-141867246D01*
X63508863Y-141900500D01*
X63508864Y-141900500D01*
X63721436Y-141900500D01*
X63721437Y-141900500D01*
X63931393Y-141867246D01*
X64133562Y-141801557D01*
X64322966Y-141705051D01*
X64344939Y-141689086D01*
X64494936Y-141580109D01*
X64494938Y-141580106D01*
X64494942Y-141580104D01*
X64645254Y-141429792D01*
X64645256Y-141429788D01*
X64645259Y-141429786D01*
X64770198Y-141257820D01*
X64770197Y-141257820D01*
X64770201Y-141257816D01*
X64866707Y-141068412D01*
X64932396Y-140866243D01*
X64965650Y-140656287D01*
X64965650Y-140443713D01*
X64932396Y-140233757D01*
X64866707Y-140031588D01*
X64770201Y-139842184D01*
X64770199Y-139842181D01*
X64770198Y-139842179D01*
X64645259Y-139670213D01*
X64494936Y-139519890D01*
X64322970Y-139394951D01*
X64321092Y-139393994D01*
X64314204Y-139390485D01*
X64263409Y-139342512D01*
X64246613Y-139274692D01*
X64269149Y-139208556D01*
X64314204Y-139169515D01*
X64322966Y-139165051D01*
X64344939Y-139149086D01*
X64494936Y-139040109D01*
X64494938Y-139040106D01*
X64494942Y-139040104D01*
X64645254Y-138889792D01*
X64738379Y-138761614D01*
X64793708Y-138718949D01*
X64838697Y-138710500D01*
X70218481Y-138710500D01*
X70285520Y-138730185D01*
X70306162Y-138746819D01*
X76053453Y-144494111D01*
X76053454Y-144494112D01*
X76168192Y-144570777D01*
X76295667Y-144623578D01*
X76295672Y-144623580D01*
X76295676Y-144623580D01*
X76295677Y-144623581D01*
X76431003Y-144650500D01*
X76431006Y-144650500D01*
X135768996Y-144650500D01*
X135860040Y-144632389D01*
X135904328Y-144623580D01*
X135968069Y-144597177D01*
X136031807Y-144570777D01*
X136031808Y-144570776D01*
X136031811Y-144570775D01*
X136146543Y-144494114D01*
X141893838Y-138746819D01*
X141955161Y-138713334D01*
X141981519Y-138710500D01*
X142391603Y-138710500D01*
X142458642Y-138730185D01*
X142491919Y-138761614D01*
X142526992Y-138809887D01*
X142585042Y-138889788D01*
X142735363Y-139040109D01*
X142907332Y-139165050D01*
X142916096Y-139169516D01*
X142966892Y-139217491D01*
X142983686Y-139285312D01*
X142961148Y-139351447D01*
X142916096Y-139390484D01*
X142907332Y-139394949D01*
X142735363Y-139519890D01*
X142585040Y-139670213D01*
X142460101Y-139842179D01*
X142363594Y-140031585D01*
X142297903Y-140233760D01*
X142272316Y-140395310D01*
X142264650Y-140443713D01*
X142264650Y-140656287D01*
X142297904Y-140866243D01*
X142356249Y-141045811D01*
X142363594Y-141068414D01*
X142460101Y-141257820D01*
X142585040Y-141429786D01*
X142735363Y-141580109D01*
X142907329Y-141705048D01*
X142907331Y-141705049D01*
X142907334Y-141705051D01*
X143096738Y-141801557D01*
X143298907Y-141867246D01*
X143508863Y-141900500D01*
X143508864Y-141900500D01*
X143721436Y-141900500D01*
X143721437Y-141900500D01*
X143931393Y-141867246D01*
X144133562Y-141801557D01*
X144322966Y-141705051D01*
X144344939Y-141689086D01*
X144494936Y-141580109D01*
X144494938Y-141580106D01*
X144494942Y-141580104D01*
X144645254Y-141429792D01*
X144645256Y-141429788D01*
X144645259Y-141429786D01*
X144770198Y-141257820D01*
X144770197Y-141257820D01*
X144770201Y-141257816D01*
X144866707Y-141068412D01*
X144932396Y-140866243D01*
X144965650Y-140656287D01*
X144965650Y-140443713D01*
X144932396Y-140233757D01*
X144866707Y-140031588D01*
X144770201Y-139842184D01*
X144770199Y-139842181D01*
X144770198Y-139842179D01*
X144645259Y-139670213D01*
X144494936Y-139519890D01*
X144322970Y-139394951D01*
X144321092Y-139393994D01*
X144314204Y-139390485D01*
X144263409Y-139342512D01*
X144246613Y-139274692D01*
X144269149Y-139208556D01*
X144314204Y-139169515D01*
X144322966Y-139165051D01*
X144344939Y-139149086D01*
X144494936Y-139040109D01*
X144494938Y-139040106D01*
X144494942Y-139040104D01*
X144645254Y-138889792D01*
X144645256Y-138889788D01*
X144645259Y-138889786D01*
X144770198Y-138717820D01*
X144770197Y-138717820D01*
X144770201Y-138717816D01*
X144866707Y-138528412D01*
X144932396Y-138326243D01*
X144965650Y-138116287D01*
X144965650Y-137903713D01*
X144932396Y-137693757D01*
X144866707Y-137491588D01*
X144770201Y-137302184D01*
X144770199Y-137302181D01*
X144770198Y-137302179D01*
X144645259Y-137130213D01*
X144494936Y-136979890D01*
X144322970Y-136854951D01*
X144322265Y-136854591D01*
X144314204Y-136850485D01*
X144263409Y-136802512D01*
X144246613Y-136734692D01*
X144269149Y-136668556D01*
X144314204Y-136629515D01*
X144322966Y-136625051D01*
X144389900Y-136576421D01*
X144494936Y-136500109D01*
X144494938Y-136500106D01*
X144494942Y-136500104D01*
X144645254Y-136349792D01*
X144645256Y-136349788D01*
X144645259Y-136349786D01*
X144761214Y-136190185D01*
X144770201Y-136177816D01*
X144866707Y-135988412D01*
X144932396Y-135786243D01*
X144965650Y-135576287D01*
X144965650Y-135363713D01*
X144932396Y-135153757D01*
X144866707Y-134951588D01*
X144770201Y-134762184D01*
X144770199Y-134762181D01*
X144770198Y-134762179D01*
X144645259Y-134590213D01*
X144494936Y-134439890D01*
X144322970Y-134314951D01*
X144322265Y-134314591D01*
X144314204Y-134310485D01*
X144263409Y-134262512D01*
X144246613Y-134194692D01*
X144269149Y-134128556D01*
X144314204Y-134089515D01*
X144322966Y-134085051D01*
X144413538Y-134019247D01*
X144494936Y-133960109D01*
X144494938Y-133960106D01*
X144494942Y-133960104D01*
X144645254Y-133809792D01*
X144645256Y-133809788D01*
X144645259Y-133809786D01*
X144770198Y-133637820D01*
X144770197Y-133637820D01*
X144770201Y-133637816D01*
X144866707Y-133448412D01*
X144932396Y-133246243D01*
X144965650Y-133036287D01*
X144965650Y-132823713D01*
X144932396Y-132613757D01*
X144866707Y-132411588D01*
X144770201Y-132222184D01*
X144770199Y-132222181D01*
X144770198Y-132222179D01*
X144645259Y-132050213D01*
X144494936Y-131899890D01*
X144322967Y-131774949D01*
X144313654Y-131770204D01*
X144262857Y-131722230D01*
X144246062Y-131654409D01*
X144268599Y-131588274D01*
X144313657Y-131549232D01*
X144322705Y-131544622D01*
X144376866Y-131505270D01*
X144376867Y-131505270D01*
X143744558Y-130872962D01*
X143808143Y-130855925D01*
X143922157Y-130790099D01*
X144015249Y-130697007D01*
X144081075Y-130582993D01*
X144098112Y-130519408D01*
X144730420Y-131151717D01*
X144730420Y-131151716D01*
X144769772Y-131097554D01*
X144866245Y-130908217D01*
X144931907Y-130706130D01*
X144931907Y-130706127D01*
X144965150Y-130496246D01*
X144965150Y-130283753D01*
X144931907Y-130073872D01*
X144931907Y-130073869D01*
X144866245Y-129871782D01*
X144769774Y-129682449D01*
X144730420Y-129628282D01*
X144730419Y-129628282D01*
X144098112Y-130260590D01*
X144081075Y-130197007D01*
X144015249Y-130082993D01*
X143922157Y-129989901D01*
X143808143Y-129924075D01*
X143744559Y-129907037D01*
X144414777Y-129236818D01*
X144476100Y-129203333D01*
X144502457Y-129200499D01*
X144513022Y-129200499D01*
X144572633Y-129194091D01*
X144707481Y-129143796D01*
X144822696Y-129057546D01*
X144908946Y-128942331D01*
X144959241Y-128807483D01*
X144965650Y-128747873D01*
X144965649Y-126952128D01*
X144959241Y-126892517D01*
X144946552Y-126858497D01*
X144908947Y-126757671D01*
X144908943Y-126757664D01*
X144822697Y-126642455D01*
X144822694Y-126642452D01*
X144707485Y-126556206D01*
X144707478Y-126556202D01*
X144572632Y-126505908D01*
X144572633Y-126505908D01*
X144513033Y-126499501D01*
X144513031Y-126499500D01*
X144513023Y-126499500D01*
X144513014Y-126499500D01*
X142717279Y-126499500D01*
X142717273Y-126499501D01*
X142657666Y-126505908D01*
X142522821Y-126556202D01*
X142522814Y-126556206D01*
X142407605Y-126642452D01*
X142407602Y-126642455D01*
X142321356Y-126757664D01*
X142321352Y-126757671D01*
X142271058Y-126892517D01*
X142266997Y-126930293D01*
X142264651Y-126952123D01*
X142264650Y-126952135D01*
X142264650Y-128747870D01*
X142264651Y-128747876D01*
X142271058Y-128807483D01*
X142321352Y-128942328D01*
X142321356Y-128942335D01*
X142407602Y-129057544D01*
X142407605Y-129057547D01*
X142522814Y-129143793D01*
X142522821Y-129143797D01*
X142567768Y-129160561D01*
X142657667Y-129194091D01*
X142717277Y-129200500D01*
X142727835Y-129200499D01*
X142794873Y-129220179D01*
X142815522Y-129236818D01*
X143485741Y-129907037D01*
X143422157Y-129924075D01*
X143308143Y-129989901D01*
X143215051Y-130082993D01*
X143149225Y-130197007D01*
X143132187Y-130260591D01*
X142499878Y-129628282D01*
X142499877Y-129628282D01*
X142460530Y-129682439D01*
X142364054Y-129871782D01*
X142298392Y-130073869D01*
X142298392Y-130073872D01*
X142265150Y-130283753D01*
X142265150Y-130496246D01*
X142298392Y-130706127D01*
X142298392Y-130706130D01*
X142364054Y-130908217D01*
X142460525Y-131097550D01*
X142499878Y-131151716D01*
X143132187Y-130519408D01*
X143149225Y-130582993D01*
X143215051Y-130697007D01*
X143308143Y-130790099D01*
X143422157Y-130855925D01*
X143485740Y-130872962D01*
X142853432Y-131505269D01*
X142853432Y-131505270D01*
X142907602Y-131544626D01*
X142907601Y-131544626D01*
X142916645Y-131549234D01*
X142967442Y-131597208D01*
X142984237Y-131665029D01*
X142961700Y-131731164D01*
X142916649Y-131770202D01*
X142907332Y-131774949D01*
X142735363Y-131899890D01*
X142585042Y-132050211D01*
X142526201Y-132131202D01*
X142491920Y-132178385D01*
X142436592Y-132221051D01*
X142391603Y-132229500D01*
X130146519Y-132229500D01*
X130079480Y-132209815D01*
X130058838Y-132193181D01*
X126786819Y-128921162D01*
X126753334Y-128859839D01*
X126750500Y-128833481D01*
X126750500Y-96591519D01*
X126770185Y-96524480D01*
X126786819Y-96503838D01*
X129673838Y-93616819D01*
X129735161Y-93583334D01*
X129761519Y-93580500D01*
X131965226Y-93580500D01*
X132032265Y-93600185D01*
X132065542Y-93631612D01*
X132117019Y-93702464D01*
X132257536Y-93842981D01*
X132418306Y-93959787D01*
X132536832Y-94020179D01*
X132574780Y-94039515D01*
X132625576Y-94087490D01*
X132642371Y-94155311D01*
X132619833Y-94221446D01*
X132574780Y-94260485D01*
X132418305Y-94340213D01*
X132257533Y-94457021D01*
X132117021Y-94597533D01*
X132117019Y-94597536D01*
X132065542Y-94668386D01*
X132010214Y-94711051D01*
X131965226Y-94719500D01*
X130100316Y-94719500D01*
X130052864Y-94710061D01*
X129908501Y-94650264D01*
X129908489Y-94650261D01*
X129753845Y-94619500D01*
X129753842Y-94619500D01*
X129596158Y-94619500D01*
X129596155Y-94619500D01*
X129441510Y-94650261D01*
X129441498Y-94650264D01*
X129295827Y-94710602D01*
X129295814Y-94710609D01*
X129164711Y-94798210D01*
X129164707Y-94798213D01*
X129053213Y-94909707D01*
X129053210Y-94909711D01*
X128965609Y-95040814D01*
X128965602Y-95040827D01*
X128905264Y-95186498D01*
X128905261Y-95186510D01*
X128874500Y-95341153D01*
X128874500Y-95498846D01*
X128905261Y-95653489D01*
X128905264Y-95653501D01*
X128965602Y-95799172D01*
X128965609Y-95799185D01*
X129053210Y-95930288D01*
X129053213Y-95930292D01*
X129164707Y-96041786D01*
X129164711Y-96041789D01*
X129295814Y-96129390D01*
X129295827Y-96129397D01*
X129441498Y-96189735D01*
X129441503Y-96189737D01*
X129596153Y-96220499D01*
X129596156Y-96220500D01*
X129596158Y-96220500D01*
X129753844Y-96220500D01*
X129753845Y-96220499D01*
X129908497Y-96189737D01*
X129983963Y-96158478D01*
X130052864Y-96129939D01*
X130100316Y-96120500D01*
X131965226Y-96120500D01*
X132032265Y-96140185D01*
X132065542Y-96171612D01*
X132117019Y-96242464D01*
X132257536Y-96382981D01*
X132418306Y-96499787D01*
X132536832Y-96560179D01*
X132574780Y-96579515D01*
X132625576Y-96627490D01*
X132642371Y-96695311D01*
X132619833Y-96761446D01*
X132574780Y-96800485D01*
X132418305Y-96880213D01*
X132257533Y-96997021D01*
X132117021Y-97137533D01*
X132000213Y-97298305D01*
X131909994Y-97475367D01*
X131909993Y-97475370D01*
X131848587Y-97664362D01*
X131817500Y-97860639D01*
X131817500Y-98059360D01*
X131848587Y-98255637D01*
X131909993Y-98444629D01*
X131909994Y-98444632D01*
X132000213Y-98621694D01*
X132117019Y-98782464D01*
X132257536Y-98922981D01*
X132418306Y-99039787D01*
X132536832Y-99100179D01*
X132574780Y-99119515D01*
X132625576Y-99167490D01*
X132642371Y-99235311D01*
X132619833Y-99301446D01*
X132574780Y-99340485D01*
X132418305Y-99420213D01*
X132257533Y-99537021D01*
X132117021Y-99677533D01*
X132000213Y-99838305D01*
X131909994Y-100015367D01*
X131909993Y-100015370D01*
X131848587Y-100204362D01*
X131817500Y-100400639D01*
X131817500Y-100599360D01*
X131848587Y-100795637D01*
X131909993Y-100984629D01*
X131909994Y-100984632D01*
X132000076Y-101161425D01*
X132000213Y-101161694D01*
X132117019Y-101322464D01*
X132257536Y-101462981D01*
X132418306Y-101579787D01*
X132536832Y-101640179D01*
X132574780Y-101659515D01*
X132625576Y-101707490D01*
X132642371Y-101775311D01*
X132619833Y-101841446D01*
X132574780Y-101880485D01*
X132418305Y-101960213D01*
X132257533Y-102077021D01*
X132117021Y-102217533D01*
X132117019Y-102217536D01*
X132065542Y-102288386D01*
X132010214Y-102331051D01*
X131965226Y-102339500D01*
X128925316Y-102339500D01*
X128877864Y-102330061D01*
X128733501Y-102270264D01*
X128733489Y-102270261D01*
X128578845Y-102239500D01*
X128578842Y-102239500D01*
X128421158Y-102239500D01*
X128421155Y-102239500D01*
X128266510Y-102270261D01*
X128266498Y-102270264D01*
X128120827Y-102330602D01*
X128120814Y-102330609D01*
X127989711Y-102418210D01*
X127989707Y-102418213D01*
X127878213Y-102529707D01*
X127878210Y-102529711D01*
X127790609Y-102660814D01*
X127790602Y-102660827D01*
X127730264Y-102806498D01*
X127730261Y-102806510D01*
X127699500Y-102961153D01*
X127699500Y-103118846D01*
X127730261Y-103273489D01*
X127730264Y-103273501D01*
X127790602Y-103419172D01*
X127790609Y-103419185D01*
X127878210Y-103550288D01*
X127878213Y-103550292D01*
X127989707Y-103661786D01*
X127989711Y-103661789D01*
X128120814Y-103749390D01*
X128120827Y-103749397D01*
X128266498Y-103809735D01*
X128266503Y-103809737D01*
X128421153Y-103840499D01*
X128421156Y-103840500D01*
X128421158Y-103840500D01*
X128578844Y-103840500D01*
X128578845Y-103840499D01*
X128733497Y-103809737D01*
X128812969Y-103776819D01*
X128877864Y-103749939D01*
X128925316Y-103740500D01*
X131965226Y-103740500D01*
X132032265Y-103760185D01*
X132065542Y-103791612D01*
X132117019Y-103862464D01*
X132257536Y-104002981D01*
X132418306Y-104119787D01*
X132536832Y-104180179D01*
X132574780Y-104199515D01*
X132625576Y-104247490D01*
X132642371Y-104315311D01*
X132619833Y-104381446D01*
X132574780Y-104420485D01*
X132418305Y-104500213D01*
X132257533Y-104617021D01*
X132117021Y-104757533D01*
X132117019Y-104757536D01*
X132065542Y-104828386D01*
X132010214Y-104871051D01*
X131965226Y-104879500D01*
X128850316Y-104879500D01*
X128802864Y-104870061D01*
X128658501Y-104810264D01*
X128658489Y-104810261D01*
X128503845Y-104779500D01*
X128503842Y-104779500D01*
X128346158Y-104779500D01*
X128346155Y-104779500D01*
X128191510Y-104810261D01*
X128191498Y-104810264D01*
X128045827Y-104870602D01*
X128045814Y-104870609D01*
X127914711Y-104958210D01*
X127914707Y-104958213D01*
X127803213Y-105069707D01*
X127803210Y-105069711D01*
X127715609Y-105200814D01*
X127715602Y-105200827D01*
X127655264Y-105346498D01*
X127655261Y-105346510D01*
X127624500Y-105501153D01*
X127624500Y-105658846D01*
X127655261Y-105813489D01*
X127655264Y-105813501D01*
X127715602Y-105959172D01*
X127715609Y-105959185D01*
X127803210Y-106090288D01*
X127803213Y-106090292D01*
X127914707Y-106201786D01*
X127914711Y-106201789D01*
X128045814Y-106289390D01*
X128045827Y-106289397D01*
X128185286Y-106347162D01*
X128191503Y-106349737D01*
X128321841Y-106375663D01*
X128346153Y-106380499D01*
X128346156Y-106380500D01*
X128346158Y-106380500D01*
X128503844Y-106380500D01*
X128503845Y-106380499D01*
X128658497Y-106349737D01*
X128737969Y-106316819D01*
X128802864Y-106289939D01*
X128850316Y-106280500D01*
X131965226Y-106280500D01*
X132032265Y-106300185D01*
X132065542Y-106331612D01*
X132117019Y-106402464D01*
X132257536Y-106542981D01*
X132418306Y-106659787D01*
X132536832Y-106720179D01*
X132574780Y-106739515D01*
X132625576Y-106787490D01*
X132642371Y-106855311D01*
X132619833Y-106921446D01*
X132574780Y-106960485D01*
X132418305Y-107040213D01*
X132257533Y-107157021D01*
X132117021Y-107297533D01*
X132000213Y-107458305D01*
X131909994Y-107635367D01*
X131909993Y-107635370D01*
X131848587Y-107824362D01*
X131817500Y-108020639D01*
X131817500Y-108219360D01*
X131848587Y-108415637D01*
X131909993Y-108604629D01*
X131909994Y-108604632D01*
X131961648Y-108706007D01*
X132000213Y-108781694D01*
X132117019Y-108942464D01*
X132257536Y-109082981D01*
X132418306Y-109199787D01*
X132536832Y-109260179D01*
X132574780Y-109279515D01*
X132625576Y-109327490D01*
X132642371Y-109395311D01*
X132619833Y-109461446D01*
X132574780Y-109500485D01*
X132418305Y-109580213D01*
X132257533Y-109697021D01*
X132117021Y-109837533D01*
X132000213Y-109998305D01*
X131909994Y-110175367D01*
X131909993Y-110175370D01*
X131848587Y-110364362D01*
X131817500Y-110560639D01*
X131817500Y-110759360D01*
X131848587Y-110955637D01*
X131909993Y-111144629D01*
X131909994Y-111144632D01*
X132000213Y-111321694D01*
X132117019Y-111482464D01*
X132257536Y-111622981D01*
X132418306Y-111739787D01*
X132536832Y-111800179D01*
X132574780Y-111819515D01*
X132625576Y-111867490D01*
X132642371Y-111935311D01*
X132619833Y-112001446D01*
X132574780Y-112040485D01*
X132418305Y-112120213D01*
X132257533Y-112237021D01*
X132117021Y-112377533D01*
X132000213Y-112538305D01*
X131909994Y-112715367D01*
X131909993Y-112715370D01*
X131848587Y-112904362D01*
X131817500Y-113100639D01*
X131817500Y-113299360D01*
X131848587Y-113495637D01*
X131909993Y-113684629D01*
X131909994Y-113684632D01*
X132000213Y-113861694D01*
X132117019Y-114022464D01*
X132257536Y-114162981D01*
X132418306Y-114279787D01*
X132536832Y-114340179D01*
X132574780Y-114359515D01*
X132625576Y-114407490D01*
X132642371Y-114475311D01*
X132619833Y-114541446D01*
X132574780Y-114580485D01*
X132418305Y-114660213D01*
X132257533Y-114777021D01*
X132117021Y-114917533D01*
X132000213Y-115078305D01*
X131909994Y-115255367D01*
X131909993Y-115255370D01*
X131848587Y-115444362D01*
X131817500Y-115640639D01*
X131817500Y-115839360D01*
X131848587Y-116035637D01*
X131909993Y-116224629D01*
X131909994Y-116224632D01*
X132000076Y-116401425D01*
X132000213Y-116401694D01*
X132117019Y-116562464D01*
X132257536Y-116702981D01*
X132418306Y-116819787D01*
X132536832Y-116880179D01*
X132574780Y-116899515D01*
X132625576Y-116947490D01*
X132642371Y-117015311D01*
X132619833Y-117081446D01*
X132574780Y-117120485D01*
X132418305Y-117200213D01*
X132257533Y-117317021D01*
X132117021Y-117457533D01*
X132000213Y-117618305D01*
X131909994Y-117795367D01*
X131909993Y-117795370D01*
X131848587Y-117984362D01*
X131817500Y-118180639D01*
X131817500Y-118379360D01*
X131848587Y-118575637D01*
X131909993Y-118764629D01*
X131909994Y-118764632D01*
X132000213Y-118941694D01*
X132117019Y-119102464D01*
X132257536Y-119242981D01*
X132418306Y-119359787D01*
X132536832Y-119420179D01*
X132574780Y-119439515D01*
X132625576Y-119487490D01*
X132642371Y-119555311D01*
X132619833Y-119621446D01*
X132574780Y-119660485D01*
X132418305Y-119740213D01*
X132257533Y-119857021D01*
X132117021Y-119997533D01*
X132000213Y-120158305D01*
X131909994Y-120335367D01*
X131909993Y-120335370D01*
X131848587Y-120524362D01*
X131817500Y-120720639D01*
X131817500Y-120919360D01*
X131848587Y-121115637D01*
X131909993Y-121304629D01*
X131909994Y-121304632D01*
X131973087Y-121428457D01*
X132000213Y-121481694D01*
X132117019Y-121642464D01*
X132257536Y-121782981D01*
X132418306Y-121899787D01*
X132536832Y-121960179D01*
X132574780Y-121979515D01*
X132625576Y-122027490D01*
X132642371Y-122095311D01*
X132619833Y-122161446D01*
X132574780Y-122200485D01*
X132418305Y-122280213D01*
X132257533Y-122397021D01*
X132117021Y-122537533D01*
X132000213Y-122698305D01*
X131909994Y-122875367D01*
X131909993Y-122875370D01*
X131848587Y-123064362D01*
X131817500Y-123260639D01*
X131817500Y-123459360D01*
X131848587Y-123655637D01*
X131909993Y-123844629D01*
X131909994Y-123844632D01*
X132000213Y-124021694D01*
X132117019Y-124182464D01*
X132257536Y-124322981D01*
X132418306Y-124439787D01*
X132486970Y-124474773D01*
X132595367Y-124530005D01*
X132595370Y-124530006D01*
X132677857Y-124556807D01*
X132784364Y-124591413D01*
X132980639Y-124622500D01*
X132980640Y-124622500D01*
X133179360Y-124622500D01*
X133179361Y-124622500D01*
X133375636Y-124591413D01*
X133564632Y-124530005D01*
X133741694Y-124439787D01*
X133902464Y-124322981D01*
X134042981Y-124182464D01*
X134159787Y-124021694D01*
X134239515Y-123865218D01*
X134287490Y-123814423D01*
X134355311Y-123797628D01*
X134421446Y-123820165D01*
X134460484Y-123865218D01*
X134540213Y-124021694D01*
X134657019Y-124182464D01*
X134797536Y-124322981D01*
X134958306Y-124439787D01*
X135026970Y-124474773D01*
X135135367Y-124530005D01*
X135135370Y-124530006D01*
X135217857Y-124556807D01*
X135324364Y-124591413D01*
X135520639Y-124622500D01*
X135520640Y-124622500D01*
X135719360Y-124622500D01*
X135719361Y-124622500D01*
X135915636Y-124591413D01*
X136104632Y-124530005D01*
X136281694Y-124439787D01*
X136442464Y-124322981D01*
X136582981Y-124182464D01*
X136699787Y-124021694D01*
X136790005Y-123844632D01*
X136851413Y-123655636D01*
X136882500Y-123459361D01*
X136882500Y-123260639D01*
X136851413Y-123064364D01*
X136790005Y-122875368D01*
X136790005Y-122875367D01*
X136699786Y-122698305D01*
X136582981Y-122537536D01*
X136442464Y-122397019D01*
X136281694Y-122280213D01*
X136125218Y-122200484D01*
X136074423Y-122152510D01*
X136057628Y-122084689D01*
X136080165Y-122018554D01*
X136125218Y-121979515D01*
X136281694Y-121899787D01*
X136442464Y-121782981D01*
X136582981Y-121642464D01*
X136699787Y-121481694D01*
X136790005Y-121304632D01*
X136851413Y-121115636D01*
X136882500Y-120919361D01*
X136882500Y-120720639D01*
X136851413Y-120524364D01*
X136790005Y-120335368D01*
X136790005Y-120335367D01*
X136720635Y-120199222D01*
X136699787Y-120158306D01*
X136582981Y-119997536D01*
X136442464Y-119857019D01*
X136281694Y-119740213D01*
X136125218Y-119660484D01*
X136074423Y-119612510D01*
X136057628Y-119544689D01*
X136080165Y-119478554D01*
X136125218Y-119439515D01*
X136281694Y-119359787D01*
X136442464Y-119242981D01*
X136582981Y-119102464D01*
X136699787Y-118941694D01*
X136790005Y-118764632D01*
X136851413Y-118575636D01*
X136882500Y-118379361D01*
X136882500Y-118180639D01*
X136851413Y-117984364D01*
X136790005Y-117795368D01*
X136790005Y-117795367D01*
X136723661Y-117665161D01*
X136699787Y-117618306D01*
X136582981Y-117457536D01*
X136442464Y-117317019D01*
X136281694Y-117200213D01*
X136124667Y-117120203D01*
X136073872Y-117072229D01*
X136057077Y-117004408D01*
X136079614Y-116938273D01*
X136124669Y-116899234D01*
X136281422Y-116819364D01*
X136318716Y-116792268D01*
X135755942Y-116229494D01*
X135816081Y-116213381D01*
X135931920Y-116146502D01*
X136026502Y-116051920D01*
X136093381Y-115936081D01*
X136109495Y-115875942D01*
X136672268Y-116438715D01*
X136699362Y-116401425D01*
X136789542Y-116224437D01*
X136850924Y-116035523D01*
X136850924Y-116035520D01*
X136882000Y-115839321D01*
X136882000Y-115640678D01*
X136850924Y-115444479D01*
X136850924Y-115444476D01*
X136789542Y-115255562D01*
X136699358Y-115078567D01*
X136672268Y-115041283D01*
X136109494Y-115604057D01*
X136093381Y-115543919D01*
X136026502Y-115428080D01*
X135931920Y-115333498D01*
X135816081Y-115266619D01*
X135755942Y-115250504D01*
X136318716Y-114687731D01*
X136318715Y-114687730D01*
X136281432Y-114660641D01*
X136124668Y-114580765D01*
X136073872Y-114532790D01*
X136057077Y-114464969D01*
X136079615Y-114398834D01*
X136124667Y-114359796D01*
X136281694Y-114279787D01*
X136442464Y-114162981D01*
X136582981Y-114022464D01*
X136634457Y-113951613D01*
X136689786Y-113908949D01*
X136734774Y-113900500D01*
X137118996Y-113900500D01*
X137210040Y-113882389D01*
X137254328Y-113873580D01*
X137318069Y-113847177D01*
X137381807Y-113820777D01*
X137381808Y-113820776D01*
X137381811Y-113820775D01*
X137496543Y-113744114D01*
X144244114Y-106996543D01*
X144320775Y-106881811D01*
X144373580Y-106754329D01*
X144385074Y-106696543D01*
X144385557Y-106694117D01*
X144385557Y-106694114D01*
X144400500Y-106618993D01*
X144400500Y-48181007D01*
X144398617Y-48171543D01*
X144373580Y-48045672D01*
X144337473Y-47958501D01*
X144320777Y-47918192D01*
X144244112Y-47803454D01*
X142435554Y-45994896D01*
X142402069Y-45933573D01*
X142399235Y-45907215D01*
X142399235Y-40323547D01*
X142399869Y-40321385D01*
X142399311Y-40319203D01*
X142409668Y-40288014D01*
X142418920Y-40256508D01*
X142420843Y-40254365D01*
X142421332Y-40252894D01*
X142431434Y-40242566D01*
X142445365Y-40227047D01*
X142447800Y-40225081D01*
X142578527Y-40130104D01*
X142728839Y-39979792D01*
X142728841Y-39979788D01*
X142728844Y-39979786D01*
X142814625Y-39861717D01*
X142853786Y-39807816D01*
X142858528Y-39798508D01*
X142906498Y-39747711D01*
X142974318Y-39730911D01*
X143040454Y-39753445D01*
X143079498Y-39798500D01*
X143084108Y-39807547D01*
X143123463Y-39861716D01*
X143755772Y-39229408D01*
X143772810Y-39292993D01*
X143838636Y-39407007D01*
X143931728Y-39500099D01*
X144045742Y-39565925D01*
X144109325Y-39582962D01*
X143477017Y-40215269D01*
X143477017Y-40215270D01*
X143531184Y-40254624D01*
X143720517Y-40351095D01*
X143922605Y-40416757D01*
X144132489Y-40450000D01*
X144344981Y-40450000D01*
X144554862Y-40416757D01*
X144554865Y-40416757D01*
X144756952Y-40351095D01*
X144946289Y-40254622D01*
X145000451Y-40215270D01*
X145000452Y-40215270D01*
X144368143Y-39582962D01*
X144431728Y-39565925D01*
X144545742Y-39500099D01*
X144638834Y-39407007D01*
X144704660Y-39292993D01*
X144721697Y-39229408D01*
X145354005Y-39861717D01*
X145354005Y-39861716D01*
X145393357Y-39807554D01*
X145489830Y-39618217D01*
X145555492Y-39416130D01*
X145555492Y-39416127D01*
X145588735Y-39206246D01*
X145588735Y-38993753D01*
X145555492Y-38783872D01*
X145555492Y-38783869D01*
X145489830Y-38581782D01*
X145393359Y-38392449D01*
X145354005Y-38338282D01*
X145354004Y-38338282D01*
X144721697Y-38970590D01*
X144704660Y-38907007D01*
X144638834Y-38792993D01*
X144545742Y-38699901D01*
X144431728Y-38634075D01*
X144368144Y-38617037D01*
X145000451Y-37984728D01*
X144946285Y-37945375D01*
X144756952Y-37848904D01*
X144554864Y-37783242D01*
X144344981Y-37750000D01*
X144132489Y-37750000D01*
X143922607Y-37783242D01*
X143922604Y-37783242D01*
X143720517Y-37848904D01*
X143531174Y-37945380D01*
X143477017Y-37984727D01*
X143477017Y-37984728D01*
X144109326Y-38617037D01*
X144045742Y-38634075D01*
X143931728Y-38699901D01*
X143838636Y-38792993D01*
X143772810Y-38907007D01*
X143755772Y-38970591D01*
X143123463Y-38338282D01*
X143123462Y-38338282D01*
X143084115Y-38392440D01*
X143084111Y-38392446D01*
X143079495Y-38401505D01*
X143031516Y-38452297D01*
X142963694Y-38469087D01*
X142897561Y-38446543D01*
X142858529Y-38401493D01*
X142853786Y-38392184D01*
X142853784Y-38392181D01*
X142853783Y-38392179D01*
X142728844Y-38220213D01*
X142578521Y-38069890D01*
X142406555Y-37944951D01*
X142217149Y-37848444D01*
X142217148Y-37848443D01*
X142217147Y-37848443D01*
X142014978Y-37782754D01*
X142014976Y-37782753D01*
X142014975Y-37782753D01*
X141853692Y-37757208D01*
X141805022Y-37749500D01*
X141592448Y-37749500D01*
X141543777Y-37757208D01*
X141382495Y-37782753D01*
X141180320Y-37848444D01*
X140990914Y-37944951D01*
X140818948Y-38069890D01*
X140668625Y-38220213D01*
X140543684Y-38392182D01*
X140539219Y-38400946D01*
X140491244Y-38451742D01*
X140423423Y-38468536D01*
X140357288Y-38445998D01*
X140318251Y-38400946D01*
X140313785Y-38392182D01*
X140188844Y-38220213D01*
X140038521Y-38069890D01*
X139866555Y-37944951D01*
X139677149Y-37848444D01*
X139677148Y-37848443D01*
X139677147Y-37848443D01*
X139474978Y-37782754D01*
X139474976Y-37782753D01*
X139474975Y-37782753D01*
X139313692Y-37757208D01*
X139265022Y-37749500D01*
X139052448Y-37749500D01*
X139003777Y-37757208D01*
X138842495Y-37782753D01*
X138640320Y-37848444D01*
X138450914Y-37944951D01*
X138278948Y-38069890D01*
X138128625Y-38220213D01*
X138003684Y-38392182D01*
X137999219Y-38400946D01*
X137951244Y-38451742D01*
X137883423Y-38468536D01*
X137817288Y-38445998D01*
X137778251Y-38400946D01*
X137773785Y-38392182D01*
X137648844Y-38220213D01*
X137498521Y-38069890D01*
X137326555Y-37944951D01*
X137137149Y-37848444D01*
X137137148Y-37848443D01*
X137137147Y-37848443D01*
X136934978Y-37782754D01*
X136934976Y-37782753D01*
X136934975Y-37782753D01*
X136773692Y-37757208D01*
X136725022Y-37749500D01*
X136512448Y-37749500D01*
X136463777Y-37757208D01*
X136302495Y-37782753D01*
X136100320Y-37848444D01*
X135910914Y-37944951D01*
X135738948Y-38069890D01*
X135588625Y-38220213D01*
X135463684Y-38392182D01*
X135459219Y-38400946D01*
X135411244Y-38451742D01*
X135343423Y-38468536D01*
X135277288Y-38445998D01*
X135238251Y-38400946D01*
X135233785Y-38392182D01*
X135108844Y-38220213D01*
X134958521Y-38069890D01*
X134786555Y-37944951D01*
X134597149Y-37848444D01*
X134597148Y-37848443D01*
X134597147Y-37848443D01*
X134394978Y-37782754D01*
X134394976Y-37782753D01*
X134394975Y-37782753D01*
X134233692Y-37757208D01*
X134185022Y-37749500D01*
X133972448Y-37749500D01*
X133923777Y-37757208D01*
X133762495Y-37782753D01*
X133560320Y-37848444D01*
X133370914Y-37944951D01*
X133198950Y-38069889D01*
X133085408Y-38183431D01*
X133024085Y-38216915D01*
X132954393Y-38211931D01*
X132898460Y-38170059D01*
X132881545Y-38139082D01*
X132832532Y-38007671D01*
X132832528Y-38007664D01*
X132746282Y-37892455D01*
X132746279Y-37892452D01*
X132631070Y-37806206D01*
X132631063Y-37806202D01*
X132496217Y-37755908D01*
X132496218Y-37755908D01*
X132436618Y-37749501D01*
X132436616Y-37749500D01*
X132436608Y-37749500D01*
X132436600Y-37749500D01*
X132336509Y-37749500D01*
X132269470Y-37729815D01*
X132223715Y-37677011D01*
X132214891Y-37649687D01*
X132212315Y-37636735D01*
X132212313Y-37636730D01*
X132159512Y-37509255D01*
X132082847Y-37394517D01*
X130950511Y-36262181D01*
X130917026Y-36200858D01*
X130922010Y-36131166D01*
X130963882Y-36075233D01*
X131029346Y-36050816D01*
X131038192Y-36050500D01*
X147990650Y-36050500D01*
X148057689Y-36070185D01*
X148103444Y-36122989D01*
X148114650Y-36174500D01*
X148114650Y-144925500D01*
X148094965Y-144992539D01*
X148042161Y-145038294D01*
X147990650Y-145049500D01*
X59239650Y-145049500D01*
X59172611Y-145029815D01*
X59126856Y-144977011D01*
X59115650Y-144925500D01*
X59115650Y-38202135D01*
X65402891Y-38202135D01*
X65402891Y-39997870D01*
X65402892Y-39997876D01*
X65409299Y-40057483D01*
X65459593Y-40192328D01*
X65459597Y-40192335D01*
X65545843Y-40307544D01*
X65545846Y-40307547D01*
X65661055Y-40393793D01*
X65661062Y-40393797D01*
X65795908Y-40444091D01*
X65795907Y-40444091D01*
X65802835Y-40444835D01*
X65855518Y-40450500D01*
X67651263Y-40450499D01*
X67710874Y-40444091D01*
X67845722Y-40393796D01*
X67960937Y-40307546D01*
X68047187Y-40192331D01*
X68097482Y-40057483D01*
X68103891Y-39997873D01*
X68103890Y-39973979D01*
X68106721Y-39960963D01*
X68117331Y-39941525D01*
X68123570Y-39920275D01*
X68140194Y-39899643D01*
X68140199Y-39899636D01*
X68140202Y-39899634D01*
X68140209Y-39899626D01*
X68810428Y-39229408D01*
X68827466Y-39292993D01*
X68893292Y-39407007D01*
X68986384Y-39500099D01*
X69100398Y-39565925D01*
X69163981Y-39582962D01*
X68531673Y-40215269D01*
X68531673Y-40215270D01*
X68585840Y-40254624D01*
X68775173Y-40351095D01*
X68977261Y-40416757D01*
X69187145Y-40450000D01*
X69399637Y-40450000D01*
X69609518Y-40416757D01*
X69609521Y-40416757D01*
X69811608Y-40351095D01*
X70000945Y-40254622D01*
X70055107Y-40215270D01*
X70055108Y-40215270D01*
X69422799Y-39582962D01*
X69486384Y-39565925D01*
X69600398Y-39500099D01*
X69693490Y-39407007D01*
X69759316Y-39292993D01*
X69776353Y-39229408D01*
X70408661Y-39861717D01*
X70408661Y-39861716D01*
X70448013Y-39807554D01*
X70544486Y-39618217D01*
X70610148Y-39416130D01*
X70610148Y-39416127D01*
X70643391Y-39206246D01*
X70643391Y-38993753D01*
X70610148Y-38783872D01*
X70610148Y-38783869D01*
X70544486Y-38581782D01*
X70448015Y-38392449D01*
X70408661Y-38338282D01*
X70408660Y-38338282D01*
X69776353Y-38970590D01*
X69759316Y-38907007D01*
X69693490Y-38792993D01*
X69600398Y-38699901D01*
X69486384Y-38634075D01*
X69422800Y-38617037D01*
X70055107Y-37984728D01*
X70000941Y-37945375D01*
X69811608Y-37848904D01*
X69609520Y-37783242D01*
X69399637Y-37750000D01*
X69187145Y-37750000D01*
X68977263Y-37783242D01*
X68977260Y-37783242D01*
X68775173Y-37848904D01*
X68585830Y-37945380D01*
X68531673Y-37984727D01*
X68531673Y-37984728D01*
X69163982Y-38617037D01*
X69100398Y-38634075D01*
X68986384Y-38699901D01*
X68893292Y-38792993D01*
X68827466Y-38907007D01*
X68810428Y-38970591D01*
X68140209Y-38300372D01*
X68106724Y-38239049D01*
X68106721Y-38239036D01*
X68103890Y-38226015D01*
X68103890Y-38202128D01*
X68097482Y-38142517D01*
X68069317Y-38067002D01*
X68047189Y-38007673D01*
X68047184Y-38007664D01*
X67960938Y-37892455D01*
X67960935Y-37892452D01*
X67845726Y-37806206D01*
X67845719Y-37806202D01*
X67710873Y-37755908D01*
X67710874Y-37755908D01*
X67651274Y-37749501D01*
X67651272Y-37749500D01*
X67651264Y-37749500D01*
X67651255Y-37749500D01*
X65855520Y-37749500D01*
X65855514Y-37749501D01*
X65795907Y-37755908D01*
X65661062Y-37806202D01*
X65661055Y-37806206D01*
X65545846Y-37892452D01*
X65545843Y-37892455D01*
X65459597Y-38007664D01*
X65459593Y-38007671D01*
X65409299Y-38142517D01*
X65402892Y-38202116D01*
X65402891Y-38202135D01*
X59115650Y-38202135D01*
X59115650Y-36174500D01*
X59135335Y-36107461D01*
X59188139Y-36061706D01*
X59239650Y-36050500D01*
X110107152Y-36050500D01*
X110174191Y-36070185D01*
G37*
%TD.AperFunction*%
%TA.AperFunction,Conductor*%
G36*
X130198192Y-37495185D02*
G01*
X130218834Y-37511819D01*
X130383425Y-37676410D01*
X130416910Y-37737733D01*
X130411926Y-37807425D01*
X130370057Y-37863356D01*
X130331189Y-37892453D01*
X130331187Y-37892455D01*
X130244941Y-38007664D01*
X130244937Y-38007671D01*
X130194643Y-38142517D01*
X130188236Y-38202116D01*
X130188235Y-38202135D01*
X130188235Y-39997870D01*
X130188236Y-39997876D01*
X130194643Y-40057483D01*
X130244937Y-40192328D01*
X130244941Y-40192335D01*
X130331187Y-40307544D01*
X130331190Y-40307547D01*
X130446399Y-40393793D01*
X130446406Y-40393797D01*
X130581252Y-40444091D01*
X130581251Y-40444091D01*
X130588179Y-40444835D01*
X130640862Y-40450500D01*
X132436607Y-40450499D01*
X132496218Y-40444091D01*
X132631066Y-40393796D01*
X132746281Y-40307546D01*
X132832531Y-40192331D01*
X132881545Y-40060916D01*
X132923416Y-40004984D01*
X132988880Y-39980566D01*
X133057153Y-39995417D01*
X133085408Y-40016569D01*
X133198946Y-40130107D01*
X133269935Y-40181682D01*
X133327120Y-40223229D01*
X133369786Y-40278558D01*
X133378235Y-40323547D01*
X133378235Y-47634741D01*
X133378235Y-47772729D01*
X133378235Y-47772731D01*
X133378234Y-47772731D01*
X133405153Y-47908057D01*
X133405156Y-47908067D01*
X133457957Y-48035542D01*
X133534622Y-48150280D01*
X133534623Y-48150281D01*
X137538181Y-52153838D01*
X137571666Y-52215161D01*
X137574500Y-52241519D01*
X137574500Y-78608481D01*
X137554815Y-78675520D01*
X137538181Y-78696162D01*
X136809286Y-79425056D01*
X136747963Y-79458541D01*
X136678271Y-79453557D01*
X136622338Y-79411685D01*
X136621287Y-79410260D01*
X136611322Y-79396545D01*
X136582981Y-79357536D01*
X136442464Y-79217019D01*
X136281694Y-79100213D01*
X136125218Y-79020484D01*
X136074423Y-78972510D01*
X136057628Y-78904689D01*
X136080165Y-78838554D01*
X136125218Y-78799515D01*
X136281694Y-78719787D01*
X136442464Y-78602981D01*
X136582981Y-78462464D01*
X136699787Y-78301694D01*
X136790005Y-78124632D01*
X136851413Y-77935636D01*
X136882500Y-77739361D01*
X136882500Y-77540639D01*
X136851413Y-77344364D01*
X136790005Y-77155368D01*
X136790005Y-77155367D01*
X136744035Y-77065149D01*
X136699787Y-76978306D01*
X136582981Y-76817536D01*
X136442464Y-76677019D01*
X136281694Y-76560213D01*
X136104632Y-76469994D01*
X136104629Y-76469993D01*
X135915637Y-76408587D01*
X135817498Y-76393043D01*
X135719361Y-76377500D01*
X135520639Y-76377500D01*
X135455214Y-76387862D01*
X135324362Y-76408587D01*
X135135370Y-76469993D01*
X135135367Y-76469994D01*
X134958305Y-76560213D01*
X134797533Y-76677021D01*
X134657021Y-76817533D01*
X134540213Y-76978305D01*
X134460485Y-77134780D01*
X134412510Y-77185576D01*
X134344689Y-77202371D01*
X134278554Y-77179833D01*
X134239515Y-77134780D01*
X134220179Y-77096832D01*
X134159787Y-76978306D01*
X134042981Y-76817536D01*
X133902464Y-76677019D01*
X133741694Y-76560213D01*
X133564632Y-76469994D01*
X133564629Y-76469993D01*
X133375637Y-76408587D01*
X133277498Y-76393043D01*
X133179361Y-76377500D01*
X132980639Y-76377500D01*
X132915214Y-76387862D01*
X132784362Y-76408587D01*
X132595370Y-76469993D01*
X132595367Y-76469994D01*
X132418305Y-76560213D01*
X132257533Y-76677021D01*
X132117021Y-76817533D01*
X132000213Y-76978305D01*
X131909994Y-77155367D01*
X131909993Y-77155370D01*
X131848587Y-77344362D01*
X131817500Y-77540639D01*
X131817500Y-77739360D01*
X131848587Y-77935637D01*
X131909993Y-78124629D01*
X131909994Y-78124632D01*
X132000129Y-78301529D01*
X132000213Y-78301694D01*
X132117019Y-78462464D01*
X132257536Y-78602981D01*
X132418306Y-78719787D01*
X132496333Y-78759544D01*
X132574780Y-78799515D01*
X132625576Y-78847490D01*
X132642371Y-78915311D01*
X132619833Y-78981446D01*
X132574780Y-79020485D01*
X132418305Y-79100213D01*
X132257533Y-79217021D01*
X132117021Y-79357533D01*
X132000213Y-79518305D01*
X131909994Y-79695367D01*
X131909993Y-79695370D01*
X131848587Y-79884362D01*
X131817500Y-80080639D01*
X131817500Y-80279360D01*
X131848587Y-80475637D01*
X131909993Y-80664629D01*
X131909994Y-80664632D01*
X131989914Y-80821481D01*
X132000213Y-80841694D01*
X132117019Y-81002464D01*
X132257536Y-81142981D01*
X132418306Y-81259787D01*
X132536832Y-81320179D01*
X132574780Y-81339515D01*
X132625576Y-81387490D01*
X132642371Y-81455311D01*
X132619833Y-81521446D01*
X132574780Y-81560485D01*
X132418305Y-81640213D01*
X132257533Y-81757021D01*
X132117021Y-81897533D01*
X132000213Y-82058305D01*
X131909994Y-82235367D01*
X131909993Y-82235370D01*
X131848587Y-82424362D01*
X131817500Y-82620639D01*
X131817500Y-82819360D01*
X131848587Y-83015637D01*
X131909993Y-83204629D01*
X131909994Y-83204632D01*
X132000213Y-83381694D01*
X132117019Y-83542464D01*
X132257536Y-83682981D01*
X132418306Y-83799787D01*
X132536832Y-83860179D01*
X132574780Y-83879515D01*
X132625576Y-83927490D01*
X132642371Y-83995311D01*
X132619833Y-84061446D01*
X132574780Y-84100485D01*
X132418305Y-84180213D01*
X132257533Y-84297021D01*
X132117021Y-84437533D01*
X132000213Y-84598305D01*
X131909994Y-84775367D01*
X131909993Y-84775370D01*
X131848587Y-84964362D01*
X131817500Y-85160639D01*
X131817500Y-85359360D01*
X131848587Y-85555637D01*
X131909993Y-85744629D01*
X131909994Y-85744632D01*
X132000076Y-85921425D01*
X132000213Y-85921694D01*
X132117019Y-86082464D01*
X132257536Y-86222981D01*
X132418306Y-86339787D01*
X132575332Y-86419796D01*
X132626127Y-86467769D01*
X132642922Y-86535590D01*
X132620385Y-86601725D01*
X132575332Y-86640764D01*
X132418566Y-86720641D01*
X132381283Y-86747729D01*
X132381282Y-86747730D01*
X132944058Y-87310504D01*
X132883919Y-87326619D01*
X132768080Y-87393498D01*
X132673498Y-87488080D01*
X132606619Y-87603919D01*
X132590504Y-87664057D01*
X132027730Y-87101282D01*
X132027729Y-87101283D01*
X132000643Y-87138564D01*
X131910457Y-87315562D01*
X131849075Y-87504476D01*
X131849075Y-87504479D01*
X131818000Y-87700678D01*
X131818000Y-87899321D01*
X131849075Y-88095520D01*
X131849075Y-88095523D01*
X131910457Y-88284437D01*
X132000641Y-88461432D01*
X132027730Y-88498715D01*
X132027731Y-88498716D01*
X132590504Y-87935942D01*
X132606619Y-87996081D01*
X132673498Y-88111920D01*
X132768080Y-88206502D01*
X132883919Y-88273381D01*
X132944057Y-88289494D01*
X132381283Y-88852268D01*
X132381283Y-88852269D01*
X132418567Y-88879358D01*
X132575331Y-88959234D01*
X132626127Y-89007209D01*
X132642922Y-89075030D01*
X132620384Y-89141165D01*
X132575331Y-89180204D01*
X132418305Y-89260213D01*
X132257533Y-89377021D01*
X132117021Y-89517533D01*
X132000213Y-89678305D01*
X131909994Y-89855367D01*
X131909993Y-89855370D01*
X131848587Y-90044362D01*
X131817500Y-90240639D01*
X131817500Y-90439360D01*
X131848587Y-90635637D01*
X131909993Y-90824629D01*
X131909994Y-90824632D01*
X132000213Y-91001694D01*
X132117019Y-91162464D01*
X132257536Y-91302981D01*
X132418306Y-91419787D01*
X132536832Y-91480179D01*
X132574780Y-91499515D01*
X132625576Y-91547490D01*
X132642371Y-91615311D01*
X132619833Y-91681446D01*
X132574780Y-91720485D01*
X132418305Y-91800213D01*
X132257533Y-91917021D01*
X132117021Y-92057533D01*
X132117019Y-92057536D01*
X132065542Y-92128386D01*
X132010214Y-92171051D01*
X131965226Y-92179500D01*
X129351004Y-92179500D01*
X129215677Y-92206418D01*
X129215667Y-92206421D01*
X129088192Y-92259222D01*
X128973454Y-92335887D01*
X125505887Y-95803454D01*
X125429223Y-95918192D01*
X125376421Y-96045668D01*
X125376418Y-96045679D01*
X125361536Y-96120500D01*
X125359767Y-96129394D01*
X125349500Y-96181007D01*
X125349500Y-129106006D01*
X125349500Y-129243994D01*
X125349500Y-129243996D01*
X125349499Y-129243996D01*
X125376418Y-129379322D01*
X125376421Y-129379332D01*
X125429222Y-129506807D01*
X125505887Y-129621545D01*
X129358454Y-133474112D01*
X129473192Y-133550777D01*
X129600667Y-133603578D01*
X129600672Y-133603580D01*
X129600676Y-133603580D01*
X129600677Y-133603581D01*
X129736003Y-133630500D01*
X129736006Y-133630500D01*
X129736007Y-133630500D01*
X142391603Y-133630500D01*
X142458642Y-133650185D01*
X142491919Y-133681614D01*
X142526992Y-133729887D01*
X142585042Y-133809788D01*
X142735363Y-133960109D01*
X142907332Y-134085050D01*
X142916096Y-134089516D01*
X142966892Y-134137491D01*
X142983686Y-134205312D01*
X142961148Y-134271447D01*
X142916096Y-134310484D01*
X142907332Y-134314949D01*
X142735363Y-134439890D01*
X142585042Y-134590211D01*
X142544114Y-134646546D01*
X142491920Y-134718385D01*
X142436592Y-134761051D01*
X142391603Y-134769500D01*
X130100316Y-134769500D01*
X130052864Y-134760061D01*
X129908501Y-134700264D01*
X129908489Y-134700261D01*
X129753845Y-134669500D01*
X129753842Y-134669500D01*
X129596158Y-134669500D01*
X129596155Y-134669500D01*
X129441510Y-134700261D01*
X129441498Y-134700264D01*
X129295827Y-134760602D01*
X129295814Y-134760609D01*
X129164711Y-134848210D01*
X129164707Y-134848213D01*
X129053213Y-134959707D01*
X129053210Y-134959711D01*
X128965609Y-135090814D01*
X128965602Y-135090827D01*
X128905264Y-135236498D01*
X128905261Y-135236510D01*
X128874500Y-135391153D01*
X128874500Y-135548846D01*
X128905261Y-135703489D01*
X128905264Y-135703501D01*
X128965602Y-135849172D01*
X128965609Y-135849185D01*
X129053210Y-135980288D01*
X129053213Y-135980292D01*
X129164707Y-136091786D01*
X129164711Y-136091789D01*
X129295814Y-136179390D01*
X129295827Y-136179397D01*
X129441498Y-136239735D01*
X129441503Y-136239737D01*
X129596153Y-136270499D01*
X129596156Y-136270500D01*
X129596158Y-136270500D01*
X129753844Y-136270500D01*
X129753845Y-136270499D01*
X129908497Y-136239737D01*
X129983963Y-136208478D01*
X130052864Y-136179939D01*
X130100316Y-136170500D01*
X142391603Y-136170500D01*
X142458642Y-136190185D01*
X142491919Y-136221614D01*
X142505087Y-136239737D01*
X142585042Y-136349788D01*
X142735363Y-136500109D01*
X142907332Y-136625050D01*
X142916096Y-136629516D01*
X142966892Y-136677491D01*
X142983686Y-136745312D01*
X142961148Y-136811447D01*
X142916096Y-136850484D01*
X142907332Y-136854949D01*
X142735363Y-136979890D01*
X142585042Y-137130211D01*
X142516723Y-137224247D01*
X142491920Y-137258385D01*
X142436592Y-137301051D01*
X142391603Y-137309500D01*
X141571004Y-137309500D01*
X141435677Y-137336418D01*
X141435667Y-137336421D01*
X141308192Y-137389222D01*
X141193454Y-137465887D01*
X141193453Y-137465888D01*
X135446162Y-143213181D01*
X135384839Y-143246666D01*
X135358481Y-143249500D01*
X116722902Y-143249500D01*
X116655863Y-143229815D01*
X116610108Y-143177011D01*
X116600164Y-143107853D01*
X116629189Y-143044297D01*
X116675451Y-143010938D01*
X116679179Y-143009394D01*
X116810289Y-142921789D01*
X116921789Y-142810289D01*
X117009394Y-142679179D01*
X117009496Y-142678934D01*
X117033585Y-142620776D01*
X117069737Y-142533497D01*
X117100500Y-142378842D01*
X117100500Y-142221158D01*
X117100500Y-142221155D01*
X117100499Y-142221153D01*
X117069738Y-142066510D01*
X117069737Y-142066503D01*
X117042191Y-142000000D01*
X117009939Y-141922136D01*
X117000500Y-141874684D01*
X117000500Y-122106004D01*
X116973581Y-121970677D01*
X116973580Y-121970676D01*
X116973580Y-121970672D01*
X116944218Y-121899786D01*
X116920778Y-121843195D01*
X116920771Y-121843182D01*
X116844115Y-121728459D01*
X116844114Y-121728458D01*
X116746542Y-121630886D01*
X116420285Y-121304629D01*
X115391546Y-120275888D01*
X115391545Y-120275887D01*
X115276807Y-120199222D01*
X115149332Y-120146421D01*
X115149322Y-120146418D01*
X115013996Y-120119500D01*
X115013994Y-120119500D01*
X115013993Y-120119500D01*
X107125316Y-120119500D01*
X107077864Y-120110061D01*
X106933501Y-120050264D01*
X106933489Y-120050261D01*
X106778845Y-120019500D01*
X106778842Y-120019500D01*
X106621158Y-120019500D01*
X106621155Y-120019500D01*
X106466510Y-120050261D01*
X106466498Y-120050264D01*
X106320827Y-120110602D01*
X106320814Y-120110609D01*
X106189711Y-120198210D01*
X106189707Y-120198213D01*
X106078213Y-120309707D01*
X106078210Y-120309711D01*
X105990609Y-120440814D01*
X105990602Y-120440827D01*
X105930264Y-120586498D01*
X105930261Y-120586510D01*
X105899500Y-120741153D01*
X105899500Y-120898846D01*
X105930261Y-121053489D01*
X105930264Y-121053501D01*
X105990602Y-121199172D01*
X105990609Y-121199185D01*
X106078210Y-121330288D01*
X106078213Y-121330292D01*
X106189707Y-121441786D01*
X106189711Y-121441789D01*
X106320814Y-121529390D01*
X106320827Y-121529397D01*
X106445878Y-121581194D01*
X106466503Y-121589737D01*
X106621153Y-121620499D01*
X106621156Y-121620500D01*
X106621158Y-121620500D01*
X106778844Y-121620500D01*
X106778845Y-121620499D01*
X106933497Y-121589737D01*
X107012969Y-121556819D01*
X107077864Y-121529939D01*
X107125316Y-121520500D01*
X114603481Y-121520500D01*
X114670520Y-121540185D01*
X114691162Y-121556819D01*
X115563181Y-122428837D01*
X115596666Y-122490160D01*
X115599500Y-122516518D01*
X115599500Y-141874684D01*
X115590061Y-141922136D01*
X115530264Y-142066498D01*
X115530261Y-142066510D01*
X115499500Y-142221153D01*
X115499500Y-142378846D01*
X115530261Y-142533489D01*
X115530264Y-142533501D01*
X115590602Y-142679172D01*
X115590609Y-142679185D01*
X115678210Y-142810288D01*
X115678213Y-142810292D01*
X115789707Y-142921786D01*
X115789711Y-142921789D01*
X115920814Y-143009390D01*
X115920821Y-143009394D01*
X115924549Y-143010938D01*
X115978953Y-143054778D01*
X116001019Y-143121072D01*
X115983741Y-143188771D01*
X115932605Y-143236383D01*
X115877098Y-143249500D01*
X113048493Y-143249500D01*
X112981454Y-143229815D01*
X112935699Y-143177011D01*
X112925755Y-143107853D01*
X112954780Y-143044297D01*
X112992198Y-143015015D01*
X113003237Y-143009390D01*
X113095040Y-142962614D01*
X113238364Y-142858483D01*
X113363633Y-142733214D01*
X113467764Y-142589890D01*
X113548192Y-142432042D01*
X113602936Y-142263555D01*
X113630650Y-142088579D01*
X113630650Y-141911421D01*
X113602936Y-141736445D01*
X113571570Y-141639910D01*
X113548193Y-141567960D01*
X113548192Y-141567957D01*
X113507211Y-141487529D01*
X113467764Y-141410110D01*
X113363633Y-141266786D01*
X113241968Y-141145121D01*
X113208484Y-141083798D01*
X113205650Y-141057440D01*
X113205650Y-140011154D01*
X113205649Y-140011152D01*
X113178732Y-139875830D01*
X113178729Y-139875819D01*
X113175954Y-139869122D01*
X113175951Y-139869114D01*
X113130067Y-139758339D01*
X113130066Y-139758337D01*
X113130066Y-139758335D01*
X113125929Y-139748348D01*
X113125927Y-139748345D01*
X113125925Y-139748339D01*
X113073723Y-139670213D01*
X113049265Y-139633609D01*
X113049264Y-139633608D01*
X112951692Y-139536036D01*
X112399137Y-138983481D01*
X110496546Y-137080888D01*
X110496545Y-137080887D01*
X110381807Y-137004222D01*
X110254332Y-136951421D01*
X110254322Y-136951418D01*
X110118996Y-136924500D01*
X110118994Y-136924500D01*
X110118993Y-136924500D01*
X97591519Y-136924500D01*
X97524480Y-136904815D01*
X97503838Y-136888181D01*
X95461969Y-134846312D01*
X95428484Y-134784989D01*
X95425650Y-134758631D01*
X95425650Y-134142559D01*
X95445335Y-134075520D01*
X95461969Y-134054878D01*
X95497600Y-134019247D01*
X95583633Y-133933214D01*
X95687764Y-133789890D01*
X95768192Y-133632042D01*
X95822936Y-133463555D01*
X95850650Y-133288579D01*
X95850650Y-133111421D01*
X96139650Y-133111421D01*
X96139650Y-133288578D01*
X96167364Y-133463556D01*
X96222106Y-133632039D01*
X96222107Y-133632042D01*
X96247367Y-133681616D01*
X96302536Y-133789890D01*
X96406667Y-133933214D01*
X96531936Y-134058483D01*
X96675260Y-134162614D01*
X96712438Y-134181557D01*
X96833107Y-134243042D01*
X96833110Y-134243043D01*
X96912372Y-134268796D01*
X97001595Y-134297786D01*
X97176571Y-134325500D01*
X97176572Y-134325500D01*
X97353728Y-134325500D01*
X97353729Y-134325500D01*
X97528705Y-134297786D01*
X97697192Y-134243042D01*
X97855040Y-134162614D01*
X97998364Y-134058483D01*
X98123633Y-133933214D01*
X98227764Y-133789890D01*
X98308192Y-133632042D01*
X98362936Y-133463555D01*
X98390650Y-133288579D01*
X98390650Y-133111421D01*
X98679650Y-133111421D01*
X98679650Y-133288578D01*
X98707364Y-133463556D01*
X98762106Y-133632039D01*
X98762107Y-133632042D01*
X98787367Y-133681616D01*
X98842536Y-133789890D01*
X98946667Y-133933214D01*
X99071936Y-134058483D01*
X99215260Y-134162614D01*
X99252438Y-134181557D01*
X99373107Y-134243042D01*
X99373110Y-134243043D01*
X99452372Y-134268796D01*
X99541595Y-134297786D01*
X99716571Y-134325500D01*
X99716572Y-134325500D01*
X99893728Y-134325500D01*
X99893729Y-134325500D01*
X100068705Y-134297786D01*
X100237192Y-134243042D01*
X100395040Y-134162614D01*
X100538364Y-134058483D01*
X100663633Y-133933214D01*
X100767764Y-133789890D01*
X100848192Y-133632042D01*
X100902936Y-133463555D01*
X100930650Y-133288579D01*
X100930650Y-133111455D01*
X101220150Y-133111455D01*
X101220150Y-133288544D01*
X101247851Y-133463439D01*
X101302569Y-133631847D01*
X101302573Y-133631855D01*
X101382958Y-133789621D01*
X101382966Y-133789635D01*
X101390959Y-133800634D01*
X101390961Y-133800635D01*
X101903011Y-133288584D01*
X101925817Y-133373694D01*
X101985060Y-133476306D01*
X102068844Y-133560090D01*
X102171456Y-133619333D01*
X102256565Y-133642138D01*
X101744514Y-134154189D01*
X101755518Y-134162185D01*
X101913299Y-134242579D01*
X101913302Y-134242580D01*
X102081710Y-134297298D01*
X102256606Y-134325000D01*
X102433694Y-134325000D01*
X102608589Y-134297298D01*
X102776997Y-134242580D01*
X102777000Y-134242578D01*
X102934783Y-134162184D01*
X102945784Y-134154189D01*
X102945785Y-134154188D01*
X102433735Y-133642138D01*
X102518844Y-133619333D01*
X102621456Y-133560090D01*
X102705240Y-133476306D01*
X102764483Y-133373694D01*
X102787288Y-133288584D01*
X103299338Y-133800635D01*
X103299339Y-133800634D01*
X103307334Y-133789633D01*
X103387728Y-133631850D01*
X103387730Y-133631847D01*
X103442448Y-133463439D01*
X103470150Y-133288544D01*
X103470150Y-133111455D01*
X103760150Y-133111455D01*
X103760150Y-133288544D01*
X103787851Y-133463439D01*
X103842569Y-133631847D01*
X103842573Y-133631855D01*
X103922958Y-133789621D01*
X103922966Y-133789635D01*
X103930959Y-133800634D01*
X103930961Y-133800635D01*
X104443011Y-133288584D01*
X104465817Y-133373694D01*
X104525060Y-133476306D01*
X104608844Y-133560090D01*
X104711456Y-133619333D01*
X104796565Y-133642138D01*
X104284514Y-134154189D01*
X104295518Y-134162185D01*
X104453299Y-134242579D01*
X104453302Y-134242580D01*
X104621710Y-134297298D01*
X104796606Y-134325000D01*
X104973694Y-134325000D01*
X105148589Y-134297298D01*
X105316997Y-134242580D01*
X105317000Y-134242578D01*
X105474783Y-134162184D01*
X105485784Y-134154189D01*
X105485785Y-134154188D01*
X104973735Y-133642138D01*
X105058844Y-133619333D01*
X105161456Y-133560090D01*
X105245240Y-133476306D01*
X105304483Y-133373694D01*
X105327288Y-133288584D01*
X105839339Y-133800635D01*
X105839339Y-133800634D01*
X105847334Y-133789633D01*
X105927728Y-133631850D01*
X105927730Y-133631847D01*
X105982448Y-133463439D01*
X106010150Y-133288544D01*
X106010150Y-133111455D01*
X106010145Y-133111421D01*
X106299650Y-133111421D01*
X106299650Y-133288578D01*
X106327364Y-133463556D01*
X106382106Y-133632039D01*
X106382107Y-133632042D01*
X106407367Y-133681616D01*
X106462536Y-133789890D01*
X106566667Y-133933214D01*
X106691936Y-134058483D01*
X106835260Y-134162614D01*
X106872438Y-134181557D01*
X106993107Y-134243042D01*
X106993110Y-134243043D01*
X107072372Y-134268796D01*
X107161595Y-134297786D01*
X107336571Y-134325500D01*
X107336572Y-134325500D01*
X107513728Y-134325500D01*
X107513729Y-134325500D01*
X107688705Y-134297786D01*
X107857192Y-134243042D01*
X108015040Y-134162614D01*
X108158364Y-134058483D01*
X108283633Y-133933214D01*
X108387764Y-133789890D01*
X108468192Y-133632042D01*
X108522936Y-133463555D01*
X108550650Y-133288579D01*
X108550650Y-133111421D01*
X108839650Y-133111421D01*
X108839650Y-133288578D01*
X108867364Y-133463556D01*
X108922106Y-133632039D01*
X108922107Y-133632042D01*
X108947367Y-133681616D01*
X109002536Y-133789890D01*
X109106667Y-133933214D01*
X109231936Y-134058483D01*
X109375260Y-134162614D01*
X109412438Y-134181557D01*
X109533107Y-134243042D01*
X109533110Y-134243043D01*
X109612372Y-134268796D01*
X109701595Y-134297786D01*
X109876571Y-134325500D01*
X109876572Y-134325500D01*
X110053728Y-134325500D01*
X110053729Y-134325500D01*
X110228705Y-134297786D01*
X110397192Y-134243042D01*
X110555040Y-134162614D01*
X110698364Y-134058483D01*
X110823633Y-133933214D01*
X110927764Y-133789890D01*
X111008192Y-133632042D01*
X111062936Y-133463555D01*
X111090650Y-133288579D01*
X111090650Y-133111421D01*
X111062936Y-132936445D01*
X111026308Y-132823713D01*
X111008193Y-132767960D01*
X111008192Y-132767957D01*
X110965586Y-132684340D01*
X110927764Y-132610110D01*
X110927762Y-132610107D01*
X110927761Y-132610105D01*
X110918018Y-132596695D01*
X110918015Y-132596692D01*
X110867479Y-132527135D01*
X111379650Y-132527135D01*
X111379650Y-133872870D01*
X111379651Y-133872876D01*
X111386058Y-133932483D01*
X111436352Y-134067328D01*
X111436356Y-134067335D01*
X111522602Y-134182544D01*
X111522605Y-134182547D01*
X111637814Y-134268793D01*
X111637821Y-134268797D01*
X111772667Y-134319091D01*
X111772666Y-134319091D01*
X111779594Y-134319835D01*
X111832277Y-134325500D01*
X113178022Y-134325499D01*
X113237633Y-134319091D01*
X113372481Y-134268796D01*
X113487696Y-134182546D01*
X113573946Y-134067331D01*
X113624241Y-133932483D01*
X113630650Y-133872873D01*
X113630649Y-132527128D01*
X113624241Y-132467517D01*
X113623968Y-132466786D01*
X113573947Y-132332671D01*
X113573943Y-132332664D01*
X113487697Y-132217455D01*
X113487694Y-132217452D01*
X113372485Y-132131206D01*
X113372478Y-132131202D01*
X113237632Y-132080908D01*
X113237633Y-132080908D01*
X113178033Y-132074501D01*
X113178031Y-132074500D01*
X113178023Y-132074500D01*
X113178014Y-132074500D01*
X111832279Y-132074500D01*
X111832273Y-132074501D01*
X111772666Y-132080908D01*
X111637821Y-132131202D01*
X111637814Y-132131206D01*
X111522605Y-132217452D01*
X111522602Y-132217455D01*
X111436356Y-132332664D01*
X111436352Y-132332671D01*
X111386058Y-132467517D01*
X111382620Y-132499500D01*
X111379651Y-132527123D01*
X111379650Y-132527135D01*
X110867479Y-132527135D01*
X110823633Y-132466786D01*
X110698364Y-132341517D01*
X110555040Y-132237386D01*
X110522981Y-132221051D01*
X110397192Y-132156957D01*
X110397189Y-132156956D01*
X110228706Y-132102214D01*
X110094193Y-132080909D01*
X110053729Y-132074500D01*
X109876571Y-132074500D01*
X109836107Y-132080909D01*
X109701593Y-132102214D01*
X109533110Y-132156956D01*
X109533107Y-132156957D01*
X109375259Y-132237386D01*
X109311379Y-132283798D01*
X109231936Y-132341517D01*
X109231934Y-132341519D01*
X109231933Y-132341519D01*
X109106669Y-132466783D01*
X109106669Y-132466784D01*
X109106667Y-132466786D01*
X109106137Y-132467516D01*
X109002536Y-132610109D01*
X108922107Y-132767957D01*
X108922106Y-132767960D01*
X108867364Y-132936443D01*
X108839650Y-133111421D01*
X108550650Y-133111421D01*
X108522936Y-132936445D01*
X108486308Y-132823713D01*
X108468193Y-132767960D01*
X108468192Y-132767957D01*
X108427211Y-132687529D01*
X108387764Y-132610110D01*
X108283633Y-132466786D01*
X108158364Y-132341517D01*
X108015040Y-132237386D01*
X107982981Y-132221051D01*
X107857192Y-132156957D01*
X107857189Y-132156956D01*
X107688706Y-132102214D01*
X107554193Y-132080909D01*
X107513729Y-132074500D01*
X107336571Y-132074500D01*
X107296107Y-132080909D01*
X107161593Y-132102214D01*
X106993110Y-132156956D01*
X106993107Y-132156957D01*
X106835259Y-132237386D01*
X106771379Y-132283798D01*
X106691936Y-132341517D01*
X106691934Y-132341519D01*
X106691933Y-132341519D01*
X106566669Y-132466783D01*
X106566669Y-132466784D01*
X106566667Y-132466786D01*
X106566137Y-132467516D01*
X106462536Y-132610109D01*
X106382107Y-132767957D01*
X106382106Y-132767960D01*
X106327364Y-132936443D01*
X106299650Y-133111421D01*
X106010145Y-133111421D01*
X105982448Y-132936560D01*
X105927730Y-132768152D01*
X105927729Y-132768149D01*
X105847335Y-132610368D01*
X105839339Y-132599364D01*
X105327288Y-133111414D01*
X105304483Y-133026306D01*
X105245240Y-132923694D01*
X105161456Y-132839910D01*
X105058844Y-132780667D01*
X104973734Y-132757861D01*
X105485785Y-132245811D01*
X105485784Y-132245809D01*
X105474785Y-132237816D01*
X105474771Y-132237808D01*
X105317005Y-132157423D01*
X105316997Y-132157419D01*
X105148589Y-132102701D01*
X104973694Y-132075000D01*
X104796606Y-132075000D01*
X104621710Y-132102701D01*
X104453302Y-132157419D01*
X104453299Y-132157421D01*
X104295516Y-132237815D01*
X104284514Y-132245809D01*
X104284513Y-132245810D01*
X104796565Y-132757861D01*
X104711456Y-132780667D01*
X104608844Y-132839910D01*
X104525060Y-132923694D01*
X104465817Y-133026306D01*
X104443011Y-133111414D01*
X103930960Y-132599363D01*
X103930959Y-132599364D01*
X103922965Y-132610366D01*
X103842571Y-132768149D01*
X103842569Y-132768152D01*
X103787851Y-132936560D01*
X103760150Y-133111455D01*
X103470150Y-133111455D01*
X103442448Y-132936560D01*
X103387730Y-132768152D01*
X103387729Y-132768149D01*
X103307335Y-132610368D01*
X103299339Y-132599364D01*
X102787288Y-133111414D01*
X102764483Y-133026306D01*
X102705240Y-132923694D01*
X102621456Y-132839910D01*
X102518844Y-132780667D01*
X102433734Y-132757861D01*
X102945785Y-132245810D01*
X102945784Y-132245809D01*
X102934785Y-132237816D01*
X102934771Y-132237808D01*
X102777005Y-132157423D01*
X102776997Y-132157419D01*
X102608589Y-132102701D01*
X102433694Y-132075000D01*
X102256606Y-132075000D01*
X102081710Y-132102701D01*
X101913302Y-132157419D01*
X101913299Y-132157421D01*
X101755516Y-132237815D01*
X101744514Y-132245809D01*
X101744513Y-132245810D01*
X102256565Y-132757861D01*
X102171456Y-132780667D01*
X102068844Y-132839910D01*
X101985060Y-132923694D01*
X101925817Y-133026306D01*
X101903011Y-133111414D01*
X101390960Y-132599363D01*
X101390959Y-132599364D01*
X101382965Y-132610366D01*
X101302571Y-132768149D01*
X101302569Y-132768152D01*
X101247851Y-132936560D01*
X101220150Y-133111455D01*
X100930650Y-133111455D01*
X100930650Y-133111421D01*
X100902936Y-132936445D01*
X100866308Y-132823713D01*
X100848193Y-132767960D01*
X100848192Y-132767957D01*
X100807211Y-132687529D01*
X100767764Y-132610110D01*
X100663633Y-132466786D01*
X100538364Y-132341517D01*
X100395040Y-132237386D01*
X100362981Y-132221051D01*
X100237192Y-132156957D01*
X100237189Y-132156956D01*
X100068706Y-132102214D01*
X99934193Y-132080909D01*
X99893729Y-132074500D01*
X99716571Y-132074500D01*
X99676107Y-132080909D01*
X99541593Y-132102214D01*
X99373110Y-132156956D01*
X99373107Y-132156957D01*
X99215259Y-132237386D01*
X99151379Y-132283798D01*
X99071936Y-132341517D01*
X99071934Y-132341519D01*
X99071933Y-132341519D01*
X98946669Y-132466783D01*
X98946669Y-132466784D01*
X98946667Y-132466786D01*
X98946137Y-132467516D01*
X98842536Y-132610109D01*
X98762107Y-132767957D01*
X98762106Y-132767960D01*
X98707364Y-132936443D01*
X98679650Y-133111421D01*
X98390650Y-133111421D01*
X98362936Y-132936445D01*
X98326308Y-132823713D01*
X98308193Y-132767960D01*
X98308192Y-132767957D01*
X98267211Y-132687529D01*
X98227764Y-132610110D01*
X98123633Y-132466786D01*
X98001968Y-132345121D01*
X97968484Y-132283798D01*
X97965650Y-132257440D01*
X97965650Y-129071153D01*
X104024500Y-129071153D01*
X104024500Y-129228846D01*
X104055261Y-129383489D01*
X104055264Y-129383501D01*
X104115602Y-129529172D01*
X104115609Y-129529185D01*
X104203210Y-129660288D01*
X104203213Y-129660292D01*
X104314707Y-129771786D01*
X104314711Y-129771789D01*
X104445814Y-129859390D01*
X104445827Y-129859397D01*
X104591498Y-129919735D01*
X104591503Y-129919737D01*
X104746153Y-129950499D01*
X104746156Y-129950500D01*
X104746158Y-129950500D01*
X104903844Y-129950500D01*
X104903845Y-129950499D01*
X105058497Y-129919737D01*
X105171166Y-129873067D01*
X105204172Y-129859397D01*
X105204172Y-129859396D01*
X105204179Y-129859394D01*
X105335289Y-129771789D01*
X105446789Y-129660289D01*
X105534394Y-129529179D01*
X105594737Y-129383497D01*
X105625500Y-129228842D01*
X105625500Y-129071158D01*
X105625500Y-129071155D01*
X105625499Y-129071153D01*
X105599875Y-128942335D01*
X105594737Y-128916503D01*
X105571266Y-128859839D01*
X105534939Y-128772136D01*
X105525500Y-128724684D01*
X105525500Y-125778711D01*
X110909500Y-125778711D01*
X110909500Y-126021288D01*
X110941161Y-126261785D01*
X111003947Y-126496104D01*
X111064568Y-126642455D01*
X111096776Y-126720212D01*
X111218064Y-126930289D01*
X111218066Y-126930292D01*
X111218067Y-126930293D01*
X111365733Y-127122736D01*
X111365739Y-127122743D01*
X111537256Y-127294260D01*
X111537262Y-127294265D01*
X111729711Y-127441936D01*
X111939788Y-127563224D01*
X112163900Y-127656054D01*
X112398211Y-127718838D01*
X112578586Y-127742584D01*
X112638711Y-127750500D01*
X112638712Y-127750500D01*
X112881289Y-127750500D01*
X112929388Y-127744167D01*
X113121789Y-127718838D01*
X113356100Y-127656054D01*
X113580212Y-127563224D01*
X113790289Y-127441936D01*
X113982738Y-127294265D01*
X114154265Y-127122738D01*
X114301936Y-126930289D01*
X114423224Y-126720212D01*
X114516054Y-126496100D01*
X114578838Y-126261789D01*
X114610500Y-126021288D01*
X114610500Y-125778712D01*
X114578838Y-125538211D01*
X114516054Y-125303900D01*
X114423224Y-125079788D01*
X114301936Y-124869711D01*
X114209695Y-124749500D01*
X114154266Y-124677263D01*
X114154260Y-124677256D01*
X113982743Y-124505739D01*
X113982736Y-124505733D01*
X113790293Y-124358067D01*
X113790292Y-124358066D01*
X113790289Y-124358064D01*
X113580212Y-124236776D01*
X113580205Y-124236773D01*
X113356104Y-124143947D01*
X113121785Y-124081161D01*
X112881289Y-124049500D01*
X112881288Y-124049500D01*
X112638712Y-124049500D01*
X112638711Y-124049500D01*
X112398214Y-124081161D01*
X112163895Y-124143947D01*
X111939794Y-124236773D01*
X111939785Y-124236777D01*
X111729706Y-124358067D01*
X111537263Y-124505733D01*
X111537256Y-124505739D01*
X111365739Y-124677256D01*
X111365733Y-124677263D01*
X111218067Y-124869706D01*
X111096777Y-125079785D01*
X111096773Y-125079794D01*
X111003947Y-125303895D01*
X110941161Y-125538214D01*
X110909500Y-125778711D01*
X105525500Y-125778711D01*
X105525500Y-109116518D01*
X105545185Y-109049479D01*
X105561819Y-109028837D01*
X108273837Y-106316819D01*
X108335160Y-106283334D01*
X108361518Y-106280500D01*
X123249684Y-106280500D01*
X123297136Y-106289939D01*
X123435286Y-106347162D01*
X123441503Y-106349737D01*
X123571841Y-106375663D01*
X123596153Y-106380499D01*
X123596156Y-106380500D01*
X123596158Y-106380500D01*
X123753844Y-106380500D01*
X123753845Y-106380499D01*
X123908497Y-106349737D01*
X124028127Y-106300185D01*
X124054172Y-106289397D01*
X124054172Y-106289396D01*
X124054179Y-106289394D01*
X124185289Y-106201789D01*
X124296789Y-106090289D01*
X124384394Y-105959179D01*
X124444737Y-105813497D01*
X124475500Y-105658842D01*
X124475500Y-105501158D01*
X124475500Y-105501155D01*
X124475499Y-105501153D01*
X124444738Y-105346510D01*
X124444737Y-105346503D01*
X124444735Y-105346498D01*
X124384397Y-105200827D01*
X124384390Y-105200814D01*
X124296789Y-105069711D01*
X124296786Y-105069707D01*
X124185292Y-104958213D01*
X124185288Y-104958210D01*
X124054185Y-104870609D01*
X124054172Y-104870602D01*
X123908501Y-104810264D01*
X123908489Y-104810261D01*
X123753845Y-104779500D01*
X123753842Y-104779500D01*
X123596158Y-104779500D01*
X123596155Y-104779500D01*
X123441510Y-104810261D01*
X123441498Y-104810264D01*
X123297136Y-104870061D01*
X123249684Y-104879500D01*
X107951003Y-104879500D01*
X107853760Y-104898843D01*
X107853758Y-104898843D01*
X107842591Y-104901065D01*
X107815671Y-104906420D01*
X107762866Y-104928292D01*
X107688189Y-104959225D01*
X107688188Y-104959226D01*
X107667199Y-104973249D01*
X107667192Y-104973253D01*
X107573457Y-105035886D01*
X107573453Y-105035889D01*
X104280888Y-108328453D01*
X104280885Y-108328456D01*
X104222634Y-108415637D01*
X104204230Y-108443180D01*
X104204223Y-108443192D01*
X104151420Y-108570671D01*
X104151418Y-108570677D01*
X104124500Y-108706004D01*
X104124500Y-128724684D01*
X104115061Y-128772136D01*
X104055264Y-128916498D01*
X104055261Y-128916510D01*
X104024500Y-129071153D01*
X97965650Y-129071153D01*
X97965650Y-127050316D01*
X97975089Y-127002864D01*
X98005150Y-126930289D01*
X98034887Y-126858497D01*
X98065650Y-126703842D01*
X98065650Y-126546158D01*
X98065650Y-126546155D01*
X98065649Y-126546153D01*
X98056369Y-126499500D01*
X98034887Y-126391503D01*
X98034885Y-126391498D01*
X97974547Y-126245827D01*
X97974540Y-126245814D01*
X97886939Y-126114711D01*
X97886936Y-126114707D01*
X97775442Y-126003213D01*
X97775438Y-126003210D01*
X97644335Y-125915609D01*
X97644322Y-125915602D01*
X97498651Y-125855264D01*
X97498639Y-125855261D01*
X97343995Y-125824500D01*
X97343992Y-125824500D01*
X97186308Y-125824500D01*
X97186305Y-125824500D01*
X97031660Y-125855261D01*
X97031648Y-125855264D01*
X96885977Y-125915602D01*
X96885964Y-125915609D01*
X96754861Y-126003210D01*
X96754857Y-126003213D01*
X96643363Y-126114707D01*
X96643360Y-126114711D01*
X96555759Y-126245814D01*
X96555752Y-126245827D01*
X96495414Y-126391498D01*
X96495411Y-126391510D01*
X96464650Y-126546153D01*
X96464650Y-126703846D01*
X96495411Y-126858489D01*
X96495414Y-126858501D01*
X96555211Y-127002864D01*
X96564650Y-127050316D01*
X96564650Y-132257440D01*
X96544965Y-132324479D01*
X96528332Y-132345121D01*
X96406666Y-132466787D01*
X96302536Y-132610109D01*
X96222107Y-132767957D01*
X96222106Y-132767960D01*
X96167364Y-132936443D01*
X96139650Y-133111421D01*
X95850650Y-133111421D01*
X95822936Y-132936445D01*
X95786308Y-132823713D01*
X95768193Y-132767960D01*
X95768192Y-132767957D01*
X95727211Y-132687529D01*
X95687764Y-132610110D01*
X95583633Y-132466786D01*
X95458364Y-132341517D01*
X95315040Y-132237386D01*
X95282981Y-132221051D01*
X95157192Y-132156957D01*
X95157189Y-132156956D01*
X94988706Y-132102214D01*
X94854193Y-132080909D01*
X94813729Y-132074500D01*
X94636571Y-132074500D01*
X94596107Y-132080909D01*
X94461593Y-132102214D01*
X94293110Y-132156956D01*
X94293107Y-132156957D01*
X94135259Y-132237386D01*
X94071379Y-132283798D01*
X93991936Y-132341517D01*
X93991934Y-132341519D01*
X93991933Y-132341519D01*
X93870272Y-132463181D01*
X93808949Y-132496666D01*
X93782591Y-132499500D01*
X91799424Y-132499500D01*
X91732385Y-132479815D01*
X91686630Y-132427011D01*
X91676686Y-132357853D01*
X91684863Y-132328048D01*
X91721151Y-132240437D01*
X91744737Y-132183497D01*
X91775500Y-132028842D01*
X91775500Y-131871158D01*
X91775500Y-131871155D01*
X91775499Y-131871153D01*
X91762207Y-131804332D01*
X91744737Y-131716503D01*
X91695324Y-131597208D01*
X91684939Y-131572136D01*
X91675500Y-131524684D01*
X91675500Y-106491519D01*
X91695185Y-106424480D01*
X91711819Y-106403838D01*
X94338838Y-103776819D01*
X94400161Y-103743334D01*
X94426519Y-103740500D01*
X123349684Y-103740500D01*
X123397136Y-103749939D01*
X123462031Y-103776819D01*
X123541503Y-103809737D01*
X123696153Y-103840499D01*
X123696156Y-103840500D01*
X123696158Y-103840500D01*
X123853844Y-103840500D01*
X123853845Y-103840499D01*
X124008497Y-103809737D01*
X124154179Y-103749394D01*
X124285289Y-103661789D01*
X124396789Y-103550289D01*
X124484394Y-103419179D01*
X124544737Y-103273497D01*
X124575500Y-103118842D01*
X124575500Y-102961158D01*
X124575500Y-102961155D01*
X124575499Y-102961153D01*
X124571418Y-102940639D01*
X124544737Y-102806503D01*
X124519045Y-102744476D01*
X124484397Y-102660827D01*
X124484390Y-102660814D01*
X124396789Y-102529711D01*
X124396786Y-102529707D01*
X124285292Y-102418213D01*
X124285288Y-102418210D01*
X124154185Y-102330609D01*
X124154172Y-102330602D01*
X124008501Y-102270264D01*
X124008489Y-102270261D01*
X123853845Y-102239500D01*
X123853842Y-102239500D01*
X123696158Y-102239500D01*
X123696155Y-102239500D01*
X123541510Y-102270261D01*
X123541498Y-102270264D01*
X123397136Y-102330061D01*
X123349684Y-102339500D01*
X94016003Y-102339500D01*
X93907590Y-102361065D01*
X93907589Y-102361065D01*
X93880671Y-102366420D01*
X93753190Y-102419224D01*
X93638454Y-102495887D01*
X90430887Y-105703454D01*
X90364070Y-105803455D01*
X90364069Y-105803456D01*
X90354227Y-105818184D01*
X90354222Y-105818193D01*
X90301421Y-105945667D01*
X90301418Y-105945677D01*
X90274500Y-106081004D01*
X90274500Y-131524684D01*
X90265061Y-131572136D01*
X90205264Y-131716498D01*
X90205261Y-131716510D01*
X90174500Y-131871153D01*
X90174500Y-132028846D01*
X90205261Y-132183489D01*
X90205264Y-132183501D01*
X90265137Y-132328048D01*
X90272606Y-132397517D01*
X90241331Y-132459996D01*
X90181241Y-132495648D01*
X90150576Y-132499500D01*
X89566519Y-132499500D01*
X89499480Y-132479815D01*
X89478838Y-132463181D01*
X88361819Y-131346162D01*
X88328334Y-131284839D01*
X88325500Y-131258481D01*
X88325500Y-94475316D01*
X88334939Y-94427864D01*
X88394735Y-94283501D01*
X88394737Y-94283497D01*
X88425500Y-94128842D01*
X88425500Y-93971158D01*
X88425500Y-93971155D01*
X88425499Y-93971153D01*
X88394738Y-93816510D01*
X88394737Y-93816503D01*
X88347501Y-93702464D01*
X88334397Y-93670827D01*
X88334390Y-93670814D01*
X88246789Y-93539711D01*
X88246786Y-93539707D01*
X88135292Y-93428213D01*
X88135288Y-93428210D01*
X88004185Y-93340609D01*
X88004172Y-93340602D01*
X87858501Y-93280264D01*
X87858489Y-93280261D01*
X87703845Y-93249500D01*
X87703842Y-93249500D01*
X87546158Y-93249500D01*
X87546155Y-93249500D01*
X87391510Y-93280261D01*
X87391498Y-93280264D01*
X87245827Y-93340602D01*
X87245814Y-93340609D01*
X87114711Y-93428210D01*
X87114707Y-93428213D01*
X87003213Y-93539707D01*
X87003210Y-93539711D01*
X86915609Y-93670814D01*
X86915602Y-93670827D01*
X86855264Y-93816498D01*
X86855261Y-93816510D01*
X86824500Y-93971153D01*
X86824500Y-94128846D01*
X86855261Y-94283489D01*
X86855264Y-94283501D01*
X86915061Y-94427864D01*
X86924500Y-94475316D01*
X86924500Y-100283481D01*
X86904815Y-100350520D01*
X86888181Y-100371162D01*
X82416162Y-104843181D01*
X82354839Y-104876666D01*
X82328481Y-104879500D01*
X75774774Y-104879500D01*
X75707735Y-104859815D01*
X75674457Y-104828387D01*
X75622981Y-104757536D01*
X75482464Y-104617019D01*
X75321694Y-104500213D01*
X75164667Y-104420203D01*
X75113872Y-104372229D01*
X75097077Y-104304408D01*
X75119614Y-104238273D01*
X75164669Y-104199234D01*
X75321422Y-104119364D01*
X75358716Y-104092268D01*
X74795942Y-103529494D01*
X74856081Y-103513381D01*
X74971920Y-103446502D01*
X75066502Y-103351920D01*
X75133381Y-103236081D01*
X75149495Y-103175942D01*
X75712268Y-103738715D01*
X75739362Y-103701425D01*
X75829542Y-103524437D01*
X75890924Y-103335523D01*
X75890924Y-103335520D01*
X75922000Y-103139321D01*
X75922000Y-102940678D01*
X75890924Y-102744479D01*
X75890924Y-102744476D01*
X75829542Y-102555562D01*
X75739358Y-102378567D01*
X75712268Y-102341283D01*
X75149494Y-102904057D01*
X75133381Y-102843919D01*
X75066502Y-102728080D01*
X74971920Y-102633498D01*
X74856081Y-102566619D01*
X74795942Y-102550504D01*
X75358716Y-101987731D01*
X75358715Y-101987730D01*
X75321432Y-101960641D01*
X75164117Y-101880485D01*
X75113321Y-101832510D01*
X75096526Y-101764689D01*
X75119063Y-101698554D01*
X75164117Y-101659515D01*
X75321425Y-101579362D01*
X75358716Y-101552268D01*
X74795942Y-100989494D01*
X74856081Y-100973381D01*
X74971920Y-100906502D01*
X75066502Y-100811920D01*
X75133381Y-100696081D01*
X75149495Y-100635942D01*
X75712268Y-101198715D01*
X75739362Y-101161425D01*
X75829542Y-100984437D01*
X75890924Y-100795523D01*
X75890924Y-100795520D01*
X75922000Y-100599321D01*
X75922000Y-100400678D01*
X75890924Y-100204479D01*
X75890924Y-100204476D01*
X75829542Y-100015562D01*
X75739358Y-99838567D01*
X75712268Y-99801283D01*
X75149494Y-100364057D01*
X75133381Y-100303919D01*
X75066502Y-100188080D01*
X74971920Y-100093498D01*
X74856081Y-100026619D01*
X74795942Y-100010504D01*
X75358716Y-99447731D01*
X75358715Y-99447730D01*
X75321432Y-99420641D01*
X75164668Y-99340765D01*
X75113872Y-99292790D01*
X75097077Y-99224969D01*
X75119615Y-99158834D01*
X75164667Y-99119796D01*
X75321694Y-99039787D01*
X75482464Y-98922981D01*
X75622981Y-98782464D01*
X75739787Y-98621694D01*
X75830005Y-98444632D01*
X75891413Y-98255636D01*
X75922500Y-98059361D01*
X75922500Y-97860639D01*
X75891413Y-97664364D01*
X75830005Y-97475368D01*
X75830005Y-97475367D01*
X75739786Y-97298305D01*
X75622981Y-97137536D01*
X75482464Y-96997019D01*
X75321694Y-96880213D01*
X75165218Y-96800484D01*
X75114423Y-96752510D01*
X75097628Y-96684689D01*
X75120165Y-96618554D01*
X75165218Y-96579515D01*
X75321694Y-96499787D01*
X75482464Y-96382981D01*
X75622981Y-96242464D01*
X75739787Y-96081694D01*
X75830005Y-95904632D01*
X75891413Y-95715636D01*
X75922500Y-95519361D01*
X75922500Y-95320639D01*
X75891413Y-95124364D01*
X75830005Y-94935368D01*
X75830005Y-94935367D01*
X75784035Y-94845149D01*
X75739787Y-94758306D01*
X75622981Y-94597536D01*
X75482464Y-94457019D01*
X75321694Y-94340213D01*
X75165218Y-94260484D01*
X75114423Y-94212510D01*
X75097628Y-94144689D01*
X75120165Y-94078554D01*
X75165218Y-94039515D01*
X75321694Y-93959787D01*
X75482464Y-93842981D01*
X75622981Y-93702464D01*
X75739787Y-93541694D01*
X75830005Y-93364632D01*
X75891413Y-93175636D01*
X75922500Y-92979361D01*
X75922500Y-92780639D01*
X75891413Y-92584364D01*
X75830005Y-92395368D01*
X75830005Y-92395367D01*
X75739786Y-92218305D01*
X75731150Y-92206418D01*
X75622981Y-92057536D01*
X75482464Y-91917019D01*
X75321694Y-91800213D01*
X75165218Y-91720484D01*
X75114423Y-91672510D01*
X75097628Y-91604689D01*
X75120165Y-91538554D01*
X75165218Y-91499515D01*
X75321694Y-91419787D01*
X75482464Y-91302981D01*
X75622981Y-91162464D01*
X75739787Y-91001694D01*
X75830005Y-90824632D01*
X75891413Y-90635636D01*
X75922500Y-90439361D01*
X75922500Y-90240639D01*
X75891413Y-90044364D01*
X75830005Y-89855368D01*
X75830005Y-89855367D01*
X75739786Y-89678305D01*
X75622981Y-89517536D01*
X75482464Y-89377019D01*
X75321694Y-89260213D01*
X75165218Y-89180484D01*
X75114423Y-89132510D01*
X75097628Y-89064689D01*
X75120165Y-88998554D01*
X75165218Y-88959515D01*
X75321694Y-88879787D01*
X75482464Y-88762981D01*
X75622981Y-88622464D01*
X75739787Y-88461694D01*
X75830005Y-88284632D01*
X75891413Y-88095636D01*
X75922500Y-87899361D01*
X75922500Y-87700639D01*
X75891413Y-87504364D01*
X75830005Y-87315368D01*
X75830005Y-87315367D01*
X75784035Y-87225149D01*
X75739787Y-87138306D01*
X75622981Y-86977536D01*
X75482464Y-86837019D01*
X75321694Y-86720213D01*
X75164667Y-86640203D01*
X75113872Y-86592229D01*
X75097077Y-86524408D01*
X75119614Y-86458273D01*
X75164669Y-86419234D01*
X75321422Y-86339364D01*
X75358716Y-86312268D01*
X74795942Y-85749494D01*
X74856081Y-85733381D01*
X74971920Y-85666502D01*
X75066502Y-85571920D01*
X75133381Y-85456081D01*
X75149495Y-85395942D01*
X75712268Y-85958715D01*
X75739362Y-85921425D01*
X75829542Y-85744437D01*
X75890924Y-85555523D01*
X75890924Y-85555520D01*
X75922000Y-85359321D01*
X75922000Y-85160678D01*
X75890924Y-84964479D01*
X75890924Y-84964476D01*
X75829542Y-84775562D01*
X75739358Y-84598567D01*
X75712268Y-84561283D01*
X75149494Y-85124057D01*
X75133381Y-85063919D01*
X75066502Y-84948080D01*
X74971920Y-84853498D01*
X74856081Y-84786619D01*
X74795942Y-84770504D01*
X75358716Y-84207731D01*
X75358715Y-84207730D01*
X75321432Y-84180641D01*
X75164668Y-84100765D01*
X75113872Y-84052790D01*
X75097077Y-83984969D01*
X75119615Y-83918834D01*
X75164667Y-83879796D01*
X75321694Y-83799787D01*
X75482464Y-83682981D01*
X75622981Y-83542464D01*
X75739787Y-83381694D01*
X75830005Y-83204632D01*
X75891413Y-83015636D01*
X75922500Y-82819361D01*
X75922500Y-82620639D01*
X75891413Y-82424364D01*
X75830005Y-82235368D01*
X75830005Y-82235367D01*
X75739786Y-82058305D01*
X75622981Y-81897536D01*
X75482464Y-81757019D01*
X75321694Y-81640213D01*
X75165218Y-81560484D01*
X75114423Y-81512510D01*
X75097628Y-81444689D01*
X75120165Y-81378554D01*
X75165218Y-81339515D01*
X75321694Y-81259787D01*
X75482464Y-81142981D01*
X75622981Y-81002464D01*
X75739787Y-80841694D01*
X75830005Y-80664632D01*
X75891413Y-80475636D01*
X75922500Y-80279361D01*
X75922500Y-80080639D01*
X75891413Y-79884364D01*
X75830005Y-79695368D01*
X75830005Y-79695367D01*
X75739786Y-79518305D01*
X75622981Y-79357536D01*
X75482464Y-79217019D01*
X75321694Y-79100213D01*
X75165218Y-79020484D01*
X75114423Y-78972510D01*
X75097628Y-78904689D01*
X75120165Y-78838554D01*
X75165218Y-78799515D01*
X75321694Y-78719787D01*
X75482464Y-78602981D01*
X75622981Y-78462464D01*
X75739787Y-78301694D01*
X75830005Y-78124632D01*
X75891413Y-77935636D01*
X75922500Y-77739361D01*
X75922500Y-77540639D01*
X75891413Y-77344364D01*
X75830005Y-77155368D01*
X75830005Y-77155367D01*
X75784035Y-77065149D01*
X75739787Y-76978306D01*
X75622981Y-76817536D01*
X75482464Y-76677019D01*
X75321694Y-76560213D01*
X75144632Y-76469994D01*
X75144629Y-76469993D01*
X74955637Y-76408587D01*
X74857498Y-76393043D01*
X74759361Y-76377500D01*
X74560639Y-76377500D01*
X74495214Y-76387862D01*
X74364362Y-76408587D01*
X74175370Y-76469993D01*
X74175367Y-76469994D01*
X73998305Y-76560213D01*
X73837533Y-76677021D01*
X73697021Y-76817533D01*
X73697021Y-76817534D01*
X73697019Y-76817536D01*
X73669036Y-76856052D01*
X73606817Y-76941688D01*
X73551487Y-76984353D01*
X73481873Y-76990332D01*
X73420078Y-76957726D01*
X73385721Y-76896887D01*
X73382499Y-76868802D01*
X73382499Y-76830129D01*
X73382498Y-76830123D01*
X73382497Y-76830116D01*
X73376091Y-76770517D01*
X73373370Y-76763222D01*
X73325797Y-76635671D01*
X73325793Y-76635664D01*
X73239547Y-76520455D01*
X73239544Y-76520452D01*
X73124335Y-76434206D01*
X73124328Y-76434202D01*
X72989482Y-76383908D01*
X72989484Y-76383908D01*
X72931244Y-76377647D01*
X72866693Y-76350909D01*
X72826845Y-76293516D01*
X72820500Y-76254358D01*
X72820500Y-73708711D01*
X77889500Y-73708711D01*
X77889500Y-73951288D01*
X77921161Y-74191785D01*
X77983947Y-74426104D01*
X78076773Y-74650205D01*
X78076776Y-74650212D01*
X78198064Y-74860289D01*
X78198066Y-74860292D01*
X78198067Y-74860293D01*
X78345733Y-75052736D01*
X78345739Y-75052743D01*
X78517256Y-75224260D01*
X78517262Y-75224265D01*
X78709711Y-75371936D01*
X78919788Y-75493224D01*
X79143900Y-75586054D01*
X79378211Y-75648838D01*
X79558586Y-75672584D01*
X79618711Y-75680500D01*
X79618712Y-75680500D01*
X79861289Y-75680500D01*
X79909388Y-75674167D01*
X80101789Y-75648838D01*
X80336100Y-75586054D01*
X80560212Y-75493224D01*
X80770289Y-75371936D01*
X80962738Y-75224265D01*
X81134265Y-75052738D01*
X81191068Y-74978711D01*
X126149500Y-74978711D01*
X126149500Y-75221288D01*
X126181161Y-75461785D01*
X126243947Y-75696104D01*
X126336773Y-75920205D01*
X126336776Y-75920212D01*
X126458064Y-76130289D01*
X126458066Y-76130292D01*
X126458067Y-76130293D01*
X126605733Y-76322736D01*
X126605739Y-76322743D01*
X126777256Y-76494260D01*
X126777263Y-76494266D01*
X126863207Y-76560213D01*
X126969711Y-76641936D01*
X127179788Y-76763224D01*
X127403900Y-76856054D01*
X127638211Y-76918838D01*
X127811777Y-76941688D01*
X127878711Y-76950500D01*
X127878712Y-76950500D01*
X128121289Y-76950500D01*
X128188223Y-76941688D01*
X128361789Y-76918838D01*
X128596100Y-76856054D01*
X128820212Y-76763224D01*
X129030289Y-76641936D01*
X129222738Y-76494265D01*
X129394265Y-76322738D01*
X129541936Y-76130289D01*
X129663224Y-75920212D01*
X129756054Y-75696100D01*
X129818838Y-75461789D01*
X129850500Y-75221288D01*
X129850500Y-74978712D01*
X129818838Y-74738211D01*
X129756054Y-74503900D01*
X129663224Y-74279788D01*
X129541936Y-74069711D01*
X129394265Y-73877262D01*
X129394260Y-73877256D01*
X129222743Y-73705739D01*
X129222736Y-73705733D01*
X129030293Y-73558067D01*
X129030292Y-73558066D01*
X129030289Y-73558064D01*
X128820212Y-73436776D01*
X128820205Y-73436773D01*
X128596104Y-73343947D01*
X128361785Y-73281161D01*
X128121289Y-73249500D01*
X128121288Y-73249500D01*
X127878712Y-73249500D01*
X127878711Y-73249500D01*
X127638214Y-73281161D01*
X127403895Y-73343947D01*
X127179794Y-73436773D01*
X127179785Y-73436777D01*
X126969706Y-73558067D01*
X126777263Y-73705733D01*
X126777256Y-73705739D01*
X126605739Y-73877256D01*
X126605733Y-73877263D01*
X126458067Y-74069706D01*
X126336777Y-74279785D01*
X126336773Y-74279794D01*
X126243947Y-74503895D01*
X126181161Y-74738214D01*
X126149500Y-74978711D01*
X81191068Y-74978711D01*
X81281936Y-74860289D01*
X81403224Y-74650212D01*
X81496054Y-74426100D01*
X81558838Y-74191789D01*
X81590500Y-73951288D01*
X81590500Y-73708712D01*
X81558838Y-73468211D01*
X81496054Y-73233900D01*
X81403224Y-73009788D01*
X81281936Y-72799711D01*
X81134265Y-72607262D01*
X81134260Y-72607256D01*
X80962743Y-72435739D01*
X80962736Y-72435733D01*
X80770293Y-72288067D01*
X80770292Y-72288066D01*
X80770289Y-72288064D01*
X80560212Y-72166776D01*
X80560205Y-72166773D01*
X80336104Y-72073947D01*
X80101785Y-72011161D01*
X79861289Y-71979500D01*
X79861288Y-71979500D01*
X79618712Y-71979500D01*
X79618711Y-71979500D01*
X79378214Y-72011161D01*
X79143895Y-72073947D01*
X78919794Y-72166773D01*
X78919785Y-72166777D01*
X78709706Y-72288067D01*
X78517263Y-72435733D01*
X78517256Y-72435739D01*
X78345739Y-72607256D01*
X78345733Y-72607263D01*
X78198067Y-72799706D01*
X78076777Y-73009785D01*
X78076773Y-73009794D01*
X77983947Y-73233895D01*
X77921161Y-73468214D01*
X77889500Y-73708711D01*
X72820500Y-73708711D01*
X72820500Y-50150316D01*
X72829939Y-50102864D01*
X72889735Y-49958501D01*
X72889737Y-49958497D01*
X72920500Y-49803842D01*
X72920500Y-49646158D01*
X72920500Y-49646155D01*
X72920499Y-49646153D01*
X72889738Y-49491510D01*
X72889737Y-49491503D01*
X72872952Y-49450979D01*
X72829397Y-49345827D01*
X72829390Y-49345814D01*
X72741789Y-49214711D01*
X72741786Y-49214707D01*
X72630292Y-49103213D01*
X72630288Y-49103210D01*
X72499185Y-49015609D01*
X72499172Y-49015602D01*
X72353501Y-48955264D01*
X72353489Y-48955261D01*
X72198845Y-48924500D01*
X72198842Y-48924500D01*
X72041158Y-48924500D01*
X72041155Y-48924500D01*
X71886510Y-48955261D01*
X71886498Y-48955264D01*
X71740827Y-49015602D01*
X71740814Y-49015609D01*
X71609711Y-49103210D01*
X71609707Y-49103213D01*
X71498213Y-49214707D01*
X71498210Y-49214711D01*
X71410609Y-49345814D01*
X71410602Y-49345827D01*
X71350264Y-49491498D01*
X71350261Y-49491510D01*
X71319500Y-49646153D01*
X71319500Y-49803846D01*
X71350261Y-49958489D01*
X71350264Y-49958501D01*
X71410061Y-50102864D01*
X71419500Y-50150316D01*
X71419500Y-76254358D01*
X71399815Y-76321397D01*
X71347011Y-76367152D01*
X71308755Y-76377648D01*
X71250516Y-76383909D01*
X71115671Y-76434202D01*
X71115664Y-76434206D01*
X71000455Y-76520452D01*
X71000452Y-76520455D01*
X70914206Y-76635664D01*
X70914202Y-76635671D01*
X70863908Y-76770517D01*
X70857501Y-76830116D01*
X70857501Y-76830123D01*
X70857500Y-76830135D01*
X70857500Y-78449870D01*
X70857501Y-78449876D01*
X70863908Y-78509483D01*
X70914202Y-78644328D01*
X70914206Y-78644335D01*
X71000452Y-78759544D01*
X71000455Y-78759547D01*
X71115664Y-78845793D01*
X71115671Y-78845797D01*
X71250517Y-78896091D01*
X71250516Y-78896091D01*
X71257444Y-78896835D01*
X71310127Y-78902500D01*
X71348801Y-78902499D01*
X71415838Y-78922182D01*
X71461594Y-78974985D01*
X71471539Y-79044143D01*
X71442516Y-79107699D01*
X71421687Y-79126816D01*
X71297542Y-79217014D01*
X71297533Y-79217021D01*
X71157021Y-79357533D01*
X71157014Y-79357542D01*
X71133439Y-79389990D01*
X71078109Y-79432656D01*
X71008496Y-79438634D01*
X70946701Y-79406028D01*
X70945441Y-79404785D01*
X70612143Y-79071487D01*
X70261819Y-78721162D01*
X70228334Y-78659839D01*
X70225500Y-78633481D01*
X70225500Y-49766519D01*
X70245185Y-49699480D01*
X70261819Y-49678838D01*
X71478838Y-48461819D01*
X71540161Y-48428334D01*
X71566519Y-48425500D01*
X74799684Y-48425500D01*
X74847136Y-48434939D01*
X74912031Y-48461819D01*
X74991503Y-48494737D01*
X75146153Y-48525499D01*
X75146156Y-48525500D01*
X75146158Y-48525500D01*
X75303844Y-48525500D01*
X75303845Y-48525499D01*
X75458497Y-48494737D01*
X75604179Y-48434394D01*
X75735289Y-48346789D01*
X75846789Y-48235289D01*
X75934394Y-48104179D01*
X75994737Y-47958497D01*
X76025500Y-47803842D01*
X76025500Y-47646158D01*
X76025500Y-47646155D01*
X76025499Y-47646153D01*
X75994738Y-47491510D01*
X75994737Y-47491503D01*
X75962460Y-47413578D01*
X75934397Y-47345827D01*
X75934390Y-47345814D01*
X75846789Y-47214711D01*
X75846786Y-47214707D01*
X75735292Y-47103213D01*
X75735288Y-47103210D01*
X75604185Y-47015609D01*
X75604172Y-47015602D01*
X75458501Y-46955264D01*
X75458489Y-46955261D01*
X75303845Y-46924500D01*
X75303842Y-46924500D01*
X75146158Y-46924500D01*
X75146155Y-46924500D01*
X74991510Y-46955261D01*
X74991498Y-46955264D01*
X74847136Y-47015061D01*
X74799684Y-47024500D01*
X71156004Y-47024500D01*
X71020677Y-47051418D01*
X71020667Y-47051421D01*
X70893192Y-47104222D01*
X70778454Y-47180887D01*
X68980887Y-48978454D01*
X68904222Y-49093192D01*
X68851421Y-49220667D01*
X68851418Y-49220679D01*
X68831797Y-49319318D01*
X68831786Y-49319376D01*
X68831529Y-49320672D01*
X68824500Y-49356007D01*
X68824500Y-78906006D01*
X68824500Y-79043994D01*
X68824500Y-79043996D01*
X68824499Y-79043996D01*
X68851418Y-79179322D01*
X68851421Y-79179332D01*
X68904222Y-79306807D01*
X68980887Y-79421545D01*
X68980888Y-79421546D01*
X70185886Y-80626542D01*
X70235409Y-80676065D01*
X70283459Y-80724115D01*
X70398182Y-80800771D01*
X70398186Y-80800773D01*
X70398189Y-80800775D01*
X70451558Y-80822881D01*
X70525671Y-80853580D01*
X70552591Y-80858934D01*
X70650754Y-80878460D01*
X70661006Y-80880500D01*
X70661007Y-80880500D01*
X71005226Y-80880500D01*
X71072265Y-80900185D01*
X71105542Y-80931612D01*
X71157019Y-81002464D01*
X71297536Y-81142981D01*
X71458306Y-81259787D01*
X71576832Y-81320179D01*
X71614780Y-81339515D01*
X71665576Y-81387490D01*
X71682371Y-81455311D01*
X71659833Y-81521446D01*
X71614780Y-81560485D01*
X71458305Y-81640213D01*
X71297533Y-81757021D01*
X71157021Y-81897533D01*
X71040213Y-82058305D01*
X70949994Y-82235367D01*
X70949993Y-82235370D01*
X70888587Y-82424362D01*
X70857500Y-82620639D01*
X70857500Y-82819360D01*
X70888587Y-83015637D01*
X70949993Y-83204629D01*
X70949994Y-83204632D01*
X71040213Y-83381694D01*
X71157019Y-83542464D01*
X71297536Y-83682981D01*
X71458306Y-83799787D01*
X71576832Y-83860179D01*
X71614780Y-83879515D01*
X71665576Y-83927490D01*
X71682371Y-83995311D01*
X71659833Y-84061446D01*
X71614780Y-84100485D01*
X71458305Y-84180213D01*
X71297533Y-84297021D01*
X71157021Y-84437533D01*
X71040213Y-84598305D01*
X70949994Y-84775367D01*
X70949993Y-84775370D01*
X70888587Y-84964362D01*
X70857500Y-85160639D01*
X70857500Y-85359360D01*
X70888587Y-85555637D01*
X70949993Y-85744629D01*
X70949994Y-85744632D01*
X71040076Y-85921425D01*
X71040213Y-85921694D01*
X71157019Y-86082464D01*
X71297536Y-86222981D01*
X71458306Y-86339787D01*
X71576832Y-86400179D01*
X71614780Y-86419515D01*
X71665576Y-86467490D01*
X71682371Y-86535311D01*
X71659833Y-86601446D01*
X71614780Y-86640485D01*
X71458305Y-86720213D01*
X71297533Y-86837021D01*
X71157021Y-86977533D01*
X71040213Y-87138305D01*
X70949994Y-87315367D01*
X70949993Y-87315370D01*
X70888587Y-87504362D01*
X70857500Y-87700639D01*
X70857500Y-87899360D01*
X70888587Y-88095637D01*
X70949993Y-88284629D01*
X70949994Y-88284632D01*
X71040074Y-88461422D01*
X71040213Y-88461694D01*
X71157019Y-88622464D01*
X71297536Y-88762981D01*
X71458306Y-88879787D01*
X71576832Y-88940179D01*
X71614780Y-88959515D01*
X71665576Y-89007490D01*
X71682371Y-89075311D01*
X71659833Y-89141446D01*
X71614780Y-89180485D01*
X71458305Y-89260213D01*
X71297533Y-89377021D01*
X71157021Y-89517533D01*
X71040213Y-89678305D01*
X70949994Y-89855367D01*
X70949993Y-89855370D01*
X70888587Y-90044362D01*
X70857500Y-90240639D01*
X70857500Y-90439360D01*
X70888587Y-90635637D01*
X70949993Y-90824629D01*
X70949994Y-90824632D01*
X71040213Y-91001694D01*
X71157019Y-91162464D01*
X71297536Y-91302981D01*
X71458306Y-91419787D01*
X71576832Y-91480179D01*
X71614780Y-91499515D01*
X71665576Y-91547490D01*
X71682371Y-91615311D01*
X71659833Y-91681446D01*
X71614780Y-91720485D01*
X71458305Y-91800213D01*
X71297533Y-91917021D01*
X71157021Y-92057533D01*
X71040213Y-92218305D01*
X70949994Y-92395367D01*
X70949993Y-92395370D01*
X70888587Y-92584362D01*
X70857500Y-92780639D01*
X70857500Y-92979360D01*
X70888587Y-93175637D01*
X70949993Y-93364629D01*
X70949994Y-93364632D01*
X70982390Y-93428211D01*
X71040213Y-93541694D01*
X71157019Y-93702464D01*
X71297536Y-93842981D01*
X71458306Y-93959787D01*
X71576832Y-94020179D01*
X71614780Y-94039515D01*
X71665576Y-94087490D01*
X71682371Y-94155311D01*
X71659833Y-94221446D01*
X71614780Y-94260485D01*
X71458305Y-94340213D01*
X71297533Y-94457021D01*
X71157021Y-94597533D01*
X71040213Y-94758305D01*
X70949994Y-94935367D01*
X70949993Y-94935370D01*
X70888587Y-95124362D01*
X70857500Y-95320639D01*
X70857500Y-95519360D01*
X70888587Y-95715637D01*
X70949993Y-95904629D01*
X70949994Y-95904632D01*
X70963069Y-95930292D01*
X71040213Y-96081694D01*
X71157019Y-96242464D01*
X71297536Y-96382981D01*
X71458306Y-96499787D01*
X71576832Y-96560179D01*
X71614780Y-96579515D01*
X71665576Y-96627490D01*
X71682371Y-96695311D01*
X71659833Y-96761446D01*
X71614780Y-96800485D01*
X71458305Y-96880213D01*
X71297533Y-96997021D01*
X71157021Y-97137533D01*
X71040213Y-97298305D01*
X70949994Y-97475367D01*
X70949993Y-97475370D01*
X70888587Y-97664362D01*
X70857500Y-97860639D01*
X70857500Y-98059360D01*
X70888587Y-98255637D01*
X70949993Y-98444629D01*
X70949994Y-98444632D01*
X71040213Y-98621694D01*
X71157019Y-98782464D01*
X71297536Y-98922981D01*
X71458306Y-99039787D01*
X71615332Y-99119796D01*
X71666127Y-99167769D01*
X71682922Y-99235590D01*
X71660385Y-99301725D01*
X71615332Y-99340764D01*
X71458566Y-99420641D01*
X71421283Y-99447729D01*
X71421282Y-99447730D01*
X71984058Y-100010504D01*
X71923919Y-100026619D01*
X71808080Y-100093498D01*
X71713498Y-100188080D01*
X71646619Y-100303919D01*
X71630504Y-100364057D01*
X71067730Y-99801282D01*
X71067729Y-99801283D01*
X71040643Y-99838564D01*
X70950457Y-100015562D01*
X70889075Y-100204476D01*
X70889075Y-100204479D01*
X70858000Y-100400678D01*
X70858000Y-100599321D01*
X70889075Y-100795520D01*
X70889075Y-100795523D01*
X70950457Y-100984437D01*
X71040641Y-101161432D01*
X71067730Y-101198715D01*
X71630504Y-100635941D01*
X71646619Y-100696081D01*
X71713498Y-100811920D01*
X71808080Y-100906502D01*
X71923919Y-100973381D01*
X71984057Y-100989494D01*
X71421283Y-101552268D01*
X71421283Y-101552269D01*
X71458567Y-101579358D01*
X71615331Y-101659234D01*
X71666127Y-101707209D01*
X71682922Y-101775030D01*
X71660384Y-101841165D01*
X71615331Y-101880204D01*
X71458305Y-101960213D01*
X71297533Y-102077021D01*
X71157021Y-102217533D01*
X71040213Y-102378305D01*
X70949994Y-102555367D01*
X70949993Y-102555370D01*
X70888587Y-102744362D01*
X70857500Y-102940639D01*
X70857500Y-103139360D01*
X70888587Y-103335637D01*
X70949993Y-103524629D01*
X70949994Y-103524632D01*
X70963069Y-103550292D01*
X71040213Y-103701694D01*
X71157019Y-103862464D01*
X71297536Y-104002981D01*
X71458306Y-104119787D01*
X71576832Y-104180179D01*
X71614780Y-104199515D01*
X71665576Y-104247490D01*
X71682371Y-104315311D01*
X71659833Y-104381446D01*
X71614780Y-104420485D01*
X71458305Y-104500213D01*
X71297533Y-104617021D01*
X71157021Y-104757533D01*
X71040213Y-104918305D01*
X70949994Y-105095367D01*
X70949993Y-105095370D01*
X70888587Y-105284362D01*
X70888587Y-105284364D01*
X70857500Y-105480639D01*
X70857500Y-105679361D01*
X70873043Y-105777498D01*
X70888587Y-105875637D01*
X70949993Y-106064629D01*
X70949994Y-106064632D01*
X71019879Y-106201786D01*
X71040213Y-106241694D01*
X71157019Y-106402464D01*
X71297536Y-106542981D01*
X71458306Y-106659787D01*
X71576832Y-106720179D01*
X71614780Y-106739515D01*
X71665576Y-106787490D01*
X71682371Y-106855311D01*
X71659833Y-106921446D01*
X71614780Y-106960485D01*
X71458305Y-107040213D01*
X71297533Y-107157021D01*
X71157021Y-107297533D01*
X71040213Y-107458305D01*
X70949994Y-107635367D01*
X70949993Y-107635370D01*
X70888587Y-107824362D01*
X70857500Y-108020639D01*
X70857500Y-108219360D01*
X70888587Y-108415637D01*
X70949993Y-108604629D01*
X70949994Y-108604632D01*
X71001648Y-108706007D01*
X71040213Y-108781694D01*
X71157019Y-108942464D01*
X71297536Y-109082981D01*
X71458306Y-109199787D01*
X71576832Y-109260179D01*
X71614780Y-109279515D01*
X71665576Y-109327490D01*
X71682371Y-109395311D01*
X71659833Y-109461446D01*
X71614780Y-109500485D01*
X71458305Y-109580213D01*
X71297533Y-109697021D01*
X71157021Y-109837533D01*
X71040213Y-109998305D01*
X70949994Y-110175367D01*
X70949993Y-110175370D01*
X70888587Y-110364362D01*
X70857500Y-110560639D01*
X70857500Y-110759360D01*
X70888587Y-110955637D01*
X70949993Y-111144629D01*
X70949994Y-111144632D01*
X71040213Y-111321694D01*
X71157019Y-111482464D01*
X71297536Y-111622981D01*
X71458306Y-111739787D01*
X71576832Y-111800179D01*
X71614780Y-111819515D01*
X71665576Y-111867490D01*
X71682371Y-111935311D01*
X71659833Y-112001446D01*
X71614780Y-112040485D01*
X71458305Y-112120213D01*
X71297533Y-112237021D01*
X71157021Y-112377533D01*
X71040213Y-112538305D01*
X70949994Y-112715367D01*
X70949993Y-112715370D01*
X70888587Y-112904362D01*
X70857500Y-113100639D01*
X70857500Y-113299360D01*
X70888587Y-113495637D01*
X70949993Y-113684629D01*
X70949994Y-113684632D01*
X71040213Y-113861694D01*
X71157019Y-114022464D01*
X71297536Y-114162981D01*
X71458306Y-114279787D01*
X71576832Y-114340179D01*
X71614780Y-114359515D01*
X71665576Y-114407490D01*
X71682371Y-114475311D01*
X71659833Y-114541446D01*
X71614780Y-114580485D01*
X71458305Y-114660213D01*
X71297533Y-114777021D01*
X71157021Y-114917533D01*
X71040213Y-115078305D01*
X70949994Y-115255367D01*
X70949993Y-115255370D01*
X70888587Y-115444362D01*
X70857500Y-115640639D01*
X70857500Y-115839360D01*
X70888587Y-116035637D01*
X70949993Y-116224629D01*
X70949994Y-116224632D01*
X71040076Y-116401425D01*
X71040213Y-116401694D01*
X71157019Y-116562464D01*
X71297536Y-116702981D01*
X71458306Y-116819787D01*
X71576832Y-116880179D01*
X71614780Y-116899515D01*
X71665576Y-116947490D01*
X71682371Y-117015311D01*
X71659833Y-117081446D01*
X71614780Y-117120485D01*
X71458305Y-117200213D01*
X71297533Y-117317021D01*
X71157021Y-117457533D01*
X71040213Y-117618305D01*
X70949994Y-117795367D01*
X70949993Y-117795370D01*
X70888587Y-117984362D01*
X70857500Y-118180639D01*
X70857500Y-118379360D01*
X70888587Y-118575637D01*
X70949993Y-118764629D01*
X70949994Y-118764632D01*
X71040213Y-118941694D01*
X71157019Y-119102464D01*
X71297536Y-119242981D01*
X71458306Y-119359787D01*
X71576832Y-119420179D01*
X71614780Y-119439515D01*
X71665576Y-119487490D01*
X71682371Y-119555311D01*
X71659833Y-119621446D01*
X71614780Y-119660485D01*
X71458305Y-119740213D01*
X71297533Y-119857021D01*
X71157021Y-119997533D01*
X71157019Y-119997536D01*
X71105542Y-120068386D01*
X71050214Y-120111051D01*
X71005226Y-120119500D01*
X70686003Y-120119500D01*
X70577590Y-120141065D01*
X70577589Y-120141065D01*
X70564131Y-120143742D01*
X70550673Y-120146419D01*
X70532001Y-120154153D01*
X70521978Y-120158305D01*
X70513330Y-120161887D01*
X70423191Y-120199223D01*
X70356875Y-120243535D01*
X70332745Y-120259657D01*
X70308456Y-120275886D01*
X69155888Y-121428453D01*
X69155887Y-121428454D01*
X69079223Y-121543192D01*
X69026421Y-121670668D01*
X69026418Y-121670680D01*
X69014925Y-121728459D01*
X69014925Y-121728460D01*
X68999500Y-121806004D01*
X68999500Y-121806007D01*
X68999500Y-124156006D01*
X68999500Y-124293994D01*
X68999500Y-124293996D01*
X68999499Y-124293996D01*
X69026418Y-124429322D01*
X69026421Y-124429332D01*
X69079222Y-124556807D01*
X69155887Y-124671545D01*
X70478454Y-125994112D01*
X70593192Y-126070777D01*
X70699260Y-126114711D01*
X70720672Y-126123580D01*
X70720676Y-126123580D01*
X70720677Y-126123581D01*
X70856003Y-126150500D01*
X70856006Y-126150500D01*
X70856007Y-126150500D01*
X73049684Y-126150500D01*
X73097136Y-126159939D01*
X73219425Y-126210592D01*
X73241503Y-126219737D01*
X73396153Y-126250499D01*
X73396156Y-126250500D01*
X73396158Y-126250500D01*
X73553844Y-126250500D01*
X73553845Y-126250499D01*
X73708497Y-126219737D01*
X73788048Y-126186785D01*
X73857516Y-126179317D01*
X73919996Y-126210592D01*
X73955648Y-126270681D01*
X73959500Y-126301347D01*
X73959500Y-135041006D01*
X73959500Y-135178994D01*
X73959500Y-135178996D01*
X73959499Y-135178996D01*
X73986418Y-135314322D01*
X73986421Y-135314332D01*
X74039222Y-135441807D01*
X74115887Y-135556545D01*
X76353454Y-137794112D01*
X76468192Y-137870777D01*
X76595667Y-137923578D01*
X76595672Y-137923580D01*
X76595676Y-137923580D01*
X76595677Y-137923581D01*
X76731003Y-137950500D01*
X76731006Y-137950500D01*
X76731007Y-137950500D01*
X81449684Y-137950500D01*
X81497136Y-137959939D01*
X81562031Y-137986819D01*
X81641503Y-138019737D01*
X81796153Y-138050499D01*
X81796156Y-138050500D01*
X81796158Y-138050500D01*
X81953844Y-138050500D01*
X81953845Y-138050499D01*
X82108497Y-138019737D01*
X82254179Y-137959394D01*
X82385289Y-137871789D01*
X82496789Y-137760289D01*
X82584394Y-137629179D01*
X82644737Y-137483497D01*
X82675500Y-137328842D01*
X82675500Y-137171158D01*
X82675500Y-137171155D01*
X82675499Y-137171153D01*
X82657544Y-137080887D01*
X82644737Y-137016503D01*
X82629572Y-136979890D01*
X82584397Y-136870827D01*
X82584390Y-136870814D01*
X82496789Y-136739711D01*
X82496786Y-136739707D01*
X82385292Y-136628213D01*
X82385288Y-136628210D01*
X82254185Y-136540609D01*
X82254172Y-136540602D01*
X82108501Y-136480264D01*
X82108489Y-136480261D01*
X81953845Y-136449500D01*
X81953842Y-136449500D01*
X81796158Y-136449500D01*
X81796155Y-136449500D01*
X81641510Y-136480261D01*
X81641498Y-136480264D01*
X81497136Y-136540061D01*
X81449684Y-136549500D01*
X77141519Y-136549500D01*
X77074480Y-136529815D01*
X77053838Y-136513181D01*
X75396819Y-134856162D01*
X75363334Y-134794839D01*
X75360500Y-134768481D01*
X75360500Y-124474773D01*
X75380185Y-124407734D01*
X75411614Y-124374455D01*
X75482464Y-124322981D01*
X75622981Y-124182464D01*
X75739787Y-124021694D01*
X75830005Y-123844632D01*
X75891413Y-123655636D01*
X75922500Y-123459361D01*
X75922500Y-123260639D01*
X75891413Y-123064364D01*
X75830005Y-122875368D01*
X75830005Y-122875367D01*
X75739786Y-122698305D01*
X75622981Y-122537536D01*
X75482464Y-122397019D01*
X75321694Y-122280213D01*
X75165218Y-122200484D01*
X75114423Y-122152510D01*
X75097628Y-122084689D01*
X75120165Y-122018554D01*
X75165218Y-121979515D01*
X75321694Y-121899787D01*
X75482464Y-121782981D01*
X75622981Y-121642464D01*
X75739787Y-121481694D01*
X75830005Y-121304632D01*
X75891413Y-121115636D01*
X75922500Y-120919361D01*
X75922500Y-120720639D01*
X75891413Y-120524364D01*
X75830005Y-120335368D01*
X75830005Y-120335367D01*
X75760635Y-120199222D01*
X75739787Y-120158306D01*
X75622981Y-119997536D01*
X75482464Y-119857019D01*
X75321694Y-119740213D01*
X75165218Y-119660484D01*
X75114423Y-119612510D01*
X75097628Y-119544689D01*
X75120165Y-119478554D01*
X75165218Y-119439515D01*
X75321694Y-119359787D01*
X75482464Y-119242981D01*
X75622981Y-119102464D01*
X75739787Y-118941694D01*
X75830005Y-118764632D01*
X75891413Y-118575636D01*
X75922500Y-118379361D01*
X75922500Y-118180639D01*
X75891413Y-117984364D01*
X75830005Y-117795368D01*
X75830005Y-117795367D01*
X75763661Y-117665161D01*
X75739787Y-117618306D01*
X75622981Y-117457536D01*
X75482464Y-117317019D01*
X75321694Y-117200213D01*
X75165218Y-117120484D01*
X75114423Y-117072510D01*
X75097628Y-117004689D01*
X75120165Y-116938554D01*
X75165218Y-116899515D01*
X75321694Y-116819787D01*
X75482464Y-116702981D01*
X75622981Y-116562464D01*
X75739787Y-116401694D01*
X75830005Y-116224632D01*
X75891413Y-116035636D01*
X75922500Y-115839361D01*
X75922500Y-115640639D01*
X75891413Y-115444364D01*
X75830005Y-115255368D01*
X75830005Y-115255367D01*
X75784035Y-115165149D01*
X75739787Y-115078306D01*
X75622981Y-114917536D01*
X75482464Y-114777019D01*
X75321694Y-114660213D01*
X75165218Y-114580484D01*
X75114423Y-114532510D01*
X75097628Y-114464689D01*
X75120165Y-114398554D01*
X75165218Y-114359515D01*
X75321694Y-114279787D01*
X75482464Y-114162981D01*
X75622981Y-114022464D01*
X75674457Y-113951613D01*
X75729786Y-113908949D01*
X75774774Y-113900500D01*
X80183481Y-113900500D01*
X80250520Y-113920185D01*
X80271162Y-113936819D01*
X83938181Y-117603838D01*
X83971666Y-117665161D01*
X83974500Y-117691519D01*
X83974500Y-139256006D01*
X83974500Y-139393994D01*
X83974500Y-139393996D01*
X83974499Y-139393996D01*
X84001418Y-139529322D01*
X84001421Y-139529332D01*
X84054222Y-139656807D01*
X84130887Y-139771545D01*
X86903454Y-142544112D01*
X87018190Y-142620776D01*
X87116790Y-142661617D01*
X87145671Y-142673580D01*
X87145672Y-142673580D01*
X87145677Y-142673582D01*
X87172545Y-142678925D01*
X87172551Y-142678926D01*
X87172591Y-142678934D01*
X87262937Y-142696905D01*
X87281006Y-142700500D01*
X87281007Y-142700500D01*
X93782591Y-142700500D01*
X93849630Y-142720185D01*
X93870272Y-142736819D01*
X93991936Y-142858483D01*
X94135260Y-142962614D01*
X94219879Y-143005729D01*
X94238102Y-143015015D01*
X94288898Y-143062990D01*
X94305693Y-143130811D01*
X94283155Y-143196946D01*
X94228440Y-143240397D01*
X94181807Y-143249500D01*
X76841519Y-143249500D01*
X76774480Y-143229815D01*
X76753838Y-143213181D01*
X67486819Y-133946162D01*
X67453334Y-133884839D01*
X67450500Y-133858481D01*
X67450500Y-47216518D01*
X67470185Y-47149479D01*
X67486819Y-47128837D01*
X74778837Y-39836819D01*
X74840160Y-39803334D01*
X74866518Y-39800500D01*
X108102094Y-39800500D01*
X108169133Y-39820185D01*
X108214888Y-39872989D01*
X108226094Y-39924500D01*
X108226094Y-39997876D01*
X108232501Y-40057483D01*
X108282795Y-40192328D01*
X108282799Y-40192335D01*
X108369045Y-40307544D01*
X108369048Y-40307547D01*
X108484257Y-40393793D01*
X108484264Y-40393797D01*
X108619110Y-40444091D01*
X108619109Y-40444091D01*
X108626037Y-40444835D01*
X108678720Y-40450500D01*
X110474465Y-40450499D01*
X110534076Y-40444091D01*
X110668924Y-40393796D01*
X110784139Y-40307546D01*
X110870389Y-40192331D01*
X110919403Y-40060916D01*
X110961274Y-40004984D01*
X111026738Y-39980566D01*
X111095011Y-39995417D01*
X111123266Y-40016569D01*
X111236806Y-40130109D01*
X111408772Y-40255048D01*
X111408774Y-40255049D01*
X111408777Y-40255051D01*
X111598181Y-40351557D01*
X111800350Y-40417246D01*
X112010306Y-40450500D01*
X112010307Y-40450500D01*
X112222879Y-40450500D01*
X112222880Y-40450500D01*
X112432836Y-40417246D01*
X112635005Y-40351557D01*
X112824409Y-40255051D01*
X112846382Y-40239086D01*
X112996379Y-40130109D01*
X112996381Y-40130106D01*
X112996385Y-40130104D01*
X113146697Y-39979792D01*
X113146699Y-39979788D01*
X113146702Y-39979786D01*
X113271641Y-39807820D01*
X113271640Y-39807820D01*
X113271644Y-39807816D01*
X113276107Y-39799054D01*
X113324081Y-39748259D01*
X113391901Y-39731463D01*
X113458037Y-39753999D01*
X113497077Y-39799054D01*
X113501184Y-39807115D01*
X113501544Y-39807820D01*
X113626483Y-39979786D01*
X113776806Y-40130109D01*
X113948772Y-40255048D01*
X113948774Y-40255049D01*
X113948777Y-40255051D01*
X114138181Y-40351557D01*
X114340350Y-40417246D01*
X114550306Y-40450500D01*
X114550307Y-40450500D01*
X114762879Y-40450500D01*
X114762880Y-40450500D01*
X114972836Y-40417246D01*
X115175005Y-40351557D01*
X115364409Y-40255051D01*
X115386382Y-40239086D01*
X115536379Y-40130109D01*
X115536381Y-40130106D01*
X115536385Y-40130104D01*
X115686697Y-39979792D01*
X115686699Y-39979788D01*
X115686702Y-39979786D01*
X115772483Y-39861717D01*
X115811644Y-39807816D01*
X115816386Y-39798508D01*
X115864356Y-39747711D01*
X115932176Y-39730911D01*
X115998312Y-39753445D01*
X116037356Y-39798500D01*
X116041966Y-39807547D01*
X116081321Y-39861716D01*
X116713630Y-39229408D01*
X116730668Y-39292993D01*
X116796494Y-39407007D01*
X116889586Y-39500099D01*
X117003600Y-39565925D01*
X117067183Y-39582962D01*
X116434875Y-40215269D01*
X116434875Y-40215270D01*
X116489042Y-40254624D01*
X116678375Y-40351095D01*
X116880463Y-40416757D01*
X117090347Y-40450000D01*
X117302839Y-40450000D01*
X117512720Y-40416757D01*
X117512723Y-40416757D01*
X117714810Y-40351095D01*
X117904147Y-40254622D01*
X117958309Y-40215270D01*
X117958310Y-40215270D01*
X117326001Y-39582962D01*
X117389586Y-39565925D01*
X117503600Y-39500099D01*
X117596692Y-39407007D01*
X117662518Y-39292993D01*
X117679555Y-39229408D01*
X118311863Y-39861717D01*
X118311863Y-39861716D01*
X118351215Y-39807554D01*
X118447688Y-39618217D01*
X118513350Y-39416130D01*
X118513350Y-39416127D01*
X118546593Y-39206246D01*
X118546593Y-38993753D01*
X118513350Y-38783872D01*
X118513350Y-38783869D01*
X118447688Y-38581782D01*
X118351217Y-38392449D01*
X118311863Y-38338282D01*
X118311862Y-38338282D01*
X117679555Y-38970590D01*
X117662518Y-38907007D01*
X117596692Y-38792993D01*
X117503600Y-38699901D01*
X117389586Y-38634075D01*
X117326002Y-38617037D01*
X117958309Y-37984728D01*
X117904143Y-37945375D01*
X117714810Y-37848904D01*
X117512722Y-37783242D01*
X117302839Y-37750000D01*
X117090347Y-37750000D01*
X116880465Y-37783242D01*
X116880462Y-37783242D01*
X116678375Y-37848904D01*
X116489032Y-37945380D01*
X116434875Y-37984727D01*
X116434875Y-37984728D01*
X117067184Y-38617037D01*
X117003600Y-38634075D01*
X116889586Y-38699901D01*
X116796494Y-38792993D01*
X116730668Y-38907007D01*
X116713630Y-38970591D01*
X116081321Y-38338282D01*
X116081320Y-38338282D01*
X116041973Y-38392440D01*
X116041969Y-38392446D01*
X116037353Y-38401505D01*
X115989374Y-38452297D01*
X115921552Y-38469087D01*
X115855419Y-38446543D01*
X115816387Y-38401493D01*
X115811644Y-38392184D01*
X115811642Y-38392181D01*
X115811641Y-38392179D01*
X115686702Y-38220213D01*
X115536379Y-38069890D01*
X115364413Y-37944951D01*
X115175007Y-37848444D01*
X115175006Y-37848443D01*
X115175005Y-37848443D01*
X114972836Y-37782754D01*
X114972834Y-37782753D01*
X114972833Y-37782753D01*
X114811550Y-37757208D01*
X114762880Y-37749500D01*
X114550306Y-37749500D01*
X114501635Y-37757208D01*
X114340353Y-37782753D01*
X114138178Y-37848444D01*
X113948772Y-37944951D01*
X113776806Y-38069890D01*
X113626483Y-38220213D01*
X113501542Y-38392182D01*
X113497077Y-38400946D01*
X113449102Y-38451742D01*
X113381281Y-38468536D01*
X113315146Y-38445998D01*
X113276109Y-38400946D01*
X113271643Y-38392182D01*
X113146702Y-38220213D01*
X112996379Y-38069890D01*
X112824413Y-37944951D01*
X112635007Y-37848444D01*
X112635006Y-37848443D01*
X112635005Y-37848443D01*
X112432836Y-37782754D01*
X112432834Y-37782753D01*
X112432833Y-37782753D01*
X112271550Y-37757208D01*
X112222880Y-37749500D01*
X112010306Y-37749500D01*
X111961635Y-37757208D01*
X111800353Y-37782753D01*
X111598178Y-37848444D01*
X111408772Y-37944951D01*
X111236808Y-38069889D01*
X111123266Y-38183431D01*
X111061943Y-38216915D01*
X110992251Y-38211931D01*
X110936318Y-38170059D01*
X110919403Y-38139082D01*
X110870390Y-38007671D01*
X110870386Y-38007664D01*
X110784140Y-37892455D01*
X110784137Y-37892453D01*
X110762436Y-37876207D01*
X110720565Y-37820272D01*
X110715582Y-37750581D01*
X110749064Y-37689264D01*
X110926511Y-37511816D01*
X110987834Y-37478334D01*
X111014191Y-37475500D01*
X130131153Y-37475500D01*
X130198192Y-37495185D01*
G37*
%TD.AperFunction*%
%TA.AperFunction,Conductor*%
G36*
X86843834Y-102499337D02*
G01*
X86899767Y-102541209D01*
X86924184Y-102606673D01*
X86924500Y-102615519D01*
X86924500Y-131531006D01*
X86924500Y-131668994D01*
X86924500Y-131668996D01*
X86924499Y-131668996D01*
X86951418Y-131804322D01*
X86951421Y-131804332D01*
X87004222Y-131931807D01*
X87080887Y-132046545D01*
X88778454Y-133744112D01*
X88893192Y-133820777D01*
X89018943Y-133872864D01*
X89020672Y-133873580D01*
X89020676Y-133873580D01*
X89020677Y-133873581D01*
X89156003Y-133900500D01*
X89156006Y-133900500D01*
X89156007Y-133900500D01*
X93782591Y-133900500D01*
X93812031Y-133909144D01*
X93842018Y-133915668D01*
X93847033Y-133919422D01*
X93849630Y-133920185D01*
X93870272Y-133936819D01*
X93988331Y-134054878D01*
X94021816Y-134116201D01*
X94024650Y-134142559D01*
X94024650Y-135031156D01*
X94024650Y-135169144D01*
X94024650Y-135169146D01*
X94024649Y-135169146D01*
X94051568Y-135304472D01*
X94051571Y-135304482D01*
X94104372Y-135431957D01*
X94181037Y-135546695D01*
X96803454Y-138169112D01*
X96918192Y-138245777D01*
X97045667Y-138298578D01*
X97045672Y-138298580D01*
X97045676Y-138298580D01*
X97045677Y-138298581D01*
X97181004Y-138325500D01*
X97181007Y-138325500D01*
X109708481Y-138325500D01*
X109775520Y-138345185D01*
X109796162Y-138361819D01*
X111768331Y-140333987D01*
X111801816Y-140395310D01*
X111804650Y-140421668D01*
X111804650Y-141057440D01*
X111784965Y-141124479D01*
X111768332Y-141145121D01*
X111646666Y-141266787D01*
X111542536Y-141410109D01*
X111462107Y-141567957D01*
X111462106Y-141567960D01*
X111407364Y-141736443D01*
X111379650Y-141911421D01*
X111379650Y-142088578D01*
X111407364Y-142263556D01*
X111462106Y-142432039D01*
X111462107Y-142432042D01*
X111513798Y-142533489D01*
X111542536Y-142589890D01*
X111646667Y-142733214D01*
X111771936Y-142858483D01*
X111915260Y-142962614D01*
X111999879Y-143005729D01*
X112018102Y-143015015D01*
X112068898Y-143062990D01*
X112085693Y-143130811D01*
X112063155Y-143196946D01*
X112008440Y-143240397D01*
X111961807Y-143249500D01*
X110508493Y-143249500D01*
X110441454Y-143229815D01*
X110395699Y-143177011D01*
X110385755Y-143107853D01*
X110414780Y-143044297D01*
X110452198Y-143015015D01*
X110463237Y-143009390D01*
X110555040Y-142962614D01*
X110698364Y-142858483D01*
X110823633Y-142733214D01*
X110927764Y-142589890D01*
X111008192Y-142432042D01*
X111062936Y-142263555D01*
X111090650Y-142088579D01*
X111090650Y-141911421D01*
X111062936Y-141736445D01*
X111031570Y-141639910D01*
X111008193Y-141567960D01*
X111008192Y-141567957D01*
X110967211Y-141487529D01*
X110927764Y-141410110D01*
X110823633Y-141266786D01*
X110698364Y-141141517D01*
X110555040Y-141037386D01*
X110397192Y-140956957D01*
X110397189Y-140956956D01*
X110228706Y-140902214D01*
X110141217Y-140888357D01*
X110053729Y-140874500D01*
X109876571Y-140874500D01*
X109818245Y-140883738D01*
X109701593Y-140902214D01*
X109533110Y-140956956D01*
X109533107Y-140956957D01*
X109375259Y-141037386D01*
X109311379Y-141083798D01*
X109231936Y-141141517D01*
X109231934Y-141141519D01*
X109231933Y-141141519D01*
X109106669Y-141266783D01*
X109106669Y-141266784D01*
X109106667Y-141266786D01*
X109097201Y-141279815D01*
X109002536Y-141410109D01*
X108922107Y-141567957D01*
X108922106Y-141567960D01*
X108867364Y-141736443D01*
X108839650Y-141911421D01*
X108839650Y-142088578D01*
X108867364Y-142263556D01*
X108922106Y-142432039D01*
X108922107Y-142432042D01*
X108973798Y-142533489D01*
X109002536Y-142589890D01*
X109106667Y-142733214D01*
X109231936Y-142858483D01*
X109375260Y-142962614D01*
X109459879Y-143005729D01*
X109478102Y-143015015D01*
X109528898Y-143062990D01*
X109545693Y-143130811D01*
X109523155Y-143196946D01*
X109468440Y-143240397D01*
X109421807Y-143249500D01*
X107968493Y-143249500D01*
X107901454Y-143229815D01*
X107855699Y-143177011D01*
X107845755Y-143107853D01*
X107874780Y-143044297D01*
X107912198Y-143015015D01*
X107923237Y-143009390D01*
X108015040Y-142962614D01*
X108158364Y-142858483D01*
X108283633Y-142733214D01*
X108387764Y-142589890D01*
X108468192Y-142432042D01*
X108522936Y-142263555D01*
X108550650Y-142088579D01*
X108550650Y-141911421D01*
X108522936Y-141736445D01*
X108491570Y-141639910D01*
X108468193Y-141567960D01*
X108468192Y-141567957D01*
X108427211Y-141487529D01*
X108387764Y-141410110D01*
X108283633Y-141266786D01*
X108158364Y-141141517D01*
X108015040Y-141037386D01*
X107857192Y-140956957D01*
X107857189Y-140956956D01*
X107688706Y-140902214D01*
X107601217Y-140888357D01*
X107513729Y-140874500D01*
X107336571Y-140874500D01*
X107278245Y-140883738D01*
X107161593Y-140902214D01*
X106993110Y-140956956D01*
X106993107Y-140956957D01*
X106835259Y-141037386D01*
X106771379Y-141083798D01*
X106691936Y-141141517D01*
X106691934Y-141141519D01*
X106691933Y-141141519D01*
X106566669Y-141266783D01*
X106566669Y-141266784D01*
X106566667Y-141266786D01*
X106557201Y-141279815D01*
X106462536Y-141410109D01*
X106382107Y-141567957D01*
X106382106Y-141567960D01*
X106327364Y-141736443D01*
X106299650Y-141911421D01*
X106299650Y-142088578D01*
X106327364Y-142263556D01*
X106382106Y-142432039D01*
X106382107Y-142432042D01*
X106433798Y-142533489D01*
X106462536Y-142589890D01*
X106566667Y-142733214D01*
X106691936Y-142858483D01*
X106835260Y-142962614D01*
X106919879Y-143005729D01*
X106938102Y-143015015D01*
X106988898Y-143062990D01*
X107005693Y-143130811D01*
X106983155Y-143196946D01*
X106928440Y-143240397D01*
X106881807Y-143249500D01*
X105427393Y-143249500D01*
X105360354Y-143229815D01*
X105314599Y-143177011D01*
X105304655Y-143107853D01*
X105333680Y-143044297D01*
X105371098Y-143015015D01*
X105474783Y-142962184D01*
X105485784Y-142954189D01*
X105485785Y-142954188D01*
X104973735Y-142442138D01*
X105058844Y-142419333D01*
X105161456Y-142360090D01*
X105245240Y-142276306D01*
X105304483Y-142173694D01*
X105327288Y-142088584D01*
X105839339Y-142600635D01*
X105839339Y-142600634D01*
X105847334Y-142589633D01*
X105927728Y-142431850D01*
X105927730Y-142431847D01*
X105982448Y-142263439D01*
X106010150Y-142088544D01*
X106010150Y-141911455D01*
X105982448Y-141736560D01*
X105927730Y-141568152D01*
X105927729Y-141568149D01*
X105847335Y-141410368D01*
X105839339Y-141399364D01*
X105327288Y-141911414D01*
X105304483Y-141826306D01*
X105245240Y-141723694D01*
X105161456Y-141639910D01*
X105058844Y-141580667D01*
X104973734Y-141557861D01*
X105485785Y-141045811D01*
X105485784Y-141045809D01*
X105474785Y-141037816D01*
X105474771Y-141037808D01*
X105317005Y-140957423D01*
X105316997Y-140957419D01*
X105148589Y-140902701D01*
X104973694Y-140875000D01*
X104796606Y-140875000D01*
X104621710Y-140902701D01*
X104453302Y-140957419D01*
X104453299Y-140957421D01*
X104295516Y-141037815D01*
X104284514Y-141045809D01*
X104284513Y-141045810D01*
X104796565Y-141557861D01*
X104711456Y-141580667D01*
X104608844Y-141639910D01*
X104525060Y-141723694D01*
X104465817Y-141826306D01*
X104443011Y-141911414D01*
X103930960Y-141399363D01*
X103930959Y-141399364D01*
X103922965Y-141410366D01*
X103842571Y-141568149D01*
X103842569Y-141568152D01*
X103787851Y-141736560D01*
X103760150Y-141911455D01*
X103760150Y-142088544D01*
X103787851Y-142263439D01*
X103842569Y-142431847D01*
X103842573Y-142431855D01*
X103922958Y-142589621D01*
X103922966Y-142589635D01*
X103930959Y-142600634D01*
X103930961Y-142600635D01*
X104443011Y-142088584D01*
X104465817Y-142173694D01*
X104525060Y-142276306D01*
X104608844Y-142360090D01*
X104711456Y-142419333D01*
X104796565Y-142442138D01*
X104284514Y-142954189D01*
X104295518Y-142962185D01*
X104399203Y-143015015D01*
X104449999Y-143062990D01*
X104466794Y-143130811D01*
X104444257Y-143196945D01*
X104389542Y-143240397D01*
X104342908Y-143249500D01*
X102887393Y-143249500D01*
X102820354Y-143229815D01*
X102774599Y-143177011D01*
X102764655Y-143107853D01*
X102793680Y-143044297D01*
X102831098Y-143015015D01*
X102934783Y-142962184D01*
X102945784Y-142954189D01*
X102945785Y-142954188D01*
X102433735Y-142442138D01*
X102518844Y-142419333D01*
X102621456Y-142360090D01*
X102705240Y-142276306D01*
X102764483Y-142173694D01*
X102787288Y-142088584D01*
X103299338Y-142600635D01*
X103299339Y-142600634D01*
X103307334Y-142589633D01*
X103387728Y-142431850D01*
X103387730Y-142431847D01*
X103442448Y-142263439D01*
X103470150Y-142088544D01*
X103470150Y-141911455D01*
X103442448Y-141736560D01*
X103387730Y-141568152D01*
X103387729Y-141568149D01*
X103307335Y-141410368D01*
X103299339Y-141399364D01*
X102787288Y-141911414D01*
X102764483Y-141826306D01*
X102705240Y-141723694D01*
X102621456Y-141639910D01*
X102518844Y-141580667D01*
X102433734Y-141557861D01*
X102945785Y-141045810D01*
X102945784Y-141045809D01*
X102934785Y-141037816D01*
X102934771Y-141037808D01*
X102777005Y-140957423D01*
X102776997Y-140957419D01*
X102608589Y-140902701D01*
X102433694Y-140875000D01*
X102256606Y-140875000D01*
X102081710Y-140902701D01*
X101913302Y-140957419D01*
X101913299Y-140957421D01*
X101755516Y-141037815D01*
X101744514Y-141045809D01*
X101744513Y-141045810D01*
X102256565Y-141557861D01*
X102171456Y-141580667D01*
X102068844Y-141639910D01*
X101985060Y-141723694D01*
X101925817Y-141826306D01*
X101903011Y-141911414D01*
X101390960Y-141399363D01*
X101390959Y-141399364D01*
X101382965Y-141410366D01*
X101302571Y-141568149D01*
X101302569Y-141568152D01*
X101247851Y-141736560D01*
X101220150Y-141911455D01*
X101220150Y-142088544D01*
X101247851Y-142263439D01*
X101302569Y-142431847D01*
X101302573Y-142431855D01*
X101382958Y-142589621D01*
X101382966Y-142589635D01*
X101390959Y-142600634D01*
X101390961Y-142600635D01*
X101903011Y-142088584D01*
X101925817Y-142173694D01*
X101985060Y-142276306D01*
X102068844Y-142360090D01*
X102171456Y-142419333D01*
X102256565Y-142442138D01*
X101744514Y-142954189D01*
X101755518Y-142962185D01*
X101859203Y-143015015D01*
X101909999Y-143062990D01*
X101926794Y-143130811D01*
X101904257Y-143196945D01*
X101849542Y-143240397D01*
X101802908Y-143249500D01*
X100348493Y-143249500D01*
X100281454Y-143229815D01*
X100235699Y-143177011D01*
X100225755Y-143107853D01*
X100254780Y-143044297D01*
X100292198Y-143015015D01*
X100303237Y-143009390D01*
X100395040Y-142962614D01*
X100538364Y-142858483D01*
X100663633Y-142733214D01*
X100767764Y-142589890D01*
X100848192Y-142432042D01*
X100902936Y-142263555D01*
X100930650Y-142088579D01*
X100930650Y-141911421D01*
X100902936Y-141736445D01*
X100871570Y-141639910D01*
X100848193Y-141567960D01*
X100848192Y-141567957D01*
X100807211Y-141487529D01*
X100767764Y-141410110D01*
X100663633Y-141266786D01*
X100538364Y-141141517D01*
X100395040Y-141037386D01*
X100237192Y-140956957D01*
X100237189Y-140956956D01*
X100068706Y-140902214D01*
X99981217Y-140888357D01*
X99893729Y-140874500D01*
X99716571Y-140874500D01*
X99658245Y-140883738D01*
X99541593Y-140902214D01*
X99373110Y-140956956D01*
X99373107Y-140956957D01*
X99215259Y-141037386D01*
X99151379Y-141083798D01*
X99071936Y-141141517D01*
X99071934Y-141141519D01*
X99071933Y-141141519D01*
X98946669Y-141266783D01*
X98946669Y-141266784D01*
X98946667Y-141266786D01*
X98937201Y-141279815D01*
X98842536Y-141410109D01*
X98762107Y-141567957D01*
X98762106Y-141567960D01*
X98707364Y-141736443D01*
X98679650Y-141911421D01*
X98679650Y-142088578D01*
X98707364Y-142263556D01*
X98762106Y-142432039D01*
X98762107Y-142432042D01*
X98813798Y-142533489D01*
X98842536Y-142589890D01*
X98946667Y-142733214D01*
X99071936Y-142858483D01*
X99215260Y-142962614D01*
X99299879Y-143005729D01*
X99318102Y-143015015D01*
X99368898Y-143062990D01*
X99385693Y-143130811D01*
X99363155Y-143196946D01*
X99308440Y-143240397D01*
X99261807Y-143249500D01*
X97808493Y-143249500D01*
X97741454Y-143229815D01*
X97695699Y-143177011D01*
X97685755Y-143107853D01*
X97714780Y-143044297D01*
X97752198Y-143015015D01*
X97763237Y-143009390D01*
X97855040Y-142962614D01*
X97998364Y-142858483D01*
X98123633Y-142733214D01*
X98227764Y-142589890D01*
X98308192Y-142432042D01*
X98362936Y-142263555D01*
X98390650Y-142088579D01*
X98390650Y-141911421D01*
X98362936Y-141736445D01*
X98331570Y-141639910D01*
X98308193Y-141567960D01*
X98308192Y-141567957D01*
X98267211Y-141487529D01*
X98227764Y-141410110D01*
X98123633Y-141266786D01*
X98001968Y-141145121D01*
X97968484Y-141083798D01*
X97965650Y-141057440D01*
X97965650Y-140021156D01*
X97961901Y-140002311D01*
X97950655Y-139945775D01*
X97938730Y-139885822D01*
X97885925Y-139758339D01*
X97809264Y-139643607D01*
X97809262Y-139643604D01*
X94871545Y-136705887D01*
X94756807Y-136629222D01*
X94629332Y-136576421D01*
X94629322Y-136576418D01*
X94493996Y-136549500D01*
X94493994Y-136549500D01*
X94493993Y-136549500D01*
X87850316Y-136549500D01*
X87802864Y-136540061D01*
X87658501Y-136480264D01*
X87658489Y-136480261D01*
X87503845Y-136449500D01*
X87503842Y-136449500D01*
X87346158Y-136449500D01*
X87346155Y-136449500D01*
X87191510Y-136480261D01*
X87191498Y-136480264D01*
X87045827Y-136540602D01*
X87045814Y-136540609D01*
X86914711Y-136628210D01*
X86914707Y-136628213D01*
X86803213Y-136739707D01*
X86803210Y-136739711D01*
X86715609Y-136870814D01*
X86715602Y-136870827D01*
X86655264Y-137016498D01*
X86655261Y-137016510D01*
X86624500Y-137171153D01*
X86624500Y-137328846D01*
X86655261Y-137483489D01*
X86655264Y-137483501D01*
X86715602Y-137629172D01*
X86715609Y-137629185D01*
X86803210Y-137760288D01*
X86803213Y-137760292D01*
X86914707Y-137871786D01*
X86914711Y-137871789D01*
X87045814Y-137959390D01*
X87045827Y-137959397D01*
X87112031Y-137986819D01*
X87191503Y-138019737D01*
X87346153Y-138050499D01*
X87346156Y-138050500D01*
X87346158Y-138050500D01*
X87503844Y-138050500D01*
X87503845Y-138050499D01*
X87658497Y-138019737D01*
X87737969Y-137986819D01*
X87802864Y-137959939D01*
X87850316Y-137950500D01*
X94083481Y-137950500D01*
X94150520Y-137970185D01*
X94171162Y-137986819D01*
X96528331Y-140343988D01*
X96561816Y-140405311D01*
X96564650Y-140431669D01*
X96564650Y-141057440D01*
X96544965Y-141124479D01*
X96528332Y-141145121D01*
X96406666Y-141266787D01*
X96302536Y-141410109D01*
X96222107Y-141567957D01*
X96222106Y-141567960D01*
X96167364Y-141736443D01*
X96139650Y-141911421D01*
X96139650Y-142088578D01*
X96167364Y-142263556D01*
X96222106Y-142432039D01*
X96222107Y-142432042D01*
X96273798Y-142533489D01*
X96302536Y-142589890D01*
X96406667Y-142733214D01*
X96531936Y-142858483D01*
X96675260Y-142962614D01*
X96759879Y-143005729D01*
X96778102Y-143015015D01*
X96828898Y-143062990D01*
X96845693Y-143130811D01*
X96823155Y-143196946D01*
X96768440Y-143240397D01*
X96721807Y-143249500D01*
X95268493Y-143249500D01*
X95201454Y-143229815D01*
X95155699Y-143177011D01*
X95145755Y-143107853D01*
X95174780Y-143044297D01*
X95212198Y-143015015D01*
X95223237Y-143009390D01*
X95315040Y-142962614D01*
X95458364Y-142858483D01*
X95583633Y-142733214D01*
X95687764Y-142589890D01*
X95768192Y-142432042D01*
X95822936Y-142263555D01*
X95850650Y-142088579D01*
X95850650Y-141911421D01*
X95822936Y-141736445D01*
X95791570Y-141639910D01*
X95768193Y-141567960D01*
X95768192Y-141567957D01*
X95727211Y-141487529D01*
X95687764Y-141410110D01*
X95583633Y-141266786D01*
X95458364Y-141141517D01*
X95315040Y-141037386D01*
X95157192Y-140956957D01*
X95157189Y-140956956D01*
X94988706Y-140902214D01*
X94901217Y-140888357D01*
X94813729Y-140874500D01*
X94636571Y-140874500D01*
X94578245Y-140883738D01*
X94461593Y-140902214D01*
X94293110Y-140956956D01*
X94293107Y-140956957D01*
X94135259Y-141037386D01*
X94071379Y-141083798D01*
X93991936Y-141141517D01*
X93991934Y-141141519D01*
X93991933Y-141141519D01*
X93870272Y-141263181D01*
X93808949Y-141296666D01*
X93782591Y-141299500D01*
X87691519Y-141299500D01*
X87624480Y-141279815D01*
X87603838Y-141263181D01*
X85411819Y-139071162D01*
X85378334Y-139009839D01*
X85375500Y-138983481D01*
X85375500Y-117281004D01*
X85348581Y-117145677D01*
X85348580Y-117145676D01*
X85348580Y-117145672D01*
X85321977Y-117081446D01*
X85295776Y-117018191D01*
X85295314Y-117017500D01*
X85223489Y-116910005D01*
X85219114Y-116903457D01*
X83233190Y-114917533D01*
X80971546Y-112655888D01*
X80971545Y-112655887D01*
X80856807Y-112579222D01*
X80729332Y-112526421D01*
X80729322Y-112526418D01*
X80593996Y-112499500D01*
X80593994Y-112499500D01*
X80593993Y-112499500D01*
X75774774Y-112499500D01*
X75707735Y-112479815D01*
X75674457Y-112448387D01*
X75622981Y-112377536D01*
X75482464Y-112237019D01*
X75321694Y-112120213D01*
X75165218Y-112040484D01*
X75114423Y-111992510D01*
X75097628Y-111924689D01*
X75120165Y-111858554D01*
X75165218Y-111819515D01*
X75321694Y-111739787D01*
X75482464Y-111622981D01*
X75622981Y-111482464D01*
X75739787Y-111321694D01*
X75830005Y-111144632D01*
X75891413Y-110955636D01*
X75922500Y-110759361D01*
X75922500Y-110560639D01*
X75891413Y-110364364D01*
X75830005Y-110175368D01*
X75830005Y-110175367D01*
X75739786Y-109998305D01*
X75622981Y-109837536D01*
X75482464Y-109697019D01*
X75321694Y-109580213D01*
X75165218Y-109500484D01*
X75114423Y-109452510D01*
X75097628Y-109384689D01*
X75120165Y-109318554D01*
X75165218Y-109279515D01*
X75321694Y-109199787D01*
X75482464Y-109082981D01*
X75622981Y-108942464D01*
X75739787Y-108781694D01*
X75830005Y-108604632D01*
X75891413Y-108415636D01*
X75922500Y-108219361D01*
X75922500Y-108020639D01*
X75891413Y-107824364D01*
X75830005Y-107635368D01*
X75830005Y-107635367D01*
X75739786Y-107458305D01*
X75622981Y-107297536D01*
X75482464Y-107157019D01*
X75321694Y-107040213D01*
X75165218Y-106960484D01*
X75114423Y-106912510D01*
X75097628Y-106844689D01*
X75120165Y-106778554D01*
X75165218Y-106739515D01*
X75321694Y-106659787D01*
X75482464Y-106542981D01*
X75622981Y-106402464D01*
X75674457Y-106331613D01*
X75729786Y-106288949D01*
X75774774Y-106280500D01*
X82738996Y-106280500D01*
X82844662Y-106259481D01*
X82874328Y-106253580D01*
X82938069Y-106227177D01*
X83001807Y-106200777D01*
X83001808Y-106200776D01*
X83001811Y-106200775D01*
X83116543Y-106124114D01*
X86712819Y-102527838D01*
X86774142Y-102494353D01*
X86843834Y-102499337D01*
G37*
%TD.AperFunction*%
%TA.AperFunction,Conductor*%
G36*
X135146619Y-115936081D02*
G01*
X135213498Y-116051920D01*
X135308080Y-116146502D01*
X135423919Y-116213381D01*
X135484057Y-116229494D01*
X134921283Y-116792268D01*
X134921283Y-116792269D01*
X134958567Y-116819358D01*
X135115331Y-116899234D01*
X135166127Y-116947209D01*
X135182922Y-117015030D01*
X135160384Y-117081165D01*
X135115331Y-117120204D01*
X134958305Y-117200213D01*
X134797533Y-117317021D01*
X134657021Y-117457533D01*
X134540213Y-117618305D01*
X134460485Y-117774780D01*
X134412510Y-117825576D01*
X134344689Y-117842371D01*
X134278554Y-117819833D01*
X134239515Y-117774780D01*
X134183661Y-117665161D01*
X134159787Y-117618306D01*
X134042981Y-117457536D01*
X133902464Y-117317019D01*
X133741694Y-117200213D01*
X133585218Y-117120484D01*
X133534423Y-117072510D01*
X133517628Y-117004689D01*
X133540165Y-116938554D01*
X133585218Y-116899515D01*
X133741694Y-116819787D01*
X133902464Y-116702981D01*
X134042981Y-116562464D01*
X134159787Y-116401694D01*
X134239796Y-116244667D01*
X134287769Y-116193872D01*
X134355590Y-116177077D01*
X134421725Y-116199614D01*
X134460765Y-116244668D01*
X134540641Y-116401432D01*
X134567730Y-116438715D01*
X134567731Y-116438716D01*
X135130504Y-115875942D01*
X135146619Y-115936081D01*
G37*
%TD.AperFunction*%
%TA.AperFunction,Conductor*%
G36*
X134421446Y-113660165D02*
G01*
X134460484Y-113705218D01*
X134540213Y-113861694D01*
X134657019Y-114022464D01*
X134797536Y-114162981D01*
X134958306Y-114279787D01*
X135115332Y-114359796D01*
X135166127Y-114407769D01*
X135182922Y-114475590D01*
X135160385Y-114541725D01*
X135115332Y-114580764D01*
X134958566Y-114660641D01*
X134921283Y-114687729D01*
X134921282Y-114687730D01*
X135484058Y-115250504D01*
X135423919Y-115266619D01*
X135308080Y-115333498D01*
X135213498Y-115428080D01*
X135146619Y-115543919D01*
X135130504Y-115604057D01*
X134567730Y-115041282D01*
X134567729Y-115041283D01*
X134540641Y-115078566D01*
X134460764Y-115235332D01*
X134412790Y-115286127D01*
X134344969Y-115302922D01*
X134278834Y-115280384D01*
X134239796Y-115235332D01*
X134159787Y-115078306D01*
X134042981Y-114917536D01*
X133902464Y-114777019D01*
X133741694Y-114660213D01*
X133585218Y-114580484D01*
X133534423Y-114532510D01*
X133517628Y-114464689D01*
X133540165Y-114398554D01*
X133585218Y-114359515D01*
X133741694Y-114279787D01*
X133902464Y-114162981D01*
X134042981Y-114022464D01*
X134159787Y-113861694D01*
X134239515Y-113705218D01*
X134287490Y-113654423D01*
X134355311Y-113637628D01*
X134421446Y-113660165D01*
G37*
%TD.AperFunction*%
%TA.AperFunction,Conductor*%
G36*
X135420179Y-39753999D02*
G01*
X135459219Y-39799054D01*
X135463326Y-39807115D01*
X135463686Y-39807820D01*
X135588625Y-39979786D01*
X135738946Y-40130107D01*
X135809935Y-40181682D01*
X135867120Y-40223229D01*
X135909786Y-40278558D01*
X135918235Y-40323547D01*
X135918235Y-45474741D01*
X135918235Y-45612729D01*
X135918235Y-45612731D01*
X135918234Y-45612731D01*
X135945153Y-45748057D01*
X135945156Y-45748067D01*
X135997957Y-45875542D01*
X136074622Y-45990280D01*
X136074623Y-45990281D01*
X139863181Y-49778838D01*
X139896666Y-49840161D01*
X139899500Y-49866519D01*
X139899500Y-105483481D01*
X139879815Y-105550520D01*
X139863181Y-105571162D01*
X138051162Y-107383181D01*
X137989839Y-107416666D01*
X137963481Y-107419500D01*
X136734774Y-107419500D01*
X136667735Y-107399815D01*
X136634457Y-107368387D01*
X136582981Y-107297536D01*
X136442464Y-107157019D01*
X136281694Y-107040213D01*
X136125218Y-106960484D01*
X136074423Y-106912510D01*
X136057628Y-106844689D01*
X136080165Y-106778554D01*
X136125218Y-106739515D01*
X136281694Y-106659787D01*
X136442464Y-106542981D01*
X136582981Y-106402464D01*
X136699787Y-106241694D01*
X136790005Y-106064632D01*
X136851413Y-105875636D01*
X136882500Y-105679361D01*
X136882500Y-105480639D01*
X136851413Y-105284364D01*
X136790005Y-105095368D01*
X136790005Y-105095367D01*
X136720636Y-104959225D01*
X136699787Y-104918306D01*
X136582981Y-104757536D01*
X136442464Y-104617019D01*
X136281694Y-104500213D01*
X136125218Y-104420484D01*
X136074423Y-104372510D01*
X136057628Y-104304689D01*
X136080165Y-104238554D01*
X136125218Y-104199515D01*
X136281694Y-104119787D01*
X136442464Y-104002981D01*
X136582981Y-103862464D01*
X136699787Y-103701694D01*
X136790005Y-103524632D01*
X136851413Y-103335636D01*
X136882500Y-103139361D01*
X136882500Y-102940639D01*
X136851413Y-102744364D01*
X136790005Y-102555368D01*
X136790005Y-102555367D01*
X136720636Y-102419224D01*
X136699787Y-102378306D01*
X136582981Y-102217536D01*
X136442464Y-102077019D01*
X136281694Y-101960213D01*
X136124667Y-101880203D01*
X136073872Y-101832229D01*
X136057077Y-101764408D01*
X136079614Y-101698273D01*
X136124669Y-101659234D01*
X136281422Y-101579364D01*
X136318716Y-101552268D01*
X135755942Y-100989494D01*
X135816081Y-100973381D01*
X135931920Y-100906502D01*
X136026502Y-100811920D01*
X136093381Y-100696081D01*
X136109495Y-100635942D01*
X136672268Y-101198715D01*
X136699362Y-101161425D01*
X136789542Y-100984437D01*
X136850924Y-100795523D01*
X136850924Y-100795520D01*
X136882000Y-100599321D01*
X136882000Y-100400678D01*
X136850924Y-100204479D01*
X136850924Y-100204476D01*
X136789542Y-100015562D01*
X136699358Y-99838567D01*
X136672268Y-99801283D01*
X136109494Y-100364057D01*
X136093381Y-100303919D01*
X136026502Y-100188080D01*
X135931920Y-100093498D01*
X135816081Y-100026619D01*
X135755942Y-100010504D01*
X136318716Y-99447731D01*
X136318715Y-99447730D01*
X136281432Y-99420641D01*
X136124668Y-99340765D01*
X136073872Y-99292790D01*
X136057077Y-99224969D01*
X136079615Y-99158834D01*
X136124667Y-99119796D01*
X136281694Y-99039787D01*
X136442464Y-98922981D01*
X136582981Y-98782464D01*
X136699787Y-98621694D01*
X136790005Y-98444632D01*
X136851413Y-98255636D01*
X136882500Y-98059361D01*
X136882500Y-97860639D01*
X136851413Y-97664364D01*
X136790005Y-97475368D01*
X136790005Y-97475367D01*
X136699786Y-97298305D01*
X136582981Y-97137536D01*
X136442464Y-96997019D01*
X136281694Y-96880213D01*
X136125218Y-96800484D01*
X136074423Y-96752510D01*
X136057628Y-96684689D01*
X136080165Y-96618554D01*
X136125218Y-96579515D01*
X136281694Y-96499787D01*
X136442464Y-96382981D01*
X136582981Y-96242464D01*
X136699787Y-96081694D01*
X136790005Y-95904632D01*
X136851413Y-95715636D01*
X136882500Y-95519361D01*
X136882500Y-95320639D01*
X136851413Y-95124364D01*
X136790005Y-94935368D01*
X136790005Y-94935367D01*
X136744035Y-94845149D01*
X136699787Y-94758306D01*
X136582981Y-94597536D01*
X136442464Y-94457019D01*
X136281694Y-94340213D01*
X136125218Y-94260484D01*
X136074423Y-94212510D01*
X136057628Y-94144689D01*
X136080165Y-94078554D01*
X136125218Y-94039515D01*
X136281694Y-93959787D01*
X136442464Y-93842981D01*
X136582981Y-93702464D01*
X136699787Y-93541694D01*
X136790005Y-93364632D01*
X136851413Y-93175636D01*
X136882500Y-92979361D01*
X136882500Y-92780639D01*
X136851413Y-92584364D01*
X136790005Y-92395368D01*
X136790005Y-92395367D01*
X136699786Y-92218305D01*
X136691150Y-92206418D01*
X136582981Y-92057536D01*
X136442464Y-91917019D01*
X136281694Y-91800213D01*
X136125218Y-91720484D01*
X136074423Y-91672510D01*
X136057628Y-91604689D01*
X136080165Y-91538554D01*
X136125218Y-91499515D01*
X136281694Y-91419787D01*
X136442464Y-91302981D01*
X136582981Y-91162464D01*
X136699787Y-91001694D01*
X136790005Y-90824632D01*
X136851413Y-90635636D01*
X136882500Y-90439361D01*
X136882500Y-90240639D01*
X136851413Y-90044364D01*
X136790005Y-89855368D01*
X136790005Y-89855367D01*
X136699786Y-89678305D01*
X136582981Y-89517536D01*
X136442464Y-89377019D01*
X136281694Y-89260213D01*
X136125218Y-89180484D01*
X136074423Y-89132510D01*
X136057628Y-89064689D01*
X136080165Y-88998554D01*
X136125218Y-88959515D01*
X136281694Y-88879787D01*
X136442464Y-88762981D01*
X136582981Y-88622464D01*
X136699787Y-88461694D01*
X136790005Y-88284632D01*
X136851413Y-88095636D01*
X136882500Y-87899361D01*
X136882500Y-87700639D01*
X136851413Y-87504364D01*
X136790005Y-87315368D01*
X136790005Y-87315367D01*
X136744035Y-87225149D01*
X136699787Y-87138306D01*
X136582981Y-86977536D01*
X136442464Y-86837019D01*
X136281694Y-86720213D01*
X136125218Y-86640484D01*
X136074423Y-86592510D01*
X136057628Y-86524689D01*
X136080165Y-86458554D01*
X136125218Y-86419515D01*
X136281694Y-86339787D01*
X136442464Y-86222981D01*
X136582981Y-86082464D01*
X136699787Y-85921694D01*
X136790005Y-85744632D01*
X136851413Y-85555636D01*
X136882500Y-85359361D01*
X136882500Y-85160639D01*
X136851413Y-84964364D01*
X136790005Y-84775368D01*
X136790005Y-84775367D01*
X136744035Y-84685149D01*
X136699787Y-84598306D01*
X136582981Y-84437536D01*
X136442464Y-84297019D01*
X136281694Y-84180213D01*
X136125218Y-84100484D01*
X136074423Y-84052510D01*
X136057628Y-83984689D01*
X136080165Y-83918554D01*
X136125218Y-83879515D01*
X136281694Y-83799787D01*
X136442464Y-83682981D01*
X136582981Y-83542464D01*
X136699787Y-83381694D01*
X136790005Y-83204632D01*
X136851413Y-83015636D01*
X136882500Y-82819361D01*
X136882500Y-82620639D01*
X136851413Y-82424364D01*
X136790005Y-82235368D01*
X136790005Y-82235367D01*
X136699786Y-82058305D01*
X136582981Y-81897536D01*
X136442464Y-81757019D01*
X136281694Y-81640213D01*
X136125218Y-81560484D01*
X136074423Y-81512510D01*
X136057628Y-81444689D01*
X136080165Y-81378554D01*
X136125218Y-81339515D01*
X136281694Y-81259787D01*
X136442464Y-81142981D01*
X136582981Y-81002464D01*
X136634457Y-80931613D01*
X136689786Y-80888949D01*
X136734774Y-80880500D01*
X137113996Y-80880500D01*
X137205040Y-80862389D01*
X137249328Y-80853580D01*
X137326822Y-80821481D01*
X137376807Y-80800777D01*
X137376808Y-80800776D01*
X137376811Y-80800775D01*
X137491543Y-80724114D01*
X138819114Y-79396543D01*
X138895775Y-79281811D01*
X138948580Y-79154328D01*
X138959344Y-79100213D01*
X138975500Y-79018996D01*
X138975500Y-51831004D01*
X138948581Y-51695677D01*
X138948580Y-51695676D01*
X138948580Y-51695672D01*
X138948578Y-51695667D01*
X138895777Y-51568192D01*
X138819112Y-51453454D01*
X134815554Y-47449896D01*
X134782069Y-47388573D01*
X134779235Y-47362215D01*
X134779235Y-40323547D01*
X134798920Y-40256508D01*
X134830349Y-40223230D01*
X134958527Y-40130104D01*
X135108839Y-39979792D01*
X135108841Y-39979788D01*
X135108844Y-39979786D01*
X135233783Y-39807820D01*
X135233782Y-39807820D01*
X135233786Y-39807816D01*
X135238249Y-39799054D01*
X135286223Y-39748259D01*
X135354043Y-39731463D01*
X135420179Y-39753999D01*
G37*
%TD.AperFunction*%
%TA.AperFunction,Conductor*%
G36*
X74186619Y-103236081D02*
G01*
X74253498Y-103351920D01*
X74348080Y-103446502D01*
X74463919Y-103513381D01*
X74524057Y-103529494D01*
X73961283Y-104092268D01*
X73961283Y-104092269D01*
X73998567Y-104119358D01*
X74155331Y-104199234D01*
X74206127Y-104247209D01*
X74222922Y-104315030D01*
X74200384Y-104381165D01*
X74155331Y-104420204D01*
X73998305Y-104500213D01*
X73837533Y-104617021D01*
X73697021Y-104757533D01*
X73580213Y-104918305D01*
X73500485Y-105074780D01*
X73452510Y-105125576D01*
X73384689Y-105142371D01*
X73318554Y-105119833D01*
X73279515Y-105074780D01*
X73220636Y-104959225D01*
X73199787Y-104918306D01*
X73082981Y-104757536D01*
X72942464Y-104617019D01*
X72781694Y-104500213D01*
X72625218Y-104420484D01*
X72574423Y-104372510D01*
X72557628Y-104304689D01*
X72580165Y-104238554D01*
X72625218Y-104199515D01*
X72781694Y-104119787D01*
X72942464Y-104002981D01*
X73082981Y-103862464D01*
X73199787Y-103701694D01*
X73279796Y-103544667D01*
X73327769Y-103493872D01*
X73395590Y-103477077D01*
X73461725Y-103499614D01*
X73500765Y-103544668D01*
X73580641Y-103701432D01*
X73607730Y-103738715D01*
X73607731Y-103738716D01*
X74170504Y-103175942D01*
X74186619Y-103236081D01*
G37*
%TD.AperFunction*%
%TA.AperFunction,Conductor*%
G36*
X74186619Y-100696081D02*
G01*
X74253498Y-100811920D01*
X74348080Y-100906502D01*
X74463919Y-100973381D01*
X74524057Y-100989494D01*
X73961283Y-101552268D01*
X73961283Y-101552269D01*
X73998567Y-101579358D01*
X74155882Y-101659515D01*
X74206678Y-101707490D01*
X74223473Y-101775311D01*
X74200935Y-101841446D01*
X74155882Y-101880485D01*
X73998564Y-101960643D01*
X73961283Y-101987729D01*
X73961282Y-101987730D01*
X74524058Y-102550504D01*
X74463919Y-102566619D01*
X74348080Y-102633498D01*
X74253498Y-102728080D01*
X74186619Y-102843919D01*
X74170504Y-102904057D01*
X73607730Y-102341282D01*
X73607729Y-102341283D01*
X73580641Y-102378566D01*
X73500764Y-102535332D01*
X73452790Y-102586127D01*
X73384969Y-102602922D01*
X73318834Y-102580384D01*
X73279796Y-102535332D01*
X73199787Y-102378306D01*
X73082981Y-102217536D01*
X72942464Y-102077019D01*
X72781694Y-101960213D01*
X72624667Y-101880203D01*
X72573872Y-101832229D01*
X72557077Y-101764408D01*
X72579614Y-101698273D01*
X72624669Y-101659234D01*
X72781422Y-101579364D01*
X72818716Y-101552268D01*
X72255942Y-100989494D01*
X72316081Y-100973381D01*
X72431920Y-100906502D01*
X72526502Y-100811920D01*
X72593381Y-100696081D01*
X72609495Y-100635942D01*
X73172268Y-101198715D01*
X73199362Y-101161425D01*
X73279515Y-101004117D01*
X73327489Y-100953321D01*
X73395310Y-100936526D01*
X73461445Y-100959063D01*
X73500485Y-101004117D01*
X73580641Y-101161432D01*
X73607730Y-101198715D01*
X73607731Y-101198716D01*
X74170504Y-100635942D01*
X74186619Y-100696081D01*
G37*
%TD.AperFunction*%
%TA.AperFunction,Conductor*%
G36*
X135146619Y-100696081D02*
G01*
X135213498Y-100811920D01*
X135308080Y-100906502D01*
X135423919Y-100973381D01*
X135484057Y-100989494D01*
X134921283Y-101552268D01*
X134921283Y-101552269D01*
X134958567Y-101579358D01*
X135115331Y-101659234D01*
X135166127Y-101707209D01*
X135182922Y-101775030D01*
X135160384Y-101841165D01*
X135115331Y-101880204D01*
X134958305Y-101960213D01*
X134797533Y-102077021D01*
X134657021Y-102217533D01*
X134540213Y-102378305D01*
X134460485Y-102534780D01*
X134412510Y-102585576D01*
X134344689Y-102602371D01*
X134278554Y-102579833D01*
X134239515Y-102534780D01*
X134180636Y-102419224D01*
X134159787Y-102378306D01*
X134042981Y-102217536D01*
X133902464Y-102077019D01*
X133741694Y-101960213D01*
X133585218Y-101880484D01*
X133534423Y-101832510D01*
X133517628Y-101764689D01*
X133540165Y-101698554D01*
X133585218Y-101659515D01*
X133741694Y-101579787D01*
X133902464Y-101462981D01*
X134042981Y-101322464D01*
X134159787Y-101161694D01*
X134239796Y-101004667D01*
X134287769Y-100953872D01*
X134355590Y-100937077D01*
X134421725Y-100959614D01*
X134460765Y-101004668D01*
X134540641Y-101161432D01*
X134567730Y-101198715D01*
X134567731Y-101198716D01*
X135130504Y-100635942D01*
X135146619Y-100696081D01*
G37*
%TD.AperFunction*%
%TA.AperFunction,Conductor*%
G36*
X73461446Y-98420165D02*
G01*
X73500484Y-98465218D01*
X73580213Y-98621694D01*
X73697019Y-98782464D01*
X73837536Y-98922981D01*
X73998306Y-99039787D01*
X74155332Y-99119796D01*
X74206127Y-99167769D01*
X74222922Y-99235590D01*
X74200385Y-99301725D01*
X74155332Y-99340764D01*
X73998566Y-99420641D01*
X73961283Y-99447729D01*
X73961282Y-99447730D01*
X74524058Y-100010504D01*
X74463919Y-100026619D01*
X74348080Y-100093498D01*
X74253498Y-100188080D01*
X74186619Y-100303919D01*
X74170504Y-100364057D01*
X73607730Y-99801282D01*
X73607729Y-99801283D01*
X73580643Y-99838564D01*
X73500485Y-99995882D01*
X73452510Y-100046678D01*
X73384689Y-100063473D01*
X73318554Y-100040935D01*
X73279515Y-99995882D01*
X73199358Y-99838567D01*
X73172268Y-99801283D01*
X72609494Y-100364057D01*
X72593381Y-100303919D01*
X72526502Y-100188080D01*
X72431920Y-100093498D01*
X72316081Y-100026619D01*
X72255942Y-100010504D01*
X72818716Y-99447731D01*
X72818715Y-99447730D01*
X72781432Y-99420641D01*
X72624668Y-99340765D01*
X72573872Y-99292790D01*
X72557077Y-99224969D01*
X72579615Y-99158834D01*
X72624667Y-99119796D01*
X72781694Y-99039787D01*
X72942464Y-98922981D01*
X73082981Y-98782464D01*
X73199787Y-98621694D01*
X73279515Y-98465218D01*
X73327490Y-98414423D01*
X73395311Y-98397628D01*
X73461446Y-98420165D01*
G37*
%TD.AperFunction*%
%TA.AperFunction,Conductor*%
G36*
X134421446Y-98420165D02*
G01*
X134460484Y-98465218D01*
X134540213Y-98621694D01*
X134657019Y-98782464D01*
X134797536Y-98922981D01*
X134958306Y-99039787D01*
X135115332Y-99119796D01*
X135166127Y-99167769D01*
X135182922Y-99235590D01*
X135160385Y-99301725D01*
X135115332Y-99340764D01*
X134958566Y-99420641D01*
X134921283Y-99447729D01*
X134921282Y-99447730D01*
X135484058Y-100010504D01*
X135423919Y-100026619D01*
X135308080Y-100093498D01*
X135213498Y-100188080D01*
X135146619Y-100303919D01*
X135130504Y-100364057D01*
X134567730Y-99801282D01*
X134567729Y-99801283D01*
X134540641Y-99838566D01*
X134460764Y-99995332D01*
X134412790Y-100046127D01*
X134344969Y-100062922D01*
X134278834Y-100040384D01*
X134239796Y-99995332D01*
X134159787Y-99838306D01*
X134042981Y-99677536D01*
X133902464Y-99537019D01*
X133741694Y-99420213D01*
X133585218Y-99340484D01*
X133534423Y-99292510D01*
X133517628Y-99224689D01*
X133540165Y-99158554D01*
X133585218Y-99119515D01*
X133741694Y-99039787D01*
X133902464Y-98922981D01*
X134042981Y-98782464D01*
X134159787Y-98621694D01*
X134239515Y-98465218D01*
X134287490Y-98414423D01*
X134355311Y-98397628D01*
X134421446Y-98420165D01*
G37*
%TD.AperFunction*%
%TA.AperFunction,Conductor*%
G36*
X134132268Y-88498715D02*
G01*
X134159364Y-88461422D01*
X134239234Y-88304669D01*
X134287208Y-88253872D01*
X134355029Y-88237077D01*
X134421164Y-88259614D01*
X134460203Y-88304667D01*
X134540213Y-88461694D01*
X134657019Y-88622464D01*
X134797536Y-88762981D01*
X134958306Y-88879787D01*
X135076832Y-88940179D01*
X135114780Y-88959515D01*
X135165576Y-89007490D01*
X135182371Y-89075311D01*
X135159833Y-89141446D01*
X135114780Y-89180485D01*
X134958305Y-89260213D01*
X134797533Y-89377021D01*
X134657021Y-89517533D01*
X134540213Y-89678305D01*
X134460485Y-89834780D01*
X134412510Y-89885576D01*
X134344689Y-89902371D01*
X134278554Y-89879833D01*
X134239515Y-89834780D01*
X134159786Y-89678305D01*
X134042981Y-89517536D01*
X133902464Y-89377019D01*
X133741694Y-89260213D01*
X133584667Y-89180203D01*
X133533872Y-89132229D01*
X133517077Y-89064408D01*
X133539614Y-88998273D01*
X133584669Y-88959234D01*
X133741422Y-88879364D01*
X133778716Y-88852268D01*
X133215942Y-88289494D01*
X133276081Y-88273381D01*
X133391920Y-88206502D01*
X133486502Y-88111920D01*
X133553381Y-87996081D01*
X133569495Y-87935942D01*
X134132268Y-88498715D01*
G37*
%TD.AperFunction*%
%TA.AperFunction,Conductor*%
G36*
X134421446Y-85720165D02*
G01*
X134460484Y-85765218D01*
X134540213Y-85921694D01*
X134657019Y-86082464D01*
X134797536Y-86222981D01*
X134958306Y-86339787D01*
X135076832Y-86400179D01*
X135114780Y-86419515D01*
X135165576Y-86467490D01*
X135182371Y-86535311D01*
X135159833Y-86601446D01*
X135114780Y-86640485D01*
X134958305Y-86720213D01*
X134797533Y-86837021D01*
X134657021Y-86977533D01*
X134540213Y-87138305D01*
X134460204Y-87295331D01*
X134412229Y-87346127D01*
X134344408Y-87362922D01*
X134278273Y-87340384D01*
X134239234Y-87295331D01*
X134159358Y-87138567D01*
X134132268Y-87101283D01*
X133569494Y-87664057D01*
X133553381Y-87603919D01*
X133486502Y-87488080D01*
X133391920Y-87393498D01*
X133276081Y-87326619D01*
X133215942Y-87310504D01*
X133778716Y-86747731D01*
X133778715Y-86747730D01*
X133741432Y-86720641D01*
X133584668Y-86640765D01*
X133533872Y-86592790D01*
X133517077Y-86524969D01*
X133539615Y-86458834D01*
X133584667Y-86419796D01*
X133741694Y-86339787D01*
X133902464Y-86222981D01*
X134042981Y-86082464D01*
X134159787Y-85921694D01*
X134239515Y-85765218D01*
X134287490Y-85714423D01*
X134355311Y-85697628D01*
X134421446Y-85720165D01*
G37*
%TD.AperFunction*%
%TA.AperFunction,Conductor*%
G36*
X74186619Y-85456081D02*
G01*
X74253498Y-85571920D01*
X74348080Y-85666502D01*
X74463919Y-85733381D01*
X74524057Y-85749494D01*
X73961283Y-86312268D01*
X73961283Y-86312269D01*
X73998567Y-86339358D01*
X74155331Y-86419234D01*
X74206127Y-86467209D01*
X74222922Y-86535030D01*
X74200384Y-86601165D01*
X74155331Y-86640204D01*
X73998305Y-86720213D01*
X73837533Y-86837021D01*
X73697021Y-86977533D01*
X73580213Y-87138305D01*
X73500485Y-87294780D01*
X73452510Y-87345576D01*
X73384689Y-87362371D01*
X73318554Y-87339833D01*
X73279515Y-87294780D01*
X73260179Y-87256832D01*
X73199787Y-87138306D01*
X73082981Y-86977536D01*
X72942464Y-86837019D01*
X72781694Y-86720213D01*
X72625218Y-86640484D01*
X72574423Y-86592510D01*
X72557628Y-86524689D01*
X72580165Y-86458554D01*
X72625218Y-86419515D01*
X72781694Y-86339787D01*
X72942464Y-86222981D01*
X73082981Y-86082464D01*
X73199787Y-85921694D01*
X73279796Y-85764667D01*
X73327769Y-85713872D01*
X73395590Y-85697077D01*
X73461725Y-85719614D01*
X73500765Y-85764668D01*
X73580641Y-85921432D01*
X73607730Y-85958715D01*
X73607731Y-85958716D01*
X74170504Y-85395942D01*
X74186619Y-85456081D01*
G37*
%TD.AperFunction*%
%TA.AperFunction,Conductor*%
G36*
X73461446Y-83180165D02*
G01*
X73500484Y-83225218D01*
X73580213Y-83381694D01*
X73697019Y-83542464D01*
X73837536Y-83682981D01*
X73998306Y-83799787D01*
X74155332Y-83879796D01*
X74206127Y-83927769D01*
X74222922Y-83995590D01*
X74200385Y-84061725D01*
X74155332Y-84100764D01*
X73998566Y-84180641D01*
X73961283Y-84207729D01*
X73961282Y-84207730D01*
X74524058Y-84770504D01*
X74463919Y-84786619D01*
X74348080Y-84853498D01*
X74253498Y-84948080D01*
X74186619Y-85063919D01*
X74170504Y-85124057D01*
X73607730Y-84561282D01*
X73607729Y-84561283D01*
X73580641Y-84598566D01*
X73500764Y-84755332D01*
X73452790Y-84806127D01*
X73384969Y-84822922D01*
X73318834Y-84800384D01*
X73279796Y-84755332D01*
X73199787Y-84598306D01*
X73082981Y-84437536D01*
X72942464Y-84297019D01*
X72781694Y-84180213D01*
X72625218Y-84100484D01*
X72574423Y-84052510D01*
X72557628Y-83984689D01*
X72580165Y-83918554D01*
X72625218Y-83879515D01*
X72781694Y-83799787D01*
X72942464Y-83682981D01*
X73082981Y-83542464D01*
X73199787Y-83381694D01*
X73279515Y-83225218D01*
X73327490Y-83174423D01*
X73395311Y-83157628D01*
X73461446Y-83180165D01*
G37*
%TD.AperFunction*%
%TD*%
M02*
