%TF.GenerationSoftware,KiCad,Pcbnew,9.0.4-9.0.4-0~ubuntu25.04.1*%
%TF.CreationDate,2025-10-24T07:51:49+02:00*%
%TF.ProjectId,Line_Follower,4c696e65-5f46-46f6-9c6c-6f7765722e6b,rev?*%
%TF.SameCoordinates,Original*%
%TF.FileFunction,Soldermask,Top*%
%TF.FilePolarity,Negative*%
%FSLAX46Y46*%
G04 Gerber Fmt 4.6, Leading zero omitted, Abs format (unit mm)*
G04 Created by KiCad (PCBNEW 9.0.4-9.0.4-0~ubuntu25.04.1) date 2025-10-24 07:51:49*
%MOMM*%
%LPD*%
G01*
G04 APERTURE LIST*
G04 Aperture macros list*
%AMRoundRect*
0 Rectangle with rounded corners*
0 $1 Rounding radius*
0 $2 $3 $4 $5 $6 $7 $8 $9 X,Y pos of 4 corners*
0 Add a 4 corners polygon primitive as box body*
4,1,4,$2,$3,$4,$5,$6,$7,$8,$9,$2,$3,0*
0 Add four circle primitives for the rounded corners*
1,1,$1+$1,$2,$3*
1,1,$1+$1,$4,$5*
1,1,$1+$1,$6,$7*
1,1,$1+$1,$8,$9*
0 Add four rect primitives between the rounded corners*
20,1,$1+$1,$2,$3,$4,$5,0*
20,1,$1+$1,$4,$5,$6,$7,0*
20,1,$1+$1,$6,$7,$8,$9,0*
20,1,$1+$1,$8,$9,$2,$3,0*%
G04 Aperture macros list end*
%ADD10RoundRect,0.200000X-0.275000X0.200000X-0.275000X-0.200000X0.275000X-0.200000X0.275000X0.200000X0*%
%ADD11C,4.400000*%
%ADD12RoundRect,0.225000X0.250000X-0.225000X0.250000X0.225000X-0.250000X0.225000X-0.250000X-0.225000X0*%
%ADD13RoundRect,0.200000X0.275000X-0.200000X0.275000X0.200000X-0.275000X0.200000X-0.275000X-0.200000X0*%
%ADD14RoundRect,0.218750X0.256250X-0.218750X0.256250X0.218750X-0.256250X0.218750X-0.256250X-0.218750X0*%
%ADD15RoundRect,0.250000X-0.350000X-0.625000X0.350000X-0.625000X0.350000X0.625000X-0.350000X0.625000X0*%
%ADD16O,1.200000X1.750000*%
%ADD17RoundRect,0.150000X-0.150000X0.825000X-0.150000X-0.825000X0.150000X-0.825000X0.150000X0.825000X0*%
G04 APERTURE END LIST*
D10*
%TO.C,R16*%
X129000000Y-99175000D03*
X129000000Y-100825000D03*
%TD*%
D11*
%TO.C,H1*%
X81000000Y-104700000D03*
%TD*%
D12*
%TO.C,C7*%
X98500000Y-100775000D03*
X98500000Y-99225000D03*
%TD*%
D13*
%TO.C,R9*%
X85000000Y-100825000D03*
X85000000Y-99175000D03*
%TD*%
D10*
%TO.C,R1*%
X84200000Y-102175000D03*
X84200000Y-103825000D03*
%TD*%
D11*
%TO.C,H2*%
X104000000Y-104700000D03*
%TD*%
D10*
%TO.C,R12*%
X109000000Y-99175000D03*
X109000000Y-100825000D03*
%TD*%
%TO.C,R10*%
X101500000Y-99175000D03*
X101500000Y-100825000D03*
%TD*%
D13*
%TO.C,R17*%
X127500000Y-100825000D03*
X127500000Y-99175000D03*
%TD*%
D10*
%TO.C,R4*%
X69000000Y-99175000D03*
X69000000Y-100825000D03*
%TD*%
D14*
%TO.C,D1*%
X84200000Y-106787500D03*
X84200000Y-105212500D03*
%TD*%
D10*
%TO.C,R14*%
X119000000Y-99175000D03*
X119000000Y-100825000D03*
%TD*%
D12*
%TO.C,C9*%
X116000000Y-100775000D03*
X116000000Y-99225000D03*
%TD*%
%TO.C,C4*%
X66000000Y-100775000D03*
X66000000Y-99225000D03*
%TD*%
D15*
%TO.C,J1*%
X87500000Y-104350000D03*
D16*
X89500000Y-104350000D03*
X91500000Y-104350000D03*
X93500000Y-104350000D03*
X95500000Y-104350000D03*
X97500000Y-104350000D03*
%TD*%
D10*
%TO.C,R8*%
X86500000Y-99175000D03*
X86500000Y-100825000D03*
%TD*%
D12*
%TO.C,C10*%
X126000000Y-100775000D03*
X126000000Y-99225000D03*
%TD*%
%TO.C,C8*%
X106000000Y-100775000D03*
X106000000Y-99225000D03*
%TD*%
D10*
%TO.C,R6*%
X79000000Y-99175000D03*
X79000000Y-100825000D03*
%TD*%
D12*
%TO.C,C5*%
X76000000Y-100775000D03*
X76000000Y-99225000D03*
%TD*%
%TO.C,C3*%
X56000000Y-100775000D03*
X56000000Y-99225000D03*
%TD*%
D13*
%TO.C,R11*%
X100000000Y-100825000D03*
X100000000Y-99175000D03*
%TD*%
D17*
%TO.C,U1*%
X96945000Y-95925000D03*
X95675000Y-95925000D03*
X94405000Y-95925000D03*
X93135000Y-95925000D03*
X91865000Y-95925000D03*
X90595000Y-95925000D03*
X89325000Y-95925000D03*
X88055000Y-95925000D03*
X88055000Y-100875000D03*
X89325000Y-100875000D03*
X90595000Y-100875000D03*
X91865000Y-100875000D03*
X93135000Y-100875000D03*
X94405000Y-100875000D03*
X95675000Y-100875000D03*
X96945000Y-100875000D03*
%TD*%
D12*
%TO.C,C6*%
X83500000Y-100775000D03*
X83500000Y-99225000D03*
%TD*%
D13*
%TO.C,R13*%
X107500000Y-100825000D03*
X107500000Y-99175000D03*
%TD*%
%TO.C,R15*%
X117500000Y-100825000D03*
X117500000Y-99175000D03*
%TD*%
%TO.C,R3*%
X57500000Y-100825000D03*
X57500000Y-99175000D03*
%TD*%
%TO.C,R5*%
X67500000Y-100825000D03*
X67500000Y-99175000D03*
%TD*%
D10*
%TO.C,R2*%
X59000000Y-99175000D03*
X59000000Y-100825000D03*
%TD*%
D13*
%TO.C,R7*%
X77500000Y-100825000D03*
X77500000Y-99175000D03*
%TD*%
M02*
