%TF.GenerationSoftware,KiCad,Pcbnew,9.0.4-9.0.4-0~ubuntu25.04.1*%
%TF.CreationDate,2025-10-24T07:51:48+02:00*%
%TF.ProjectId,Line_Follower,4c696e65-5f46-46f6-9c6c-6f7765722e6b,rev?*%
%TF.SameCoordinates,Original*%
%TF.FileFunction,Copper,L2,Bot*%
%TF.FilePolarity,Positive*%
%FSLAX46Y46*%
G04 Gerber Fmt 4.6, Leading zero omitted, Abs format (unit mm)*
G04 Created by KiCad (PCBNEW 9.0.4-9.0.4-0~ubuntu25.04.1) date 2025-10-24 07:51:48*
%MOMM*%
%LPD*%
G01*
G04 APERTURE LIST*
G04 Aperture macros list*
%AMRoundRect*
0 Rectangle with rounded corners*
0 $1 Rounding radius*
0 $2 $3 $4 $5 $6 $7 $8 $9 X,Y pos of 4 corners*
0 Add a 4 corners polygon primitive as box body*
4,1,4,$2,$3,$4,$5,$6,$7,$8,$9,$2,$3,0*
0 Add four circle primitives for the rounded corners*
1,1,$1+$1,$2,$3*
1,1,$1+$1,$4,$5*
1,1,$1+$1,$6,$7*
1,1,$1+$1,$8,$9*
0 Add four rect primitives between the rounded corners*
20,1,$1+$1,$2,$3,$4,$5,0*
20,1,$1+$1,$4,$5,$6,$7,0*
20,1,$1+$1,$6,$7,$8,$9,0*
20,1,$1+$1,$8,$9,$2,$3,0*%
G04 Aperture macros list end*
%TA.AperFunction,ComponentPad*%
%ADD10C,4.400000*%
%TD*%
%TA.AperFunction,ComponentPad*%
%ADD11RoundRect,0.250000X-0.350000X-0.625000X0.350000X-0.625000X0.350000X0.625000X-0.350000X0.625000X0*%
%TD*%
%TA.AperFunction,ComponentPad*%
%ADD12O,1.200000X1.750000*%
%TD*%
%TA.AperFunction,SMDPad,CuDef*%
%ADD13RoundRect,0.105000X0.245000X0.245000X-0.245000X0.245000X-0.245000X-0.245000X0.245000X-0.245000X0*%
%TD*%
%TA.AperFunction,ViaPad*%
%ADD14C,0.600000*%
%TD*%
%TA.AperFunction,Conductor*%
%ADD15C,0.200000*%
%TD*%
%TA.AperFunction,Conductor*%
%ADD16C,0.400000*%
%TD*%
G04 APERTURE END LIST*
D10*
%TO.P,H1,1,1*%
%TO.N,GND*%
X81000000Y-104700000D03*
%TD*%
%TO.P,H2,1,1*%
%TO.N,GND*%
X104000000Y-104700000D03*
%TD*%
D11*
%TO.P,J1,1,Pin_1*%
%TO.N,GND*%
X87500000Y-104350000D03*
D12*
%TO.P,J1,2,Pin_2*%
%TO.N,/CS*%
X89500000Y-104350000D03*
%TO.P,J1,3,Pin_3*%
%TO.N,/MOSI*%
X91500000Y-104350000D03*
%TO.P,J1,4,Pin_4*%
%TO.N,/MISO*%
X93500000Y-104350000D03*
%TO.P,J1,5,Pin_5*%
%TO.N,/CLK*%
X95500000Y-104350000D03*
%TO.P,J1,6,Pin_6*%
%TO.N,+3.3V*%
X97500000Y-104350000D03*
%TD*%
D13*
%TO.P,U9,1,K*%
%TO.N,GND*%
X128400000Y-102100000D03*
%TO.P,U9,2,A*%
%TO.N,Net-(U9-A)*%
X128400000Y-97900000D03*
%TO.P,U9,3*%
%TO.N,GND*%
X126600000Y-97900000D03*
%TO.P,U9,4*%
%TO.N,/Led_Phototransistor_package7/V_out*%
X126600000Y-102100000D03*
%TD*%
%TO.P,U7,1,K*%
%TO.N,GND*%
X108400000Y-102100000D03*
%TO.P,U7,2,A*%
%TO.N,Net-(U7-A)*%
X108400000Y-97900000D03*
%TO.P,U7,3*%
%TO.N,GND*%
X106600000Y-97900000D03*
%TO.P,U7,4*%
%TO.N,/Led_Phototransistor_package5/V_out*%
X106600000Y-102100000D03*
%TD*%
%TO.P,U4,1,K*%
%TO.N,GND*%
X78400000Y-102100000D03*
%TO.P,U4,2,A*%
%TO.N,Net-(U4-A)*%
X78400000Y-97900000D03*
%TO.P,U4,3*%
%TO.N,GND*%
X76600000Y-97900000D03*
%TO.P,U4,4*%
%TO.N,/Led_Phototransistor_package2/V_out*%
X76600000Y-102100000D03*
%TD*%
%TO.P,U2,1,K*%
%TO.N,GND*%
X58400000Y-102100000D03*
%TO.P,U2,2,A*%
%TO.N,Net-(U2-A)*%
X58400000Y-97900000D03*
%TO.P,U2,3*%
%TO.N,GND*%
X56600000Y-97900000D03*
%TO.P,U2,4*%
%TO.N,/Led_Phototransistor_package/V_out*%
X56600000Y-102100000D03*
%TD*%
%TO.P,U6,1,K*%
%TO.N,GND*%
X98400000Y-102100000D03*
%TO.P,U6,2,A*%
%TO.N,Net-(U6-A)*%
X98400000Y-97900000D03*
%TO.P,U6,3*%
%TO.N,GND*%
X96600000Y-97900000D03*
%TO.P,U6,4*%
%TO.N,/Led_Phototransistor_package4/V_out*%
X96600000Y-102100000D03*
%TD*%
%TO.P,U3,1,K*%
%TO.N,GND*%
X68400000Y-102100000D03*
%TO.P,U3,2,A*%
%TO.N,Net-(U3-A)*%
X68400000Y-97900000D03*
%TO.P,U3,3*%
%TO.N,GND*%
X66600000Y-97900000D03*
%TO.P,U3,4*%
%TO.N,/Led_Phototransistor_package1/V_out*%
X66600000Y-102100000D03*
%TD*%
%TO.P,U5,1,K*%
%TO.N,GND*%
X88400000Y-102100000D03*
%TO.P,U5,2,A*%
%TO.N,Net-(U5-A)*%
X88400000Y-97900000D03*
%TO.P,U5,3*%
%TO.N,GND*%
X86600000Y-97900000D03*
%TO.P,U5,4*%
%TO.N,/Led_Phototransistor_package3/V_out*%
X86600000Y-102100000D03*
%TD*%
%TO.P,U8,1,K*%
%TO.N,GND*%
X118400000Y-102100000D03*
%TO.P,U8,2,A*%
%TO.N,Net-(U8-A)*%
X118400000Y-97900000D03*
%TO.P,U8,3*%
%TO.N,GND*%
X116600000Y-97900000D03*
%TO.P,U8,4*%
%TO.N,/Led_Phototransistor_package6/V_out*%
X116600000Y-102100000D03*
%TD*%
D14*
%TO.N,/Led_Phototransistor_package/V_out*%
X57500000Y-97900000D03*
%TO.N,GND*%
X97800000Y-95300000D03*
X127500000Y-102100000D03*
X55000000Y-99200000D03*
X65000000Y-99200000D03*
X87500000Y-102100000D03*
X95500000Y-102800000D03*
X107500000Y-102100000D03*
X67500000Y-102100000D03*
X75000000Y-99200000D03*
X83300000Y-95300000D03*
X93800000Y-99500000D03*
X115000000Y-99200000D03*
X100800000Y-104800000D03*
X82500000Y-99200000D03*
X87200000Y-95300000D03*
X88700000Y-99500000D03*
X83200000Y-106800000D03*
X101700000Y-95300000D03*
X97700000Y-102700000D03*
X105000000Y-99200000D03*
X117500000Y-102100000D03*
X125000000Y-99200000D03*
X57500000Y-102100000D03*
X77500000Y-102100000D03*
X97400000Y-99400000D03*
%TO.N,Net-(U2-A)*%
X59300000Y-97900000D03*
%TO.N,Net-(U3-A)*%
X69300000Y-97900000D03*
%TO.N,/Led_Phototransistor_package1/V_out*%
X67500000Y-97900000D03*
%TO.N,Net-(U4-A)*%
X79300000Y-98003000D03*
%TO.N,/Led_Phototransistor_package2/V_out*%
X77500000Y-97900000D03*
%TO.N,Net-(U5-A)*%
X87217318Y-98905339D03*
%TO.N,/Led_Phototransistor_package3/V_out*%
X85400000Y-98100000D03*
%TO.N,Net-(U6-A)*%
X101500000Y-98300000D03*
%TO.N,/Led_Phototransistor_package4/V_out*%
X99400000Y-98600000D03*
%TO.N,Net-(U7-A)*%
X109300000Y-97900000D03*
%TO.N,/Led_Phototransistor_package5/V_out*%
X107500000Y-97900000D03*
%TO.N,Net-(U8-A)*%
X119300000Y-97900000D03*
%TO.N,/Led_Phototransistor_package6/V_out*%
X117500000Y-97900000D03*
%TO.N,Net-(U9-A)*%
X129300000Y-97900000D03*
%TO.N,/Led_Phototransistor_package7/V_out*%
X127500000Y-97900000D03*
%TD*%
D15*
%TO.N,/Led_Phototransistor_package4/V_out*%
X99400000Y-98600000D02*
X99400000Y-99800000D01*
X99400000Y-99800000D02*
X98800000Y-100400000D01*
X98800000Y-100400000D02*
X97200000Y-100400000D01*
X97200000Y-100400000D02*
X96600000Y-101000000D01*
X96600000Y-101000000D02*
X96600000Y-102100000D01*
%TO.N,/Led_Phototransistor_package3/V_out*%
X85400000Y-98100000D02*
X85400000Y-99100000D01*
X85400000Y-99100000D02*
X86600000Y-100300000D01*
X86600000Y-100300000D02*
X86600000Y-102100000D01*
%TO.N,/Led_Phototransistor_package6/V_out*%
X117500000Y-99700000D02*
X117500000Y-97900000D01*
X116600000Y-100600000D02*
X117500000Y-99700000D01*
X116600000Y-102100000D02*
X116600000Y-100600000D01*
%TO.N,/Led_Phototransistor_package5/V_out*%
X107500000Y-99700000D02*
X107500000Y-97900000D01*
X106600000Y-100600000D02*
X107500000Y-99700000D01*
X106600000Y-102100000D02*
X106600000Y-100600000D01*
%TO.N,/Led_Phototransistor_package2/V_out*%
X77500000Y-99700000D02*
X77500000Y-97900000D01*
X76600000Y-100600000D02*
X77500000Y-99700000D01*
X76600000Y-102100000D02*
X76600000Y-100600000D01*
%TO.N,/Led_Phototransistor_package1/V_out*%
X67500000Y-99700000D02*
X67500000Y-97900000D01*
X66600000Y-100600000D02*
X67500000Y-99700000D01*
X66600000Y-102100000D02*
X66600000Y-100600000D01*
%TO.N,/Led_Phototransistor_package/V_out*%
X57500000Y-99700000D02*
X57500000Y-97900000D01*
X56600000Y-100600000D02*
X57500000Y-99700000D01*
X56600000Y-102100000D02*
X56600000Y-100600000D01*
%TO.N,/Led_Phototransistor_package7/V_out*%
X126600000Y-102100000D02*
X126600000Y-100600000D01*
X126600000Y-100600000D02*
X127500000Y-99700000D01*
X127500000Y-99700000D02*
X127500000Y-97900000D01*
D16*
%TO.N,Net-(U2-A)*%
X59300000Y-97900000D02*
X58400000Y-97900000D01*
%TO.N,Net-(U3-A)*%
X69300000Y-97900000D02*
X68400000Y-97900000D01*
%TO.N,Net-(U4-A)*%
X79197000Y-97900000D02*
X78400000Y-97900000D01*
X79300000Y-98003000D02*
X79197000Y-97900000D01*
%TO.N,Net-(U5-A)*%
X88400000Y-98500000D02*
X88400000Y-97900000D01*
X87217318Y-98905339D02*
X87994661Y-98905339D01*
X87994661Y-98905339D02*
X88400000Y-98500000D01*
%TO.N,Net-(U6-A)*%
X101100000Y-97900000D02*
X101500000Y-98300000D01*
X98400000Y-97900000D02*
X101100000Y-97900000D01*
%TO.N,Net-(U7-A)*%
X109300000Y-97900000D02*
X108400000Y-97900000D01*
%TO.N,Net-(U8-A)*%
X119300000Y-97900000D02*
X118400000Y-97900000D01*
%TO.N,Net-(U9-A)*%
X129300000Y-97900000D02*
X128400000Y-97900000D01*
%TD*%
%TA.AperFunction,Conductor*%
%TO.N,GND*%
G36*
X101755751Y-95001411D02*
G01*
X101771725Y-95003940D01*
X101815525Y-95010877D01*
X101837540Y-95018031D01*
X101886210Y-95042829D01*
X101904938Y-95056436D01*
X101943563Y-95095061D01*
X101957171Y-95113791D01*
X101981967Y-95162455D01*
X101989122Y-95184475D01*
X101998589Y-95244247D01*
X101999500Y-95255823D01*
X101999500Y-95348417D01*
X102030290Y-95542823D01*
X102030293Y-95542836D01*
X102091113Y-95730019D01*
X102166804Y-95878573D01*
X102180476Y-95905405D01*
X102296172Y-96064646D01*
X102435354Y-96203828D01*
X102594595Y-96319524D01*
X102769975Y-96408884D01*
X102769977Y-96408884D01*
X102769980Y-96408886D01*
X102957163Y-96469706D01*
X102957169Y-96469707D01*
X102957174Y-96469709D01*
X103086780Y-96490236D01*
X103151582Y-96500500D01*
X103151583Y-96500500D01*
X103184108Y-96500500D01*
X127434108Y-96500500D01*
X127498054Y-96500500D01*
X127501927Y-96500601D01*
X127861930Y-96519468D01*
X127869628Y-96520277D01*
X128223776Y-96576368D01*
X128231322Y-96577972D01*
X128577663Y-96670775D01*
X128585014Y-96673163D01*
X128919758Y-96801659D01*
X128926820Y-96804803D01*
X129246303Y-96967588D01*
X129252995Y-96971451D01*
X129484510Y-97121799D01*
X129553699Y-97166731D01*
X129559966Y-97171284D01*
X129838610Y-97396925D01*
X129844366Y-97402108D01*
X130097891Y-97655633D01*
X130103074Y-97661389D01*
X130328715Y-97940033D01*
X130333268Y-97946300D01*
X130412882Y-98068894D01*
X130475874Y-98165894D01*
X130528543Y-98246996D01*
X130532416Y-98253704D01*
X130695193Y-98573173D01*
X130698343Y-98580249D01*
X130826833Y-98914977D01*
X130829226Y-98922343D01*
X130922023Y-99268662D01*
X130923634Y-99276239D01*
X130979721Y-99630369D01*
X130980531Y-99638072D01*
X130999297Y-99996127D01*
X130999297Y-100003873D01*
X130980531Y-100361927D01*
X130979721Y-100369630D01*
X130923634Y-100723760D01*
X130922023Y-100731337D01*
X130829226Y-101077656D01*
X130826833Y-101085022D01*
X130698343Y-101419750D01*
X130695193Y-101426826D01*
X130532416Y-101746295D01*
X130528543Y-101753003D01*
X130333268Y-102053699D01*
X130328715Y-102059966D01*
X130103074Y-102338610D01*
X130097891Y-102344366D01*
X129844366Y-102597891D01*
X129838610Y-102603074D01*
X129559966Y-102828715D01*
X129553699Y-102833268D01*
X129253003Y-103028543D01*
X129246295Y-103032416D01*
X128926826Y-103195193D01*
X128919750Y-103198343D01*
X128585022Y-103326833D01*
X128577656Y-103329226D01*
X128231337Y-103422023D01*
X128223760Y-103423634D01*
X127869630Y-103479721D01*
X127861927Y-103480531D01*
X127501927Y-103499399D01*
X127498054Y-103499500D01*
X107605518Y-103499500D01*
X107418884Y-103529059D01*
X107418871Y-103529062D01*
X107239175Y-103587449D01*
X107070801Y-103673239D01*
X106917931Y-103784306D01*
X106784306Y-103917931D01*
X106673239Y-104070801D01*
X106587449Y-104239175D01*
X106529062Y-104418871D01*
X106529059Y-104418884D01*
X106499500Y-104605518D01*
X106499500Y-104697763D01*
X106499365Y-104702231D01*
X106481546Y-104996811D01*
X106480469Y-105005682D01*
X106427675Y-105293771D01*
X106425536Y-105302447D01*
X106338407Y-105582053D01*
X106335239Y-105590409D01*
X106215032Y-105857497D01*
X106210879Y-105865409D01*
X106059363Y-106116046D01*
X106054287Y-106123400D01*
X105873663Y-106353951D01*
X105867737Y-106360640D01*
X105660640Y-106567737D01*
X105653951Y-106573663D01*
X105423400Y-106754287D01*
X105416046Y-106759363D01*
X105165409Y-106910879D01*
X105157497Y-106915032D01*
X104890409Y-107035239D01*
X104882053Y-107038407D01*
X104602447Y-107125536D01*
X104593771Y-107127675D01*
X104305682Y-107180469D01*
X104296811Y-107181546D01*
X104002232Y-107199365D01*
X103997764Y-107199500D01*
X81002236Y-107199500D01*
X80997768Y-107199365D01*
X80703188Y-107181546D01*
X80694317Y-107180469D01*
X80406228Y-107127675D01*
X80397552Y-107125536D01*
X80117946Y-107038407D01*
X80109590Y-107035239D01*
X79842502Y-106915032D01*
X79834590Y-106910879D01*
X79583953Y-106759363D01*
X79576599Y-106754287D01*
X79346048Y-106573663D01*
X79339359Y-106567737D01*
X79132262Y-106360640D01*
X79126336Y-106353951D01*
X78945712Y-106123400D01*
X78940636Y-106116046D01*
X78789120Y-105865409D01*
X78784967Y-105857497D01*
X78664757Y-105590401D01*
X78661595Y-105582062D01*
X78574460Y-105302435D01*
X78572327Y-105293784D01*
X78519528Y-105005673D01*
X78518454Y-104996821D01*
X78500635Y-104702231D01*
X78500552Y-104700531D01*
X78500500Y-104699141D01*
X78500500Y-104634108D01*
X78500500Y-104605519D01*
X78470940Y-104418882D01*
X78470938Y-104418877D01*
X78470937Y-104418871D01*
X78412550Y-104239175D01*
X78412547Y-104239171D01*
X78412547Y-104239168D01*
X78326760Y-104070801D01*
X78215690Y-103917927D01*
X78082073Y-103784310D01*
X78082070Y-103784307D01*
X78082068Y-103784306D01*
X78005855Y-103728934D01*
X77929198Y-103673239D01*
X77924413Y-103670801D01*
X86700000Y-103670801D01*
X86700000Y-104100000D01*
X87219670Y-104100000D01*
X87199925Y-104119745D01*
X87150556Y-104205255D01*
X87125000Y-104300630D01*
X87125000Y-104399370D01*
X87150556Y-104494745D01*
X87199925Y-104580255D01*
X87219670Y-104600000D01*
X86700001Y-104600000D01*
X86700001Y-105029205D01*
X86702850Y-105059602D01*
X86702852Y-105059611D01*
X86747652Y-105187643D01*
X86828207Y-105296791D01*
X86828208Y-105296792D01*
X86937356Y-105377347D01*
X86937355Y-105377347D01*
X87065385Y-105422146D01*
X87065393Y-105422148D01*
X87095803Y-105424999D01*
X87250000Y-105424999D01*
X87250000Y-104630330D01*
X87269745Y-104650075D01*
X87355255Y-104699444D01*
X87450630Y-104725000D01*
X87549370Y-104725000D01*
X87644745Y-104699444D01*
X87730255Y-104650075D01*
X87750000Y-104630330D01*
X87750000Y-105424999D01*
X87904194Y-105424999D01*
X87904205Y-105424998D01*
X87934602Y-105422149D01*
X87934611Y-105422147D01*
X88062643Y-105377347D01*
X88171791Y-105296792D01*
X88171792Y-105296791D01*
X88252347Y-105187643D01*
X88297146Y-105059614D01*
X88297148Y-105059606D01*
X88299999Y-105029198D01*
X88300000Y-105029197D01*
X88300000Y-104600000D01*
X87780330Y-104600000D01*
X87800075Y-104580255D01*
X87849444Y-104494745D01*
X87875000Y-104399370D01*
X87875000Y-104300630D01*
X87849444Y-104205255D01*
X87800075Y-104119745D01*
X87780330Y-104100000D01*
X88299999Y-104100000D01*
X88299999Y-103996159D01*
X88699500Y-103996159D01*
X88699500Y-104703840D01*
X88730261Y-104858491D01*
X88730264Y-104858501D01*
X88790603Y-105004174D01*
X88790605Y-105004177D01*
X88790606Y-105004179D01*
X88878211Y-105135289D01*
X88989711Y-105246789D01*
X89120821Y-105334394D01*
X89120826Y-105334396D01*
X89120825Y-105334396D01*
X89266498Y-105394735D01*
X89266503Y-105394737D01*
X89421158Y-105425500D01*
X89421160Y-105425500D01*
X89578840Y-105425500D01*
X89578842Y-105425500D01*
X89733497Y-105394737D01*
X89879179Y-105334394D01*
X90010289Y-105246789D01*
X90121789Y-105135289D01*
X90209394Y-105004179D01*
X90269737Y-104858497D01*
X90300500Y-104703842D01*
X90300500Y-103996159D01*
X90699500Y-103996159D01*
X90699500Y-104703840D01*
X90730261Y-104858491D01*
X90730264Y-104858501D01*
X90790603Y-105004174D01*
X90790605Y-105004177D01*
X90790606Y-105004179D01*
X90878211Y-105135289D01*
X90989711Y-105246789D01*
X91120821Y-105334394D01*
X91120826Y-105334396D01*
X91120825Y-105334396D01*
X91266498Y-105394735D01*
X91266503Y-105394737D01*
X91421158Y-105425500D01*
X91421160Y-105425500D01*
X91578840Y-105425500D01*
X91578842Y-105425500D01*
X91733497Y-105394737D01*
X91879179Y-105334394D01*
X92010289Y-105246789D01*
X92121789Y-105135289D01*
X92209394Y-105004179D01*
X92269737Y-104858497D01*
X92300500Y-104703842D01*
X92300500Y-103996159D01*
X92699500Y-103996159D01*
X92699500Y-104703840D01*
X92730261Y-104858491D01*
X92730264Y-104858501D01*
X92790603Y-105004174D01*
X92790605Y-105004177D01*
X92790606Y-105004179D01*
X92878211Y-105135289D01*
X92989711Y-105246789D01*
X93120821Y-105334394D01*
X93120826Y-105334396D01*
X93120825Y-105334396D01*
X93266498Y-105394735D01*
X93266503Y-105394737D01*
X93421158Y-105425500D01*
X93421160Y-105425500D01*
X93578840Y-105425500D01*
X93578842Y-105425500D01*
X93733497Y-105394737D01*
X93879179Y-105334394D01*
X94010289Y-105246789D01*
X94121789Y-105135289D01*
X94209394Y-105004179D01*
X94269737Y-104858497D01*
X94300500Y-104703842D01*
X94300500Y-103996159D01*
X94699500Y-103996159D01*
X94699500Y-104703840D01*
X94730261Y-104858491D01*
X94730264Y-104858501D01*
X94790603Y-105004174D01*
X94790605Y-105004177D01*
X94790606Y-105004179D01*
X94878211Y-105135289D01*
X94989711Y-105246789D01*
X95120821Y-105334394D01*
X95120826Y-105334396D01*
X95120825Y-105334396D01*
X95266498Y-105394735D01*
X95266503Y-105394737D01*
X95421158Y-105425500D01*
X95421160Y-105425500D01*
X95578840Y-105425500D01*
X95578842Y-105425500D01*
X95733497Y-105394737D01*
X95879179Y-105334394D01*
X96010289Y-105246789D01*
X96121789Y-105135289D01*
X96209394Y-105004179D01*
X96269737Y-104858497D01*
X96300500Y-104703842D01*
X96300500Y-103996159D01*
X96699500Y-103996159D01*
X96699500Y-104703840D01*
X96730261Y-104858491D01*
X96730264Y-104858501D01*
X96790603Y-105004174D01*
X96790605Y-105004177D01*
X96790606Y-105004179D01*
X96878211Y-105135289D01*
X96989711Y-105246789D01*
X97120821Y-105334394D01*
X97120826Y-105334396D01*
X97120825Y-105334396D01*
X97266498Y-105394735D01*
X97266503Y-105394737D01*
X97421158Y-105425500D01*
X97421160Y-105425500D01*
X97578840Y-105425500D01*
X97578842Y-105425500D01*
X97733497Y-105394737D01*
X97879179Y-105334394D01*
X98010289Y-105246789D01*
X98121789Y-105135289D01*
X98209394Y-105004179D01*
X98269737Y-104858497D01*
X98300500Y-104703842D01*
X98300500Y-103996158D01*
X98269737Y-103841503D01*
X98246047Y-103784310D01*
X98209396Y-103695825D01*
X98209395Y-103695823D01*
X98209394Y-103695821D01*
X98121789Y-103564711D01*
X98010289Y-103453211D01*
X97879179Y-103365606D01*
X97879175Y-103365604D01*
X97879173Y-103365603D01*
X97879174Y-103365603D01*
X97733501Y-103305264D01*
X97733491Y-103305261D01*
X97629925Y-103284661D01*
X97578842Y-103274500D01*
X97421158Y-103274500D01*
X97377315Y-103283220D01*
X97266508Y-103305261D01*
X97266498Y-103305264D01*
X97120825Y-103365603D01*
X96989711Y-103453210D01*
X96989710Y-103453212D01*
X96878212Y-103564710D01*
X96878210Y-103564711D01*
X96790603Y-103695825D01*
X96730264Y-103841498D01*
X96730261Y-103841508D01*
X96699500Y-103996159D01*
X96300500Y-103996159D01*
X96300500Y-103996158D01*
X96269737Y-103841503D01*
X96246047Y-103784310D01*
X96209396Y-103695825D01*
X96209395Y-103695823D01*
X96209394Y-103695821D01*
X96121789Y-103564711D01*
X96010289Y-103453211D01*
X95879179Y-103365606D01*
X95879175Y-103365604D01*
X95879173Y-103365603D01*
X95879174Y-103365603D01*
X95733501Y-103305264D01*
X95733491Y-103305261D01*
X95629925Y-103284661D01*
X95578842Y-103274500D01*
X95421158Y-103274500D01*
X95377315Y-103283220D01*
X95266508Y-103305261D01*
X95266498Y-103305264D01*
X95120825Y-103365603D01*
X94989711Y-103453210D01*
X94989710Y-103453212D01*
X94878212Y-103564710D01*
X94878210Y-103564711D01*
X94790603Y-103695825D01*
X94730264Y-103841498D01*
X94730261Y-103841508D01*
X94699500Y-103996159D01*
X94300500Y-103996159D01*
X94300500Y-103996158D01*
X94269737Y-103841503D01*
X94246047Y-103784310D01*
X94209396Y-103695825D01*
X94209395Y-103695823D01*
X94209394Y-103695821D01*
X94121789Y-103564711D01*
X94010289Y-103453211D01*
X93879179Y-103365606D01*
X93879175Y-103365604D01*
X93879173Y-103365603D01*
X93879174Y-103365603D01*
X93733501Y-103305264D01*
X93733491Y-103305261D01*
X93629925Y-103284661D01*
X93578842Y-103274500D01*
X93421158Y-103274500D01*
X93377315Y-103283220D01*
X93266508Y-103305261D01*
X93266498Y-103305264D01*
X93120825Y-103365603D01*
X92989711Y-103453210D01*
X92989710Y-103453212D01*
X92878212Y-103564710D01*
X92878210Y-103564711D01*
X92790603Y-103695825D01*
X92730264Y-103841498D01*
X92730261Y-103841508D01*
X92699500Y-103996159D01*
X92300500Y-103996159D01*
X92300500Y-103996158D01*
X92269737Y-103841503D01*
X92246047Y-103784310D01*
X92209396Y-103695825D01*
X92209395Y-103695823D01*
X92209394Y-103695821D01*
X92121789Y-103564711D01*
X92010289Y-103453211D01*
X91879179Y-103365606D01*
X91879175Y-103365604D01*
X91879173Y-103365603D01*
X91879174Y-103365603D01*
X91733501Y-103305264D01*
X91733491Y-103305261D01*
X91629925Y-103284661D01*
X91578842Y-103274500D01*
X91421158Y-103274500D01*
X91377315Y-103283220D01*
X91266508Y-103305261D01*
X91266498Y-103305264D01*
X91120825Y-103365603D01*
X90989711Y-103453210D01*
X90989710Y-103453212D01*
X90878212Y-103564710D01*
X90878210Y-103564711D01*
X90790603Y-103695825D01*
X90730264Y-103841498D01*
X90730261Y-103841508D01*
X90699500Y-103996159D01*
X90300500Y-103996159D01*
X90300500Y-103996158D01*
X90269737Y-103841503D01*
X90246047Y-103784310D01*
X90209396Y-103695825D01*
X90209395Y-103695823D01*
X90209394Y-103695821D01*
X90121789Y-103564711D01*
X90010289Y-103453211D01*
X89879179Y-103365606D01*
X89879175Y-103365604D01*
X89879173Y-103365603D01*
X89879174Y-103365603D01*
X89733501Y-103305264D01*
X89733491Y-103305261D01*
X89629925Y-103284661D01*
X89578842Y-103274500D01*
X89421158Y-103274500D01*
X89377315Y-103283220D01*
X89266508Y-103305261D01*
X89266498Y-103305264D01*
X89120825Y-103365603D01*
X88989711Y-103453210D01*
X88989710Y-103453212D01*
X88878212Y-103564710D01*
X88878210Y-103564711D01*
X88790603Y-103695825D01*
X88730264Y-103841498D01*
X88730261Y-103841508D01*
X88699500Y-103996159D01*
X88299999Y-103996159D01*
X88299999Y-103670806D01*
X88299998Y-103670794D01*
X88297149Y-103640397D01*
X88297147Y-103640388D01*
X88252347Y-103512356D01*
X88171792Y-103403208D01*
X88171791Y-103403207D01*
X88062643Y-103322652D01*
X88062644Y-103322652D01*
X87934614Y-103277853D01*
X87934606Y-103277851D01*
X87904198Y-103275000D01*
X87750000Y-103275000D01*
X87750000Y-104069670D01*
X87730255Y-104049925D01*
X87644745Y-104000556D01*
X87549370Y-103975000D01*
X87450630Y-103975000D01*
X87355255Y-104000556D01*
X87269745Y-104049925D01*
X87250000Y-104069670D01*
X87250000Y-103275000D01*
X87095806Y-103275000D01*
X87095793Y-103275001D01*
X87065397Y-103277850D01*
X87065388Y-103277852D01*
X86937356Y-103322652D01*
X86828208Y-103403207D01*
X86828207Y-103403208D01*
X86747652Y-103512356D01*
X86702853Y-103640385D01*
X86702851Y-103640393D01*
X86700000Y-103670801D01*
X77924413Y-103670801D01*
X77760824Y-103587449D01*
X77581128Y-103529062D01*
X77581115Y-103529059D01*
X77394482Y-103499500D01*
X77394481Y-103499500D01*
X77365892Y-103499500D01*
X57501946Y-103499500D01*
X57498073Y-103499399D01*
X57138072Y-103480531D01*
X57130369Y-103479721D01*
X56776239Y-103423634D01*
X56768662Y-103422023D01*
X56422343Y-103329226D01*
X56414977Y-103326833D01*
X56080249Y-103198343D01*
X56073173Y-103195193D01*
X55753704Y-103032416D01*
X55746996Y-103028543D01*
X55446300Y-102833268D01*
X55440033Y-102828715D01*
X55161389Y-102603074D01*
X55155633Y-102597891D01*
X54902108Y-102344366D01*
X54896925Y-102338610D01*
X54671284Y-102059966D01*
X54666731Y-102053699D01*
X54532856Y-101847550D01*
X54532856Y-101847549D01*
X54508071Y-101809384D01*
X56049500Y-101809384D01*
X56049500Y-102390615D01*
X56052462Y-102416153D01*
X56052462Y-102416155D01*
X56052463Y-102416156D01*
X56098597Y-102520640D01*
X56179360Y-102601403D01*
X56283844Y-102647537D01*
X56309384Y-102650500D01*
X56890616Y-102650500D01*
X56894943Y-102649998D01*
X58203552Y-102649998D01*
X58203552Y-102649999D01*
X58596447Y-102649999D01*
X58400000Y-102453552D01*
X58203552Y-102649998D01*
X56894943Y-102649998D01*
X56916156Y-102647537D01*
X57020640Y-102601403D01*
X57101403Y-102520640D01*
X57147537Y-102416156D01*
X57150500Y-102390616D01*
X57150500Y-102296446D01*
X57850000Y-102296446D01*
X58046447Y-102099999D01*
X58753552Y-102099999D01*
X58753552Y-102100000D01*
X58949998Y-102296446D01*
X58949999Y-102296446D01*
X58949999Y-101903552D01*
X58949998Y-101903552D01*
X58753552Y-102099999D01*
X58046447Y-102099999D01*
X57850000Y-101903552D01*
X57850000Y-102296446D01*
X57150500Y-102296446D01*
X57150500Y-101809384D01*
X66049500Y-101809384D01*
X66049500Y-102390615D01*
X66052462Y-102416153D01*
X66052462Y-102416155D01*
X66052463Y-102416156D01*
X66098597Y-102520640D01*
X66179360Y-102601403D01*
X66283844Y-102647537D01*
X66309384Y-102650500D01*
X66890616Y-102650500D01*
X66894943Y-102649998D01*
X68203552Y-102649998D01*
X68203552Y-102649999D01*
X68596447Y-102649999D01*
X68400000Y-102453552D01*
X68203552Y-102649998D01*
X66894943Y-102649998D01*
X66916156Y-102647537D01*
X67020640Y-102601403D01*
X67101403Y-102520640D01*
X67147537Y-102416156D01*
X67150500Y-102390616D01*
X67150500Y-102296446D01*
X67850000Y-102296446D01*
X68046447Y-102099999D01*
X68753552Y-102099999D01*
X68753552Y-102100000D01*
X68949998Y-102296446D01*
X68949999Y-102296446D01*
X68949999Y-101903552D01*
X68753552Y-102099999D01*
X68046447Y-102099999D01*
X67850000Y-101903552D01*
X67850000Y-102296446D01*
X67150500Y-102296446D01*
X67150500Y-101809384D01*
X76049500Y-101809384D01*
X76049500Y-102390615D01*
X76052462Y-102416153D01*
X76052462Y-102416155D01*
X76052463Y-102416156D01*
X76098597Y-102520640D01*
X76179360Y-102601403D01*
X76283844Y-102647537D01*
X76309384Y-102650500D01*
X76890616Y-102650500D01*
X76894943Y-102649998D01*
X78203552Y-102649998D01*
X78203552Y-102649999D01*
X78596447Y-102649999D01*
X78400000Y-102453552D01*
X78203552Y-102649998D01*
X76894943Y-102649998D01*
X76916156Y-102647537D01*
X77020640Y-102601403D01*
X77101403Y-102520640D01*
X77147537Y-102416156D01*
X77150500Y-102390616D01*
X77150500Y-102296446D01*
X77850000Y-102296446D01*
X78046447Y-102099999D01*
X78753552Y-102099999D01*
X78753552Y-102100000D01*
X78949998Y-102296446D01*
X78949999Y-102296446D01*
X78949999Y-101903552D01*
X78949998Y-101903552D01*
X78753552Y-102099999D01*
X78046447Y-102099999D01*
X77850000Y-101903552D01*
X77850000Y-102296446D01*
X77150500Y-102296446D01*
X77150500Y-101809384D01*
X77147537Y-101783844D01*
X77101403Y-101679360D01*
X77020640Y-101598597D01*
X76940750Y-101563322D01*
X76937098Y-101561183D01*
X76928628Y-101550000D01*
X78203552Y-101550000D01*
X78399999Y-101746447D01*
X78596447Y-101550000D01*
X78203552Y-101550000D01*
X76928628Y-101550000D01*
X76922358Y-101541722D01*
X76905497Y-101524062D01*
X76904354Y-101517950D01*
X76902903Y-101516034D01*
X76903367Y-101512669D01*
X76900500Y-101497331D01*
X76900500Y-100755123D01*
X76922174Y-100702797D01*
X77265431Y-100359540D01*
X77740460Y-99884511D01*
X77766411Y-99839562D01*
X77780021Y-99815989D01*
X77800499Y-99739564D01*
X77800500Y-99739564D01*
X77800500Y-98401195D01*
X77822174Y-98348869D01*
X77874500Y-98327195D01*
X77926826Y-98348869D01*
X77979360Y-98401403D01*
X78083844Y-98447537D01*
X78109384Y-98450500D01*
X78690616Y-98450500D01*
X78716156Y-98447537D01*
X78820640Y-98401403D01*
X78853288Y-98368754D01*
X78905613Y-98347080D01*
X78957939Y-98368753D01*
X78992686Y-98403500D01*
X79106814Y-98469392D01*
X79234105Y-98503499D01*
X79234106Y-98503500D01*
X79234108Y-98503500D01*
X79365894Y-98503500D01*
X79365894Y-98503499D01*
X79493186Y-98469392D01*
X79607314Y-98403500D01*
X79700500Y-98310314D01*
X79766392Y-98196186D01*
X79800499Y-98068894D01*
X79800500Y-98068894D01*
X79800500Y-98034105D01*
X84899500Y-98034105D01*
X84899500Y-98165894D01*
X84933606Y-98293181D01*
X84933610Y-98293190D01*
X84999500Y-98407314D01*
X85077826Y-98485640D01*
X85099500Y-98537966D01*
X85099500Y-99139564D01*
X85119978Y-99215988D01*
X85152553Y-99272411D01*
X85152554Y-99272411D01*
X85152555Y-99272413D01*
X85159540Y-99284511D01*
X86277826Y-100402797D01*
X86299500Y-100455122D01*
X86299500Y-101497331D01*
X86277826Y-101549657D01*
X86255391Y-101565026D01*
X86179358Y-101598598D01*
X86098597Y-101679359D01*
X86052462Y-101783846D01*
X86049500Y-101809384D01*
X86049500Y-102390615D01*
X86052462Y-102416153D01*
X86052462Y-102416155D01*
X86052463Y-102416156D01*
X86098597Y-102520640D01*
X86179360Y-102601403D01*
X86283844Y-102647537D01*
X86309384Y-102650500D01*
X86890616Y-102650500D01*
X86894943Y-102649998D01*
X88203552Y-102649998D01*
X88203552Y-102649999D01*
X88596447Y-102649999D01*
X88400000Y-102453552D01*
X88203552Y-102649998D01*
X86894943Y-102649998D01*
X86916156Y-102647537D01*
X87020640Y-102601403D01*
X87101403Y-102520640D01*
X87147537Y-102416156D01*
X87150500Y-102390616D01*
X87150500Y-102296446D01*
X87850000Y-102296446D01*
X88046447Y-102099999D01*
X88753552Y-102099999D01*
X88753552Y-102100000D01*
X88949998Y-102296446D01*
X88949999Y-102296446D01*
X88949999Y-101903552D01*
X88949998Y-101903552D01*
X88753552Y-102099999D01*
X88046447Y-102099999D01*
X87850000Y-101903552D01*
X87850000Y-102296446D01*
X87150500Y-102296446D01*
X87150500Y-101809384D01*
X96049500Y-101809384D01*
X96049500Y-102390615D01*
X96052462Y-102416153D01*
X96052462Y-102416155D01*
X96052463Y-102416156D01*
X96098597Y-102520640D01*
X96179360Y-102601403D01*
X96283844Y-102647537D01*
X96309384Y-102650500D01*
X96890616Y-102650500D01*
X96894943Y-102649998D01*
X98203552Y-102649998D01*
X98203552Y-102649999D01*
X98596447Y-102649999D01*
X98400000Y-102453552D01*
X98203552Y-102649998D01*
X96894943Y-102649998D01*
X96916156Y-102647537D01*
X97020640Y-102601403D01*
X97101403Y-102520640D01*
X97147537Y-102416156D01*
X97150500Y-102390616D01*
X97150500Y-102296446D01*
X97850000Y-102296446D01*
X98046447Y-102099999D01*
X98753552Y-102099999D01*
X98753552Y-102100000D01*
X98949998Y-102296446D01*
X98949999Y-102296446D01*
X98949999Y-101903552D01*
X98753552Y-102099999D01*
X98046447Y-102099999D01*
X97850000Y-101903552D01*
X97850000Y-102296446D01*
X97150500Y-102296446D01*
X97150500Y-101809384D01*
X106049500Y-101809384D01*
X106049500Y-102390615D01*
X106052462Y-102416153D01*
X106052462Y-102416155D01*
X106052463Y-102416156D01*
X106098597Y-102520640D01*
X106179360Y-102601403D01*
X106283844Y-102647537D01*
X106309384Y-102650500D01*
X106890616Y-102650500D01*
X106894943Y-102649998D01*
X108203552Y-102649998D01*
X108203552Y-102649999D01*
X108596447Y-102649999D01*
X108400000Y-102453552D01*
X108203552Y-102649998D01*
X106894943Y-102649998D01*
X106916156Y-102647537D01*
X107020640Y-102601403D01*
X107101403Y-102520640D01*
X107147537Y-102416156D01*
X107150500Y-102390616D01*
X107150500Y-102296446D01*
X107850000Y-102296446D01*
X108046447Y-102099999D01*
X108753552Y-102099999D01*
X108753552Y-102100000D01*
X108949998Y-102296446D01*
X108949999Y-102296446D01*
X108949999Y-101903552D01*
X108949998Y-101903552D01*
X108753552Y-102099999D01*
X108046447Y-102099999D01*
X107850000Y-101903552D01*
X107850000Y-102296446D01*
X107150500Y-102296446D01*
X107150500Y-101809384D01*
X116049500Y-101809384D01*
X116049500Y-102390615D01*
X116052462Y-102416153D01*
X116052462Y-102416155D01*
X116052463Y-102416156D01*
X116098597Y-102520640D01*
X116179360Y-102601403D01*
X116283844Y-102647537D01*
X116309384Y-102650500D01*
X116890616Y-102650500D01*
X116894943Y-102649998D01*
X118203552Y-102649998D01*
X118203552Y-102649999D01*
X118596447Y-102649999D01*
X118400000Y-102453552D01*
X118203552Y-102649998D01*
X116894943Y-102649998D01*
X116916156Y-102647537D01*
X117020640Y-102601403D01*
X117101403Y-102520640D01*
X117147537Y-102416156D01*
X117150500Y-102390616D01*
X117150500Y-102296446D01*
X117850000Y-102296446D01*
X118046447Y-102099999D01*
X118753552Y-102099999D01*
X118753552Y-102100000D01*
X118949998Y-102296446D01*
X118949999Y-102296446D01*
X118949999Y-101903552D01*
X118949998Y-101903552D01*
X118753552Y-102099999D01*
X118046447Y-102099999D01*
X117850000Y-101903552D01*
X117850000Y-102296446D01*
X117150500Y-102296446D01*
X117150500Y-101809384D01*
X126049500Y-101809384D01*
X126049500Y-102390615D01*
X126052462Y-102416153D01*
X126052462Y-102416155D01*
X126052463Y-102416156D01*
X126098597Y-102520640D01*
X126179360Y-102601403D01*
X126283844Y-102647537D01*
X126309384Y-102650500D01*
X126890616Y-102650500D01*
X126894943Y-102649998D01*
X128203552Y-102649998D01*
X128203552Y-102649999D01*
X128596447Y-102649999D01*
X128400000Y-102453552D01*
X128203552Y-102649998D01*
X126894943Y-102649998D01*
X126916156Y-102647537D01*
X127020640Y-102601403D01*
X127101403Y-102520640D01*
X127147537Y-102416156D01*
X127150500Y-102390616D01*
X127150500Y-102296446D01*
X127850000Y-102296446D01*
X128046447Y-102099999D01*
X128753552Y-102099999D01*
X128753552Y-102100000D01*
X128949998Y-102296446D01*
X128949999Y-102296446D01*
X128949999Y-101903552D01*
X128949998Y-101903552D01*
X128753552Y-102099999D01*
X128046447Y-102099999D01*
X127850000Y-101903552D01*
X127850000Y-102296446D01*
X127150500Y-102296446D01*
X127150500Y-101809384D01*
X127147537Y-101783844D01*
X127101403Y-101679360D01*
X127020640Y-101598597D01*
X126940750Y-101563322D01*
X126937098Y-101561183D01*
X126928628Y-101550000D01*
X128203552Y-101550000D01*
X128399999Y-101746447D01*
X128596447Y-101550000D01*
X128203552Y-101550000D01*
X126928628Y-101550000D01*
X126922358Y-101541722D01*
X126905497Y-101524062D01*
X126904354Y-101517950D01*
X126902903Y-101516034D01*
X126903367Y-101512669D01*
X126900500Y-101497331D01*
X126900500Y-100755123D01*
X126922174Y-100702797D01*
X127265431Y-100359540D01*
X127740460Y-99884511D01*
X127766411Y-99839562D01*
X127780021Y-99815989D01*
X127800499Y-99739564D01*
X127800500Y-99739564D01*
X127800500Y-98401195D01*
X127822174Y-98348869D01*
X127874500Y-98327195D01*
X127926826Y-98348869D01*
X127979360Y-98401403D01*
X128083844Y-98447537D01*
X128109384Y-98450500D01*
X128690616Y-98450500D01*
X128716156Y-98447537D01*
X128820640Y-98401403D01*
X128899869Y-98322173D01*
X128952194Y-98300500D01*
X128972857Y-98300500D01*
X129009857Y-98310414D01*
X129071809Y-98346182D01*
X129106814Y-98366392D01*
X129234105Y-98400499D01*
X129234106Y-98400500D01*
X129234108Y-98400500D01*
X129365894Y-98400500D01*
X129365894Y-98400499D01*
X129493186Y-98366392D01*
X129607314Y-98300500D01*
X129700500Y-98207314D01*
X129766392Y-98093186D01*
X129800499Y-97965894D01*
X129800500Y-97965894D01*
X129800500Y-97834106D01*
X129800499Y-97834105D01*
X129793991Y-97809818D01*
X129766392Y-97706814D01*
X129700500Y-97592686D01*
X129607314Y-97499500D01*
X129596317Y-97493151D01*
X129493190Y-97433610D01*
X129493181Y-97433606D01*
X129365894Y-97399500D01*
X129365892Y-97399500D01*
X129234108Y-97399500D01*
X129234106Y-97399500D01*
X129106818Y-97433606D01*
X129106809Y-97433610D01*
X129009857Y-97489586D01*
X128972857Y-97499500D01*
X128952194Y-97499500D01*
X128899869Y-97477826D01*
X128820640Y-97398597D01*
X128716156Y-97352463D01*
X128716155Y-97352462D01*
X128716153Y-97352462D01*
X128690616Y-97349500D01*
X128109384Y-97349500D01*
X128083846Y-97352462D01*
X127979359Y-97398597D01*
X127893748Y-97484209D01*
X127891280Y-97481741D01*
X127854073Y-97505962D01*
X127803508Y-97497302D01*
X127693190Y-97433610D01*
X127693181Y-97433606D01*
X127565894Y-97399500D01*
X127565892Y-97399500D01*
X127434108Y-97399500D01*
X127434106Y-97399500D01*
X127306818Y-97433606D01*
X127306809Y-97433610D01*
X127192685Y-97499500D01*
X127099500Y-97592685D01*
X127033610Y-97706809D01*
X127033606Y-97706818D01*
X126998244Y-97838793D01*
X126996699Y-97838379D01*
X126978713Y-97874838D01*
X126776776Y-98076776D01*
X126403552Y-98449998D01*
X126403552Y-98449999D01*
X126890534Y-98449999D01*
X126916032Y-98447042D01*
X126916038Y-98447040D01*
X127020352Y-98400982D01*
X127073174Y-98348161D01*
X127125500Y-98326487D01*
X127177826Y-98348161D01*
X127199500Y-98400487D01*
X127199500Y-99544877D01*
X127177826Y-99597203D01*
X126359540Y-100415488D01*
X126319979Y-100484009D01*
X126319977Y-100484014D01*
X126299500Y-100560435D01*
X126299500Y-101497331D01*
X126277826Y-101549657D01*
X126255391Y-101565026D01*
X126179358Y-101598598D01*
X126098597Y-101679359D01*
X126052462Y-101783846D01*
X126049500Y-101809384D01*
X117150500Y-101809384D01*
X117147537Y-101783844D01*
X117101403Y-101679360D01*
X117020640Y-101598597D01*
X116940750Y-101563322D01*
X116937098Y-101561183D01*
X116928628Y-101550000D01*
X118203552Y-101550000D01*
X118399999Y-101746447D01*
X118596447Y-101550000D01*
X118203552Y-101550000D01*
X116928628Y-101550000D01*
X116922358Y-101541722D01*
X116905497Y-101524062D01*
X116904354Y-101517950D01*
X116902903Y-101516034D01*
X116903367Y-101512669D01*
X116900500Y-101497331D01*
X116900500Y-100755123D01*
X116922174Y-100702797D01*
X117265431Y-100359540D01*
X117740460Y-99884511D01*
X117766411Y-99839562D01*
X117780021Y-99815989D01*
X117800499Y-99739564D01*
X117800500Y-99739564D01*
X117800500Y-98401195D01*
X117822174Y-98348869D01*
X117874500Y-98327195D01*
X117926826Y-98348869D01*
X117979360Y-98401403D01*
X118083844Y-98447537D01*
X118109384Y-98450500D01*
X118690616Y-98450500D01*
X118716156Y-98447537D01*
X118820640Y-98401403D01*
X118899869Y-98322173D01*
X118952194Y-98300500D01*
X118972857Y-98300500D01*
X119009857Y-98310414D01*
X119071809Y-98346182D01*
X119106814Y-98366392D01*
X119234105Y-98400499D01*
X119234106Y-98400500D01*
X119234108Y-98400500D01*
X119365894Y-98400500D01*
X119365894Y-98400499D01*
X119493186Y-98366392D01*
X119607314Y-98300500D01*
X119700500Y-98207314D01*
X119764510Y-98096446D01*
X126050000Y-98096446D01*
X126246447Y-97899999D01*
X126050000Y-97703552D01*
X126050000Y-98096446D01*
X119764510Y-98096446D01*
X119766392Y-98093186D01*
X119800499Y-97965894D01*
X119800500Y-97965894D01*
X119800500Y-97834106D01*
X119800499Y-97834105D01*
X119793991Y-97809818D01*
X119766392Y-97706814D01*
X119766390Y-97706811D01*
X119766388Y-97706805D01*
X119757326Y-97691110D01*
X119757324Y-97691107D01*
X119727590Y-97639608D01*
X119700500Y-97592686D01*
X119607314Y-97499500D01*
X119596317Y-97493151D01*
X119493191Y-97433610D01*
X119493181Y-97433606D01*
X119365894Y-97399500D01*
X119365892Y-97399500D01*
X119234108Y-97399500D01*
X119234106Y-97399500D01*
X119106818Y-97433606D01*
X119106809Y-97433610D01*
X119009857Y-97489586D01*
X118972857Y-97499500D01*
X118952194Y-97499500D01*
X118899869Y-97477826D01*
X118820640Y-97398597D01*
X118716156Y-97352463D01*
X118716155Y-97352462D01*
X118716153Y-97352462D01*
X118694927Y-97350000D01*
X126403552Y-97350000D01*
X126599999Y-97546447D01*
X126796447Y-97350000D01*
X126403552Y-97350000D01*
X118694927Y-97350000D01*
X118690616Y-97349500D01*
X118109384Y-97349500D01*
X118083846Y-97352462D01*
X117979359Y-97398597D01*
X117893748Y-97484209D01*
X117891280Y-97481741D01*
X117854073Y-97505962D01*
X117803508Y-97497302D01*
X117693190Y-97433610D01*
X117693181Y-97433606D01*
X117565894Y-97399500D01*
X117565892Y-97399500D01*
X117434108Y-97399500D01*
X117434106Y-97399500D01*
X117306818Y-97433606D01*
X117306809Y-97433610D01*
X117192685Y-97499500D01*
X117099500Y-97592685D01*
X117033610Y-97706809D01*
X117033606Y-97706818D01*
X116998244Y-97838793D01*
X116996699Y-97838379D01*
X116978713Y-97874838D01*
X116776776Y-98076776D01*
X116403552Y-98449998D01*
X116403552Y-98449999D01*
X116890534Y-98449999D01*
X116916032Y-98447042D01*
X116916038Y-98447040D01*
X117020352Y-98400982D01*
X117073174Y-98348161D01*
X117125500Y-98326487D01*
X117177826Y-98348161D01*
X117199500Y-98400487D01*
X117199500Y-99544877D01*
X117177826Y-99597203D01*
X116359540Y-100415488D01*
X116319979Y-100484009D01*
X116319977Y-100484014D01*
X116299500Y-100560435D01*
X116299500Y-101497331D01*
X116277826Y-101549657D01*
X116255391Y-101565026D01*
X116179358Y-101598598D01*
X116098597Y-101679359D01*
X116052462Y-101783846D01*
X116049500Y-101809384D01*
X107150500Y-101809384D01*
X107147537Y-101783844D01*
X107101403Y-101679360D01*
X107020640Y-101598597D01*
X106940750Y-101563322D01*
X106937098Y-101561183D01*
X106928628Y-101550000D01*
X108203552Y-101550000D01*
X108399999Y-101746447D01*
X108596447Y-101550000D01*
X108203552Y-101550000D01*
X106928628Y-101550000D01*
X106922358Y-101541722D01*
X106905497Y-101524062D01*
X106904354Y-101517950D01*
X106902903Y-101516034D01*
X106903367Y-101512669D01*
X106900500Y-101497331D01*
X106900500Y-100755123D01*
X106922174Y-100702797D01*
X107265431Y-100359540D01*
X107740460Y-99884511D01*
X107766411Y-99839562D01*
X107780021Y-99815989D01*
X107800499Y-99739564D01*
X107800500Y-99739564D01*
X107800500Y-98401195D01*
X107822174Y-98348869D01*
X107874500Y-98327195D01*
X107926826Y-98348869D01*
X107979360Y-98401403D01*
X108083844Y-98447537D01*
X108109384Y-98450500D01*
X108690616Y-98450500D01*
X108716156Y-98447537D01*
X108820640Y-98401403D01*
X108899869Y-98322173D01*
X108952194Y-98300500D01*
X108972857Y-98300500D01*
X109009857Y-98310414D01*
X109071809Y-98346182D01*
X109106814Y-98366392D01*
X109234105Y-98400499D01*
X109234106Y-98400500D01*
X109234108Y-98400500D01*
X109365894Y-98400500D01*
X109365894Y-98400499D01*
X109493186Y-98366392D01*
X109607314Y-98300500D01*
X109700500Y-98207314D01*
X109764510Y-98096446D01*
X116050000Y-98096446D01*
X116246447Y-97899999D01*
X116050000Y-97703552D01*
X116050000Y-98096446D01*
X109764510Y-98096446D01*
X109766392Y-98093186D01*
X109800499Y-97965894D01*
X109800500Y-97965894D01*
X109800500Y-97834106D01*
X109800499Y-97834105D01*
X109793991Y-97809818D01*
X109766392Y-97706814D01*
X109766390Y-97706811D01*
X109766388Y-97706805D01*
X109757326Y-97691110D01*
X109757324Y-97691107D01*
X109727590Y-97639608D01*
X109700500Y-97592686D01*
X109607314Y-97499500D01*
X109596317Y-97493151D01*
X109493191Y-97433610D01*
X109493181Y-97433606D01*
X109365894Y-97399500D01*
X109365892Y-97399500D01*
X109234108Y-97399500D01*
X109234106Y-97399500D01*
X109106818Y-97433606D01*
X109106809Y-97433610D01*
X109009857Y-97489586D01*
X108972857Y-97499500D01*
X108952194Y-97499500D01*
X108899869Y-97477826D01*
X108820640Y-97398597D01*
X108716156Y-97352463D01*
X108716155Y-97352462D01*
X108716153Y-97352462D01*
X108694927Y-97350000D01*
X116403552Y-97350000D01*
X116599999Y-97546447D01*
X116796447Y-97350000D01*
X116403552Y-97350000D01*
X108694927Y-97350000D01*
X108690616Y-97349500D01*
X108109384Y-97349500D01*
X108083846Y-97352462D01*
X107979359Y-97398597D01*
X107893748Y-97484209D01*
X107891280Y-97481741D01*
X107854073Y-97505962D01*
X107803508Y-97497302D01*
X107693190Y-97433610D01*
X107693181Y-97433606D01*
X107565894Y-97399500D01*
X107565892Y-97399500D01*
X107434108Y-97399500D01*
X107434106Y-97399500D01*
X107306818Y-97433606D01*
X107306809Y-97433610D01*
X107192685Y-97499500D01*
X107099500Y-97592685D01*
X107033610Y-97706809D01*
X107033606Y-97706818D01*
X106998244Y-97838793D01*
X106996699Y-97838379D01*
X106978713Y-97874838D01*
X106776776Y-98076776D01*
X106403552Y-98449998D01*
X106403552Y-98449999D01*
X106890534Y-98449999D01*
X106916032Y-98447042D01*
X106916038Y-98447040D01*
X107020352Y-98400982D01*
X107073174Y-98348161D01*
X107125500Y-98326487D01*
X107177826Y-98348161D01*
X107199500Y-98400487D01*
X107199500Y-99544877D01*
X107177826Y-99597203D01*
X106359540Y-100415488D01*
X106319979Y-100484009D01*
X106319977Y-100484014D01*
X106299500Y-100560435D01*
X106299500Y-101497331D01*
X106277826Y-101549657D01*
X106255391Y-101565026D01*
X106179358Y-101598598D01*
X106098597Y-101679359D01*
X106052462Y-101783846D01*
X106049500Y-101809384D01*
X97150500Y-101809384D01*
X97147537Y-101783844D01*
X97101403Y-101679360D01*
X97020640Y-101598597D01*
X96940750Y-101563322D01*
X96937098Y-101561183D01*
X96928628Y-101550000D01*
X98203552Y-101550000D01*
X98399999Y-101746447D01*
X98596447Y-101550000D01*
X98203552Y-101550000D01*
X96928628Y-101550000D01*
X96922358Y-101541722D01*
X96905497Y-101524062D01*
X96904354Y-101517950D01*
X96902903Y-101516034D01*
X96903367Y-101512669D01*
X96900500Y-101497331D01*
X96900500Y-101155123D01*
X96922174Y-101102797D01*
X97302797Y-100722174D01*
X97355123Y-100700500D01*
X98839564Y-100700500D01*
X98839564Y-100700499D01*
X98915989Y-100680021D01*
X98984511Y-100640460D01*
X99040460Y-100584511D01*
X99640460Y-99984511D01*
X99643052Y-99980021D01*
X99680021Y-99915989D01*
X99700500Y-99839562D01*
X99700500Y-99037966D01*
X99722174Y-98985640D01*
X99739307Y-98968507D01*
X99800500Y-98907314D01*
X99866392Y-98793186D01*
X99900499Y-98665894D01*
X99900500Y-98665894D01*
X99900500Y-98534109D01*
X99892549Y-98504434D01*
X99866392Y-98406814D01*
X99866390Y-98406810D01*
X99864737Y-98402819D01*
X99864737Y-98346182D01*
X99904785Y-98306133D01*
X99933104Y-98300500D01*
X100903455Y-98300500D01*
X100955781Y-98322174D01*
X100985478Y-98351871D01*
X101004630Y-98385044D01*
X101033606Y-98493182D01*
X101033608Y-98493187D01*
X101083874Y-98580249D01*
X101099500Y-98607314D01*
X101192686Y-98700500D01*
X101306814Y-98766392D01*
X101434105Y-98800499D01*
X101434106Y-98800500D01*
X101434108Y-98800500D01*
X101565894Y-98800500D01*
X101565894Y-98800499D01*
X101693186Y-98766392D01*
X101807314Y-98700500D01*
X101900500Y-98607314D01*
X101966392Y-98493186D01*
X102000499Y-98365894D01*
X102000500Y-98365894D01*
X102000500Y-98234106D01*
X102000499Y-98234105D01*
X101993320Y-98207314D01*
X101966392Y-98106814D01*
X101960406Y-98096446D01*
X106050000Y-98096446D01*
X106246447Y-97899999D01*
X106050000Y-97703552D01*
X106050000Y-98096446D01*
X101960406Y-98096446D01*
X101900500Y-97992686D01*
X101807314Y-97899500D01*
X101693187Y-97833608D01*
X101693182Y-97833606D01*
X101585044Y-97804630D01*
X101551871Y-97785478D01*
X101472826Y-97706433D01*
X101422026Y-97655633D01*
X101345913Y-97579520D01*
X101345910Y-97579518D01*
X101345909Y-97579517D01*
X101254592Y-97526795D01*
X101254588Y-97526793D01*
X101152727Y-97499500D01*
X101152726Y-97499500D01*
X98952194Y-97499500D01*
X98952193Y-97499499D01*
X98952193Y-97499500D01*
X98936867Y-97493151D01*
X98899869Y-97477826D01*
X98875930Y-97453887D01*
X98841733Y-97419689D01*
X98841732Y-97419689D01*
X98820640Y-97398597D01*
X98816853Y-97396925D01*
X98716156Y-97352463D01*
X98716155Y-97352462D01*
X98716153Y-97352462D01*
X98694927Y-97350000D01*
X106403552Y-97350000D01*
X106599999Y-97546447D01*
X106796447Y-97350000D01*
X106403552Y-97350000D01*
X98694927Y-97350000D01*
X98690616Y-97349500D01*
X98109384Y-97349500D01*
X98083846Y-97352462D01*
X97979359Y-97398597D01*
X97898597Y-97479359D01*
X97852462Y-97583846D01*
X97849500Y-97609384D01*
X97849500Y-98190615D01*
X97852462Y-98216153D01*
X97852462Y-98216155D01*
X97852463Y-98216156D01*
X97898597Y-98320640D01*
X97979360Y-98401403D01*
X98083844Y-98447537D01*
X98109384Y-98450500D01*
X98690616Y-98450500D01*
X98716156Y-98447537D01*
X98809048Y-98406520D01*
X98865669Y-98405213D01*
X98906632Y-98444326D01*
X98910416Y-98493368D01*
X98899500Y-98534108D01*
X98899500Y-98665894D01*
X98933606Y-98793181D01*
X98933610Y-98793190D01*
X98999500Y-98907314D01*
X99077826Y-98985640D01*
X99099500Y-99037966D01*
X99099500Y-99644877D01*
X99077826Y-99697203D01*
X98697203Y-100077826D01*
X98644877Y-100099500D01*
X97160436Y-100099500D01*
X97084014Y-100119977D01*
X97084009Y-100119979D01*
X97015488Y-100159540D01*
X96359540Y-100815488D01*
X96319979Y-100884009D01*
X96319977Y-100884014D01*
X96299500Y-100960435D01*
X96299500Y-101497331D01*
X96277826Y-101549657D01*
X96255391Y-101565026D01*
X96179358Y-101598598D01*
X96098597Y-101679359D01*
X96052462Y-101783846D01*
X96049500Y-101809384D01*
X87150500Y-101809384D01*
X87147537Y-101783844D01*
X87101403Y-101679360D01*
X87020640Y-101598597D01*
X86940750Y-101563322D01*
X86937098Y-101561183D01*
X86928628Y-101550000D01*
X88203552Y-101550000D01*
X88399999Y-101746447D01*
X88596447Y-101550000D01*
X88203552Y-101550000D01*
X86928628Y-101550000D01*
X86922358Y-101541722D01*
X86905497Y-101524062D01*
X86904354Y-101517950D01*
X86902903Y-101516034D01*
X86903367Y-101512669D01*
X86900500Y-101497331D01*
X86900500Y-100260436D01*
X86900499Y-100260435D01*
X86880022Y-100184014D01*
X86880020Y-100184009D01*
X86840459Y-100115488D01*
X85722174Y-98997203D01*
X85700500Y-98944877D01*
X85700500Y-98537966D01*
X85720022Y-98487885D01*
X85721080Y-98486733D01*
X85757815Y-98449998D01*
X86403552Y-98449998D01*
X86403552Y-98449999D01*
X86786192Y-98449999D01*
X86838518Y-98471673D01*
X86860192Y-98523999D01*
X86838518Y-98576325D01*
X86816818Y-98598024D01*
X86750928Y-98712148D01*
X86750924Y-98712157D01*
X86716818Y-98839444D01*
X86716818Y-98971233D01*
X86750924Y-99098520D01*
X86750925Y-99098523D01*
X86750926Y-99098525D01*
X86816818Y-99212653D01*
X86910004Y-99305839D01*
X87024132Y-99371731D01*
X87151423Y-99405838D01*
X87151424Y-99405839D01*
X87151426Y-99405839D01*
X87283212Y-99405839D01*
X87283212Y-99405838D01*
X87410504Y-99371731D01*
X87478567Y-99332434D01*
X87507461Y-99315753D01*
X87544461Y-99305839D01*
X88047387Y-99305839D01*
X88047388Y-99305839D01*
X88149249Y-99278546D01*
X88240574Y-99225819D01*
X88720480Y-98745913D01*
X88773207Y-98654588D01*
X88800500Y-98552727D01*
X88800500Y-98452195D01*
X88801410Y-98449998D01*
X96403552Y-98449998D01*
X96403552Y-98449999D01*
X96796447Y-98449999D01*
X96600000Y-98253552D01*
X96403552Y-98449998D01*
X88801410Y-98449998D01*
X88822174Y-98399869D01*
X88841733Y-98380310D01*
X88870172Y-98351871D01*
X88901403Y-98320640D01*
X88947537Y-98216156D01*
X88950500Y-98190616D01*
X88950500Y-98096446D01*
X96050000Y-98096446D01*
X96246447Y-97899999D01*
X96953552Y-97899999D01*
X96953552Y-97900000D01*
X97149998Y-98096446D01*
X97149999Y-98096446D01*
X97149999Y-97703552D01*
X96953552Y-97899999D01*
X96246447Y-97899999D01*
X96050000Y-97703552D01*
X96050000Y-98096446D01*
X88950500Y-98096446D01*
X88950500Y-97609384D01*
X88947537Y-97583844D01*
X88901403Y-97479360D01*
X88820640Y-97398597D01*
X88716156Y-97352463D01*
X88716155Y-97352462D01*
X88716153Y-97352462D01*
X88694927Y-97350000D01*
X96403552Y-97350000D01*
X96599999Y-97546447D01*
X96796447Y-97350000D01*
X96403552Y-97350000D01*
X88694927Y-97350000D01*
X88690616Y-97349500D01*
X88109384Y-97349500D01*
X88083846Y-97352462D01*
X87979359Y-97398597D01*
X87898597Y-97479359D01*
X87852462Y-97583846D01*
X87849500Y-97609384D01*
X87849500Y-98190615D01*
X87852462Y-98216153D01*
X87898597Y-98320640D01*
X87903456Y-98325499D01*
X87925130Y-98377825D01*
X87903456Y-98430151D01*
X87850442Y-98483165D01*
X87798116Y-98504839D01*
X87544461Y-98504839D01*
X87507461Y-98494925D01*
X87410508Y-98438949D01*
X87410499Y-98438945D01*
X87283212Y-98404839D01*
X87283210Y-98404839D01*
X87177245Y-98404839D01*
X87124919Y-98383165D01*
X87103245Y-98330839D01*
X87109550Y-98300949D01*
X87147040Y-98216039D01*
X87149999Y-98190531D01*
X87149999Y-97703552D01*
X87149998Y-97703552D01*
X86776776Y-98076776D01*
X86403552Y-98449998D01*
X85757815Y-98449998D01*
X85800500Y-98407314D01*
X85866392Y-98293186D01*
X85900499Y-98165894D01*
X85900500Y-98165894D01*
X85900500Y-98096446D01*
X86050000Y-98096446D01*
X86246447Y-97899999D01*
X86050000Y-97703552D01*
X86050000Y-98096446D01*
X85900500Y-98096446D01*
X85900500Y-98034106D01*
X85900499Y-98034105D01*
X85866393Y-97906818D01*
X85866392Y-97906814D01*
X85800500Y-97792686D01*
X85707314Y-97699500D01*
X85636087Y-97658377D01*
X85593190Y-97633610D01*
X85593181Y-97633606D01*
X85465894Y-97599500D01*
X85465892Y-97599500D01*
X85334108Y-97599500D01*
X85334106Y-97599500D01*
X85206818Y-97633606D01*
X85206809Y-97633610D01*
X85092685Y-97699500D01*
X84999500Y-97792685D01*
X84933610Y-97906809D01*
X84933606Y-97906818D01*
X84899500Y-98034105D01*
X79800500Y-98034105D01*
X79800500Y-97937106D01*
X79800499Y-97937105D01*
X79772767Y-97833608D01*
X79766392Y-97809814D01*
X79700500Y-97695686D01*
X79607314Y-97602500D01*
X79590314Y-97592685D01*
X79493190Y-97536610D01*
X79493181Y-97536606D01*
X79365894Y-97502500D01*
X79365892Y-97502500D01*
X79270665Y-97502500D01*
X79251509Y-97499977D01*
X79249729Y-97499500D01*
X79249727Y-97499500D01*
X78952194Y-97499500D01*
X78952193Y-97499499D01*
X78952193Y-97499500D01*
X78936867Y-97493151D01*
X78899869Y-97477826D01*
X78875930Y-97453887D01*
X78841733Y-97419689D01*
X78841732Y-97419689D01*
X78820640Y-97398597D01*
X78816853Y-97396925D01*
X78716156Y-97352463D01*
X78716155Y-97352462D01*
X78716153Y-97352462D01*
X78694927Y-97350000D01*
X86403552Y-97350000D01*
X86599999Y-97546447D01*
X86796447Y-97350000D01*
X86403552Y-97350000D01*
X78694927Y-97350000D01*
X78690616Y-97349500D01*
X78109384Y-97349500D01*
X78083846Y-97352462D01*
X77979359Y-97398597D01*
X77893748Y-97484209D01*
X77891280Y-97481741D01*
X77854073Y-97505962D01*
X77803508Y-97497302D01*
X77693190Y-97433610D01*
X77693181Y-97433606D01*
X77565894Y-97399500D01*
X77565892Y-97399500D01*
X77434108Y-97399500D01*
X77434106Y-97399500D01*
X77306818Y-97433606D01*
X77306809Y-97433610D01*
X77192685Y-97499500D01*
X77099500Y-97592685D01*
X77033610Y-97706809D01*
X77033606Y-97706818D01*
X76998244Y-97838793D01*
X76996699Y-97838379D01*
X76978713Y-97874838D01*
X76776776Y-98076776D01*
X76403552Y-98449998D01*
X76403552Y-98449999D01*
X76890534Y-98449999D01*
X76916032Y-98447042D01*
X76916038Y-98447040D01*
X77020352Y-98400982D01*
X77073174Y-98348161D01*
X77125500Y-98326487D01*
X77177826Y-98348161D01*
X77199500Y-98400487D01*
X77199500Y-99544877D01*
X77177826Y-99597203D01*
X76359540Y-100415488D01*
X76319979Y-100484009D01*
X76319977Y-100484014D01*
X76299500Y-100560435D01*
X76299500Y-101497331D01*
X76277826Y-101549657D01*
X76255391Y-101565026D01*
X76179358Y-101598598D01*
X76098597Y-101679359D01*
X76052462Y-101783846D01*
X76049500Y-101809384D01*
X67150500Y-101809384D01*
X67147537Y-101783844D01*
X67101403Y-101679360D01*
X67020640Y-101598597D01*
X66940750Y-101563322D01*
X66937098Y-101561183D01*
X66928628Y-101550000D01*
X68203552Y-101550000D01*
X68399999Y-101746447D01*
X68596447Y-101550000D01*
X68203552Y-101550000D01*
X66928628Y-101550000D01*
X66922358Y-101541722D01*
X66905497Y-101524062D01*
X66904354Y-101517950D01*
X66902903Y-101516034D01*
X66903367Y-101512669D01*
X66900500Y-101497331D01*
X66900500Y-100755123D01*
X66922174Y-100702797D01*
X67265431Y-100359540D01*
X67740460Y-99884511D01*
X67766411Y-99839562D01*
X67780021Y-99815989D01*
X67800499Y-99739564D01*
X67800500Y-99739564D01*
X67800500Y-98401195D01*
X67822174Y-98348869D01*
X67874500Y-98327195D01*
X67926826Y-98348869D01*
X67979360Y-98401403D01*
X68083844Y-98447537D01*
X68109384Y-98450500D01*
X68690616Y-98450500D01*
X68716156Y-98447537D01*
X68820640Y-98401403D01*
X68899869Y-98322173D01*
X68952194Y-98300500D01*
X68972857Y-98300500D01*
X69009857Y-98310414D01*
X69071809Y-98346182D01*
X69106814Y-98366392D01*
X69234105Y-98400499D01*
X69234106Y-98400500D01*
X69234108Y-98400500D01*
X69365894Y-98400500D01*
X69365894Y-98400499D01*
X69493186Y-98366392D01*
X69607314Y-98300500D01*
X69700500Y-98207314D01*
X69764510Y-98096446D01*
X76050000Y-98096446D01*
X76246447Y-97899999D01*
X76050000Y-97703552D01*
X76050000Y-98096446D01*
X69764510Y-98096446D01*
X69766392Y-98093186D01*
X69800499Y-97965894D01*
X69800500Y-97965894D01*
X69800500Y-97834106D01*
X69800499Y-97834105D01*
X69793991Y-97809818D01*
X69766392Y-97706814D01*
X69766390Y-97706811D01*
X69766388Y-97706805D01*
X69757326Y-97691110D01*
X69757324Y-97691107D01*
X69727590Y-97639608D01*
X69700500Y-97592686D01*
X69607314Y-97499500D01*
X69596317Y-97493151D01*
X69493191Y-97433610D01*
X69493181Y-97433606D01*
X69365894Y-97399500D01*
X69365892Y-97399500D01*
X69234108Y-97399500D01*
X69234106Y-97399500D01*
X69106818Y-97433606D01*
X69106809Y-97433610D01*
X69009857Y-97489586D01*
X68972857Y-97499500D01*
X68952194Y-97499500D01*
X68899869Y-97477826D01*
X68820640Y-97398597D01*
X68716156Y-97352463D01*
X68716155Y-97352462D01*
X68716153Y-97352462D01*
X68694927Y-97350000D01*
X76403552Y-97350000D01*
X76599999Y-97546447D01*
X76796447Y-97350000D01*
X76403552Y-97350000D01*
X68694927Y-97350000D01*
X68690616Y-97349500D01*
X68109384Y-97349500D01*
X68083846Y-97352462D01*
X67979359Y-97398597D01*
X67893748Y-97484209D01*
X67891280Y-97481741D01*
X67854073Y-97505962D01*
X67803508Y-97497302D01*
X67693190Y-97433610D01*
X67693181Y-97433606D01*
X67565894Y-97399500D01*
X67565892Y-97399500D01*
X67434108Y-97399500D01*
X67434106Y-97399500D01*
X67306818Y-97433606D01*
X67306809Y-97433610D01*
X67192685Y-97499500D01*
X67099500Y-97592685D01*
X67033610Y-97706809D01*
X67033606Y-97706818D01*
X66998244Y-97838793D01*
X66996699Y-97838379D01*
X66978713Y-97874838D01*
X66776776Y-98076776D01*
X66403552Y-98449998D01*
X66403552Y-98449999D01*
X66890534Y-98449999D01*
X66916032Y-98447042D01*
X66916038Y-98447040D01*
X67020352Y-98400982D01*
X67073174Y-98348161D01*
X67125500Y-98326487D01*
X67177826Y-98348161D01*
X67199500Y-98400487D01*
X67199500Y-99544877D01*
X67177826Y-99597203D01*
X66359540Y-100415488D01*
X66319979Y-100484009D01*
X66319977Y-100484014D01*
X66299500Y-100560435D01*
X66299500Y-101497331D01*
X66277826Y-101549657D01*
X66255391Y-101565026D01*
X66179358Y-101598598D01*
X66098597Y-101679359D01*
X66052462Y-101783846D01*
X66049500Y-101809384D01*
X57150500Y-101809384D01*
X57147537Y-101783844D01*
X57101403Y-101679360D01*
X57020640Y-101598597D01*
X56940750Y-101563322D01*
X56937098Y-101561183D01*
X56928628Y-101550000D01*
X58203552Y-101550000D01*
X58399999Y-101746447D01*
X58596447Y-101550000D01*
X58203552Y-101550000D01*
X56928628Y-101550000D01*
X56922358Y-101541722D01*
X56905497Y-101524062D01*
X56904354Y-101517950D01*
X56902903Y-101516034D01*
X56903367Y-101512669D01*
X56900500Y-101497331D01*
X56900500Y-100755123D01*
X56922174Y-100702797D01*
X57265431Y-100359540D01*
X57740460Y-99884511D01*
X57766411Y-99839562D01*
X57780021Y-99815989D01*
X57800499Y-99739564D01*
X57800500Y-99739564D01*
X57800500Y-98401195D01*
X57822174Y-98348869D01*
X57874500Y-98327195D01*
X57926826Y-98348869D01*
X57979360Y-98401403D01*
X58083844Y-98447537D01*
X58109384Y-98450500D01*
X58690616Y-98450500D01*
X58716156Y-98447537D01*
X58820640Y-98401403D01*
X58899869Y-98322173D01*
X58952194Y-98300500D01*
X58972857Y-98300500D01*
X59009857Y-98310414D01*
X59071809Y-98346182D01*
X59106814Y-98366392D01*
X59234105Y-98400499D01*
X59234106Y-98400500D01*
X59234108Y-98400500D01*
X59365894Y-98400500D01*
X59365894Y-98400499D01*
X59493186Y-98366392D01*
X59607314Y-98300500D01*
X59700500Y-98207314D01*
X59764510Y-98096446D01*
X66050000Y-98096446D01*
X66246447Y-97899999D01*
X66050000Y-97703552D01*
X66050000Y-98096446D01*
X59764510Y-98096446D01*
X59766392Y-98093186D01*
X59800499Y-97965894D01*
X59800500Y-97965894D01*
X59800500Y-97834106D01*
X59800499Y-97834105D01*
X59793991Y-97809818D01*
X59766392Y-97706814D01*
X59766390Y-97706811D01*
X59766388Y-97706805D01*
X59757326Y-97691110D01*
X59757324Y-97691107D01*
X59727590Y-97639608D01*
X59700500Y-97592686D01*
X59607314Y-97499500D01*
X59596317Y-97493151D01*
X59493191Y-97433610D01*
X59493181Y-97433606D01*
X59365894Y-97399500D01*
X59365892Y-97399500D01*
X59234108Y-97399500D01*
X59234106Y-97399500D01*
X59106818Y-97433606D01*
X59106809Y-97433610D01*
X59009857Y-97489586D01*
X58972857Y-97499500D01*
X58952194Y-97499500D01*
X58899869Y-97477826D01*
X58820640Y-97398597D01*
X58716156Y-97352463D01*
X58716155Y-97352462D01*
X58716153Y-97352462D01*
X58694927Y-97350000D01*
X66403552Y-97350000D01*
X66599999Y-97546447D01*
X66796447Y-97350000D01*
X66403552Y-97350000D01*
X58694927Y-97350000D01*
X58690616Y-97349500D01*
X58109384Y-97349500D01*
X58083846Y-97352462D01*
X57979359Y-97398597D01*
X57893748Y-97484209D01*
X57891280Y-97481741D01*
X57854073Y-97505962D01*
X57803508Y-97497302D01*
X57693190Y-97433610D01*
X57693181Y-97433606D01*
X57565894Y-97399500D01*
X57565892Y-97399500D01*
X57434108Y-97399500D01*
X57434106Y-97399500D01*
X57306818Y-97433606D01*
X57306809Y-97433610D01*
X57192685Y-97499500D01*
X57099500Y-97592685D01*
X57033610Y-97706809D01*
X57033606Y-97706818D01*
X56998244Y-97838793D01*
X56996699Y-97838379D01*
X56978713Y-97874838D01*
X56776776Y-98076776D01*
X56403552Y-98449998D01*
X56403552Y-98449999D01*
X56890534Y-98449999D01*
X56916032Y-98447042D01*
X56916038Y-98447040D01*
X57020352Y-98400982D01*
X57073174Y-98348161D01*
X57125500Y-98326487D01*
X57177826Y-98348161D01*
X57199500Y-98400487D01*
X57199500Y-99544877D01*
X57177826Y-99597203D01*
X56359540Y-100415488D01*
X56319979Y-100484009D01*
X56319977Y-100484014D01*
X56299500Y-100560435D01*
X56299500Y-101497331D01*
X56277826Y-101549657D01*
X56255391Y-101565026D01*
X56179358Y-101598598D01*
X56098597Y-101679359D01*
X56052462Y-101783846D01*
X56049500Y-101809384D01*
X54508071Y-101809384D01*
X54471457Y-101753004D01*
X54471456Y-101753003D01*
X54471455Y-101753001D01*
X54467588Y-101746303D01*
X54304803Y-101426820D01*
X54301656Y-101419750D01*
X54200075Y-101155123D01*
X54173163Y-101085014D01*
X54170773Y-101077656D01*
X54158404Y-101031493D01*
X54077972Y-100731322D01*
X54076368Y-100723776D01*
X54020277Y-100369628D01*
X54019468Y-100361927D01*
X54014149Y-100260435D01*
X54000702Y-100003854D01*
X54000702Y-99996145D01*
X54019468Y-99638067D01*
X54020278Y-99630369D01*
X54028964Y-99575529D01*
X54076369Y-99276219D01*
X54077971Y-99268681D01*
X54170777Y-98922330D01*
X54173161Y-98914990D01*
X54301662Y-98580234D01*
X54304799Y-98573186D01*
X54467592Y-98253687D01*
X54471446Y-98247012D01*
X54569225Y-98096446D01*
X56050000Y-98096446D01*
X56246447Y-97899999D01*
X56050000Y-97703552D01*
X56050000Y-98096446D01*
X54569225Y-98096446D01*
X54666738Y-97946289D01*
X54671276Y-97940043D01*
X54896934Y-97661378D01*
X54902098Y-97655643D01*
X55155643Y-97402098D01*
X55161378Y-97396934D01*
X55219337Y-97350000D01*
X56403552Y-97350000D01*
X56599999Y-97546447D01*
X56796447Y-97350000D01*
X56403552Y-97350000D01*
X55219337Y-97350000D01*
X55440043Y-97171276D01*
X55446289Y-97166738D01*
X55747012Y-96971446D01*
X55753687Y-96967592D01*
X56073186Y-96804799D01*
X56080234Y-96801662D01*
X56414990Y-96673161D01*
X56422330Y-96670777D01*
X56768681Y-96577971D01*
X56776219Y-96576369D01*
X57130373Y-96520277D01*
X57138067Y-96519468D01*
X57498073Y-96500601D01*
X57501946Y-96500500D01*
X81848418Y-96500500D01*
X81897019Y-96492802D01*
X82042826Y-96469709D01*
X82042833Y-96469706D01*
X82042836Y-96469706D01*
X82230019Y-96408886D01*
X82230019Y-96408885D01*
X82230025Y-96408884D01*
X82405405Y-96319524D01*
X82564646Y-96203828D01*
X82703828Y-96064646D01*
X82819524Y-95905405D01*
X82908884Y-95730025D01*
X82969709Y-95542826D01*
X83000500Y-95348417D01*
X83000500Y-95255823D01*
X83001411Y-95244248D01*
X83001496Y-95243707D01*
X83010878Y-95184472D01*
X83018030Y-95162460D01*
X83042831Y-95113786D01*
X83056433Y-95095064D01*
X83095064Y-95056433D01*
X83113786Y-95042831D01*
X83162460Y-95018030D01*
X83184472Y-95010878D01*
X83231552Y-95003421D01*
X83244249Y-95001411D01*
X83255824Y-95000500D01*
X83315892Y-95000500D01*
X92434108Y-95000500D01*
X101684108Y-95000500D01*
X101744176Y-95000500D01*
X101755751Y-95001411D01*
G37*
%TD.AperFunction*%
%TD*%
M02*
