%TF.GenerationSoftware,KiCad,Pcbnew,9.0.4-9.0.4-0~ubuntu25.04.1*%
%TF.CreationDate,2025-10-24T07:51:48+02:00*%
%TF.ProjectId,Line_Follower,4c696e65-5f46-46f6-9c6c-6f7765722e6b,rev?*%
%TF.SameCoordinates,Original*%
%TF.FileFunction,Legend,Top*%
%TF.FilePolarity,Positive*%
%FSLAX46Y46*%
G04 Gerber Fmt 4.6, Leading zero omitted, Abs format (unit mm)*
G04 Created by KiCad (PCBNEW 9.0.4-9.0.4-0~ubuntu25.04.1) date 2025-10-24 07:51:48*
%MOMM*%
%LPD*%
G01*
G04 APERTURE LIST*
%ADD10C,0.300000*%
%ADD11C,0.120000*%
G04 APERTURE END LIST*
D10*
X119983082Y-99343685D02*
X120054510Y-99272257D01*
X120054510Y-99272257D02*
X120197368Y-99200828D01*
X120197368Y-99200828D02*
X120554510Y-99200828D01*
X120554510Y-99200828D02*
X120697368Y-99272257D01*
X120697368Y-99272257D02*
X120768796Y-99343685D01*
X120768796Y-99343685D02*
X120840225Y-99486542D01*
X120840225Y-99486542D02*
X120840225Y-99629400D01*
X120840225Y-99629400D02*
X120768796Y-99843685D01*
X120768796Y-99843685D02*
X119911653Y-100700828D01*
X119911653Y-100700828D02*
X120840225Y-100700828D01*
X54568796Y-99843685D02*
X54425939Y-99772257D01*
X54425939Y-99772257D02*
X54354510Y-99700828D01*
X54354510Y-99700828D02*
X54283082Y-99557971D01*
X54283082Y-99557971D02*
X54283082Y-99486542D01*
X54283082Y-99486542D02*
X54354510Y-99343685D01*
X54354510Y-99343685D02*
X54425939Y-99272257D01*
X54425939Y-99272257D02*
X54568796Y-99200828D01*
X54568796Y-99200828D02*
X54854510Y-99200828D01*
X54854510Y-99200828D02*
X54997368Y-99272257D01*
X54997368Y-99272257D02*
X55068796Y-99343685D01*
X55068796Y-99343685D02*
X55140225Y-99486542D01*
X55140225Y-99486542D02*
X55140225Y-99557971D01*
X55140225Y-99557971D02*
X55068796Y-99700828D01*
X55068796Y-99700828D02*
X54997368Y-99772257D01*
X54997368Y-99772257D02*
X54854510Y-99843685D01*
X54854510Y-99843685D02*
X54568796Y-99843685D01*
X54568796Y-99843685D02*
X54425939Y-99915114D01*
X54425939Y-99915114D02*
X54354510Y-99986542D01*
X54354510Y-99986542D02*
X54283082Y-100129400D01*
X54283082Y-100129400D02*
X54283082Y-100415114D01*
X54283082Y-100415114D02*
X54354510Y-100557971D01*
X54354510Y-100557971D02*
X54425939Y-100629400D01*
X54425939Y-100629400D02*
X54568796Y-100700828D01*
X54568796Y-100700828D02*
X54854510Y-100700828D01*
X54854510Y-100700828D02*
X54997368Y-100629400D01*
X54997368Y-100629400D02*
X55068796Y-100557971D01*
X55068796Y-100557971D02*
X55140225Y-100415114D01*
X55140225Y-100415114D02*
X55140225Y-100129400D01*
X55140225Y-100129400D02*
X55068796Y-99986542D01*
X55068796Y-99986542D02*
X54997368Y-99915114D01*
X54997368Y-99915114D02*
X54854510Y-99843685D01*
X130840225Y-100700828D02*
X129983082Y-100700828D01*
X130411653Y-100700828D02*
X130411653Y-99200828D01*
X130411653Y-99200828D02*
X130268796Y-99415114D01*
X130268796Y-99415114D02*
X130125939Y-99557971D01*
X130125939Y-99557971D02*
X129983082Y-99629400D01*
X74997368Y-99200828D02*
X74711653Y-99200828D01*
X74711653Y-99200828D02*
X74568796Y-99272257D01*
X74568796Y-99272257D02*
X74497368Y-99343685D01*
X74497368Y-99343685D02*
X74354510Y-99557971D01*
X74354510Y-99557971D02*
X74283082Y-99843685D01*
X74283082Y-99843685D02*
X74283082Y-100415114D01*
X74283082Y-100415114D02*
X74354510Y-100557971D01*
X74354510Y-100557971D02*
X74425939Y-100629400D01*
X74425939Y-100629400D02*
X74568796Y-100700828D01*
X74568796Y-100700828D02*
X74854510Y-100700828D01*
X74854510Y-100700828D02*
X74997368Y-100629400D01*
X74997368Y-100629400D02*
X75068796Y-100557971D01*
X75068796Y-100557971D02*
X75140225Y-100415114D01*
X75140225Y-100415114D02*
X75140225Y-100057971D01*
X75140225Y-100057971D02*
X75068796Y-99915114D01*
X75068796Y-99915114D02*
X74997368Y-99843685D01*
X74997368Y-99843685D02*
X74854510Y-99772257D01*
X74854510Y-99772257D02*
X74568796Y-99772257D01*
X74568796Y-99772257D02*
X74425939Y-99843685D01*
X74425939Y-99843685D02*
X74354510Y-99915114D01*
X74354510Y-99915114D02*
X74283082Y-100057971D01*
X64211653Y-99200828D02*
X65211653Y-99200828D01*
X65211653Y-99200828D02*
X64568796Y-100700828D01*
X103197368Y-99700828D02*
X103197368Y-100700828D01*
X102840225Y-99129400D02*
X102483082Y-100200828D01*
X102483082Y-100200828D02*
X103411653Y-100200828D01*
X109911653Y-99200828D02*
X110840225Y-99200828D01*
X110840225Y-99200828D02*
X110340225Y-99772257D01*
X110340225Y-99772257D02*
X110554510Y-99772257D01*
X110554510Y-99772257D02*
X110697368Y-99843685D01*
X110697368Y-99843685D02*
X110768796Y-99915114D01*
X110768796Y-99915114D02*
X110840225Y-100057971D01*
X110840225Y-100057971D02*
X110840225Y-100415114D01*
X110840225Y-100415114D02*
X110768796Y-100557971D01*
X110768796Y-100557971D02*
X110697368Y-100629400D01*
X110697368Y-100629400D02*
X110554510Y-100700828D01*
X110554510Y-100700828D02*
X110125939Y-100700828D01*
X110125939Y-100700828D02*
X109983082Y-100629400D01*
X109983082Y-100629400D02*
X109911653Y-100557971D01*
X82468796Y-99200828D02*
X81754510Y-99200828D01*
X81754510Y-99200828D02*
X81683082Y-99915114D01*
X81683082Y-99915114D02*
X81754510Y-99843685D01*
X81754510Y-99843685D02*
X81897368Y-99772257D01*
X81897368Y-99772257D02*
X82254510Y-99772257D01*
X82254510Y-99772257D02*
X82397368Y-99843685D01*
X82397368Y-99843685D02*
X82468796Y-99915114D01*
X82468796Y-99915114D02*
X82540225Y-100057971D01*
X82540225Y-100057971D02*
X82540225Y-100415114D01*
X82540225Y-100415114D02*
X82468796Y-100557971D01*
X82468796Y-100557971D02*
X82397368Y-100629400D01*
X82397368Y-100629400D02*
X82254510Y-100700828D01*
X82254510Y-100700828D02*
X81897368Y-100700828D01*
X81897368Y-100700828D02*
X81754510Y-100629400D01*
X81754510Y-100629400D02*
X81683082Y-100557971D01*
D11*
%TO.C,R16*%
X128477500Y-99762742D02*
X128477500Y-100237258D01*
X129522500Y-99762742D02*
X129522500Y-100237258D01*
%TO.C,C7*%
X97990000Y-100140580D02*
X97990000Y-99859420D01*
X99010000Y-100140580D02*
X99010000Y-99859420D01*
%TO.C,R9*%
X84477500Y-100237258D02*
X84477500Y-99762742D01*
X85522500Y-100237258D02*
X85522500Y-99762742D01*
%TO.C,R1*%
X83677500Y-102762742D02*
X83677500Y-103237258D01*
X84722500Y-102762742D02*
X84722500Y-103237258D01*
%TO.C,R12*%
X108477500Y-99762742D02*
X108477500Y-100237258D01*
X109522500Y-99762742D02*
X109522500Y-100237258D01*
%TO.C,R10*%
X100977500Y-99762742D02*
X100977500Y-100237258D01*
X102022500Y-99762742D02*
X102022500Y-100237258D01*
%TO.C,R17*%
X126977500Y-100237258D02*
X126977500Y-99762742D01*
X128022500Y-100237258D02*
X128022500Y-99762742D01*
%TO.C,R4*%
X68477500Y-99762742D02*
X68477500Y-100237258D01*
X69522500Y-99762742D02*
X69522500Y-100237258D01*
%TO.C,D1*%
X83465000Y-105200000D02*
X83465000Y-107485000D01*
X83465000Y-107485000D02*
X84935000Y-107485000D01*
X84935000Y-107485000D02*
X84935000Y-105200000D01*
%TO.C,R14*%
X118477500Y-99762742D02*
X118477500Y-100237258D01*
X119522500Y-99762742D02*
X119522500Y-100237258D01*
%TO.C,C9*%
X115490000Y-100140580D02*
X115490000Y-99859420D01*
X116510000Y-100140580D02*
X116510000Y-99859420D01*
%TO.C,C4*%
X65490000Y-100140580D02*
X65490000Y-99859420D01*
X66510000Y-100140580D02*
X66510000Y-99859420D01*
%TO.C,J1*%
X85140000Y-102240000D02*
X85140000Y-103490000D01*
X85440000Y-102540000D02*
X85440000Y-107260000D01*
X85440000Y-103850000D02*
X86050000Y-103850000D01*
X85440000Y-105150000D02*
X86050000Y-105150000D01*
X85440000Y-107260000D02*
X99560000Y-107260000D01*
X86050000Y-103150000D02*
X86050000Y-106650000D01*
X86050000Y-106650000D02*
X98950000Y-106650000D01*
X86390000Y-102240000D02*
X85140000Y-102240000D01*
X86900000Y-102340000D02*
X86900000Y-102540000D01*
X87200000Y-102340000D02*
X86900000Y-102340000D01*
X87200000Y-102440000D02*
X86900000Y-102440000D01*
X87200000Y-102540000D02*
X87200000Y-102340000D01*
X88000000Y-102540000D02*
X88000000Y-103150000D01*
X88000000Y-103150000D02*
X86050000Y-103150000D01*
X88400000Y-106150000D02*
X88600000Y-106150000D01*
X88400000Y-106650000D02*
X88400000Y-106150000D01*
X88500000Y-106650000D02*
X88500000Y-106150000D01*
X88600000Y-106150000D02*
X88600000Y-106650000D01*
X90400000Y-106150000D02*
X90600000Y-106150000D01*
X90400000Y-106650000D02*
X90400000Y-106150000D01*
X90500000Y-106650000D02*
X90500000Y-106150000D01*
X90600000Y-106150000D02*
X90600000Y-106650000D01*
X92400000Y-106150000D02*
X92600000Y-106150000D01*
X92400000Y-106650000D02*
X92400000Y-106150000D01*
X92500000Y-106650000D02*
X92500000Y-106150000D01*
X92600000Y-106150000D02*
X92600000Y-106650000D01*
X94400000Y-106150000D02*
X94600000Y-106150000D01*
X94400000Y-106650000D02*
X94400000Y-106150000D01*
X94500000Y-106650000D02*
X94500000Y-106150000D01*
X94600000Y-106150000D02*
X94600000Y-106650000D01*
X96400000Y-106150000D02*
X96600000Y-106150000D01*
X96400000Y-106650000D02*
X96400000Y-106150000D01*
X96500000Y-106650000D02*
X96500000Y-106150000D01*
X96600000Y-106150000D02*
X96600000Y-106650000D01*
X97000000Y-103150000D02*
X97000000Y-102540000D01*
X98950000Y-103150000D02*
X97000000Y-103150000D01*
X98950000Y-106650000D02*
X98950000Y-103150000D01*
X99560000Y-102540000D02*
X85440000Y-102540000D01*
X99560000Y-103850000D02*
X98950000Y-103850000D01*
X99560000Y-105150000D02*
X98950000Y-105150000D01*
X99560000Y-107260000D02*
X99560000Y-102540000D01*
%TO.C,R8*%
X85977500Y-99762742D02*
X85977500Y-100237258D01*
X87022500Y-99762742D02*
X87022500Y-100237258D01*
%TO.C,C10*%
X125490000Y-100140580D02*
X125490000Y-99859420D01*
X126510000Y-100140580D02*
X126510000Y-99859420D01*
%TO.C,C8*%
X105490000Y-100140580D02*
X105490000Y-99859420D01*
X106510000Y-100140580D02*
X106510000Y-99859420D01*
%TO.C,R6*%
X78477500Y-99762742D02*
X78477500Y-100237258D01*
X79522500Y-99762742D02*
X79522500Y-100237258D01*
%TO.C,C5*%
X75490000Y-100140580D02*
X75490000Y-99859420D01*
X76510000Y-100140580D02*
X76510000Y-99859420D01*
%TO.C,C3*%
X55490000Y-100140580D02*
X55490000Y-99859420D01*
X56510000Y-100140580D02*
X56510000Y-99859420D01*
%TO.C,R11*%
X99477500Y-100237258D02*
X99477500Y-99762742D01*
X100522500Y-100237258D02*
X100522500Y-99762742D01*
%TO.C,U1*%
X87440000Y-98400000D02*
X87440000Y-96450000D01*
X87440000Y-98400000D02*
X87440000Y-100350000D01*
X97560000Y-98400000D02*
X97560000Y-96450000D01*
X97560000Y-98400000D02*
X97560000Y-100350000D01*
X97835000Y-95940000D02*
X97505000Y-95700000D01*
X97835000Y-95460000D01*
X97835000Y-95940000D01*
G36*
X97835000Y-95940000D02*
G01*
X97505000Y-95700000D01*
X97835000Y-95460000D01*
X97835000Y-95940000D01*
G37*
%TO.C,C6*%
X82990000Y-100140580D02*
X82990000Y-99859420D01*
X84010000Y-100140580D02*
X84010000Y-99859420D01*
%TO.C,R13*%
X106977500Y-100237258D02*
X106977500Y-99762742D01*
X108022500Y-100237258D02*
X108022500Y-99762742D01*
%TO.C,R15*%
X116977500Y-100237258D02*
X116977500Y-99762742D01*
X118022500Y-100237258D02*
X118022500Y-99762742D01*
%TO.C,R3*%
X56977500Y-100237258D02*
X56977500Y-99762742D01*
X58022500Y-100237258D02*
X58022500Y-99762742D01*
%TO.C,R5*%
X66977500Y-100237258D02*
X66977500Y-99762742D01*
X68022500Y-100237258D02*
X68022500Y-99762742D01*
%TO.C,R2*%
X58477500Y-99762742D02*
X58477500Y-100237258D01*
X59522500Y-99762742D02*
X59522500Y-100237258D01*
%TO.C,R7*%
X76977500Y-100237258D02*
X76977500Y-99762742D01*
X78022500Y-100237258D02*
X78022500Y-99762742D01*
%TD*%
M02*
