%TF.GenerationSoftware,KiCad,Pcbnew,9.0.4-9.0.4-0~ubuntu25.04.1*%
%TF.CreationDate,2025-10-24T07:51:47+02:00*%
%TF.ProjectId,Line_Follower,4c696e65-5f46-46f6-9c6c-6f7765722e6b,rev?*%
%TF.SameCoordinates,Original*%
%TF.FileFunction,Copper,L1,Top*%
%TF.FilePolarity,Positive*%
%FSLAX46Y46*%
G04 Gerber Fmt 4.6, Leading zero omitted, Abs format (unit mm)*
G04 Created by KiCad (PCBNEW 9.0.4-9.0.4-0~ubuntu25.04.1) date 2025-10-24 07:51:47*
%MOMM*%
%LPD*%
G01*
G04 APERTURE LIST*
G04 Aperture macros list*
%AMRoundRect*
0 Rectangle with rounded corners*
0 $1 Rounding radius*
0 $2 $3 $4 $5 $6 $7 $8 $9 X,Y pos of 4 corners*
0 Add a 4 corners polygon primitive as box body*
4,1,4,$2,$3,$4,$5,$6,$7,$8,$9,$2,$3,0*
0 Add four circle primitives for the rounded corners*
1,1,$1+$1,$2,$3*
1,1,$1+$1,$4,$5*
1,1,$1+$1,$6,$7*
1,1,$1+$1,$8,$9*
0 Add four rect primitives between the rounded corners*
20,1,$1+$1,$2,$3,$4,$5,0*
20,1,$1+$1,$4,$5,$6,$7,0*
20,1,$1+$1,$6,$7,$8,$9,0*
20,1,$1+$1,$8,$9,$2,$3,0*%
G04 Aperture macros list end*
%TA.AperFunction,SMDPad,CuDef*%
%ADD10RoundRect,0.200000X-0.275000X0.200000X-0.275000X-0.200000X0.275000X-0.200000X0.275000X0.200000X0*%
%TD*%
%TA.AperFunction,ComponentPad*%
%ADD11C,4.400000*%
%TD*%
%TA.AperFunction,SMDPad,CuDef*%
%ADD12RoundRect,0.225000X0.250000X-0.225000X0.250000X0.225000X-0.250000X0.225000X-0.250000X-0.225000X0*%
%TD*%
%TA.AperFunction,SMDPad,CuDef*%
%ADD13RoundRect,0.200000X0.275000X-0.200000X0.275000X0.200000X-0.275000X0.200000X-0.275000X-0.200000X0*%
%TD*%
%TA.AperFunction,SMDPad,CuDef*%
%ADD14RoundRect,0.218750X0.256250X-0.218750X0.256250X0.218750X-0.256250X0.218750X-0.256250X-0.218750X0*%
%TD*%
%TA.AperFunction,ComponentPad*%
%ADD15RoundRect,0.250000X-0.350000X-0.625000X0.350000X-0.625000X0.350000X0.625000X-0.350000X0.625000X0*%
%TD*%
%TA.AperFunction,ComponentPad*%
%ADD16O,1.200000X1.750000*%
%TD*%
%TA.AperFunction,SMDPad,CuDef*%
%ADD17RoundRect,0.150000X-0.150000X0.825000X-0.150000X-0.825000X0.150000X-0.825000X0.150000X0.825000X0*%
%TD*%
%TA.AperFunction,ViaPad*%
%ADD18C,0.600000*%
%TD*%
%TA.AperFunction,Conductor*%
%ADD19C,0.400000*%
%TD*%
%TA.AperFunction,Conductor*%
%ADD20C,0.200000*%
%TD*%
G04 APERTURE END LIST*
D10*
%TO.P,R16,1*%
%TO.N,Net-(U9-A)*%
X129000000Y-99175000D03*
%TO.P,R16,2*%
%TO.N,+3.3V*%
X129000000Y-100825000D03*
%TD*%
D11*
%TO.P,H1,1,1*%
%TO.N,GND*%
X81000000Y-104700000D03*
%TD*%
D12*
%TO.P,C7,1*%
%TO.N,+3.3V*%
X98500000Y-100775000D03*
%TO.P,C7,2*%
%TO.N,GND*%
X98500000Y-99225000D03*
%TD*%
D13*
%TO.P,R9,1*%
%TO.N,+3.3V*%
X85000000Y-100825000D03*
%TO.P,R9,2*%
%TO.N,/Led_Phototransistor_package3/V_out*%
X85000000Y-99175000D03*
%TD*%
D10*
%TO.P,R1,1*%
%TO.N,+3.3V*%
X84200000Y-102175000D03*
%TO.P,R1,2*%
%TO.N,Net-(D1-A)*%
X84200000Y-103825000D03*
%TD*%
D11*
%TO.P,H2,1,1*%
%TO.N,GND*%
X104000000Y-104700000D03*
%TD*%
D10*
%TO.P,R12,1*%
%TO.N,Net-(U7-A)*%
X109000000Y-99175000D03*
%TO.P,R12,2*%
%TO.N,+3.3V*%
X109000000Y-100825000D03*
%TD*%
%TO.P,R10,1*%
%TO.N,Net-(U6-A)*%
X101500000Y-99175000D03*
%TO.P,R10,2*%
%TO.N,+3.3V*%
X101500000Y-100825000D03*
%TD*%
D13*
%TO.P,R17,1*%
%TO.N,+3.3V*%
X127500000Y-100825000D03*
%TO.P,R17,2*%
%TO.N,/Led_Phototransistor_package7/V_out*%
X127500000Y-99175000D03*
%TD*%
D10*
%TO.P,R4,1*%
%TO.N,Net-(U3-A)*%
X69000000Y-99175000D03*
%TO.P,R4,2*%
%TO.N,+3.3V*%
X69000000Y-100825000D03*
%TD*%
D14*
%TO.P,D1,1,K*%
%TO.N,GND*%
X84200000Y-106787500D03*
%TO.P,D1,2,A*%
%TO.N,Net-(D1-A)*%
X84200000Y-105212500D03*
%TD*%
D10*
%TO.P,R14,1*%
%TO.N,Net-(U8-A)*%
X119000000Y-99175000D03*
%TO.P,R14,2*%
%TO.N,+3.3V*%
X119000000Y-100825000D03*
%TD*%
D12*
%TO.P,C9,1*%
%TO.N,+3.3V*%
X116000000Y-100775000D03*
%TO.P,C9,2*%
%TO.N,GND*%
X116000000Y-99225000D03*
%TD*%
%TO.P,C4,1*%
%TO.N,+3.3V*%
X66000000Y-100775000D03*
%TO.P,C4,2*%
%TO.N,GND*%
X66000000Y-99225000D03*
%TD*%
D15*
%TO.P,J1,1,Pin_1*%
%TO.N,GND*%
X87500000Y-104350000D03*
D16*
%TO.P,J1,2,Pin_2*%
%TO.N,/CS*%
X89500000Y-104350000D03*
%TO.P,J1,3,Pin_3*%
%TO.N,/MOSI*%
X91500000Y-104350000D03*
%TO.P,J1,4,Pin_4*%
%TO.N,/MISO*%
X93500000Y-104350000D03*
%TO.P,J1,5,Pin_5*%
%TO.N,/CLK*%
X95500000Y-104350000D03*
%TO.P,J1,6,Pin_6*%
%TO.N,+3.3V*%
X97500000Y-104350000D03*
%TD*%
D10*
%TO.P,R8,1*%
%TO.N,Net-(U5-A)*%
X86500000Y-99175000D03*
%TO.P,R8,2*%
%TO.N,+3.3V*%
X86500000Y-100825000D03*
%TD*%
D12*
%TO.P,C10,1*%
%TO.N,+3.3V*%
X126000000Y-100775000D03*
%TO.P,C10,2*%
%TO.N,GND*%
X126000000Y-99225000D03*
%TD*%
%TO.P,C8,1*%
%TO.N,+3.3V*%
X106000000Y-100775000D03*
%TO.P,C8,2*%
%TO.N,GND*%
X106000000Y-99225000D03*
%TD*%
D10*
%TO.P,R6,1*%
%TO.N,Net-(U4-A)*%
X79000000Y-99175000D03*
%TO.P,R6,2*%
%TO.N,+3.3V*%
X79000000Y-100825000D03*
%TD*%
D12*
%TO.P,C5,1*%
%TO.N,+3.3V*%
X76000000Y-100775000D03*
%TO.P,C5,2*%
%TO.N,GND*%
X76000000Y-99225000D03*
%TD*%
%TO.P,C3,1*%
%TO.N,+3.3V*%
X56000000Y-100775000D03*
%TO.P,C3,2*%
%TO.N,GND*%
X56000000Y-99225000D03*
%TD*%
D13*
%TO.P,R11,1*%
%TO.N,+3.3V*%
X100000000Y-100825000D03*
%TO.P,R11,2*%
%TO.N,/Led_Phototransistor_package4/V_out*%
X100000000Y-99175000D03*
%TD*%
D17*
%TO.P,U1,1,CH0*%
%TO.N,/Led_Phototransistor_package7/V_out*%
X96945000Y-95925000D03*
%TO.P,U1,2,CH1*%
%TO.N,/Led_Phototransistor_package6/V_out*%
X95675000Y-95925000D03*
%TO.P,U1,3,CH2*%
%TO.N,/Led_Phototransistor_package5/V_out*%
X94405000Y-95925000D03*
%TO.P,U1,4,CH3*%
%TO.N,/Led_Phototransistor_package4/V_out*%
X93135000Y-95925000D03*
%TO.P,U1,5,CH4*%
%TO.N,/Led_Phototransistor_package3/V_out*%
X91865000Y-95925000D03*
%TO.P,U1,6,CH5*%
%TO.N,/Led_Phototransistor_package2/V_out*%
X90595000Y-95925000D03*
%TO.P,U1,7,CH6*%
%TO.N,/Led_Phototransistor_package1/V_out*%
X89325000Y-95925000D03*
%TO.P,U1,8,CH7*%
%TO.N,/Led_Phototransistor_package/V_out*%
X88055000Y-95925000D03*
%TO.P,U1,9,DGND*%
%TO.N,GND*%
X88055000Y-100875000D03*
%TO.P,U1,10,~{CS}/SHDN*%
%TO.N,/CS*%
X89325000Y-100875000D03*
%TO.P,U1,11,Din*%
%TO.N,/MOSI*%
X90595000Y-100875000D03*
%TO.P,U1,12,Dout*%
%TO.N,/MISO*%
X91865000Y-100875000D03*
%TO.P,U1,13,CLK*%
%TO.N,/CLK*%
X93135000Y-100875000D03*
%TO.P,U1,14,AGND*%
%TO.N,GND*%
X94405000Y-100875000D03*
%TO.P,U1,15,Vref*%
%TO.N,+3.3V*%
X95675000Y-100875000D03*
%TO.P,U1,16,Vdd*%
X96945000Y-100875000D03*
%TD*%
D12*
%TO.P,C6,1*%
%TO.N,+3.3V*%
X83500000Y-100775000D03*
%TO.P,C6,2*%
%TO.N,GND*%
X83500000Y-99225000D03*
%TD*%
D13*
%TO.P,R13,1*%
%TO.N,+3.3V*%
X107500000Y-100825000D03*
%TO.P,R13,2*%
%TO.N,/Led_Phototransistor_package5/V_out*%
X107500000Y-99175000D03*
%TD*%
%TO.P,R15,1*%
%TO.N,+3.3V*%
X117500000Y-100825000D03*
%TO.P,R15,2*%
%TO.N,/Led_Phototransistor_package6/V_out*%
X117500000Y-99175000D03*
%TD*%
%TO.P,R3,1*%
%TO.N,+3.3V*%
X57500000Y-100825000D03*
%TO.P,R3,2*%
%TO.N,/Led_Phototransistor_package/V_out*%
X57500000Y-99175000D03*
%TD*%
%TO.P,R5,1*%
%TO.N,+3.3V*%
X67500000Y-100825000D03*
%TO.P,R5,2*%
%TO.N,/Led_Phototransistor_package1/V_out*%
X67500000Y-99175000D03*
%TD*%
D10*
%TO.P,R2,1*%
%TO.N,Net-(U2-A)*%
X59000000Y-99175000D03*
%TO.P,R2,2*%
%TO.N,+3.3V*%
X59000000Y-100825000D03*
%TD*%
D13*
%TO.P,R7,1*%
%TO.N,+3.3V*%
X77500000Y-100825000D03*
%TO.P,R7,2*%
%TO.N,/Led_Phototransistor_package2/V_out*%
X77500000Y-99175000D03*
%TD*%
D18*
%TO.N,/Led_Phototransistor_package/V_out*%
X57500000Y-97900000D03*
%TO.N,GND*%
X97800000Y-95300000D03*
X127500000Y-102100000D03*
X55000000Y-99200000D03*
X65000000Y-99200000D03*
X87500000Y-102100000D03*
X95500000Y-102800000D03*
X107500000Y-102100000D03*
X67500000Y-102100000D03*
X75000000Y-99200000D03*
X83300000Y-95300000D03*
X93800000Y-99500000D03*
X115000000Y-99200000D03*
X100800000Y-104800000D03*
X82500000Y-99200000D03*
X87200000Y-95300000D03*
X88700000Y-99500000D03*
X83200000Y-106800000D03*
X101700000Y-95300000D03*
X97700000Y-102700000D03*
X105000000Y-99200000D03*
X117500000Y-102100000D03*
X125000000Y-99200000D03*
X57500000Y-102100000D03*
X77500000Y-102100000D03*
X97400000Y-99400000D03*
%TO.N,Net-(U2-A)*%
X59300000Y-97900000D03*
%TO.N,Net-(U3-A)*%
X69300000Y-97900000D03*
%TO.N,/Led_Phototransistor_package1/V_out*%
X67500000Y-97900000D03*
%TO.N,Net-(U4-A)*%
X79300000Y-98003000D03*
%TO.N,/Led_Phototransistor_package2/V_out*%
X77500000Y-97900000D03*
%TO.N,Net-(U5-A)*%
X87217318Y-98905339D03*
%TO.N,/Led_Phototransistor_package3/V_out*%
X85400000Y-98100000D03*
%TO.N,Net-(U6-A)*%
X101500000Y-98300000D03*
%TO.N,/Led_Phototransistor_package4/V_out*%
X99400000Y-98600000D03*
%TO.N,Net-(U7-A)*%
X109300000Y-97900000D03*
%TO.N,/Led_Phototransistor_package5/V_out*%
X107500000Y-97900000D03*
%TO.N,Net-(U8-A)*%
X119300000Y-97900000D03*
%TO.N,/Led_Phototransistor_package6/V_out*%
X117500000Y-97900000D03*
%TO.N,Net-(U9-A)*%
X129300000Y-97900000D03*
%TO.N,/Led_Phototransistor_package7/V_out*%
X127500000Y-97900000D03*
%TD*%
D19*
%TO.N,+3.3V*%
X86500000Y-100614021D02*
X87983509Y-99130512D01*
X96945000Y-103445000D02*
X97500000Y-104000000D01*
X128950000Y-100775000D02*
X129000000Y-100825000D01*
X106000000Y-100775000D02*
X100800000Y-100775000D01*
X94300000Y-98700000D02*
X95675000Y-100075000D01*
X100800000Y-100775000D02*
X98500000Y-100775000D01*
X95675000Y-100075000D02*
X95675000Y-100875000D01*
X95675000Y-100875000D02*
X96945000Y-100875000D01*
X97045000Y-100775000D02*
X96945000Y-100875000D01*
X87983509Y-99102297D02*
X88385806Y-98700000D01*
X56050000Y-100825000D02*
X56000000Y-100775000D01*
X84200000Y-102175000D02*
X84200000Y-100825000D01*
X98500000Y-100775000D02*
X97045000Y-100775000D01*
X84200000Y-100825000D02*
X86500000Y-100825000D01*
X106000000Y-100775000D02*
X128950000Y-100775000D01*
X79000000Y-100825000D02*
X84200000Y-100825000D01*
X79000000Y-100825000D02*
X56050000Y-100825000D01*
X86500000Y-100825000D02*
X86500000Y-100614021D01*
X87983509Y-99130512D02*
X87983509Y-99102297D01*
X96945000Y-100475000D02*
X96945000Y-103445000D01*
X88385806Y-98700000D02*
X94300000Y-98700000D01*
%TO.N,Net-(D1-A)*%
X84200000Y-103825000D02*
X84200000Y-105212500D01*
%TO.N,/CS*%
X89325000Y-103825000D02*
X89500000Y-104000000D01*
X89325000Y-100475000D02*
X89325000Y-103825000D01*
%TO.N,/CLK*%
X93135000Y-101635000D02*
X95500000Y-104000000D01*
%TO.N,/MISO*%
X91865000Y-102365000D02*
X93500000Y-104000000D01*
X91865000Y-102365000D02*
X91865000Y-100475000D01*
%TO.N,/MOSI*%
X90595000Y-103095000D02*
X91500000Y-104000000D01*
X90595000Y-100475000D02*
X90595000Y-103095000D01*
%TO.N,Net-(U2-A)*%
X59000000Y-99175000D02*
X59000000Y-98200000D01*
X59000000Y-98200000D02*
X59300000Y-97900000D01*
D20*
%TO.N,/Led_Phototransistor_package/V_out*%
X57500000Y-96900000D02*
X57500000Y-97900000D01*
X88055000Y-95925000D02*
X87379000Y-96601000D01*
X57799000Y-96601000D02*
X57500000Y-96900000D01*
D19*
X57500000Y-99175000D02*
X57500000Y-97900000D01*
D20*
X87379000Y-96601000D02*
X57799000Y-96601000D01*
D19*
%TO.N,Net-(U3-A)*%
X69000000Y-98200000D02*
X69300000Y-97900000D01*
X69000000Y-99175000D02*
X69000000Y-98200000D01*
D20*
%TO.N,/Led_Phototransistor_package1/V_out*%
X87499000Y-97201000D02*
X87300000Y-97002000D01*
X89325000Y-96899999D02*
X89023999Y-97201000D01*
X89023999Y-97201000D02*
X87499000Y-97201000D01*
X67500000Y-97400000D02*
X67500000Y-97900000D01*
X87300000Y-97002000D02*
X67898000Y-97002000D01*
X89325000Y-95925000D02*
X89325000Y-96899999D01*
D19*
X67500000Y-99175000D02*
X67500000Y-97900000D01*
D20*
X67898000Y-97002000D02*
X67500000Y-97400000D01*
D19*
%TO.N,Net-(U4-A)*%
X79300000Y-98003000D02*
X79197000Y-98003000D01*
X79197000Y-98003000D02*
X79000000Y-98200000D01*
X79000000Y-98200000D02*
X79000000Y-99175000D01*
D20*
%TO.N,/Led_Phototransistor_package2/V_out*%
X77997000Y-97403000D02*
X77500000Y-97900000D01*
X90595000Y-96899999D02*
X89892999Y-97602000D01*
X87133900Y-97403000D02*
X77997000Y-97403000D01*
X87332900Y-97602000D02*
X87133900Y-97403000D01*
X90595000Y-95925000D02*
X90595000Y-96899999D01*
X89892999Y-97602000D02*
X87332900Y-97602000D01*
D19*
X77500000Y-99175000D02*
X77500000Y-97900000D01*
%TO.N,Net-(U5-A)*%
X86527000Y-99175000D02*
X86500000Y-99175000D01*
X87217318Y-98905339D02*
X86796661Y-98905339D01*
X86796661Y-98905339D02*
X86527000Y-99175000D01*
%TO.N,/Led_Phototransistor_package3/V_out*%
X85000000Y-99175000D02*
X85000000Y-98500000D01*
D20*
X90761999Y-98003000D02*
X85497000Y-98003000D01*
D19*
X85000000Y-98500000D02*
X85400000Y-98100000D01*
D20*
X91865000Y-95925000D02*
X91865000Y-96899999D01*
X85497000Y-98003000D02*
X85400000Y-98100000D01*
X91865000Y-96899999D02*
X90761999Y-98003000D01*
D19*
%TO.N,Net-(U6-A)*%
X101500000Y-99175000D02*
X101500000Y-98300000D01*
D20*
%TO.N,/Led_Phototransistor_package4/V_out*%
X98803000Y-98003000D02*
X99400000Y-98600000D01*
X93135000Y-96899999D02*
X94238001Y-98003000D01*
D19*
X100000000Y-99175000D02*
X99975000Y-99175000D01*
D20*
X94238001Y-98003000D02*
X98803000Y-98003000D01*
D19*
X99975000Y-99175000D02*
X99400000Y-98600000D01*
D20*
X93135000Y-95925000D02*
X93135000Y-96899999D01*
D19*
%TO.N,Net-(U7-A)*%
X109000000Y-99175000D02*
X109000000Y-98200000D01*
X109000000Y-98200000D02*
X109300000Y-97900000D01*
D20*
%TO.N,/Led_Phototransistor_package5/V_out*%
X95107001Y-97602000D02*
X97666100Y-97602000D01*
X94405000Y-95925000D02*
X94405000Y-96899999D01*
X107500000Y-97700000D02*
X107500000Y-97900000D01*
X97866100Y-97402000D02*
X107202000Y-97402000D01*
X107202000Y-97402000D02*
X107500000Y-97700000D01*
D19*
X107500000Y-99175000D02*
X107500000Y-97900000D01*
D20*
X97666100Y-97602000D02*
X97866100Y-97402000D01*
X94405000Y-96899999D02*
X95107001Y-97602000D01*
D19*
%TO.N,Net-(U8-A)*%
X119000000Y-99175000D02*
X119000000Y-98200000D01*
X119000000Y-98200000D02*
X119300000Y-97900000D01*
D20*
%TO.N,/Led_Phototransistor_package6/V_out*%
X117500000Y-97400000D02*
X117500000Y-97900000D01*
X96604032Y-97201000D02*
X97500000Y-97201000D01*
X95675000Y-96271968D02*
X96604032Y-97201000D01*
X97700000Y-97001000D02*
X117101000Y-97001000D01*
X117101000Y-97001000D02*
X117500000Y-97400000D01*
X97500000Y-97201000D02*
X97700000Y-97001000D01*
D19*
X117500000Y-99175000D02*
X117500000Y-97900000D01*
D20*
X95675000Y-95925000D02*
X95675000Y-96271968D01*
D19*
%TO.N,Net-(U9-A)*%
X129000000Y-99175000D02*
X129000000Y-98200000D01*
X129000000Y-98200000D02*
X129300000Y-97900000D01*
D20*
%TO.N,/Led_Phototransistor_package7/V_out*%
X127500000Y-97400000D02*
X127500000Y-97900000D01*
D19*
X127500000Y-99175000D02*
X127500000Y-97900000D01*
D20*
X126700000Y-96600000D02*
X127500000Y-97400000D01*
X97620000Y-96600000D02*
X126700000Y-96600000D01*
X96945000Y-95925000D02*
X97620000Y-96600000D01*
%TD*%
%TA.AperFunction,Conductor*%
%TO.N,GND*%
G36*
X127501927Y-96500601D02*
G01*
X127861930Y-96519468D01*
X127869628Y-96520277D01*
X128223776Y-96576368D01*
X128231322Y-96577972D01*
X128577663Y-96670775D01*
X128585014Y-96673163D01*
X128919758Y-96801659D01*
X128926820Y-96804803D01*
X129246303Y-96967588D01*
X129252995Y-96971451D01*
X129467624Y-97110833D01*
X129553699Y-97166731D01*
X129559965Y-97171283D01*
X129793548Y-97360435D01*
X129838610Y-97396925D01*
X129844366Y-97402108D01*
X130097891Y-97655633D01*
X130103074Y-97661389D01*
X130328715Y-97940033D01*
X130333268Y-97946300D01*
X130412882Y-98068894D01*
X130515649Y-98227142D01*
X130528543Y-98246996D01*
X130532416Y-98253704D01*
X130695193Y-98573173D01*
X130698343Y-98580249D01*
X130826833Y-98914977D01*
X130829226Y-98922343D01*
X130922023Y-99268662D01*
X130923634Y-99276239D01*
X130979721Y-99630369D01*
X130980531Y-99638072D01*
X130999297Y-99996127D01*
X130999297Y-100003873D01*
X130980531Y-100361927D01*
X130979721Y-100369630D01*
X130923634Y-100723760D01*
X130922023Y-100731337D01*
X130829226Y-101077656D01*
X130826833Y-101085022D01*
X130698343Y-101419750D01*
X130695193Y-101426826D01*
X130532416Y-101746295D01*
X130528543Y-101753003D01*
X130333268Y-102053699D01*
X130328715Y-102059966D01*
X130103074Y-102338610D01*
X130097891Y-102344366D01*
X129844366Y-102597891D01*
X129838610Y-102603074D01*
X129559966Y-102828715D01*
X129553699Y-102833268D01*
X129253003Y-103028543D01*
X129246295Y-103032416D01*
X128926826Y-103195193D01*
X128919750Y-103198343D01*
X128585022Y-103326833D01*
X128577656Y-103329226D01*
X128231337Y-103422023D01*
X128223760Y-103423634D01*
X127869630Y-103479721D01*
X127861927Y-103480531D01*
X127501927Y-103499399D01*
X127498054Y-103499500D01*
X107605518Y-103499500D01*
X107418884Y-103529059D01*
X107418871Y-103529062D01*
X107239175Y-103587449D01*
X107070801Y-103673239D01*
X106917931Y-103784306D01*
X106784306Y-103917931D01*
X106673239Y-104070801D01*
X106587449Y-104239175D01*
X106529062Y-104418871D01*
X106529059Y-104418884D01*
X106499500Y-104605518D01*
X106499500Y-104697763D01*
X106499365Y-104702231D01*
X106481546Y-104996811D01*
X106480469Y-105005682D01*
X106427675Y-105293771D01*
X106425536Y-105302447D01*
X106338407Y-105582053D01*
X106335239Y-105590409D01*
X106215032Y-105857497D01*
X106210879Y-105865409D01*
X106059363Y-106116046D01*
X106054287Y-106123400D01*
X105873663Y-106353951D01*
X105867737Y-106360640D01*
X105660640Y-106567737D01*
X105653951Y-106573663D01*
X105423400Y-106754287D01*
X105416046Y-106759363D01*
X105165409Y-106910879D01*
X105157497Y-106915032D01*
X104890409Y-107035239D01*
X104882053Y-107038407D01*
X104602447Y-107125536D01*
X104593771Y-107127675D01*
X104305682Y-107180469D01*
X104296811Y-107181546D01*
X104002232Y-107199365D01*
X103997764Y-107199500D01*
X84936255Y-107199500D01*
X84883929Y-107177826D01*
X84862255Y-107125500D01*
X84863166Y-107113924D01*
X84875000Y-107039208D01*
X84875000Y-107037500D01*
X83525001Y-107037500D01*
X83525001Y-107039208D01*
X83536834Y-107113925D01*
X83523612Y-107168997D01*
X83475320Y-107198589D01*
X83463745Y-107199500D01*
X81002236Y-107199500D01*
X80997768Y-107199365D01*
X80703188Y-107181546D01*
X80694317Y-107180469D01*
X80406228Y-107127675D01*
X80397552Y-107125536D01*
X80397436Y-107125500D01*
X80117946Y-107038407D01*
X80109590Y-107035239D01*
X79842502Y-106915032D01*
X79834590Y-106910879D01*
X79583953Y-106759363D01*
X79576599Y-106754287D01*
X79368352Y-106591137D01*
X79346048Y-106573663D01*
X79339359Y-106567737D01*
X79307414Y-106535792D01*
X83525000Y-106535792D01*
X83525000Y-106537500D01*
X83950000Y-106537500D01*
X84450000Y-106537500D01*
X84874999Y-106537500D01*
X84874999Y-106535793D01*
X84859468Y-106437735D01*
X84799248Y-106319546D01*
X84705453Y-106225751D01*
X84587264Y-106165531D01*
X84489208Y-106150000D01*
X84450000Y-106150000D01*
X84450000Y-106537500D01*
X83950000Y-106537500D01*
X83950000Y-106150000D01*
X83949999Y-106149999D01*
X83910793Y-106150000D01*
X83812735Y-106165531D01*
X83694546Y-106225751D01*
X83600751Y-106319546D01*
X83540531Y-106437735D01*
X83525000Y-106535792D01*
X79307414Y-106535792D01*
X79132262Y-106360640D01*
X79126336Y-106353951D01*
X78945712Y-106123400D01*
X78940636Y-106116046D01*
X78789120Y-105865409D01*
X78784967Y-105857497D01*
X78774820Y-105834951D01*
X78664757Y-105590401D01*
X78661595Y-105582062D01*
X78574460Y-105302435D01*
X78572327Y-105293784D01*
X78519528Y-105005673D01*
X78518454Y-104996821D01*
X78500635Y-104702231D01*
X78500500Y-104697763D01*
X78500500Y-104605518D01*
X78470940Y-104418884D01*
X78470937Y-104418871D01*
X78412550Y-104239175D01*
X78412547Y-104239171D01*
X78412547Y-104239168D01*
X78326760Y-104070801D01*
X78215690Y-103917927D01*
X78082073Y-103784310D01*
X78082070Y-103784307D01*
X78082068Y-103784306D01*
X77929199Y-103673239D01*
X77896362Y-103656509D01*
X77864740Y-103640397D01*
X77772661Y-103593480D01*
X83524500Y-103593480D01*
X83524500Y-104056519D01*
X83539353Y-104150304D01*
X83539354Y-104150306D01*
X83584636Y-104239175D01*
X83596950Y-104263342D01*
X83686658Y-104353050D01*
X83759097Y-104389959D01*
X83766827Y-104399010D01*
X83777826Y-104403566D01*
X83784518Y-104419724D01*
X83795878Y-104433024D01*
X83799500Y-104455892D01*
X83799500Y-104551366D01*
X83777826Y-104603692D01*
X83759096Y-104617300D01*
X83694248Y-104650342D01*
X83600340Y-104744250D01*
X83540049Y-104862579D01*
X83540048Y-104862579D01*
X83524500Y-104960753D01*
X83524500Y-105464246D01*
X83540049Y-105562420D01*
X83600340Y-105680749D01*
X83694250Y-105774659D01*
X83753414Y-105804804D01*
X83812579Y-105834950D01*
X83812579Y-105834951D01*
X83910753Y-105850500D01*
X83910754Y-105850500D01*
X84489247Y-105850500D01*
X84587420Y-105834951D01*
X84705751Y-105774658D01*
X84799658Y-105680751D01*
X84859951Y-105562420D01*
X84875500Y-105464246D01*
X84875500Y-104960754D01*
X84859951Y-104862580D01*
X84799658Y-104744249D01*
X84705751Y-104650342D01*
X84705750Y-104650341D01*
X84676195Y-104635282D01*
X84640904Y-104617300D01*
X84604122Y-104574233D01*
X84600500Y-104551366D01*
X84600500Y-104455892D01*
X84622174Y-104403566D01*
X84640897Y-104389962D01*
X84713342Y-104353050D01*
X84803050Y-104263342D01*
X84860646Y-104150304D01*
X84875500Y-104056519D01*
X84875499Y-103670801D01*
X86700000Y-103670801D01*
X86700000Y-104100000D01*
X87219670Y-104100000D01*
X87199925Y-104119745D01*
X87150556Y-104205255D01*
X87125000Y-104300630D01*
X87125000Y-104399370D01*
X87150556Y-104494745D01*
X87199925Y-104580255D01*
X87219670Y-104600000D01*
X86700001Y-104600000D01*
X86700001Y-105029205D01*
X86702850Y-105059602D01*
X86702852Y-105059611D01*
X86747652Y-105187643D01*
X86828207Y-105296791D01*
X86828208Y-105296792D01*
X86937356Y-105377347D01*
X86937355Y-105377347D01*
X87065385Y-105422146D01*
X87065393Y-105422148D01*
X87095803Y-105424999D01*
X87250000Y-105424999D01*
X87250000Y-104630330D01*
X87269745Y-104650075D01*
X87355255Y-104699444D01*
X87450630Y-104725000D01*
X87549370Y-104725000D01*
X87644745Y-104699444D01*
X87730255Y-104650075D01*
X87750000Y-104630330D01*
X87750000Y-105424999D01*
X87904194Y-105424999D01*
X87904205Y-105424998D01*
X87934602Y-105422149D01*
X87934611Y-105422147D01*
X88062643Y-105377347D01*
X88171791Y-105296792D01*
X88171792Y-105296791D01*
X88252347Y-105187643D01*
X88297146Y-105059614D01*
X88297148Y-105059606D01*
X88299999Y-105029198D01*
X88300000Y-105029197D01*
X88300000Y-104600000D01*
X87780330Y-104600000D01*
X87800075Y-104580255D01*
X87849444Y-104494745D01*
X87875000Y-104399370D01*
X87875000Y-104300630D01*
X87849444Y-104205255D01*
X87800075Y-104119745D01*
X87780330Y-104100000D01*
X88299999Y-104100000D01*
X88299999Y-103996159D01*
X88699500Y-103996159D01*
X88699500Y-104703840D01*
X88730261Y-104858491D01*
X88730264Y-104858501D01*
X88790603Y-105004174D01*
X88790605Y-105004177D01*
X88790606Y-105004179D01*
X88878211Y-105135289D01*
X88989711Y-105246789D01*
X89120821Y-105334394D01*
X89120826Y-105334396D01*
X89120825Y-105334396D01*
X89266498Y-105394735D01*
X89266503Y-105394737D01*
X89421158Y-105425500D01*
X89421160Y-105425500D01*
X89578840Y-105425500D01*
X89578842Y-105425500D01*
X89733497Y-105394737D01*
X89879179Y-105334394D01*
X90010289Y-105246789D01*
X90121789Y-105135289D01*
X90209394Y-105004179D01*
X90269737Y-104858497D01*
X90300500Y-104703842D01*
X90300500Y-103996158D01*
X90269737Y-103841503D01*
X90246047Y-103784310D01*
X90209396Y-103695825D01*
X90209395Y-103695823D01*
X90209394Y-103695821D01*
X90121789Y-103564711D01*
X90010289Y-103453211D01*
X89879179Y-103365606D01*
X89879175Y-103365604D01*
X89879173Y-103365603D01*
X89879174Y-103365603D01*
X89771182Y-103320872D01*
X89731133Y-103280824D01*
X89725500Y-103252505D01*
X89725500Y-101975833D01*
X89747174Y-101923507D01*
X89764198Y-101906483D01*
X89815573Y-101801393D01*
X89825500Y-101733260D01*
X89825500Y-100016740D01*
X89825499Y-100016735D01*
X90094500Y-100016735D01*
X90094500Y-101733264D01*
X90104427Y-101801393D01*
X90104427Y-101801394D01*
X90155801Y-101906482D01*
X90172826Y-101923507D01*
X90194500Y-101975833D01*
X90194500Y-103042273D01*
X90194500Y-103147727D01*
X90208640Y-103200500D01*
X90221793Y-103249588D01*
X90221795Y-103249592D01*
X90274517Y-103340909D01*
X90274518Y-103340910D01*
X90274520Y-103340913D01*
X90498317Y-103564710D01*
X90709734Y-103776127D01*
X90731408Y-103828453D01*
X90729986Y-103842889D01*
X90699500Y-103996158D01*
X90699500Y-104703840D01*
X90730261Y-104858491D01*
X90730264Y-104858501D01*
X90790603Y-105004174D01*
X90790605Y-105004177D01*
X90790606Y-105004179D01*
X90878211Y-105135289D01*
X90989711Y-105246789D01*
X91120821Y-105334394D01*
X91120826Y-105334396D01*
X91120825Y-105334396D01*
X91266498Y-105394735D01*
X91266503Y-105394737D01*
X91421158Y-105425500D01*
X91421160Y-105425500D01*
X91578840Y-105425500D01*
X91578842Y-105425500D01*
X91733497Y-105394737D01*
X91879179Y-105334394D01*
X92010289Y-105246789D01*
X92121789Y-105135289D01*
X92209394Y-105004179D01*
X92269737Y-104858497D01*
X92300500Y-104703842D01*
X92300500Y-103996158D01*
X92269737Y-103841503D01*
X92246047Y-103784310D01*
X92209396Y-103695825D01*
X92209395Y-103695823D01*
X92209394Y-103695821D01*
X92121789Y-103564711D01*
X92010289Y-103453211D01*
X91879179Y-103365606D01*
X91879175Y-103365604D01*
X91879173Y-103365603D01*
X91879174Y-103365603D01*
X91733501Y-103305264D01*
X91733491Y-103305261D01*
X91629925Y-103284661D01*
X91578842Y-103274500D01*
X91421158Y-103274500D01*
X91393002Y-103280100D01*
X91337453Y-103269050D01*
X91326241Y-103259848D01*
X91017174Y-102950781D01*
X90995500Y-102898455D01*
X90995500Y-101975833D01*
X91017174Y-101923507D01*
X91034198Y-101906483D01*
X91085573Y-101801393D01*
X91095500Y-101733260D01*
X91095500Y-100016740D01*
X91095499Y-100016735D01*
X91364500Y-100016735D01*
X91364500Y-101733264D01*
X91374427Y-101801393D01*
X91374427Y-101801394D01*
X91425801Y-101906482D01*
X91442826Y-101923507D01*
X91464500Y-101975833D01*
X91464500Y-102312273D01*
X91464500Y-102417727D01*
X91486625Y-102500301D01*
X91491793Y-102519588D01*
X91491795Y-102519592D01*
X91544517Y-102610909D01*
X91544518Y-102610910D01*
X91544520Y-102610913D01*
X92128800Y-103195193D01*
X92709734Y-103776127D01*
X92731408Y-103828453D01*
X92729986Y-103842889D01*
X92699500Y-103996158D01*
X92699500Y-104703840D01*
X92730261Y-104858491D01*
X92730264Y-104858501D01*
X92790603Y-105004174D01*
X92790605Y-105004177D01*
X92790606Y-105004179D01*
X92878211Y-105135289D01*
X92989711Y-105246789D01*
X93120821Y-105334394D01*
X93120826Y-105334396D01*
X93120825Y-105334396D01*
X93266498Y-105394735D01*
X93266503Y-105394737D01*
X93421158Y-105425500D01*
X93421160Y-105425500D01*
X93578840Y-105425500D01*
X93578842Y-105425500D01*
X93733497Y-105394737D01*
X93879179Y-105334394D01*
X94010289Y-105246789D01*
X94121789Y-105135289D01*
X94209394Y-105004179D01*
X94269737Y-104858497D01*
X94300500Y-104703842D01*
X94300500Y-103996158D01*
X94269737Y-103841503D01*
X94246047Y-103784310D01*
X94209396Y-103695825D01*
X94209395Y-103695823D01*
X94209394Y-103695821D01*
X94121789Y-103564711D01*
X94010289Y-103453211D01*
X93879179Y-103365606D01*
X93879175Y-103365604D01*
X93879173Y-103365603D01*
X93879174Y-103365603D01*
X93733501Y-103305264D01*
X93733491Y-103305261D01*
X93629925Y-103284661D01*
X93578842Y-103274500D01*
X93421158Y-103274500D01*
X93393002Y-103280100D01*
X93337453Y-103269050D01*
X93326241Y-103259848D01*
X92287174Y-102220781D01*
X92265500Y-102168455D01*
X92265500Y-101975833D01*
X92287174Y-101923507D01*
X92304198Y-101906483D01*
X92355573Y-101801393D01*
X92365500Y-101733260D01*
X92365500Y-100016740D01*
X92365499Y-100016735D01*
X92634500Y-100016735D01*
X92634500Y-101733264D01*
X92644427Y-101801393D01*
X92644427Y-101801394D01*
X92695801Y-101906482D01*
X92695802Y-101906483D01*
X92778517Y-101989198D01*
X92883607Y-102040573D01*
X92951740Y-102050500D01*
X92953455Y-102050500D01*
X92953817Y-102050650D01*
X92954410Y-102050693D01*
X92954395Y-102050889D01*
X93005781Y-102072174D01*
X94709734Y-103776127D01*
X94731408Y-103828453D01*
X94729986Y-103842889D01*
X94699500Y-103996158D01*
X94699500Y-104703840D01*
X94730261Y-104858491D01*
X94730264Y-104858501D01*
X94790603Y-105004174D01*
X94790605Y-105004177D01*
X94790606Y-105004179D01*
X94878211Y-105135289D01*
X94989711Y-105246789D01*
X95120821Y-105334394D01*
X95120826Y-105334396D01*
X95120825Y-105334396D01*
X95266498Y-105394735D01*
X95266503Y-105394737D01*
X95421158Y-105425500D01*
X95421160Y-105425500D01*
X95578840Y-105425500D01*
X95578842Y-105425500D01*
X95733497Y-105394737D01*
X95879179Y-105334394D01*
X96010289Y-105246789D01*
X96121789Y-105135289D01*
X96209394Y-105004179D01*
X96269737Y-104858497D01*
X96300500Y-104703842D01*
X96300500Y-103996158D01*
X96269737Y-103841503D01*
X96246047Y-103784310D01*
X96209396Y-103695825D01*
X96209395Y-103695823D01*
X96209394Y-103695821D01*
X96121789Y-103564711D01*
X96010289Y-103453211D01*
X95879179Y-103365606D01*
X95879175Y-103365604D01*
X95879173Y-103365603D01*
X95879174Y-103365603D01*
X95733501Y-103305264D01*
X95733491Y-103305261D01*
X95629925Y-103284661D01*
X95578842Y-103274500D01*
X95421158Y-103274500D01*
X95393002Y-103280100D01*
X95337453Y-103269050D01*
X95326241Y-103259848D01*
X94176674Y-102110281D01*
X94155000Y-102057955D01*
X94155000Y-102040269D01*
X94655000Y-102040269D01*
X94656247Y-102040088D01*
X94656249Y-102040088D01*
X94761188Y-101988786D01*
X94843785Y-101906189D01*
X94895087Y-101801249D01*
X94904999Y-101733223D01*
X94905000Y-101733212D01*
X94905000Y-101125000D01*
X94655000Y-101125000D01*
X94655000Y-102040269D01*
X94155000Y-102040269D01*
X94155000Y-101125000D01*
X93905001Y-101125000D01*
X93905001Y-101659956D01*
X93883327Y-101712282D01*
X93831001Y-101733956D01*
X93778675Y-101712282D01*
X93657174Y-101590781D01*
X93635500Y-101538455D01*
X93635500Y-100016776D01*
X93905000Y-100016776D01*
X93905000Y-100625000D01*
X94155000Y-100625000D01*
X94155000Y-99709730D01*
X94153749Y-99709912D01*
X94048810Y-99761214D01*
X93966214Y-99843810D01*
X93914912Y-99948750D01*
X93905000Y-100016776D01*
X93635500Y-100016776D01*
X93635500Y-100016746D01*
X93635500Y-100016740D01*
X93625573Y-99948607D01*
X93574198Y-99843517D01*
X93491483Y-99760802D01*
X93491482Y-99760801D01*
X93386394Y-99709427D01*
X93318264Y-99699500D01*
X93318260Y-99699500D01*
X92951740Y-99699500D01*
X92951735Y-99699500D01*
X92883606Y-99709427D01*
X92883605Y-99709427D01*
X92778517Y-99760801D01*
X92695801Y-99843517D01*
X92644427Y-99948605D01*
X92644427Y-99948606D01*
X92634500Y-100016735D01*
X92365499Y-100016735D01*
X92355573Y-99948607D01*
X92304198Y-99843517D01*
X92221483Y-99760802D01*
X92221482Y-99760801D01*
X92116394Y-99709427D01*
X92048264Y-99699500D01*
X92048260Y-99699500D01*
X91681740Y-99699500D01*
X91681735Y-99699500D01*
X91613606Y-99709427D01*
X91613605Y-99709427D01*
X91508517Y-99760801D01*
X91425801Y-99843517D01*
X91374427Y-99948605D01*
X91374427Y-99948606D01*
X91364500Y-100016735D01*
X91095499Y-100016735D01*
X91085573Y-99948607D01*
X91034198Y-99843517D01*
X90951483Y-99760802D01*
X90951482Y-99760801D01*
X90846394Y-99709427D01*
X90778264Y-99699500D01*
X90778260Y-99699500D01*
X90411740Y-99699500D01*
X90411735Y-99699500D01*
X90343606Y-99709427D01*
X90343605Y-99709427D01*
X90238517Y-99760801D01*
X90155801Y-99843517D01*
X90104427Y-99948605D01*
X90104427Y-99948606D01*
X90094500Y-100016735D01*
X89825499Y-100016735D01*
X89815573Y-99948607D01*
X89764198Y-99843517D01*
X89681483Y-99760802D01*
X89681482Y-99760801D01*
X89576394Y-99709427D01*
X89508264Y-99699500D01*
X89508260Y-99699500D01*
X89141740Y-99699500D01*
X89141735Y-99699500D01*
X89073606Y-99709427D01*
X89073605Y-99709427D01*
X88968517Y-99760801D01*
X88885801Y-99843517D01*
X88834427Y-99948605D01*
X88834427Y-99948606D01*
X88824500Y-100016735D01*
X88824500Y-101733264D01*
X88834427Y-101801393D01*
X88834427Y-101801394D01*
X88885801Y-101906482D01*
X88902826Y-101923507D01*
X88924500Y-101975833D01*
X88924500Y-103487770D01*
X88902826Y-103540096D01*
X88878212Y-103564710D01*
X88878210Y-103564711D01*
X88790603Y-103695825D01*
X88730264Y-103841498D01*
X88730261Y-103841508D01*
X88699500Y-103996159D01*
X88299999Y-103996159D01*
X88299999Y-103670806D01*
X88299998Y-103670794D01*
X88297149Y-103640397D01*
X88297147Y-103640388D01*
X88252347Y-103512356D01*
X88171792Y-103403208D01*
X88171791Y-103403207D01*
X88062643Y-103322652D01*
X88062644Y-103322652D01*
X87934614Y-103277853D01*
X87934606Y-103277851D01*
X87904198Y-103275000D01*
X87750000Y-103275000D01*
X87750000Y-104069670D01*
X87730255Y-104049925D01*
X87644745Y-104000556D01*
X87549370Y-103975000D01*
X87450630Y-103975000D01*
X87355255Y-104000556D01*
X87269745Y-104049925D01*
X87250000Y-104069670D01*
X87250000Y-103275000D01*
X87095806Y-103275000D01*
X87095793Y-103275001D01*
X87065397Y-103277850D01*
X87065388Y-103277852D01*
X86937356Y-103322652D01*
X86828208Y-103403207D01*
X86828207Y-103403208D01*
X86747652Y-103512356D01*
X86702853Y-103640385D01*
X86702851Y-103640393D01*
X86700000Y-103670801D01*
X84875499Y-103670801D01*
X84875499Y-103593482D01*
X84870942Y-103564710D01*
X84860646Y-103499695D01*
X84860645Y-103499693D01*
X84821890Y-103423634D01*
X84803050Y-103386658D01*
X84713342Y-103296950D01*
X84600304Y-103239354D01*
X84600302Y-103239353D01*
X84600301Y-103239353D01*
X84506519Y-103224500D01*
X83893480Y-103224500D01*
X83799695Y-103239353D01*
X83799693Y-103239354D01*
X83686657Y-103296950D01*
X83596951Y-103386656D01*
X83539353Y-103499698D01*
X83524500Y-103593480D01*
X77772661Y-103593480D01*
X77760832Y-103587453D01*
X77760831Y-103587452D01*
X77760824Y-103587449D01*
X77581128Y-103529062D01*
X77581115Y-103529059D01*
X77394482Y-103499500D01*
X77394481Y-103499500D01*
X77365892Y-103499500D01*
X57501946Y-103499500D01*
X57498073Y-103499399D01*
X57138072Y-103480531D01*
X57130369Y-103479721D01*
X56776239Y-103423634D01*
X56768662Y-103422023D01*
X56422343Y-103329226D01*
X56414977Y-103326833D01*
X56080249Y-103198343D01*
X56073173Y-103195193D01*
X55753704Y-103032416D01*
X55746996Y-103028543D01*
X55627253Y-102950781D01*
X55446300Y-102833268D01*
X55440033Y-102828715D01*
X55161389Y-102603074D01*
X55155633Y-102597891D01*
X54902108Y-102344366D01*
X54896925Y-102338610D01*
X54759136Y-102168455D01*
X54671283Y-102059965D01*
X54666731Y-102053699D01*
X54658206Y-102040572D01*
X54471451Y-101752995D01*
X54467588Y-101746303D01*
X54304803Y-101426820D01*
X54301656Y-101419750D01*
X54298210Y-101410773D01*
X54173163Y-101085014D01*
X54170773Y-101077656D01*
X54077972Y-100731322D01*
X54076368Y-100723776D01*
X54020277Y-100369628D01*
X54019468Y-100361927D01*
X54018991Y-100352826D01*
X54000702Y-100003854D01*
X54000702Y-99996145D01*
X54019468Y-99638067D01*
X54020278Y-99630369D01*
X54027785Y-99582971D01*
X54043547Y-99483451D01*
X55325001Y-99483451D01*
X55340761Y-99582969D01*
X55340762Y-99582971D01*
X55401882Y-99702923D01*
X55497078Y-99798119D01*
X55617030Y-99859237D01*
X55617031Y-99859238D01*
X55716547Y-99874999D01*
X56250000Y-99874999D01*
X56283451Y-99874999D01*
X56382969Y-99859238D01*
X56382971Y-99859237D01*
X56502923Y-99798117D01*
X56598119Y-99702921D01*
X56659237Y-99582969D01*
X56659238Y-99582968D01*
X56675000Y-99483451D01*
X56675000Y-99475000D01*
X56250000Y-99475000D01*
X56250000Y-99874999D01*
X55716547Y-99874999D01*
X55749999Y-99874998D01*
X55750000Y-99874998D01*
X55750000Y-99475000D01*
X55325001Y-99475000D01*
X55325001Y-99483451D01*
X54043547Y-99483451D01*
X54076369Y-99276219D01*
X54077971Y-99268681D01*
X54158928Y-98966548D01*
X55325000Y-98966548D01*
X55325000Y-98975000D01*
X55750000Y-98975000D01*
X56250000Y-98975000D01*
X56674999Y-98975000D01*
X56674999Y-98966548D01*
X56659238Y-98867030D01*
X56659237Y-98867028D01*
X56598117Y-98747076D01*
X56502921Y-98651880D01*
X56382969Y-98590762D01*
X56382968Y-98590761D01*
X56283452Y-98575000D01*
X56250000Y-98575000D01*
X56250000Y-98975000D01*
X55750000Y-98975000D01*
X55750000Y-98575000D01*
X55749999Y-98574999D01*
X55716549Y-98575000D01*
X55716547Y-98575001D01*
X55617030Y-98590761D01*
X55617028Y-98590762D01*
X55497076Y-98651882D01*
X55401880Y-98747078D01*
X55340762Y-98867030D01*
X55340761Y-98867031D01*
X55325000Y-98966548D01*
X54158928Y-98966548D01*
X54170781Y-98922312D01*
X54173161Y-98914990D01*
X54301662Y-98580234D01*
X54304799Y-98573186D01*
X54467592Y-98253687D01*
X54471446Y-98247012D01*
X54666738Y-97946289D01*
X54671276Y-97940043D01*
X54896934Y-97661378D01*
X54902098Y-97655643D01*
X55155643Y-97402098D01*
X55161378Y-97396934D01*
X55440043Y-97171276D01*
X55446289Y-97166738D01*
X55747012Y-96971446D01*
X55753687Y-96967592D01*
X56073186Y-96804799D01*
X56080234Y-96801662D01*
X56414990Y-96673161D01*
X56422330Y-96670777D01*
X56768681Y-96577971D01*
X56776219Y-96576369D01*
X57130370Y-96520277D01*
X57136271Y-96520150D01*
X57138071Y-96519468D01*
X57280608Y-96511997D01*
X57333995Y-96530903D01*
X57358379Y-96582023D01*
X57339473Y-96635411D01*
X57336807Y-96638221D01*
X57315490Y-96659539D01*
X57315489Y-96659540D01*
X57259540Y-96715488D01*
X57219979Y-96784009D01*
X57219977Y-96784014D01*
X57199500Y-96860435D01*
X57199500Y-97462034D01*
X57177826Y-97514360D01*
X57099500Y-97592685D01*
X57033610Y-97706809D01*
X57033606Y-97706818D01*
X56999500Y-97834105D01*
X56999500Y-97965894D01*
X57033606Y-98093181D01*
X57033610Y-98093190D01*
X57089586Y-98190142D01*
X57099500Y-98227142D01*
X57099500Y-98544106D01*
X57077826Y-98596432D01*
X57059096Y-98610040D01*
X56986657Y-98646950D01*
X56896951Y-98736656D01*
X56839353Y-98849698D01*
X56824500Y-98943480D01*
X56824500Y-99406519D01*
X56839353Y-99500304D01*
X56839354Y-99500306D01*
X56881474Y-99582969D01*
X56896950Y-99613342D01*
X56986658Y-99703050D01*
X57099696Y-99760646D01*
X57193481Y-99775500D01*
X57806518Y-99775499D01*
X57806519Y-99775499D01*
X57900304Y-99760646D01*
X57900306Y-99760645D01*
X57902419Y-99759568D01*
X58013342Y-99703050D01*
X58103050Y-99613342D01*
X58160646Y-99500304D01*
X58175500Y-99406519D01*
X58175499Y-98943482D01*
X58175499Y-98943480D01*
X58324500Y-98943480D01*
X58324500Y-99406519D01*
X58339353Y-99500304D01*
X58339354Y-99500306D01*
X58381474Y-99582969D01*
X58396950Y-99613342D01*
X58486658Y-99703050D01*
X58599696Y-99760646D01*
X58693481Y-99775500D01*
X59306518Y-99775499D01*
X59306519Y-99775499D01*
X59400304Y-99760646D01*
X59400306Y-99760645D01*
X59402419Y-99759568D01*
X59513342Y-99703050D01*
X59603050Y-99613342D01*
X59660646Y-99500304D01*
X59663315Y-99483451D01*
X65325001Y-99483451D01*
X65340761Y-99582969D01*
X65340762Y-99582971D01*
X65401882Y-99702923D01*
X65497078Y-99798119D01*
X65617030Y-99859237D01*
X65617031Y-99859238D01*
X65716547Y-99874999D01*
X66250000Y-99874999D01*
X66283451Y-99874999D01*
X66382969Y-99859238D01*
X66382971Y-99859237D01*
X66502923Y-99798117D01*
X66598119Y-99702921D01*
X66659237Y-99582969D01*
X66659238Y-99582968D01*
X66675000Y-99483451D01*
X66675000Y-99475000D01*
X66250000Y-99475000D01*
X66250000Y-99874999D01*
X65716547Y-99874999D01*
X65749999Y-99874998D01*
X65750000Y-99874998D01*
X65750000Y-99475000D01*
X65325001Y-99475000D01*
X65325001Y-99483451D01*
X59663315Y-99483451D01*
X59675500Y-99406519D01*
X59675499Y-98966548D01*
X65325000Y-98966548D01*
X65325000Y-98975000D01*
X65750000Y-98975000D01*
X66250000Y-98975000D01*
X66674999Y-98975000D01*
X66674999Y-98966548D01*
X66659238Y-98867030D01*
X66659237Y-98867028D01*
X66598117Y-98747076D01*
X66502921Y-98651880D01*
X66382969Y-98590762D01*
X66382968Y-98590761D01*
X66283452Y-98575000D01*
X66250000Y-98575000D01*
X66250000Y-98975000D01*
X65750000Y-98975000D01*
X65750000Y-98575000D01*
X65749999Y-98574999D01*
X65716549Y-98575000D01*
X65716547Y-98575001D01*
X65617030Y-98590761D01*
X65617028Y-98590762D01*
X65497076Y-98651882D01*
X65401880Y-98747078D01*
X65340762Y-98867030D01*
X65340761Y-98867031D01*
X65325000Y-98966548D01*
X59675499Y-98966548D01*
X59675499Y-98943482D01*
X59663391Y-98867031D01*
X59660646Y-98849695D01*
X59660645Y-98849693D01*
X59603049Y-98736657D01*
X59513342Y-98646950D01*
X59440904Y-98610040D01*
X59433173Y-98600987D01*
X59422174Y-98596432D01*
X59415479Y-98580270D01*
X59404122Y-98566972D01*
X59400500Y-98544106D01*
X59400500Y-98448008D01*
X59422174Y-98395682D01*
X59455345Y-98376530D01*
X59493186Y-98366392D01*
X59607314Y-98300500D01*
X59700500Y-98207314D01*
X59766392Y-98093186D01*
X59800499Y-97965894D01*
X59800500Y-97965894D01*
X59800500Y-97834106D01*
X59800499Y-97834105D01*
X59799352Y-97829826D01*
X59766392Y-97706814D01*
X59700500Y-97592686D01*
X59607314Y-97499500D01*
X59542421Y-97462034D01*
X59493190Y-97433610D01*
X59493181Y-97433606D01*
X59365894Y-97399500D01*
X59365892Y-97399500D01*
X59234108Y-97399500D01*
X59234106Y-97399500D01*
X59106818Y-97433606D01*
X59106809Y-97433610D01*
X58992685Y-97499500D01*
X58899500Y-97592685D01*
X58833608Y-97706812D01*
X58833606Y-97706817D01*
X58804631Y-97814953D01*
X58785479Y-97848125D01*
X58679522Y-97954083D01*
X58679519Y-97954087D01*
X58626793Y-98045410D01*
X58620501Y-98068894D01*
X58599998Y-98145413D01*
X58599500Y-98147273D01*
X58599500Y-98147274D01*
X58599500Y-98544106D01*
X58577826Y-98596432D01*
X58559096Y-98610040D01*
X58486657Y-98646950D01*
X58396951Y-98736656D01*
X58339353Y-98849698D01*
X58324500Y-98943480D01*
X58175499Y-98943480D01*
X58163391Y-98867031D01*
X58160646Y-98849695D01*
X58160645Y-98849693D01*
X58103049Y-98736657D01*
X58013342Y-98646950D01*
X57940904Y-98610040D01*
X57904122Y-98566972D01*
X57900500Y-98544106D01*
X57900500Y-98227142D01*
X57910414Y-98190142D01*
X57916147Y-98180212D01*
X57966392Y-98093186D01*
X58000499Y-97965894D01*
X58000500Y-97965894D01*
X58000500Y-97834106D01*
X58000499Y-97834105D01*
X57999352Y-97829826D01*
X57966392Y-97706814D01*
X57900500Y-97592686D01*
X57822174Y-97514360D01*
X57800500Y-97462034D01*
X57800500Y-97055123D01*
X57822174Y-97002797D01*
X57901797Y-96923174D01*
X57954123Y-96901500D01*
X67394877Y-96901500D01*
X67447203Y-96923174D01*
X67468877Y-96975500D01*
X67447203Y-97027826D01*
X67259540Y-97215488D01*
X67219979Y-97284009D01*
X67219977Y-97284014D01*
X67199500Y-97360435D01*
X67199500Y-97462034D01*
X67177826Y-97514360D01*
X67099500Y-97592685D01*
X67033610Y-97706809D01*
X67033606Y-97706818D01*
X66999500Y-97834105D01*
X66999500Y-97965894D01*
X67033606Y-98093181D01*
X67033610Y-98093190D01*
X67089586Y-98190142D01*
X67099500Y-98227142D01*
X67099500Y-98544106D01*
X67077826Y-98596432D01*
X67059096Y-98610040D01*
X66986657Y-98646950D01*
X66896951Y-98736656D01*
X66839353Y-98849698D01*
X66824500Y-98943480D01*
X66824500Y-99406519D01*
X66839353Y-99500304D01*
X66839354Y-99500306D01*
X66881474Y-99582969D01*
X66896950Y-99613342D01*
X66986658Y-99703050D01*
X67099696Y-99760646D01*
X67193481Y-99775500D01*
X67806518Y-99775499D01*
X67806519Y-99775499D01*
X67900304Y-99760646D01*
X67900306Y-99760645D01*
X67902419Y-99759568D01*
X68013342Y-99703050D01*
X68103050Y-99613342D01*
X68160646Y-99500304D01*
X68175500Y-99406519D01*
X68175499Y-98943482D01*
X68163391Y-98867031D01*
X68160646Y-98849695D01*
X68160645Y-98849693D01*
X68103049Y-98736657D01*
X68013342Y-98646950D01*
X67940904Y-98610040D01*
X67904122Y-98566972D01*
X67900500Y-98544106D01*
X67900500Y-98227142D01*
X67910414Y-98190142D01*
X67916147Y-98180212D01*
X67966392Y-98093186D01*
X68000499Y-97965894D01*
X68000500Y-97965894D01*
X68000500Y-97834106D01*
X68000499Y-97834105D01*
X67999352Y-97829826D01*
X67966392Y-97706814D01*
X67900500Y-97592686D01*
X67868718Y-97560904D01*
X67847044Y-97508578D01*
X67868718Y-97456252D01*
X67922863Y-97402108D01*
X68000797Y-97324174D01*
X68053123Y-97302500D01*
X69057728Y-97302500D01*
X69110054Y-97324174D01*
X69131728Y-97376500D01*
X69110054Y-97428826D01*
X69094728Y-97440586D01*
X68992685Y-97499500D01*
X68899500Y-97592685D01*
X68833608Y-97706812D01*
X68833606Y-97706817D01*
X68804631Y-97814953D01*
X68785479Y-97848125D01*
X68679522Y-97954083D01*
X68679519Y-97954087D01*
X68626793Y-98045410D01*
X68620501Y-98068894D01*
X68599998Y-98145413D01*
X68599500Y-98147273D01*
X68599500Y-98147274D01*
X68599500Y-98544106D01*
X68577826Y-98596432D01*
X68559096Y-98610040D01*
X68486657Y-98646950D01*
X68396951Y-98736656D01*
X68339353Y-98849698D01*
X68324500Y-98943480D01*
X68324500Y-99406519D01*
X68339353Y-99500304D01*
X68339354Y-99500306D01*
X68381474Y-99582969D01*
X68396950Y-99613342D01*
X68486658Y-99703050D01*
X68599696Y-99760646D01*
X68693481Y-99775500D01*
X69306518Y-99775499D01*
X69306519Y-99775499D01*
X69400304Y-99760646D01*
X69400306Y-99760645D01*
X69402419Y-99759568D01*
X69513342Y-99703050D01*
X69603050Y-99613342D01*
X69660646Y-99500304D01*
X69663315Y-99483451D01*
X75325001Y-99483451D01*
X75340761Y-99582969D01*
X75340762Y-99582971D01*
X75401882Y-99702923D01*
X75497078Y-99798119D01*
X75617030Y-99859237D01*
X75617031Y-99859238D01*
X75716547Y-99874999D01*
X76250000Y-99874999D01*
X76283451Y-99874999D01*
X76382969Y-99859238D01*
X76382971Y-99859237D01*
X76502923Y-99798117D01*
X76598119Y-99702921D01*
X76659237Y-99582969D01*
X76659238Y-99582968D01*
X76675000Y-99483451D01*
X76675000Y-99475000D01*
X76250000Y-99475000D01*
X76250000Y-99874999D01*
X75716547Y-99874999D01*
X75749999Y-99874998D01*
X75750000Y-99874998D01*
X75750000Y-99475000D01*
X75325001Y-99475000D01*
X75325001Y-99483451D01*
X69663315Y-99483451D01*
X69675500Y-99406519D01*
X69675499Y-98966548D01*
X75325000Y-98966548D01*
X75325000Y-98975000D01*
X75750000Y-98975000D01*
X76250000Y-98975000D01*
X76674999Y-98975000D01*
X76674999Y-98966548D01*
X76659238Y-98867030D01*
X76659237Y-98867028D01*
X76598117Y-98747076D01*
X76502921Y-98651880D01*
X76382969Y-98590762D01*
X76382968Y-98590761D01*
X76283452Y-98575000D01*
X76250000Y-98575000D01*
X76250000Y-98975000D01*
X75750000Y-98975000D01*
X75750000Y-98575000D01*
X75749999Y-98574999D01*
X75716549Y-98575000D01*
X75716547Y-98575001D01*
X75617030Y-98590761D01*
X75617028Y-98590762D01*
X75497076Y-98651882D01*
X75401880Y-98747078D01*
X75340762Y-98867030D01*
X75340761Y-98867031D01*
X75325000Y-98966548D01*
X69675499Y-98966548D01*
X69675499Y-98943482D01*
X69663391Y-98867031D01*
X69660646Y-98849695D01*
X69660645Y-98849693D01*
X69603049Y-98736657D01*
X69513342Y-98646950D01*
X69440904Y-98610040D01*
X69433173Y-98600987D01*
X69422174Y-98596432D01*
X69415479Y-98580270D01*
X69404122Y-98566972D01*
X69400500Y-98544106D01*
X69400500Y-98448008D01*
X69422174Y-98395682D01*
X69455345Y-98376530D01*
X69493186Y-98366392D01*
X69607314Y-98300500D01*
X69700500Y-98207314D01*
X69766392Y-98093186D01*
X69800499Y-97965894D01*
X69800500Y-97965894D01*
X69800500Y-97834106D01*
X69800499Y-97834105D01*
X69799352Y-97829826D01*
X69766392Y-97706814D01*
X69700500Y-97592686D01*
X69607314Y-97499500D01*
X69505271Y-97440585D01*
X69470793Y-97395653D01*
X69478186Y-97339500D01*
X69523119Y-97305021D01*
X69542272Y-97302500D01*
X77257728Y-97302500D01*
X77310054Y-97324174D01*
X77331728Y-97376500D01*
X77310054Y-97428826D01*
X77294728Y-97440586D01*
X77192685Y-97499500D01*
X77099500Y-97592685D01*
X77033610Y-97706809D01*
X77033606Y-97706818D01*
X76999500Y-97834105D01*
X76999500Y-97965894D01*
X77033606Y-98093181D01*
X77033610Y-98093190D01*
X77089586Y-98190142D01*
X77099500Y-98227142D01*
X77099500Y-98544106D01*
X77077826Y-98596432D01*
X77059096Y-98610040D01*
X76986657Y-98646950D01*
X76896951Y-98736656D01*
X76839353Y-98849698D01*
X76824500Y-98943480D01*
X76824500Y-99406519D01*
X76839353Y-99500304D01*
X76839354Y-99500306D01*
X76881474Y-99582969D01*
X76896950Y-99613342D01*
X76986658Y-99703050D01*
X77099696Y-99760646D01*
X77193481Y-99775500D01*
X77806518Y-99775499D01*
X77806519Y-99775499D01*
X77900304Y-99760646D01*
X77900306Y-99760645D01*
X77902419Y-99759568D01*
X78013342Y-99703050D01*
X78103050Y-99613342D01*
X78160646Y-99500304D01*
X78175500Y-99406519D01*
X78175499Y-98943482D01*
X78163391Y-98867031D01*
X78160646Y-98849695D01*
X78160645Y-98849693D01*
X78103049Y-98736657D01*
X78013342Y-98646950D01*
X77940904Y-98610040D01*
X77904122Y-98566972D01*
X77900500Y-98544106D01*
X77900500Y-98227142D01*
X77910414Y-98190142D01*
X77916147Y-98180212D01*
X77966392Y-98093186D01*
X78000499Y-97965894D01*
X78000500Y-97965894D01*
X78000500Y-97855122D01*
X78022174Y-97802796D01*
X78099797Y-97725174D01*
X78152123Y-97703500D01*
X78751454Y-97703500D01*
X78803780Y-97725174D01*
X78825454Y-97777500D01*
X78803780Y-97829826D01*
X78679518Y-97954088D01*
X78626793Y-98045410D01*
X78620501Y-98068894D01*
X78599998Y-98145413D01*
X78599500Y-98147273D01*
X78599500Y-98147274D01*
X78599500Y-98544106D01*
X78577826Y-98596432D01*
X78559096Y-98610040D01*
X78486657Y-98646950D01*
X78396951Y-98736656D01*
X78339353Y-98849698D01*
X78324500Y-98943480D01*
X78324500Y-99406519D01*
X78339353Y-99500304D01*
X78339354Y-99500306D01*
X78381474Y-99582969D01*
X78396950Y-99613342D01*
X78486658Y-99703050D01*
X78599696Y-99760646D01*
X78693481Y-99775500D01*
X79306518Y-99775499D01*
X79306519Y-99775499D01*
X79400304Y-99760646D01*
X79400306Y-99760645D01*
X79402419Y-99759568D01*
X79513342Y-99703050D01*
X79603050Y-99613342D01*
X79660646Y-99500304D01*
X79663315Y-99483451D01*
X82825001Y-99483451D01*
X82840761Y-99582969D01*
X82840762Y-99582971D01*
X82901882Y-99702923D01*
X82997078Y-99798119D01*
X83117030Y-99859237D01*
X83117031Y-99859238D01*
X83216547Y-99874999D01*
X83750000Y-99874999D01*
X83783451Y-99874999D01*
X83882969Y-99859238D01*
X83882971Y-99859237D01*
X84002923Y-99798117D01*
X84098119Y-99702921D01*
X84159237Y-99582969D01*
X84159238Y-99582968D01*
X84175000Y-99483451D01*
X84175000Y-99475000D01*
X83750000Y-99475000D01*
X83750000Y-99874999D01*
X83216547Y-99874999D01*
X83249999Y-99874998D01*
X83250000Y-99874998D01*
X83250000Y-99475000D01*
X82825001Y-99475000D01*
X82825001Y-99483451D01*
X79663315Y-99483451D01*
X79675500Y-99406519D01*
X79675499Y-98966548D01*
X82825000Y-98966548D01*
X82825000Y-98975000D01*
X83250000Y-98975000D01*
X83750000Y-98975000D01*
X84174999Y-98975000D01*
X84174999Y-98966548D01*
X84159238Y-98867030D01*
X84159237Y-98867028D01*
X84098117Y-98747076D01*
X84002921Y-98651880D01*
X83882969Y-98590762D01*
X83882968Y-98590761D01*
X83783452Y-98575000D01*
X83750000Y-98575000D01*
X83750000Y-98975000D01*
X83250000Y-98975000D01*
X83250000Y-98575000D01*
X83249999Y-98574999D01*
X83216549Y-98575000D01*
X83216547Y-98575001D01*
X83117030Y-98590761D01*
X83117028Y-98590762D01*
X82997076Y-98651882D01*
X82901880Y-98747078D01*
X82840762Y-98867030D01*
X82840761Y-98867031D01*
X82825000Y-98966548D01*
X79675499Y-98966548D01*
X79675499Y-98943482D01*
X79663391Y-98867031D01*
X79660646Y-98849695D01*
X79660645Y-98849693D01*
X79603049Y-98736657D01*
X79513342Y-98646950D01*
X79449781Y-98614563D01*
X79412999Y-98571495D01*
X79417444Y-98515032D01*
X79460512Y-98478250D01*
X79464195Y-98477159D01*
X79493186Y-98469392D01*
X79607314Y-98403500D01*
X79700500Y-98310314D01*
X79766392Y-98196186D01*
X79800499Y-98068894D01*
X79800500Y-98068894D01*
X79800500Y-97937109D01*
X79800500Y-97937108D01*
X79766392Y-97809814D01*
X79766390Y-97809810D01*
X79764737Y-97805819D01*
X79764737Y-97749182D01*
X79804785Y-97709133D01*
X79833104Y-97703500D01*
X84922820Y-97703500D01*
X84975146Y-97725174D01*
X84996820Y-97777500D01*
X84986906Y-97814498D01*
X84978635Y-97828826D01*
X84933608Y-97906812D01*
X84933606Y-97906817D01*
X84904631Y-98014953D01*
X84885479Y-98048126D01*
X84679519Y-98254087D01*
X84626792Y-98345413D01*
X84621306Y-98365891D01*
X84599500Y-98447273D01*
X84599500Y-98544106D01*
X84577826Y-98596432D01*
X84559096Y-98610040D01*
X84486657Y-98646950D01*
X84396951Y-98736656D01*
X84339353Y-98849698D01*
X84324500Y-98943480D01*
X84324500Y-99406519D01*
X84339353Y-99500304D01*
X84339354Y-99500306D01*
X84381474Y-99582969D01*
X84396950Y-99613342D01*
X84486658Y-99703050D01*
X84599696Y-99760646D01*
X84693481Y-99775500D01*
X85306518Y-99775499D01*
X85306519Y-99775499D01*
X85400304Y-99760646D01*
X85400306Y-99760645D01*
X85402419Y-99759568D01*
X85513342Y-99703050D01*
X85603050Y-99613342D01*
X85660646Y-99500304D01*
X85675500Y-99406519D01*
X85675499Y-98943482D01*
X85663391Y-98867031D01*
X85660646Y-98849695D01*
X85660645Y-98849693D01*
X85603049Y-98736657D01*
X85557311Y-98690919D01*
X85535637Y-98638593D01*
X85557311Y-98586267D01*
X85590489Y-98567114D01*
X85593186Y-98566392D01*
X85707314Y-98500500D01*
X85800500Y-98407314D01*
X85839075Y-98340499D01*
X85884008Y-98306021D01*
X85903161Y-98303500D01*
X86982561Y-98303500D01*
X86991800Y-98307327D01*
X87001714Y-98306022D01*
X87017038Y-98317781D01*
X87034887Y-98325174D01*
X87038713Y-98334412D01*
X87046647Y-98340500D01*
X87049168Y-98359652D01*
X87056561Y-98377500D01*
X87052733Y-98386739D01*
X87054039Y-98396653D01*
X87042279Y-98411977D01*
X87034887Y-98429826D01*
X87019561Y-98441586D01*
X86927175Y-98494925D01*
X86890175Y-98504839D01*
X86849388Y-98504839D01*
X86743934Y-98504839D01*
X86693003Y-98518485D01*
X86642072Y-98532132D01*
X86642068Y-98532134D01*
X86585859Y-98564586D01*
X86548860Y-98574500D01*
X86193480Y-98574500D01*
X86099695Y-98589353D01*
X86099693Y-98589354D01*
X85986657Y-98646950D01*
X85896951Y-98736656D01*
X85839353Y-98849698D01*
X85824500Y-98943480D01*
X85824500Y-99406519D01*
X85839353Y-99500304D01*
X85839354Y-99500306D01*
X85881474Y-99582969D01*
X85896950Y-99613342D01*
X85986658Y-99703050D01*
X86099696Y-99760646D01*
X86193481Y-99775500D01*
X86593476Y-99775499D01*
X86645802Y-99797173D01*
X86667476Y-99849499D01*
X86645802Y-99901825D01*
X86344800Y-100202826D01*
X86292475Y-100224500D01*
X86193480Y-100224500D01*
X86099695Y-100239353D01*
X86099693Y-100239354D01*
X85986657Y-100296950D01*
X85896949Y-100386658D01*
X85893528Y-100391368D01*
X85891483Y-100389882D01*
X85855178Y-100420881D01*
X85832321Y-100424500D01*
X85667679Y-100424500D01*
X85615353Y-100402826D01*
X85606835Y-100391104D01*
X85606472Y-100391368D01*
X85603050Y-100386658D01*
X85513343Y-100296951D01*
X85513342Y-100296950D01*
X85400304Y-100239354D01*
X85400302Y-100239353D01*
X85400301Y-100239353D01*
X85306519Y-100224500D01*
X84693480Y-100224500D01*
X84599695Y-100239353D01*
X84599693Y-100239354D01*
X84486657Y-100296950D01*
X84396949Y-100386658D01*
X84393528Y-100391368D01*
X84391483Y-100389882D01*
X84389200Y-100391832D01*
X84384647Y-100402826D01*
X84368482Y-100409521D01*
X84355178Y-100420881D01*
X84332321Y-100424500D01*
X84208951Y-100424500D01*
X84156625Y-100402826D01*
X84143020Y-100384100D01*
X84098528Y-100296780D01*
X84003220Y-100201472D01*
X84003219Y-100201471D01*
X83883126Y-100140281D01*
X83883125Y-100140280D01*
X83783489Y-100124500D01*
X83783488Y-100124500D01*
X83216512Y-100124500D01*
X83216511Y-100124500D01*
X83116874Y-100140280D01*
X83116873Y-100140281D01*
X82996780Y-100201471D01*
X82901474Y-100296777D01*
X82901472Y-100296779D01*
X82901472Y-100296780D01*
X82856981Y-100384096D01*
X82813916Y-100420878D01*
X82791049Y-100424500D01*
X79667679Y-100424500D01*
X79615353Y-100402826D01*
X79606835Y-100391104D01*
X79606472Y-100391368D01*
X79603050Y-100386658D01*
X79513343Y-100296951D01*
X79513342Y-100296950D01*
X79400304Y-100239354D01*
X79400302Y-100239353D01*
X79400301Y-100239353D01*
X79306519Y-100224500D01*
X78693480Y-100224500D01*
X78599695Y-100239353D01*
X78599693Y-100239354D01*
X78486657Y-100296950D01*
X78396949Y-100386658D01*
X78393528Y-100391368D01*
X78391483Y-100389882D01*
X78355178Y-100420881D01*
X78332321Y-100424500D01*
X78167679Y-100424500D01*
X78115353Y-100402826D01*
X78106835Y-100391104D01*
X78106472Y-100391368D01*
X78103050Y-100386658D01*
X78013343Y-100296951D01*
X78013342Y-100296950D01*
X77900304Y-100239354D01*
X77900302Y-100239353D01*
X77900301Y-100239353D01*
X77806519Y-100224500D01*
X77193480Y-100224500D01*
X77099695Y-100239353D01*
X77099693Y-100239354D01*
X76986657Y-100296950D01*
X76896949Y-100386658D01*
X76893528Y-100391368D01*
X76891483Y-100389882D01*
X76889200Y-100391832D01*
X76884647Y-100402826D01*
X76868482Y-100409521D01*
X76855178Y-100420881D01*
X76832321Y-100424500D01*
X76708951Y-100424500D01*
X76656625Y-100402826D01*
X76643020Y-100384100D01*
X76598528Y-100296780D01*
X76503220Y-100201472D01*
X76503219Y-100201471D01*
X76383126Y-100140281D01*
X76383125Y-100140280D01*
X76283489Y-100124500D01*
X76283488Y-100124500D01*
X75716512Y-100124500D01*
X75716511Y-100124500D01*
X75616874Y-100140280D01*
X75616873Y-100140281D01*
X75496780Y-100201471D01*
X75401474Y-100296777D01*
X75401472Y-100296779D01*
X75401472Y-100296780D01*
X75356981Y-100384096D01*
X75313916Y-100420878D01*
X75291049Y-100424500D01*
X69667679Y-100424500D01*
X69615353Y-100402826D01*
X69606835Y-100391104D01*
X69606472Y-100391368D01*
X69603050Y-100386658D01*
X69513343Y-100296951D01*
X69513342Y-100296950D01*
X69400304Y-100239354D01*
X69400302Y-100239353D01*
X69400301Y-100239353D01*
X69306519Y-100224500D01*
X68693480Y-100224500D01*
X68599695Y-100239353D01*
X68599693Y-100239354D01*
X68486657Y-100296950D01*
X68396949Y-100386658D01*
X68393528Y-100391368D01*
X68391483Y-100389882D01*
X68355178Y-100420881D01*
X68332321Y-100424500D01*
X68167679Y-100424500D01*
X68115353Y-100402826D01*
X68106835Y-100391104D01*
X68106472Y-100391368D01*
X68103050Y-100386658D01*
X68013343Y-100296951D01*
X68013342Y-100296950D01*
X67900304Y-100239354D01*
X67900302Y-100239353D01*
X67900301Y-100239353D01*
X67806519Y-100224500D01*
X67193480Y-100224500D01*
X67099695Y-100239353D01*
X67099693Y-100239354D01*
X66986657Y-100296950D01*
X66896949Y-100386658D01*
X66893528Y-100391368D01*
X66891483Y-100389882D01*
X66889200Y-100391832D01*
X66884647Y-100402826D01*
X66868482Y-100409521D01*
X66855178Y-100420881D01*
X66832321Y-100424500D01*
X66708951Y-100424500D01*
X66656625Y-100402826D01*
X66643020Y-100384100D01*
X66598528Y-100296780D01*
X66503220Y-100201472D01*
X66503219Y-100201471D01*
X66383126Y-100140281D01*
X66383125Y-100140280D01*
X66283489Y-100124500D01*
X66283488Y-100124500D01*
X65716512Y-100124500D01*
X65716511Y-100124500D01*
X65616874Y-100140280D01*
X65616873Y-100140281D01*
X65496780Y-100201471D01*
X65401474Y-100296777D01*
X65401472Y-100296779D01*
X65401472Y-100296780D01*
X65356981Y-100384096D01*
X65313916Y-100420878D01*
X65291049Y-100424500D01*
X59667679Y-100424500D01*
X59615353Y-100402826D01*
X59606835Y-100391104D01*
X59606472Y-100391368D01*
X59603050Y-100386658D01*
X59513343Y-100296951D01*
X59513342Y-100296950D01*
X59400304Y-100239354D01*
X59400302Y-100239353D01*
X59400301Y-100239353D01*
X59306519Y-100224500D01*
X58693480Y-100224500D01*
X58599695Y-100239353D01*
X58599693Y-100239354D01*
X58486657Y-100296950D01*
X58396949Y-100386658D01*
X58393528Y-100391368D01*
X58391483Y-100389882D01*
X58355178Y-100420881D01*
X58332321Y-100424500D01*
X58167679Y-100424500D01*
X58115353Y-100402826D01*
X58106835Y-100391104D01*
X58106472Y-100391368D01*
X58103050Y-100386658D01*
X58013343Y-100296951D01*
X58013342Y-100296950D01*
X57900304Y-100239354D01*
X57900302Y-100239353D01*
X57900301Y-100239353D01*
X57806519Y-100224500D01*
X57193480Y-100224500D01*
X57099695Y-100239353D01*
X57099693Y-100239354D01*
X56986657Y-100296950D01*
X56896949Y-100386658D01*
X56893528Y-100391368D01*
X56891483Y-100389882D01*
X56889200Y-100391832D01*
X56884647Y-100402826D01*
X56868482Y-100409521D01*
X56855178Y-100420881D01*
X56832321Y-100424500D01*
X56708951Y-100424500D01*
X56656625Y-100402826D01*
X56643020Y-100384100D01*
X56598528Y-100296780D01*
X56503220Y-100201472D01*
X56503219Y-100201471D01*
X56383126Y-100140281D01*
X56383125Y-100140280D01*
X56283489Y-100124500D01*
X56283488Y-100124500D01*
X55716512Y-100124500D01*
X55716511Y-100124500D01*
X55616874Y-100140280D01*
X55616873Y-100140281D01*
X55496780Y-100201471D01*
X55401471Y-100296780D01*
X55340281Y-100416873D01*
X55340280Y-100416874D01*
X55324500Y-100516511D01*
X55324500Y-101033488D01*
X55340280Y-101133125D01*
X55340281Y-101133126D01*
X55401470Y-101253218D01*
X55401472Y-101253220D01*
X55496780Y-101348528D01*
X55616874Y-101409719D01*
X55716511Y-101425500D01*
X55716512Y-101425500D01*
X56283489Y-101425500D01*
X56333307Y-101417609D01*
X56383126Y-101409719D01*
X56503220Y-101348528D01*
X56598528Y-101253220D01*
X56598528Y-101253219D01*
X56602646Y-101249102D01*
X56604591Y-101251047D01*
X56644802Y-101226410D01*
X56656373Y-101225500D01*
X56832321Y-101225500D01*
X56884647Y-101247174D01*
X56893164Y-101258895D01*
X56893528Y-101258632D01*
X56896949Y-101263341D01*
X56896950Y-101263342D01*
X56986658Y-101353050D01*
X57099696Y-101410646D01*
X57193481Y-101425500D01*
X57806518Y-101425499D01*
X57806519Y-101425499D01*
X57900304Y-101410646D01*
X57900306Y-101410645D01*
X57902419Y-101409568D01*
X58013342Y-101353050D01*
X58103050Y-101263342D01*
X58103051Y-101263338D01*
X58106472Y-101258632D01*
X58108516Y-101260117D01*
X58144822Y-101229119D01*
X58167679Y-101225500D01*
X58332321Y-101225500D01*
X58384647Y-101247174D01*
X58393164Y-101258895D01*
X58393528Y-101258632D01*
X58396949Y-101263341D01*
X58396950Y-101263342D01*
X58486658Y-101353050D01*
X58599696Y-101410646D01*
X58693481Y-101425500D01*
X59306518Y-101425499D01*
X59306519Y-101425499D01*
X59400304Y-101410646D01*
X59400306Y-101410645D01*
X59402419Y-101409568D01*
X59513342Y-101353050D01*
X59603050Y-101263342D01*
X59603051Y-101263338D01*
X59606472Y-101258632D01*
X59608516Y-101260117D01*
X59644822Y-101229119D01*
X59667679Y-101225500D01*
X65343627Y-101225500D01*
X65395953Y-101247174D01*
X65399039Y-101250787D01*
X65401471Y-101253219D01*
X65401472Y-101253220D01*
X65496780Y-101348528D01*
X65616874Y-101409719D01*
X65716511Y-101425500D01*
X65716512Y-101425500D01*
X66283489Y-101425500D01*
X66333307Y-101417609D01*
X66383126Y-101409719D01*
X66503220Y-101348528D01*
X66598528Y-101253220D01*
X66598528Y-101253219D01*
X66602646Y-101249102D01*
X66604591Y-101251047D01*
X66644802Y-101226410D01*
X66656373Y-101225500D01*
X66832321Y-101225500D01*
X66884647Y-101247174D01*
X66893164Y-101258895D01*
X66893528Y-101258632D01*
X66896949Y-101263341D01*
X66896950Y-101263342D01*
X66986658Y-101353050D01*
X67099696Y-101410646D01*
X67193481Y-101425500D01*
X67806518Y-101425499D01*
X67806519Y-101425499D01*
X67900304Y-101410646D01*
X67900306Y-101410645D01*
X67902419Y-101409568D01*
X68013342Y-101353050D01*
X68103050Y-101263342D01*
X68103051Y-101263338D01*
X68106472Y-101258632D01*
X68108516Y-101260117D01*
X68144822Y-101229119D01*
X68167679Y-101225500D01*
X68332321Y-101225500D01*
X68384647Y-101247174D01*
X68393164Y-101258895D01*
X68393528Y-101258632D01*
X68396949Y-101263341D01*
X68396950Y-101263342D01*
X68486658Y-101353050D01*
X68599696Y-101410646D01*
X68693481Y-101425500D01*
X69306518Y-101425499D01*
X69306519Y-101425499D01*
X69400304Y-101410646D01*
X69400306Y-101410645D01*
X69402419Y-101409568D01*
X69513342Y-101353050D01*
X69603050Y-101263342D01*
X69603051Y-101263338D01*
X69606472Y-101258632D01*
X69608516Y-101260117D01*
X69644822Y-101229119D01*
X69667679Y-101225500D01*
X75343627Y-101225500D01*
X75395953Y-101247174D01*
X75399039Y-101250787D01*
X75401471Y-101253219D01*
X75401472Y-101253220D01*
X75496780Y-101348528D01*
X75616874Y-101409719D01*
X75716511Y-101425500D01*
X75716512Y-101425500D01*
X76283489Y-101425500D01*
X76333307Y-101417609D01*
X76383126Y-101409719D01*
X76503220Y-101348528D01*
X76598528Y-101253220D01*
X76598528Y-101253219D01*
X76602646Y-101249102D01*
X76604591Y-101251047D01*
X76644802Y-101226410D01*
X76656373Y-101225500D01*
X76832321Y-101225500D01*
X76884647Y-101247174D01*
X76893164Y-101258895D01*
X76893528Y-101258632D01*
X76896949Y-101263341D01*
X76896950Y-101263342D01*
X76986658Y-101353050D01*
X77099696Y-101410646D01*
X77193481Y-101425500D01*
X77806518Y-101425499D01*
X77806519Y-101425499D01*
X77900304Y-101410646D01*
X77900306Y-101410645D01*
X77902419Y-101409568D01*
X78013342Y-101353050D01*
X78103050Y-101263342D01*
X78103051Y-101263338D01*
X78106472Y-101258632D01*
X78108516Y-101260117D01*
X78144822Y-101229119D01*
X78167679Y-101225500D01*
X78332321Y-101225500D01*
X78384647Y-101247174D01*
X78393164Y-101258895D01*
X78393528Y-101258632D01*
X78396949Y-101263341D01*
X78396950Y-101263342D01*
X78486658Y-101353050D01*
X78599696Y-101410646D01*
X78693481Y-101425500D01*
X79306518Y-101425499D01*
X79306519Y-101425499D01*
X79400304Y-101410646D01*
X79400306Y-101410645D01*
X79402419Y-101409568D01*
X79513342Y-101353050D01*
X79603050Y-101263342D01*
X79603051Y-101263338D01*
X79606472Y-101258632D01*
X79608516Y-101260117D01*
X79644822Y-101229119D01*
X79667679Y-101225500D01*
X82843627Y-101225500D01*
X82895953Y-101247174D01*
X82899039Y-101250787D01*
X82901471Y-101253219D01*
X82901472Y-101253220D01*
X82996780Y-101348528D01*
X83116874Y-101409719D01*
X83216511Y-101425500D01*
X83725500Y-101425500D01*
X83777826Y-101447174D01*
X83799500Y-101499500D01*
X83799500Y-101544106D01*
X83777826Y-101596432D01*
X83759096Y-101610040D01*
X83686657Y-101646950D01*
X83596951Y-101736656D01*
X83539353Y-101849698D01*
X83524500Y-101943480D01*
X83524500Y-102406519D01*
X83539353Y-102500304D01*
X83539354Y-102500306D01*
X83589077Y-102597891D01*
X83596950Y-102613342D01*
X83686658Y-102703050D01*
X83799696Y-102760646D01*
X83893481Y-102775500D01*
X84506518Y-102775499D01*
X84506519Y-102775499D01*
X84600304Y-102760646D01*
X84600306Y-102760645D01*
X84602419Y-102759568D01*
X84713342Y-102703050D01*
X84803050Y-102613342D01*
X84860646Y-102500304D01*
X84875500Y-102406519D01*
X84875499Y-101943482D01*
X84869639Y-101906483D01*
X84860646Y-101849695D01*
X84860645Y-101849693D01*
X84811378Y-101753003D01*
X84803050Y-101736658D01*
X84799616Y-101733224D01*
X87555001Y-101733224D01*
X87564912Y-101801250D01*
X87616213Y-101906188D01*
X87698811Y-101988786D01*
X87803751Y-102040088D01*
X87804999Y-102040269D01*
X88305000Y-102040269D01*
X88306247Y-102040088D01*
X88306249Y-102040088D01*
X88411188Y-101988786D01*
X88493785Y-101906189D01*
X88545087Y-101801249D01*
X88554999Y-101733223D01*
X88555000Y-101733212D01*
X88555000Y-101125000D01*
X88305000Y-101125000D01*
X88305000Y-102040269D01*
X87804999Y-102040269D01*
X87805000Y-102040268D01*
X87805000Y-101125000D01*
X87555001Y-101125000D01*
X87555001Y-101733224D01*
X84799616Y-101733224D01*
X84713342Y-101646950D01*
X84640904Y-101610040D01*
X84633173Y-101600987D01*
X84622174Y-101596432D01*
X84615479Y-101580270D01*
X84604122Y-101566972D01*
X84600500Y-101544106D01*
X84600500Y-101497416D01*
X84622174Y-101445090D01*
X84674500Y-101423416D01*
X84686079Y-101424328D01*
X84690867Y-101425086D01*
X84693481Y-101425500D01*
X85306518Y-101425499D01*
X85306519Y-101425499D01*
X85400304Y-101410646D01*
X85400306Y-101410645D01*
X85402419Y-101409568D01*
X85513342Y-101353050D01*
X85603050Y-101263342D01*
X85603051Y-101263338D01*
X85606472Y-101258632D01*
X85608516Y-101260117D01*
X85644822Y-101229119D01*
X85667679Y-101225500D01*
X85832321Y-101225500D01*
X85884647Y-101247174D01*
X85893164Y-101258895D01*
X85893528Y-101258632D01*
X85896949Y-101263341D01*
X85896950Y-101263342D01*
X85986658Y-101353050D01*
X86099696Y-101410646D01*
X86193481Y-101425500D01*
X86806518Y-101425499D01*
X86806519Y-101425499D01*
X86900304Y-101410646D01*
X86900306Y-101410645D01*
X86902419Y-101409568D01*
X87013342Y-101353050D01*
X87103050Y-101263342D01*
X87160646Y-101150304D01*
X87175500Y-101056519D01*
X87175499Y-100593482D01*
X87169287Y-100554261D01*
X87182508Y-100499192D01*
X87190038Y-100490374D01*
X87428675Y-100251737D01*
X87481000Y-100230064D01*
X87533326Y-100251738D01*
X87555000Y-100304064D01*
X87555000Y-100625000D01*
X88554999Y-100625000D01*
X88554999Y-100016789D01*
X88554998Y-100016775D01*
X88545087Y-99948749D01*
X88493786Y-99843811D01*
X88411189Y-99761214D01*
X88306249Y-99709912D01*
X88238223Y-99700000D01*
X88159064Y-99700000D01*
X88106738Y-99678326D01*
X88085064Y-99626000D01*
X88106738Y-99573674D01*
X88229419Y-99450993D01*
X88229422Y-99450992D01*
X88303989Y-99376425D01*
X88337664Y-99318096D01*
X88349414Y-99302783D01*
X88530025Y-99122174D01*
X88582351Y-99100500D01*
X94103455Y-99100500D01*
X94155781Y-99122174D01*
X94646114Y-99612506D01*
X94667788Y-99664832D01*
X94655000Y-99695705D01*
X94655000Y-100625000D01*
X94904999Y-100625000D01*
X94904999Y-100050043D01*
X94926673Y-99997717D01*
X94978999Y-99976043D01*
X95031325Y-99997717D01*
X95152826Y-100119218D01*
X95174500Y-100171544D01*
X95174500Y-101733264D01*
X95184427Y-101801393D01*
X95184427Y-101801394D01*
X95235801Y-101906482D01*
X95235802Y-101906483D01*
X95318517Y-101989198D01*
X95423607Y-102040573D01*
X95491740Y-102050500D01*
X95491746Y-102050500D01*
X95858254Y-102050500D01*
X95858260Y-102050500D01*
X95926393Y-102040573D01*
X96031483Y-101989198D01*
X96114198Y-101906483D01*
X96165573Y-101801393D01*
X96175500Y-101733260D01*
X96175500Y-101349500D01*
X96197174Y-101297174D01*
X96249500Y-101275500D01*
X96370500Y-101275500D01*
X96422826Y-101297174D01*
X96444500Y-101349500D01*
X96444500Y-101733264D01*
X96454427Y-101801393D01*
X96454427Y-101801394D01*
X96505801Y-101906482D01*
X96522826Y-101923507D01*
X96544500Y-101975833D01*
X96544500Y-103392273D01*
X96544500Y-103497727D01*
X96552896Y-103529062D01*
X96571793Y-103599588D01*
X96571795Y-103599592D01*
X96624517Y-103690909D01*
X96624518Y-103690910D01*
X96624520Y-103690913D01*
X96709734Y-103776127D01*
X96731408Y-103828453D01*
X96729986Y-103842889D01*
X96699500Y-103996158D01*
X96699500Y-104703840D01*
X96730261Y-104858491D01*
X96730264Y-104858501D01*
X96790603Y-105004174D01*
X96790605Y-105004177D01*
X96790606Y-105004179D01*
X96878211Y-105135289D01*
X96989711Y-105246789D01*
X97120821Y-105334394D01*
X97120826Y-105334396D01*
X97120825Y-105334396D01*
X97266498Y-105394735D01*
X97266503Y-105394737D01*
X97421158Y-105425500D01*
X97421160Y-105425500D01*
X97578840Y-105425500D01*
X97578842Y-105425500D01*
X97733497Y-105394737D01*
X97879179Y-105334394D01*
X98010289Y-105246789D01*
X98121789Y-105135289D01*
X98209394Y-105004179D01*
X98269737Y-104858497D01*
X98300500Y-104703842D01*
X98300500Y-103996158D01*
X98269737Y-103841503D01*
X98246047Y-103784310D01*
X98209396Y-103695825D01*
X98209395Y-103695823D01*
X98209394Y-103695821D01*
X98121789Y-103564711D01*
X98010289Y-103453211D01*
X97879179Y-103365606D01*
X97879175Y-103365604D01*
X97879173Y-103365603D01*
X97879174Y-103365603D01*
X97733501Y-103305264D01*
X97733491Y-103305261D01*
X97629925Y-103284661D01*
X97578842Y-103274500D01*
X97421158Y-103274500D01*
X97419500Y-103274500D01*
X97367174Y-103252826D01*
X97345500Y-103200500D01*
X97345500Y-101975833D01*
X97367174Y-101923507D01*
X97384198Y-101906483D01*
X97435573Y-101801393D01*
X97445500Y-101733260D01*
X97445500Y-101249500D01*
X97467174Y-101197174D01*
X97519500Y-101175500D01*
X97816524Y-101175500D01*
X97868850Y-101197174D01*
X97882458Y-101215905D01*
X97901470Y-101253217D01*
X97901470Y-101253218D01*
X97901471Y-101253219D01*
X97901472Y-101253220D01*
X97996780Y-101348528D01*
X98116874Y-101409719D01*
X98216511Y-101425500D01*
X98216512Y-101425500D01*
X98783489Y-101425500D01*
X98833307Y-101417609D01*
X98883126Y-101409719D01*
X99003220Y-101348528D01*
X99098528Y-101253220D01*
X99104307Y-101241876D01*
X99117542Y-101215905D01*
X99126593Y-101208174D01*
X99131150Y-101197174D01*
X99147310Y-101190480D01*
X99160609Y-101179122D01*
X99183476Y-101175500D01*
X99306845Y-101175500D01*
X99359171Y-101197174D01*
X99372778Y-101215903D01*
X99396950Y-101263342D01*
X99486658Y-101353050D01*
X99599696Y-101410646D01*
X99693481Y-101425500D01*
X100306518Y-101425499D01*
X100306519Y-101425499D01*
X100400304Y-101410646D01*
X100400306Y-101410645D01*
X100402419Y-101409568D01*
X100513342Y-101353050D01*
X100603050Y-101263342D01*
X100627221Y-101215903D01*
X100636273Y-101208172D01*
X100640829Y-101197174D01*
X100656988Y-101190480D01*
X100670288Y-101179122D01*
X100693155Y-101175500D01*
X100747273Y-101175500D01*
X100806845Y-101175500D01*
X100859171Y-101197174D01*
X100872778Y-101215903D01*
X100896950Y-101263342D01*
X100986658Y-101353050D01*
X101099696Y-101410646D01*
X101193481Y-101425500D01*
X101806518Y-101425499D01*
X101806519Y-101425499D01*
X101900304Y-101410646D01*
X101900306Y-101410645D01*
X101902419Y-101409568D01*
X102013342Y-101353050D01*
X102103050Y-101263342D01*
X102127221Y-101215903D01*
X102170288Y-101179122D01*
X102193155Y-101175500D01*
X105316524Y-101175500D01*
X105368850Y-101197174D01*
X105382458Y-101215905D01*
X105401470Y-101253217D01*
X105401470Y-101253218D01*
X105401471Y-101253219D01*
X105401472Y-101253220D01*
X105496780Y-101348528D01*
X105616874Y-101409719D01*
X105716511Y-101425500D01*
X105716512Y-101425500D01*
X106283489Y-101425500D01*
X106333307Y-101417609D01*
X106383126Y-101409719D01*
X106503220Y-101348528D01*
X106598528Y-101253220D01*
X106604307Y-101241876D01*
X106617542Y-101215905D01*
X106626593Y-101208174D01*
X106631150Y-101197174D01*
X106647310Y-101190480D01*
X106660609Y-101179122D01*
X106683476Y-101175500D01*
X106806845Y-101175500D01*
X106859171Y-101197174D01*
X106872778Y-101215903D01*
X106896950Y-101263342D01*
X106986658Y-101353050D01*
X107099696Y-101410646D01*
X107193481Y-101425500D01*
X107806518Y-101425499D01*
X107806519Y-101425499D01*
X107900304Y-101410646D01*
X107900306Y-101410645D01*
X107902419Y-101409568D01*
X108013342Y-101353050D01*
X108103050Y-101263342D01*
X108127221Y-101215903D01*
X108136273Y-101208172D01*
X108140829Y-101197174D01*
X108156988Y-101190480D01*
X108170288Y-101179122D01*
X108193155Y-101175500D01*
X108306845Y-101175500D01*
X108359171Y-101197174D01*
X108372778Y-101215903D01*
X108396950Y-101263342D01*
X108486658Y-101353050D01*
X108599696Y-101410646D01*
X108693481Y-101425500D01*
X109306518Y-101425499D01*
X109306519Y-101425499D01*
X109400304Y-101410646D01*
X109400306Y-101410645D01*
X109402419Y-101409568D01*
X109513342Y-101353050D01*
X109603050Y-101263342D01*
X109627221Y-101215903D01*
X109670288Y-101179122D01*
X109693155Y-101175500D01*
X115316524Y-101175500D01*
X115368850Y-101197174D01*
X115382458Y-101215905D01*
X115401470Y-101253217D01*
X115401470Y-101253218D01*
X115401471Y-101253219D01*
X115401472Y-101253220D01*
X115496780Y-101348528D01*
X115616874Y-101409719D01*
X115716511Y-101425500D01*
X115716512Y-101425500D01*
X116283489Y-101425500D01*
X116333307Y-101417609D01*
X116383126Y-101409719D01*
X116503220Y-101348528D01*
X116598528Y-101253220D01*
X116604307Y-101241876D01*
X116617542Y-101215905D01*
X116626593Y-101208174D01*
X116631150Y-101197174D01*
X116647310Y-101190480D01*
X116660609Y-101179122D01*
X116683476Y-101175500D01*
X116806845Y-101175500D01*
X116859171Y-101197174D01*
X116872778Y-101215903D01*
X116896950Y-101263342D01*
X116986658Y-101353050D01*
X117099696Y-101410646D01*
X117193481Y-101425500D01*
X117806518Y-101425499D01*
X117806519Y-101425499D01*
X117900304Y-101410646D01*
X117900306Y-101410645D01*
X117902419Y-101409568D01*
X118013342Y-101353050D01*
X118103050Y-101263342D01*
X118127221Y-101215903D01*
X118136273Y-101208172D01*
X118140829Y-101197174D01*
X118156988Y-101190480D01*
X118170288Y-101179122D01*
X118193155Y-101175500D01*
X118306845Y-101175500D01*
X118359171Y-101197174D01*
X118372778Y-101215903D01*
X118396950Y-101263342D01*
X118486658Y-101353050D01*
X118599696Y-101410646D01*
X118693481Y-101425500D01*
X119306518Y-101425499D01*
X119306519Y-101425499D01*
X119400304Y-101410646D01*
X119400306Y-101410645D01*
X119402419Y-101409568D01*
X119513342Y-101353050D01*
X119603050Y-101263342D01*
X119627221Y-101215903D01*
X119670288Y-101179122D01*
X119693155Y-101175500D01*
X125316524Y-101175500D01*
X125368850Y-101197174D01*
X125382458Y-101215905D01*
X125401470Y-101253217D01*
X125401470Y-101253218D01*
X125401471Y-101253219D01*
X125401472Y-101253220D01*
X125496780Y-101348528D01*
X125616874Y-101409719D01*
X125716511Y-101425500D01*
X125716512Y-101425500D01*
X126283489Y-101425500D01*
X126333307Y-101417609D01*
X126383126Y-101409719D01*
X126503220Y-101348528D01*
X126598528Y-101253220D01*
X126604307Y-101241876D01*
X126617542Y-101215905D01*
X126626593Y-101208174D01*
X126631150Y-101197174D01*
X126647310Y-101190480D01*
X126660609Y-101179122D01*
X126683476Y-101175500D01*
X126806845Y-101175500D01*
X126859171Y-101197174D01*
X126872778Y-101215903D01*
X126896950Y-101263342D01*
X126986658Y-101353050D01*
X127099696Y-101410646D01*
X127193481Y-101425500D01*
X127806518Y-101425499D01*
X127806519Y-101425499D01*
X127900304Y-101410646D01*
X127900306Y-101410645D01*
X127902419Y-101409568D01*
X128013342Y-101353050D01*
X128103050Y-101263342D01*
X128127221Y-101215903D01*
X128136273Y-101208172D01*
X128140829Y-101197174D01*
X128156988Y-101190480D01*
X128170288Y-101179122D01*
X128193155Y-101175500D01*
X128306845Y-101175500D01*
X128359171Y-101197174D01*
X128372778Y-101215903D01*
X128396950Y-101263342D01*
X128486658Y-101353050D01*
X128599696Y-101410646D01*
X128693481Y-101425500D01*
X129306518Y-101425499D01*
X129306519Y-101425499D01*
X129400304Y-101410646D01*
X129400306Y-101410645D01*
X129402419Y-101409568D01*
X129513342Y-101353050D01*
X129603050Y-101263342D01*
X129660646Y-101150304D01*
X129675500Y-101056519D01*
X129675499Y-100593482D01*
X129660646Y-100499696D01*
X129660646Y-100499695D01*
X129660645Y-100499693D01*
X129630770Y-100441061D01*
X129603050Y-100386658D01*
X129513342Y-100296950D01*
X129400304Y-100239354D01*
X129400302Y-100239353D01*
X129400301Y-100239353D01*
X129306519Y-100224500D01*
X128693480Y-100224500D01*
X128599695Y-100239353D01*
X128599693Y-100239354D01*
X128486657Y-100296950D01*
X128430782Y-100352826D01*
X128378456Y-100374500D01*
X128121544Y-100374500D01*
X128069218Y-100352826D01*
X128013343Y-100296951D01*
X128013342Y-100296950D01*
X127900304Y-100239354D01*
X127900302Y-100239353D01*
X127900301Y-100239353D01*
X127806519Y-100224500D01*
X127193480Y-100224500D01*
X127099695Y-100239353D01*
X127099693Y-100239354D01*
X126986657Y-100296950D01*
X126930782Y-100352826D01*
X126878456Y-100374500D01*
X126683476Y-100374500D01*
X126631150Y-100352826D01*
X126617542Y-100334095D01*
X126598529Y-100296782D01*
X126598529Y-100296781D01*
X126503219Y-100201471D01*
X126383126Y-100140281D01*
X126383125Y-100140280D01*
X126283489Y-100124500D01*
X126283488Y-100124500D01*
X125716512Y-100124500D01*
X125716511Y-100124500D01*
X125616874Y-100140280D01*
X125616873Y-100140281D01*
X125496780Y-100201471D01*
X125401470Y-100296781D01*
X125401470Y-100296782D01*
X125382458Y-100334095D01*
X125339391Y-100370878D01*
X125316524Y-100374500D01*
X119621544Y-100374500D01*
X119569218Y-100352826D01*
X119513343Y-100296951D01*
X119513342Y-100296950D01*
X119400304Y-100239354D01*
X119400302Y-100239353D01*
X119400301Y-100239353D01*
X119306519Y-100224500D01*
X118693480Y-100224500D01*
X118599695Y-100239353D01*
X118599693Y-100239354D01*
X118486657Y-100296950D01*
X118430782Y-100352826D01*
X118378456Y-100374500D01*
X118121544Y-100374500D01*
X118069218Y-100352826D01*
X118013343Y-100296951D01*
X118013342Y-100296950D01*
X117900304Y-100239354D01*
X117900302Y-100239353D01*
X117900301Y-100239353D01*
X117806519Y-100224500D01*
X117193480Y-100224500D01*
X117099695Y-100239353D01*
X117099693Y-100239354D01*
X116986657Y-100296950D01*
X116930782Y-100352826D01*
X116878456Y-100374500D01*
X116683476Y-100374500D01*
X116631150Y-100352826D01*
X116617542Y-100334095D01*
X116598529Y-100296782D01*
X116598529Y-100296781D01*
X116503219Y-100201471D01*
X116383126Y-100140281D01*
X116383125Y-100140280D01*
X116283489Y-100124500D01*
X116283488Y-100124500D01*
X115716512Y-100124500D01*
X115716511Y-100124500D01*
X115616874Y-100140280D01*
X115616873Y-100140281D01*
X115496780Y-100201471D01*
X115401470Y-100296781D01*
X115401470Y-100296782D01*
X115382458Y-100334095D01*
X115339391Y-100370878D01*
X115316524Y-100374500D01*
X109621544Y-100374500D01*
X109569218Y-100352826D01*
X109513343Y-100296951D01*
X109513342Y-100296950D01*
X109400304Y-100239354D01*
X109400302Y-100239353D01*
X109400301Y-100239353D01*
X109306519Y-100224500D01*
X108693480Y-100224500D01*
X108599695Y-100239353D01*
X108599693Y-100239354D01*
X108486657Y-100296950D01*
X108430782Y-100352826D01*
X108378456Y-100374500D01*
X108121544Y-100374500D01*
X108069218Y-100352826D01*
X108013343Y-100296951D01*
X108013342Y-100296950D01*
X107900304Y-100239354D01*
X107900302Y-100239353D01*
X107900301Y-100239353D01*
X107806519Y-100224500D01*
X107193480Y-100224500D01*
X107099695Y-100239353D01*
X107099693Y-100239354D01*
X106986657Y-100296950D01*
X106930782Y-100352826D01*
X106878456Y-100374500D01*
X106683476Y-100374500D01*
X106631150Y-100352826D01*
X106617542Y-100334095D01*
X106598529Y-100296782D01*
X106598529Y-100296781D01*
X106503219Y-100201471D01*
X106383126Y-100140281D01*
X106383125Y-100140280D01*
X106283489Y-100124500D01*
X106283488Y-100124500D01*
X105716512Y-100124500D01*
X105716511Y-100124500D01*
X105616874Y-100140280D01*
X105616873Y-100140281D01*
X105496780Y-100201471D01*
X105401470Y-100296781D01*
X105401470Y-100296782D01*
X105382458Y-100334095D01*
X105339391Y-100370878D01*
X105316524Y-100374500D01*
X102121544Y-100374500D01*
X102069218Y-100352826D01*
X102013343Y-100296951D01*
X102013342Y-100296950D01*
X101900304Y-100239354D01*
X101900302Y-100239353D01*
X101900301Y-100239353D01*
X101806519Y-100224500D01*
X101193480Y-100224500D01*
X101099695Y-100239353D01*
X101099693Y-100239354D01*
X100986657Y-100296950D01*
X100930782Y-100352826D01*
X100878456Y-100374500D01*
X100621544Y-100374500D01*
X100569218Y-100352826D01*
X100513343Y-100296951D01*
X100513342Y-100296950D01*
X100400304Y-100239354D01*
X100400302Y-100239353D01*
X100400301Y-100239353D01*
X100306519Y-100224500D01*
X99693480Y-100224500D01*
X99599695Y-100239353D01*
X99599693Y-100239354D01*
X99486657Y-100296950D01*
X99430782Y-100352826D01*
X99378456Y-100374500D01*
X99183476Y-100374500D01*
X99131150Y-100352826D01*
X99117542Y-100334095D01*
X99098529Y-100296782D01*
X99098529Y-100296781D01*
X99003219Y-100201471D01*
X98883126Y-100140281D01*
X98883125Y-100140280D01*
X98783489Y-100124500D01*
X98783488Y-100124500D01*
X98216512Y-100124500D01*
X98216511Y-100124500D01*
X98116874Y-100140280D01*
X98116873Y-100140281D01*
X97996780Y-100201471D01*
X97901470Y-100296781D01*
X97901470Y-100296782D01*
X97882458Y-100334095D01*
X97839391Y-100370878D01*
X97816524Y-100374500D01*
X97519500Y-100374500D01*
X97467174Y-100352826D01*
X97445500Y-100300500D01*
X97445500Y-100016746D01*
X97445500Y-100016740D01*
X97435573Y-99948607D01*
X97384198Y-99843517D01*
X97301483Y-99760802D01*
X97301482Y-99760801D01*
X97196394Y-99709427D01*
X97128264Y-99699500D01*
X97128260Y-99699500D01*
X96761740Y-99699500D01*
X96761735Y-99699500D01*
X96693606Y-99709427D01*
X96693605Y-99709427D01*
X96588517Y-99760801D01*
X96505801Y-99843517D01*
X96454427Y-99948605D01*
X96454427Y-99948606D01*
X96444500Y-100016735D01*
X96444500Y-100400500D01*
X96422826Y-100452826D01*
X96370500Y-100474500D01*
X96249500Y-100474500D01*
X96197174Y-100452826D01*
X96175500Y-100400500D01*
X96175500Y-100016746D01*
X96175500Y-100016740D01*
X96165573Y-99948607D01*
X96114198Y-99843517D01*
X96031483Y-99760802D01*
X96031482Y-99760801D01*
X95926395Y-99709428D01*
X95926393Y-99709427D01*
X95891486Y-99704340D01*
X95849832Y-99683440D01*
X95649843Y-99483451D01*
X97825001Y-99483451D01*
X97840761Y-99582969D01*
X97840762Y-99582971D01*
X97901882Y-99702923D01*
X97997078Y-99798119D01*
X98117030Y-99859237D01*
X98117031Y-99859238D01*
X98216547Y-99874999D01*
X98750000Y-99874999D01*
X98783451Y-99874999D01*
X98882969Y-99859238D01*
X98882971Y-99859237D01*
X99002923Y-99798117D01*
X99098119Y-99702921D01*
X99159237Y-99582969D01*
X99159238Y-99582968D01*
X99175000Y-99483451D01*
X99175000Y-99475000D01*
X98750000Y-99475000D01*
X98750000Y-99874999D01*
X98216547Y-99874999D01*
X98249999Y-99874998D01*
X98250000Y-99874998D01*
X98250000Y-99475000D01*
X97825001Y-99475000D01*
X97825001Y-99483451D01*
X95649843Y-99483451D01*
X95232781Y-99066389D01*
X95132940Y-98966548D01*
X97825000Y-98966548D01*
X97825000Y-98975000D01*
X98250000Y-98975000D01*
X98250000Y-98575000D01*
X98249999Y-98574999D01*
X98216549Y-98575000D01*
X98216547Y-98575001D01*
X98117030Y-98590761D01*
X98117028Y-98590762D01*
X97997076Y-98651882D01*
X97901880Y-98747078D01*
X97840762Y-98867030D01*
X97840761Y-98867031D01*
X97825000Y-98966548D01*
X95132940Y-98966548D01*
X94596217Y-98429824D01*
X94574544Y-98377500D01*
X94596218Y-98325174D01*
X94648544Y-98303500D01*
X98647877Y-98303500D01*
X98700203Y-98325174D01*
X98823703Y-98448674D01*
X98845377Y-98501000D01*
X98823703Y-98553326D01*
X98771377Y-98575000D01*
X98750000Y-98575000D01*
X98750000Y-98975000D01*
X99036534Y-98975000D01*
X99088860Y-98996674D01*
X99092686Y-99000500D01*
X99206814Y-99066392D01*
X99269653Y-99083229D01*
X99314586Y-99117706D01*
X99324500Y-99154707D01*
X99324500Y-99406519D01*
X99339353Y-99500304D01*
X99339354Y-99500306D01*
X99381474Y-99582969D01*
X99396950Y-99613342D01*
X99486658Y-99703050D01*
X99599696Y-99760646D01*
X99693481Y-99775500D01*
X100306518Y-99775499D01*
X100306519Y-99775499D01*
X100400304Y-99760646D01*
X100400306Y-99760645D01*
X100402419Y-99759568D01*
X100513342Y-99703050D01*
X100603050Y-99613342D01*
X100660646Y-99500304D01*
X100675500Y-99406519D01*
X100675499Y-98943482D01*
X100663391Y-98867031D01*
X100660646Y-98849695D01*
X100660645Y-98849693D01*
X100603049Y-98736657D01*
X100513343Y-98646951D01*
X100513342Y-98646950D01*
X100400304Y-98589354D01*
X100400302Y-98589353D01*
X100400301Y-98589353D01*
X100306520Y-98574500D01*
X100306519Y-98574500D01*
X99971545Y-98574500D01*
X99919219Y-98552826D01*
X99914519Y-98548126D01*
X99895367Y-98514954D01*
X99866392Y-98406814D01*
X99800500Y-98292686D01*
X99707314Y-98199500D01*
X99691106Y-98190142D01*
X99593190Y-98133610D01*
X99593181Y-98133606D01*
X99465894Y-98099500D01*
X99465892Y-98099500D01*
X99355123Y-98099500D01*
X99302797Y-98077826D01*
X99053797Y-97828826D01*
X99032123Y-97776500D01*
X99053797Y-97724174D01*
X99106123Y-97702500D01*
X101257728Y-97702500D01*
X101310054Y-97724174D01*
X101331728Y-97776500D01*
X101310054Y-97828826D01*
X101294728Y-97840586D01*
X101192685Y-97899500D01*
X101099500Y-97992685D01*
X101033610Y-98106809D01*
X101033606Y-98106818D01*
X100999500Y-98234105D01*
X100999500Y-98365894D01*
X101033606Y-98493181D01*
X101033610Y-98493190D01*
X101052542Y-98525981D01*
X101059934Y-98582134D01*
X101025456Y-98627067D01*
X101022052Y-98628915D01*
X100986658Y-98646949D01*
X100896951Y-98736656D01*
X100839353Y-98849698D01*
X100824500Y-98943480D01*
X100824500Y-99406519D01*
X100839353Y-99500304D01*
X100839354Y-99500306D01*
X100881474Y-99582969D01*
X100896950Y-99613342D01*
X100986658Y-99703050D01*
X101099696Y-99760646D01*
X101193481Y-99775500D01*
X101806518Y-99775499D01*
X101806519Y-99775499D01*
X101900304Y-99760646D01*
X101900306Y-99760645D01*
X101902419Y-99759568D01*
X102013342Y-99703050D01*
X102103050Y-99613342D01*
X102160646Y-99500304D01*
X102163315Y-99483451D01*
X105325001Y-99483451D01*
X105340761Y-99582969D01*
X105340762Y-99582971D01*
X105401882Y-99702923D01*
X105497078Y-99798119D01*
X105617030Y-99859237D01*
X105617031Y-99859238D01*
X105716547Y-99874999D01*
X106250000Y-99874999D01*
X106283451Y-99874999D01*
X106382969Y-99859238D01*
X106382971Y-99859237D01*
X106502923Y-99798117D01*
X106598119Y-99702921D01*
X106659237Y-99582969D01*
X106659238Y-99582968D01*
X106675000Y-99483451D01*
X106675000Y-99475000D01*
X106250000Y-99475000D01*
X106250000Y-99874999D01*
X105716547Y-99874999D01*
X105749999Y-99874998D01*
X105750000Y-99874998D01*
X105750000Y-99475000D01*
X105325001Y-99475000D01*
X105325001Y-99483451D01*
X102163315Y-99483451D01*
X102175500Y-99406519D01*
X102175499Y-98966548D01*
X105325000Y-98966548D01*
X105325000Y-98975000D01*
X105750000Y-98975000D01*
X106250000Y-98975000D01*
X106674999Y-98975000D01*
X106674999Y-98966548D01*
X106659238Y-98867030D01*
X106659237Y-98867028D01*
X106598117Y-98747076D01*
X106502921Y-98651880D01*
X106382969Y-98590762D01*
X106382968Y-98590761D01*
X106283452Y-98575000D01*
X106250000Y-98575000D01*
X106250000Y-98975000D01*
X105750000Y-98975000D01*
X105750000Y-98575000D01*
X105749999Y-98574999D01*
X105716549Y-98575000D01*
X105716547Y-98575001D01*
X105617030Y-98590761D01*
X105617028Y-98590762D01*
X105497076Y-98651882D01*
X105401880Y-98747078D01*
X105340762Y-98867030D01*
X105340761Y-98867031D01*
X105325000Y-98966548D01*
X102175499Y-98966548D01*
X102175499Y-98943482D01*
X102163391Y-98867031D01*
X102160646Y-98849695D01*
X102160645Y-98849693D01*
X102103049Y-98736657D01*
X102013342Y-98646950D01*
X101977947Y-98628915D01*
X101941165Y-98585848D01*
X101945609Y-98529385D01*
X101947458Y-98525980D01*
X101965388Y-98494925D01*
X101966392Y-98493186D01*
X102000500Y-98365892D01*
X102000500Y-98234108D01*
X102000500Y-98234106D01*
X102000499Y-98234105D01*
X101998193Y-98225500D01*
X101966392Y-98106814D01*
X101900500Y-97992686D01*
X101807314Y-97899500D01*
X101705271Y-97840585D01*
X101670793Y-97795653D01*
X101678186Y-97739500D01*
X101723119Y-97705021D01*
X101742272Y-97702500D01*
X106938325Y-97702500D01*
X106990651Y-97724174D01*
X107012325Y-97776500D01*
X107009804Y-97795652D01*
X106999500Y-97834108D01*
X106999500Y-97965894D01*
X107033606Y-98093181D01*
X107033610Y-98093190D01*
X107089586Y-98190142D01*
X107099500Y-98227142D01*
X107099500Y-98544106D01*
X107077826Y-98596432D01*
X107059096Y-98610040D01*
X106986657Y-98646950D01*
X106896951Y-98736656D01*
X106839353Y-98849698D01*
X106824500Y-98943480D01*
X106824500Y-99406519D01*
X106839353Y-99500304D01*
X106839354Y-99500306D01*
X106881474Y-99582969D01*
X106896950Y-99613342D01*
X106986658Y-99703050D01*
X107099696Y-99760646D01*
X107193481Y-99775500D01*
X107806518Y-99775499D01*
X107806519Y-99775499D01*
X107900304Y-99760646D01*
X107900306Y-99760645D01*
X107902419Y-99759568D01*
X108013342Y-99703050D01*
X108103050Y-99613342D01*
X108160646Y-99500304D01*
X108175500Y-99406519D01*
X108175499Y-98943482D01*
X108163391Y-98867031D01*
X108160646Y-98849695D01*
X108160645Y-98849693D01*
X108103049Y-98736657D01*
X108013342Y-98646950D01*
X107940904Y-98610040D01*
X107904122Y-98566972D01*
X107900500Y-98544106D01*
X107900500Y-98227142D01*
X107910414Y-98190142D01*
X107916147Y-98180212D01*
X107966392Y-98093186D01*
X108000499Y-97965894D01*
X108000500Y-97965894D01*
X108000500Y-97834106D01*
X108000499Y-97834105D01*
X107999352Y-97829826D01*
X107966392Y-97706814D01*
X107900500Y-97592686D01*
X107807314Y-97499500D01*
X107703539Y-97439585D01*
X107669061Y-97394653D01*
X107676454Y-97338500D01*
X107721387Y-97304021D01*
X107740540Y-97301500D01*
X109059460Y-97301500D01*
X109111786Y-97323174D01*
X109133460Y-97375500D01*
X109111786Y-97427826D01*
X109096460Y-97439586D01*
X108992685Y-97499500D01*
X108899500Y-97592685D01*
X108833608Y-97706812D01*
X108833606Y-97706817D01*
X108804631Y-97814953D01*
X108785479Y-97848125D01*
X108679522Y-97954083D01*
X108679519Y-97954087D01*
X108626793Y-98045410D01*
X108620501Y-98068894D01*
X108599998Y-98145413D01*
X108599500Y-98147273D01*
X108599500Y-98147274D01*
X108599500Y-98544106D01*
X108577826Y-98596432D01*
X108559096Y-98610040D01*
X108486657Y-98646950D01*
X108396951Y-98736656D01*
X108339353Y-98849698D01*
X108324500Y-98943480D01*
X108324500Y-99406519D01*
X108339353Y-99500304D01*
X108339354Y-99500306D01*
X108381474Y-99582969D01*
X108396950Y-99613342D01*
X108486658Y-99703050D01*
X108599696Y-99760646D01*
X108693481Y-99775500D01*
X109306518Y-99775499D01*
X109306519Y-99775499D01*
X109400304Y-99760646D01*
X109400306Y-99760645D01*
X109402419Y-99759568D01*
X109513342Y-99703050D01*
X109603050Y-99613342D01*
X109660646Y-99500304D01*
X109663315Y-99483451D01*
X115325001Y-99483451D01*
X115340761Y-99582969D01*
X115340762Y-99582971D01*
X115401882Y-99702923D01*
X115497078Y-99798119D01*
X115617030Y-99859237D01*
X115617031Y-99859238D01*
X115716547Y-99874999D01*
X116250000Y-99874999D01*
X116283451Y-99874999D01*
X116382969Y-99859238D01*
X116382971Y-99859237D01*
X116502923Y-99798117D01*
X116598119Y-99702921D01*
X116659237Y-99582969D01*
X116659238Y-99582968D01*
X116675000Y-99483451D01*
X116675000Y-99475000D01*
X116250000Y-99475000D01*
X116250000Y-99874999D01*
X115716547Y-99874999D01*
X115749999Y-99874998D01*
X115750000Y-99874998D01*
X115750000Y-99475000D01*
X115325001Y-99475000D01*
X115325001Y-99483451D01*
X109663315Y-99483451D01*
X109675500Y-99406519D01*
X109675499Y-98966548D01*
X115325000Y-98966548D01*
X115325000Y-98975000D01*
X115750000Y-98975000D01*
X116250000Y-98975000D01*
X116674999Y-98975000D01*
X116674999Y-98966548D01*
X116659238Y-98867030D01*
X116659237Y-98867028D01*
X116598117Y-98747076D01*
X116502921Y-98651880D01*
X116382969Y-98590762D01*
X116382968Y-98590761D01*
X116283452Y-98575000D01*
X116250000Y-98575000D01*
X116250000Y-98975000D01*
X115750000Y-98975000D01*
X115750000Y-98575000D01*
X115749999Y-98574999D01*
X115716549Y-98575000D01*
X115716547Y-98575001D01*
X115617030Y-98590761D01*
X115617028Y-98590762D01*
X115497076Y-98651882D01*
X115401880Y-98747078D01*
X115340762Y-98867030D01*
X115340761Y-98867031D01*
X115325000Y-98966548D01*
X109675499Y-98966548D01*
X109675499Y-98943482D01*
X109663391Y-98867031D01*
X109660646Y-98849695D01*
X109660645Y-98849693D01*
X109603049Y-98736657D01*
X109513342Y-98646950D01*
X109440904Y-98610040D01*
X109433173Y-98600987D01*
X109422174Y-98596432D01*
X109415479Y-98580270D01*
X109404122Y-98566972D01*
X109400500Y-98544106D01*
X109400500Y-98448008D01*
X109422174Y-98395682D01*
X109455345Y-98376530D01*
X109493186Y-98366392D01*
X109607314Y-98300500D01*
X109700500Y-98207314D01*
X109766392Y-98093186D01*
X109800499Y-97965894D01*
X109800500Y-97965894D01*
X109800500Y-97834106D01*
X109800499Y-97834105D01*
X109799352Y-97829826D01*
X109766392Y-97706814D01*
X109700500Y-97592686D01*
X109607314Y-97499500D01*
X109503539Y-97439585D01*
X109469061Y-97394653D01*
X109476454Y-97338500D01*
X109521387Y-97304021D01*
X109540540Y-97301500D01*
X116945877Y-97301500D01*
X116998203Y-97323174D01*
X117131281Y-97456252D01*
X117152955Y-97508578D01*
X117131282Y-97560903D01*
X117099500Y-97592685D01*
X117033610Y-97706809D01*
X117033606Y-97706818D01*
X116999500Y-97834105D01*
X116999500Y-97965894D01*
X117033606Y-98093181D01*
X117033610Y-98093190D01*
X117089586Y-98190142D01*
X117099500Y-98227142D01*
X117099500Y-98544106D01*
X117077826Y-98596432D01*
X117059096Y-98610040D01*
X116986657Y-98646950D01*
X116896951Y-98736656D01*
X116839353Y-98849698D01*
X116824500Y-98943480D01*
X116824500Y-99406519D01*
X116839353Y-99500304D01*
X116839354Y-99500306D01*
X116881474Y-99582969D01*
X116896950Y-99613342D01*
X116986658Y-99703050D01*
X117099696Y-99760646D01*
X117193481Y-99775500D01*
X117806518Y-99775499D01*
X117806519Y-99775499D01*
X117900304Y-99760646D01*
X117900306Y-99760645D01*
X117902419Y-99759568D01*
X118013342Y-99703050D01*
X118103050Y-99613342D01*
X118160646Y-99500304D01*
X118175500Y-99406519D01*
X118175499Y-98943482D01*
X118175499Y-98943480D01*
X118324500Y-98943480D01*
X118324500Y-99406519D01*
X118339353Y-99500304D01*
X118339354Y-99500306D01*
X118381474Y-99582969D01*
X118396950Y-99613342D01*
X118486658Y-99703050D01*
X118599696Y-99760646D01*
X118693481Y-99775500D01*
X119306518Y-99775499D01*
X119306519Y-99775499D01*
X119400304Y-99760646D01*
X119400306Y-99760645D01*
X119402419Y-99759568D01*
X119513342Y-99703050D01*
X119603050Y-99613342D01*
X119660646Y-99500304D01*
X119663315Y-99483451D01*
X125325001Y-99483451D01*
X125340761Y-99582969D01*
X125340762Y-99582971D01*
X125401882Y-99702923D01*
X125497078Y-99798119D01*
X125617030Y-99859237D01*
X125617031Y-99859238D01*
X125716547Y-99874999D01*
X126250000Y-99874999D01*
X126283451Y-99874999D01*
X126382969Y-99859238D01*
X126382971Y-99859237D01*
X126502923Y-99798117D01*
X126598119Y-99702921D01*
X126659237Y-99582969D01*
X126659238Y-99582968D01*
X126675000Y-99483451D01*
X126675000Y-99475000D01*
X126250000Y-99475000D01*
X126250000Y-99874999D01*
X125716547Y-99874999D01*
X125749999Y-99874998D01*
X125750000Y-99874998D01*
X125750000Y-99475000D01*
X125325001Y-99475000D01*
X125325001Y-99483451D01*
X119663315Y-99483451D01*
X119675500Y-99406519D01*
X119675499Y-98966548D01*
X125325000Y-98966548D01*
X125325000Y-98975000D01*
X125750000Y-98975000D01*
X126250000Y-98975000D01*
X126674999Y-98975000D01*
X126674999Y-98966548D01*
X126659238Y-98867030D01*
X126659237Y-98867028D01*
X126598117Y-98747076D01*
X126502921Y-98651880D01*
X126382969Y-98590762D01*
X126382968Y-98590761D01*
X126283452Y-98575000D01*
X126250000Y-98575000D01*
X126250000Y-98975000D01*
X125750000Y-98975000D01*
X125750000Y-98575000D01*
X125749999Y-98574999D01*
X125716549Y-98575000D01*
X125716547Y-98575001D01*
X125617030Y-98590761D01*
X125617028Y-98590762D01*
X125497076Y-98651882D01*
X125401880Y-98747078D01*
X125340762Y-98867030D01*
X125340761Y-98867031D01*
X125325000Y-98966548D01*
X119675499Y-98966548D01*
X119675499Y-98943482D01*
X119663391Y-98867031D01*
X119660646Y-98849695D01*
X119660645Y-98849693D01*
X119603049Y-98736657D01*
X119513342Y-98646950D01*
X119440904Y-98610040D01*
X119433173Y-98600987D01*
X119422174Y-98596432D01*
X119415479Y-98580270D01*
X119404122Y-98566972D01*
X119400500Y-98544106D01*
X119400500Y-98448008D01*
X119422174Y-98395682D01*
X119455345Y-98376530D01*
X119493186Y-98366392D01*
X119607314Y-98300500D01*
X119700500Y-98207314D01*
X119766392Y-98093186D01*
X119800499Y-97965894D01*
X119800500Y-97965894D01*
X119800500Y-97834106D01*
X119800499Y-97834105D01*
X119799352Y-97829826D01*
X119766392Y-97706814D01*
X119700500Y-97592686D01*
X119607314Y-97499500D01*
X119542421Y-97462034D01*
X119493190Y-97433610D01*
X119493181Y-97433606D01*
X119365894Y-97399500D01*
X119365892Y-97399500D01*
X119234108Y-97399500D01*
X119234106Y-97399500D01*
X119106818Y-97433606D01*
X119106809Y-97433610D01*
X118992685Y-97499500D01*
X118899500Y-97592685D01*
X118833608Y-97706812D01*
X118833606Y-97706817D01*
X118804631Y-97814953D01*
X118785479Y-97848125D01*
X118679522Y-97954083D01*
X118679519Y-97954087D01*
X118626793Y-98045410D01*
X118620501Y-98068894D01*
X118599998Y-98145413D01*
X118599500Y-98147273D01*
X118599500Y-98147274D01*
X118599500Y-98544106D01*
X118577826Y-98596432D01*
X118559096Y-98610040D01*
X118486657Y-98646950D01*
X118396951Y-98736656D01*
X118339353Y-98849698D01*
X118324500Y-98943480D01*
X118175499Y-98943480D01*
X118163391Y-98867031D01*
X118160646Y-98849695D01*
X118160645Y-98849693D01*
X118103049Y-98736657D01*
X118013342Y-98646950D01*
X117940904Y-98610040D01*
X117904122Y-98566972D01*
X117900500Y-98544106D01*
X117900500Y-98227142D01*
X117910414Y-98190142D01*
X117916147Y-98180212D01*
X117966392Y-98093186D01*
X118000499Y-97965894D01*
X118000500Y-97965894D01*
X118000500Y-97834106D01*
X118000499Y-97834105D01*
X117999352Y-97829826D01*
X117966392Y-97706814D01*
X117900500Y-97592686D01*
X117822174Y-97514360D01*
X117800500Y-97462034D01*
X117800500Y-97360436D01*
X117800499Y-97360435D01*
X117794889Y-97339500D01*
X117780021Y-97284011D01*
X117740460Y-97215489D01*
X117684511Y-97159540D01*
X117551797Y-97026826D01*
X117530123Y-96974500D01*
X117551797Y-96922174D01*
X117604123Y-96900500D01*
X126544877Y-96900500D01*
X126597203Y-96922174D01*
X127131281Y-97456252D01*
X127152955Y-97508578D01*
X127131282Y-97560903D01*
X127099500Y-97592685D01*
X127033610Y-97706809D01*
X127033606Y-97706818D01*
X126999500Y-97834105D01*
X126999500Y-97965894D01*
X127033606Y-98093181D01*
X127033610Y-98093190D01*
X127089586Y-98190142D01*
X127099500Y-98227142D01*
X127099500Y-98544106D01*
X127077826Y-98596432D01*
X127059096Y-98610040D01*
X126986657Y-98646950D01*
X126896951Y-98736656D01*
X126839353Y-98849698D01*
X126824500Y-98943480D01*
X126824500Y-99406519D01*
X126839353Y-99500304D01*
X126839354Y-99500306D01*
X126881474Y-99582969D01*
X126896950Y-99613342D01*
X126986658Y-99703050D01*
X127099696Y-99760646D01*
X127193481Y-99775500D01*
X127806518Y-99775499D01*
X127806519Y-99775499D01*
X127900304Y-99760646D01*
X127900306Y-99760645D01*
X127902419Y-99759568D01*
X128013342Y-99703050D01*
X128103050Y-99613342D01*
X128160646Y-99500304D01*
X128175500Y-99406519D01*
X128175499Y-98943482D01*
X128175499Y-98943480D01*
X128324500Y-98943480D01*
X128324500Y-99406519D01*
X128339353Y-99500304D01*
X128339354Y-99500306D01*
X128381474Y-99582969D01*
X128396950Y-99613342D01*
X128486658Y-99703050D01*
X128599696Y-99760646D01*
X128693481Y-99775500D01*
X129306518Y-99775499D01*
X129306519Y-99775499D01*
X129400304Y-99760646D01*
X129400306Y-99760645D01*
X129402419Y-99759568D01*
X129513342Y-99703050D01*
X129603050Y-99613342D01*
X129660646Y-99500304D01*
X129675500Y-99406519D01*
X129675499Y-98943482D01*
X129663391Y-98867031D01*
X129660646Y-98849695D01*
X129660645Y-98849693D01*
X129603049Y-98736657D01*
X129513342Y-98646950D01*
X129440904Y-98610040D01*
X129433173Y-98600987D01*
X129422174Y-98596432D01*
X129415479Y-98580270D01*
X129404122Y-98566972D01*
X129400500Y-98544106D01*
X129400500Y-98448008D01*
X129422174Y-98395682D01*
X129455345Y-98376530D01*
X129493186Y-98366392D01*
X129607314Y-98300500D01*
X129700500Y-98207314D01*
X129766392Y-98093186D01*
X129800499Y-97965894D01*
X129800500Y-97965894D01*
X129800500Y-97834106D01*
X129800499Y-97834105D01*
X129799352Y-97829826D01*
X129766392Y-97706814D01*
X129700500Y-97592686D01*
X129607314Y-97499500D01*
X129542421Y-97462034D01*
X129493190Y-97433610D01*
X129493181Y-97433606D01*
X129365894Y-97399500D01*
X129365892Y-97399500D01*
X129234108Y-97399500D01*
X129234106Y-97399500D01*
X129106818Y-97433606D01*
X129106809Y-97433610D01*
X128992685Y-97499500D01*
X128899500Y-97592685D01*
X128833608Y-97706812D01*
X128833606Y-97706817D01*
X128804631Y-97814953D01*
X128785479Y-97848125D01*
X128679522Y-97954083D01*
X128679519Y-97954087D01*
X128626793Y-98045410D01*
X128620501Y-98068894D01*
X128599998Y-98145413D01*
X128599500Y-98147273D01*
X128599500Y-98147274D01*
X128599500Y-98544106D01*
X128577826Y-98596432D01*
X128559096Y-98610040D01*
X128486657Y-98646950D01*
X128396951Y-98736656D01*
X128339353Y-98849698D01*
X128324500Y-98943480D01*
X128175499Y-98943480D01*
X128163391Y-98867031D01*
X128160646Y-98849695D01*
X128160645Y-98849693D01*
X128103049Y-98736657D01*
X128013342Y-98646950D01*
X127940904Y-98610040D01*
X127904122Y-98566972D01*
X127900500Y-98544106D01*
X127900500Y-98227142D01*
X127910414Y-98190142D01*
X127916147Y-98180212D01*
X127966392Y-98093186D01*
X128000499Y-97965894D01*
X128000500Y-97965894D01*
X128000500Y-97834106D01*
X128000499Y-97834105D01*
X127999352Y-97829826D01*
X127966392Y-97706814D01*
X127900500Y-97592686D01*
X127822174Y-97514360D01*
X127800500Y-97462034D01*
X127800500Y-97360436D01*
X127800499Y-97360435D01*
X127794889Y-97339500D01*
X127780021Y-97284011D01*
X127740460Y-97215489D01*
X127684511Y-97159540D01*
X127151797Y-96626826D01*
X127130123Y-96574500D01*
X127151797Y-96522174D01*
X127204123Y-96500500D01*
X127434108Y-96500500D01*
X127498054Y-96500500D01*
X127501927Y-96500601D01*
G37*
%TD.AperFunction*%
%TA.AperFunction,Conductor*%
G36*
X87532826Y-95022174D02*
G01*
X87554500Y-95074500D01*
X87554500Y-95969877D01*
X87532826Y-96022203D01*
X87276203Y-96278826D01*
X87223877Y-96300500D01*
X82646626Y-96300500D01*
X82594300Y-96278826D01*
X82572626Y-96226500D01*
X82594300Y-96174174D01*
X82703823Y-96064651D01*
X82703828Y-96064646D01*
X82819524Y-95905405D01*
X82908884Y-95730025D01*
X82969709Y-95542826D01*
X83000500Y-95348417D01*
X83000500Y-95255823D01*
X83001411Y-95244248D01*
X83001496Y-95243707D01*
X83010878Y-95184472D01*
X83018030Y-95162460D01*
X83042831Y-95113786D01*
X83056433Y-95095064D01*
X83095064Y-95056433D01*
X83113786Y-95042831D01*
X83162460Y-95018030D01*
X83184472Y-95010878D01*
X83231552Y-95003421D01*
X83244249Y-95001411D01*
X83255824Y-95000500D01*
X83315892Y-95000500D01*
X87480500Y-95000500D01*
X87532826Y-95022174D01*
G37*
%TD.AperFunction*%
%TA.AperFunction,Conductor*%
G36*
X101755751Y-95001411D02*
G01*
X101771725Y-95003940D01*
X101815525Y-95010877D01*
X101837540Y-95018031D01*
X101886210Y-95042829D01*
X101904938Y-95056436D01*
X101943563Y-95095061D01*
X101957171Y-95113791D01*
X101981967Y-95162455D01*
X101989122Y-95184475D01*
X101998589Y-95244247D01*
X101999500Y-95255823D01*
X101999500Y-95348417D01*
X102030290Y-95542823D01*
X102030293Y-95542836D01*
X102091113Y-95730019D01*
X102166804Y-95878573D01*
X102180476Y-95905405D01*
X102296172Y-96064646D01*
X102296177Y-96064651D01*
X102404700Y-96173174D01*
X102426374Y-96225500D01*
X102404700Y-96277826D01*
X102352374Y-96299500D01*
X97775123Y-96299500D01*
X97722797Y-96277826D01*
X97467174Y-96022203D01*
X97445500Y-95969877D01*
X97445500Y-95074500D01*
X97467174Y-95022174D01*
X97519500Y-95000500D01*
X101684108Y-95000500D01*
X101744176Y-95000500D01*
X101755751Y-95001411D01*
G37*
%TD.AperFunction*%
%TD*%
M02*
