M48
; DRILL file {KiCad 9.0.4-9.0.4-0~ubuntu25.04.1} date 2025-10-24T07:51:51+0200
; FORMAT={-:-/ absolute / metric / decimal}
; #@! TF.CreationDate,2025-10-24T07:51:51+02:00
; #@! TF.GenerationSoftware,Kicad,Pcbnew,9.0.4-9.0.4-0~ubuntu25.04.1
; #@! TF.FileFunction,Plated,1,2,PTH
FMAT,2
METRIC
; #@! TA.AperFunction,Plated,PTH,ViaDrill
T1C0.300
; #@! TA.AperFunction,Plated,PTH,ComponentDrill
T2C0.750
; #@! TA.AperFunction,Plated,PTH,ComponentDrill
T3C2.200
%
G90
G05
T1
X55.0Y-99.2
X57.5Y-97.9
X57.5Y-102.1
X59.3Y-97.9
X65.0Y-99.2
X67.5Y-97.9
X67.5Y-102.1
X69.3Y-97.9
X75.0Y-99.2
X77.5Y-97.9
X77.5Y-102.1
X79.3Y-98.003
X82.5Y-99.2
X83.2Y-106.8
X83.3Y-95.3
X85.4Y-98.1
X87.2Y-95.3
X87.217Y-98.905
X87.5Y-102.1
X88.7Y-99.5
X93.8Y-99.5
X95.5Y-102.8
X97.4Y-99.4
X97.7Y-102.7
X97.8Y-95.3
X99.4Y-98.6
X100.8Y-104.8
X101.5Y-98.3
X101.7Y-95.3
X105.0Y-99.2
X107.5Y-97.9
X107.5Y-102.1
X109.3Y-97.9
X115.0Y-99.2
X117.5Y-97.9
X117.5Y-102.1
X119.3Y-97.9
X125.0Y-99.2
X127.5Y-97.9
X127.5Y-102.1
X129.3Y-97.9
T2
X87.5Y-104.35
X89.5Y-104.35
X91.5Y-104.35
X93.5Y-104.35
X95.5Y-104.35
X97.5Y-104.35
T3
X81.0Y-104.7
X104.0Y-104.7
M30
